<svg width="64" height="64" viewBox="0 0 64 64" fill="none" xmlns="http://www.w3.org/2000/svg">
<g clip-path="url(#clip0_156_1132)">
<rect width="64" height="64" fill="#621495"/>
<rect width="64" height="64" rx="6" fill="#621495"/>
<path d="M24.9883 39H21.7483L20.6443 35.736H13.8763L12.7723 39H9.65234L15.6283 21.984H19.0123L24.9883 39ZM19.6843 32.952L17.2603 25.776L14.8363 32.952H19.6843ZM37.4153 39H34.8233L34.6313 37.632C33.8873 38.784 32.4953 39.288 31.1273 39.288C29.8793 39.288 28.8473 38.856 28.0793 38.232C26.5913 37.008 25.8713 35.136 25.8713 32.784C25.8713 30.336 26.6153 28.44 28.1033 27.216C28.8713 26.592 29.8793 26.208 31.1513 26.208C32.7353 26.208 33.8873 26.736 34.4153 27.384V21.672H37.4153V39ZM34.5593 32.736C34.5593 30.936 34.0793 28.728 31.7273 28.728C30.7913 28.728 30.1433 29.16 29.7113 29.712C29.0873 30.528 28.9193 31.656 28.9193 32.736C28.9193 33.816 29.0873 34.968 29.7113 35.784C30.1433 36.336 30.7913 36.768 31.7273 36.768C34.0793 36.768 34.5593 34.536 34.5593 32.736ZM53.6773 33.576C53.5333 34.92 53.0293 36.288 52.0453 37.296C50.7733 38.592 48.9973 39.312 47.1733 39.312C45.3493 39.312 43.6453 38.712 42.3493 37.416C40.5013 35.568 40.2373 33.288 40.2373 30.504C40.2373 27.72 40.5013 25.44 42.3493 23.592C43.6453 22.296 45.3493 21.672 47.1733 21.672C48.9973 21.672 50.7733 22.344 52.0453 23.64C53.0293 24.648 53.5333 25.992 53.6773 27.336H50.5093C50.4373 26.592 50.1733 26.064 49.7413 25.536C49.1893 24.84 48.2293 24.48 47.1733 24.48C46.1893 24.48 45.2293 24.888 44.5573 25.608C43.3813 26.832 43.3813 28.944 43.3813 30.504C43.3813 32.064 43.3813 34.176 44.5573 35.4C45.2293 36.12 46.1893 36.528 47.1733 36.528C48.2293 36.528 49.1893 36.144 49.7413 35.448C50.1733 34.92 50.4373 34.32 50.5093 33.576H53.6773Z" fill="#EFD8FF"/>
<path d="M9.92635 59H5.04235V57.9L8.02335 54.347C8.28735 54.039 8.41935 53.676 8.41935 53.368C8.41935 52.829 8.07835 52.411 7.45135 52.411C6.80235 52.411 6.42835 52.906 6.42835 53.511H5.02035C5.03135 52.169 5.88935 51.212 7.46235 51.212C8.77135 51.212 9.81635 52.015 9.81635 53.357C9.81635 54.039 9.40935 54.71 8.98035 55.227L6.86835 57.757H9.92635V59ZM16.6838 57.46H15.7158V59H14.3408V57.46H10.9308V56.162L13.7358 51.355H15.2318L12.3828 56.217H14.3408V54.424H15.7158V56.217H16.6838V57.46ZM22.7372 55.172C22.7372 56.426 22.6162 57.702 21.8242 58.461C21.4282 58.846 20.8672 59.143 20.0422 59.143C19.2172 59.143 18.6562 58.846 18.2602 58.461C17.4682 57.702 17.3472 56.426 17.3472 55.172C17.3472 53.918 17.4682 52.642 18.2602 51.883C18.6562 51.498 19.2172 51.212 20.0422 51.212C20.8672 51.212 21.4282 51.498 21.8242 51.883C22.6162 52.642 22.7372 53.918 22.7372 55.172ZM21.3402 55.172C21.3402 54.182 21.4612 52.477 20.0422 52.477C18.6232 52.477 18.7442 54.182 18.7442 55.172C18.7442 56.162 18.6232 57.867 20.0422 57.867C21.4612 57.867 21.3402 56.162 21.3402 55.172ZM29.0107 55.172C29.0107 56.426 28.8897 57.702 28.0977 58.461C27.7017 58.846 27.1407 59.143 26.3157 59.143C25.4907 59.143 24.9297 58.846 24.5337 58.461C23.7417 57.702 23.6207 56.426 23.6207 55.172C23.6207 53.918 23.7417 52.642 24.5337 51.883C24.9297 51.498 25.4907 51.212 26.3157 51.212C27.1407 51.212 27.7017 51.498 28.0977 51.883C28.8897 52.642 29.0107 53.918 29.0107 55.172ZM27.6137 55.172C27.6137 54.182 27.7347 52.477 26.3157 52.477C24.8967 52.477 25.0177 54.182 25.0177 55.172C25.0177 56.162 24.8967 57.867 26.3157 57.867C27.7347 57.867 27.6137 56.162 27.6137 55.172ZM35.2291 56.855C35.2291 58.34 33.9641 59.154 32.5891 59.154C31.2141 59.154 29.9491 58.34 29.9491 56.855C29.9491 56.096 30.3341 55.37 31.0601 55.029C30.4991 54.721 30.1031 54.028 30.1031 53.379C30.1031 51.938 31.2581 51.212 32.5891 51.212C33.9201 51.212 35.0751 51.938 35.0751 53.379C35.0751 54.028 34.6791 54.721 34.1181 55.029C34.8441 55.37 35.2291 56.096 35.2291 56.855ZM33.6891 53.401C33.6891 52.84 33.3151 52.411 32.5891 52.411C31.8521 52.411 31.4891 52.84 31.4891 53.401C31.4891 53.962 31.8631 54.424 32.5891 54.424C33.3151 54.424 33.6891 53.962 33.6891 53.401ZM33.8431 56.767C33.8431 56.14 33.4031 55.634 32.5891 55.634C31.7751 55.634 31.3351 56.14 31.3351 56.767C31.3351 57.471 31.8411 57.933 32.5891 57.933C33.3371 57.933 33.8431 57.471 33.8431 56.767ZM41.6125 56.481C41.6125 57.977 40.7215 59.143 38.9835 59.143C37.5315 59.143 36.6295 58.109 36.3985 56.734C36.3105 56.239 36.2775 55.788 36.2775 55.304C36.2775 54.182 36.3435 52.807 37.1245 51.971C37.5425 51.531 38.0815 51.212 38.9945 51.212C39.7755 51.212 40.3475 51.454 40.7435 51.828C41.1725 52.235 41.3925 52.785 41.3925 53.236H40.0065C39.9845 53.005 39.8855 52.796 39.7425 52.653C39.5665 52.466 39.3025 52.378 38.9285 52.378C38.5655 52.378 38.3565 52.51 38.1695 52.686C37.7515 53.071 37.6415 53.764 37.6415 54.435C37.9825 54.028 38.6315 53.874 39.0935 53.874C40.7435 53.874 41.6125 54.93 41.6125 56.481ZM40.2155 56.426C40.2155 55.634 39.8085 54.996 38.9615 54.996C38.2245 54.996 37.7735 55.623 37.7735 56.426C37.7735 57.262 38.1695 57.911 38.9835 57.911C39.8085 57.911 40.2155 57.317 40.2155 56.426ZM46.434 56.228H42.661V54.996H46.434V56.228ZM52.9228 55.172C52.9228 56.426 52.8018 57.702 52.0098 58.461C51.6138 58.846 51.0528 59.143 50.2278 59.143C49.4028 59.143 48.8418 58.846 48.4458 58.461C47.6538 57.702 47.5328 56.426 47.5328 55.172C47.5328 53.918 47.6538 52.642 48.4458 51.883C48.8418 51.498 49.4028 51.212 50.2278 51.212C51.0528 51.212 51.6138 51.498 52.0098 51.883C52.8018 52.642 52.9228 53.918 52.9228 55.172ZM51.5258 55.172C51.5258 54.182 51.6468 52.477 50.2278 52.477C48.8088 52.477 48.9298 54.182 48.9298 55.172C48.9298 56.162 48.8088 57.867 50.2278 57.867C51.6468 57.867 51.5258 56.162 51.5258 55.172ZM59.1962 55.172C59.1962 56.426 59.0752 57.702 58.2832 58.461C57.8872 58.846 57.3262 59.143 56.5012 59.143C55.6762 59.143 55.1152 58.846 54.7192 58.461C53.9272 57.702 53.8062 56.426 53.8062 55.172C53.8062 53.918 53.9272 52.642 54.7192 51.883C55.1152 51.498 55.6762 51.212 56.5012 51.212C57.3262 51.212 57.8872 51.498 58.2832 51.883C59.0752 52.642 59.1962 53.918 59.1962 55.172ZM57.7992 55.172C57.7992 54.182 57.9202 52.477 56.5012 52.477C55.0822 52.477 55.2032 54.182 55.2032 55.172C55.2032 56.162 55.0822 57.867 56.5012 57.867C57.9202 57.867 57.7992 56.162 57.7992 55.172Z" fill="#EFD8FF"/>
<rect x="53" y="4" width="7" height="7" rx="3.5" stroke="#EFD8FF" stroke-width="2"/>
<path d="M11.95 12H10.7V6.94L8.86 11.9H7.91L6.08 6.88V12H4.83V4.91H6.57L8.43 9.96L10.3 4.91H11.95V12ZM19.0793 8.46C19.0793 9.62 18.9493 10.56 18.1793 11.33C17.6393 11.87 16.8993 12.13 16.1393 12.13C15.3793 12.13 14.6393 11.87 14.0993 11.33C13.3293 10.56 13.1993 9.62 13.1993 8.46C13.1993 7.3 13.3293 6.35 14.0993 5.58C14.6393 5.04 15.3793 4.78 16.1393 4.78C16.8993 4.78 17.6393 5.04 18.1793 5.58C18.9493 6.35 19.0793 7.3 19.0793 8.46ZM17.7693 8.46C17.7693 7.81 17.7493 6.93 17.2593 6.42C16.9793 6.12 16.5493 5.95 16.1393 5.95C15.7293 5.95 15.2993 6.12 15.0193 6.42C14.5293 6.93 14.5093 7.81 14.5093 8.46C14.5093 9.11 14.5293 9.98 15.0193 10.49C15.2993 10.79 15.7293 10.96 16.1393 10.96C16.5493 10.96 16.9793 10.79 17.2593 10.49C17.7493 9.98 17.7693 9.11 17.7693 8.46ZM25.908 8.45C25.908 9.43 25.808 10.49 25.078 11.24C24.608 11.73 23.898 12 23.088 12H20.328V4.91H23.088C23.898 4.91 24.608 5.18 25.078 5.67C25.808 6.42 25.908 7.47 25.908 8.45ZM24.598 8.45C24.598 7.8 24.588 6.97 24.088 6.47C23.848 6.23 23.498 6.07 23.088 6.07H21.618V10.84H23.088C23.498 10.84 23.848 10.68 24.088 10.44C24.588 9.94 24.598 9.1 24.598 8.45ZM32.634 8.46C32.634 9.62 32.504 10.56 31.734 11.33C31.194 11.87 30.454 12.13 29.694 12.13C28.934 12.13 28.194 11.87 27.654 11.33C26.884 10.56 26.754 9.62 26.754 8.46C26.754 7.3 26.884 6.35 27.654 5.58C28.194 5.04 28.934 4.78 29.694 4.78C30.454 4.78 31.194 5.04 31.734 5.58C32.504 6.35 32.634 7.3 32.634 8.46ZM31.324 8.46C31.324 7.81 31.304 6.93 30.814 6.42C30.534 6.12 30.104 5.95 29.694 5.95C29.284 5.95 28.854 6.12 28.574 6.42C28.084 6.93 28.064 7.81 28.064 8.46C28.064 9.11 28.084 9.98 28.574 10.49C28.854 10.79 29.284 10.96 29.694 10.96C30.104 10.96 30.534 10.79 30.814 10.49C31.304 9.98 31.324 9.11 31.324 8.46ZM39.5527 12H38.2227L35.1527 7.13V12H33.8827V4.91H35.2527L38.2827 9.71V4.91H39.5527V12Z" fill="#EFD8FF"/>
</g>
<defs>
<clipPath id="clip0_156_1132">
<rect width="64" height="64" fill="white"/>
</clipPath>
</defs>
</svg>
