<svg width="64" height="64" viewBox="0 0 64 64" fill="none" xmlns="http://www.w3.org/2000/svg">
<g clip-path="url(#clip0_281_15915)">
<rect width="64" height="64" fill="#FCFF3A"/>
<rect width="64" height="64" rx="6" fill="#FCFF3A"/>
<path d="M27.2383 39H23.9983L22.8943 35.736H16.1263L15.0223 39H11.9023L17.8783 21.984H21.2623L27.2383 39ZM21.9343 32.952L19.5103 25.776L17.0863 32.952H21.9343ZM40.2145 39H29.2225V21.984H32.3185V36.072H40.2145V39ZM50.5806 34.032C50.5806 37.248 48.6846 39.336 45.4206 39.336C43.8126 39.336 42.6366 38.808 41.7966 37.944C40.7886 36.912 40.3086 35.52 40.3086 33.672H43.3086C43.3086 34.512 43.4046 35.376 43.9326 35.952C44.2686 36.312 44.7966 36.576 45.4206 36.576C46.8126 36.576 47.4846 35.664 47.4846 34.272V21.984H50.5806V34.032Z" fill="#BD9832"/>
<path d="M8.69435 59H7.31935V52.983L5.63635 54.204V52.708L7.51735 51.355H8.69435V59ZM16.4968 56.404C16.4968 58.021 15.5398 59.154 13.8348 59.154C12.3168 59.154 11.2608 58.208 11.1838 56.767H12.5588C12.5918 57.526 13.1198 57.933 13.8458 57.933C14.7698 57.933 15.0998 57.262 15.0998 56.437C15.0998 55.634 14.7258 55.051 13.8458 55.051C13.3948 55.051 12.9438 55.282 12.7018 55.667H11.3488L11.5138 51.355H16.1558V52.587H12.7018L12.6138 54.336C12.9658 54.006 13.4498 53.841 14.1318 53.841C15.6718 53.841 16.4968 54.952 16.4968 56.404ZM22.7372 55.172C22.7372 56.426 22.6162 57.702 21.8242 58.461C21.4282 58.846 20.8672 59.143 20.0422 59.143C19.2172 59.143 18.6562 58.846 18.2602 58.461C17.4682 57.702 17.3472 56.426 17.3472 55.172C17.3472 53.918 17.4682 52.642 18.2602 51.883C18.6562 51.498 19.2172 51.212 20.0422 51.212C20.8672 51.212 21.4282 51.498 21.8242 51.883C22.6162 52.642 22.7372 53.918 22.7372 55.172ZM21.3402 55.172C21.3402 54.182 21.4612 52.477 20.0422 52.477C18.6232 52.477 18.7442 54.182 18.7442 55.172C18.7442 56.162 18.6232 57.867 20.0422 57.867C21.4612 57.867 21.3402 56.162 21.3402 55.172ZM27.5147 59H26.1397V52.983L24.4567 54.204V52.708L26.3377 51.355H27.5147V59ZM35.2841 55.172C35.2841 56.426 35.1631 57.702 34.3711 58.461C33.9751 58.846 33.4141 59.143 32.5891 59.143C31.7641 59.143 31.2031 58.846 30.8071 58.461C30.0151 57.702 29.8941 56.426 29.8941 55.172C29.8941 53.918 30.0151 52.642 30.8071 51.883C31.2031 51.498 31.7641 51.212 32.5891 51.212C33.4141 51.212 33.9751 51.498 34.3711 51.883C35.1631 52.642 35.2841 53.918 35.2841 55.172ZM33.8871 55.172C33.8871 54.182 34.0081 52.477 32.5891 52.477C31.1701 52.477 31.2911 54.182 31.2911 55.172C31.2911 56.162 31.1701 57.867 32.5891 57.867C34.0081 57.867 33.8871 56.162 33.8871 55.172ZM41.6125 56.481C41.6125 57.977 40.7215 59.143 38.9835 59.143C37.5315 59.143 36.6295 58.109 36.3985 56.734C36.3105 56.239 36.2775 55.788 36.2775 55.304C36.2775 54.182 36.3435 52.807 37.1245 51.971C37.5425 51.531 38.0815 51.212 38.9945 51.212C39.7755 51.212 40.3475 51.454 40.7435 51.828C41.1725 52.235 41.3925 52.785 41.3925 53.236H40.0065C39.9845 53.005 39.8855 52.796 39.7425 52.653C39.5665 52.466 39.3025 52.378 38.9285 52.378C38.5655 52.378 38.3565 52.51 38.1695 52.686C37.7515 53.071 37.6415 53.764 37.6415 54.435C37.9825 54.028 38.6315 53.874 39.0935 53.874C40.7435 53.874 41.6125 54.93 41.6125 56.481ZM40.2155 56.426C40.2155 55.634 39.8085 54.996 38.9615 54.996C38.2245 54.996 37.7735 55.623 37.7735 56.426C37.7735 57.262 38.1695 57.911 38.9835 57.911C39.8085 57.911 40.2155 57.317 40.2155 56.426ZM46.434 56.228H42.661V54.996H46.434V56.228ZM52.9228 55.172C52.9228 56.426 52.8018 57.702 52.0098 58.461C51.6138 58.846 51.0528 59.143 50.2278 59.143C49.4028 59.143 48.8418 58.846 48.4458 58.461C47.6538 57.702 47.5328 56.426 47.5328 55.172C47.5328 53.918 47.6538 52.642 48.4458 51.883C48.8418 51.498 49.4028 51.212 50.2278 51.212C51.0528 51.212 51.6138 51.498 52.0098 51.883C52.8018 52.642 52.9228 53.918 52.9228 55.172ZM51.5258 55.172C51.5258 54.182 51.6468 52.477 50.2278 52.477C48.8088 52.477 48.9298 54.182 48.9298 55.172C48.9298 56.162 48.8088 57.867 50.2278 57.867C51.6468 57.867 51.5258 56.162 51.5258 55.172ZM59.1962 55.172C59.1962 56.426 59.0752 57.702 58.2832 58.461C57.8872 58.846 57.3262 59.143 56.5012 59.143C55.6762 59.143 55.1152 58.846 54.7192 58.461C53.9272 57.702 53.8062 56.426 53.8062 55.172C53.8062 53.918 53.9272 52.642 54.7192 51.883C55.1152 51.498 55.6762 51.212 56.5012 51.212C57.3262 51.212 57.8872 51.498 58.2832 51.883C59.0752 52.642 59.1962 53.918 59.1962 55.172ZM57.7992 55.172C57.7992 54.182 57.9202 52.477 56.5012 52.477C55.0822 52.477 55.2032 54.182 55.2032 55.172C55.2032 56.162 55.0822 57.867 56.5012 57.867C57.9202 57.867 57.7992 56.162 57.7992 55.172Z" fill="#BD9832"/>
<path d="M54.634 4.5C55.0189 3.83333 55.9811 3.83333 56.366 4.5L59.3971 9.75C59.782 10.4167 59.3009 11.25 58.5311 11.25H52.4689C51.6991 11.25 51.218 10.4167 51.6029 9.75L54.634 4.5Z" fill="#BD9832"/>
<path d="M10.39 12H9.04L8.58 10.64H5.76L5.3 12H4L6.49 4.91H7.9L10.39 12ZM8.18 9.48L7.17 6.49L6.16 9.48H8.18ZM15.4767 9.41C15.4767 10.39 15.1667 11.17 14.5467 11.68C14.2267 11.94 13.8067 12.12 13.2867 12.12C12.7167 12.12 12.1367 11.91 11.8267 11.43L11.7467 12H10.6667V4.78H11.9167V7.18C12.1567 6.89 12.6567 6.67 13.2767 6.67C13.8067 6.67 14.2267 6.83 14.5467 7.09C15.1667 7.6 15.4767 8.39 15.4767 9.41ZM14.2067 9.39C14.2067 8.94 14.1367 8.47 13.8767 8.13C13.6967 7.9 13.4267 7.72 13.0367 7.72C12.0567 7.72 11.8567 8.64 11.8567 9.39C11.8567 9.9 11.9467 10.48 12.3067 10.81C12.4767 10.97 12.7167 11.07 13.0367 11.07C13.4267 11.07 13.6967 10.89 13.8767 10.66C14.1367 10.32 14.2067 9.84 14.2067 9.39ZM20.6226 12H19.5426L19.4626 11.43C19.1526 11.91 18.5726 12.12 18.0026 12.12C17.4826 12.12 17.0526 11.94 16.7326 11.68C16.1126 11.17 15.8126 10.39 15.8126 9.41C15.8126 8.39 16.1226 7.6 16.7426 7.09C17.0626 6.83 17.4826 6.67 18.0126 6.67C18.6726 6.67 19.1526 6.89 19.3726 7.16V4.78H20.6226V12ZM19.4326 9.39C19.4326 8.64 19.2326 7.72 18.2526 7.72C17.8626 7.72 17.5926 7.9 17.4126 8.13C17.1526 8.47 17.0826 8.94 17.0826 9.39C17.0826 9.84 17.1526 10.32 17.4126 10.66C17.5926 10.89 17.8626 11.07 18.2526 11.07C19.2326 11.07 19.4326 10.14 19.4326 9.39ZM26.0184 12H24.9784L24.8884 11.32C24.6384 11.83 24.0584 12.13 23.3984 12.13C22.2884 12.13 21.5984 11.38 21.5984 10.27V6.8H22.8484V9.99C22.8484 10.6 23.0884 10.98 23.7484 10.98C24.0384 10.98 24.2384 10.87 24.3884 10.72C24.6884 10.44 24.7684 9.97 24.7684 9.55V6.8H26.0184V12ZM29.0169 11.99C28.7669 12.04 28.7169 12.06 28.4669 12.06C27.6169 12.06 27.0469 11.65 27.0469 10.66V4.77H28.3069V10.45C28.3069 10.75 28.3769 10.95 28.8069 10.95C28.9169 10.95 28.9469 10.94 29.0169 10.94V11.99ZM35.8143 12H31.2343V4.91H32.5243V10.78H35.8143V12ZM37.9739 12H36.4539V10.44H37.9739V12ZM42.7175 9.93C42.7175 11.27 41.9275 12.14 40.5675 12.14C39.8975 12.14 39.4075 11.92 39.0575 11.56C38.6375 11.13 38.4375 10.55 38.4375 9.78H39.6875C39.6875 10.13 39.7275 10.49 39.9475 10.73C40.0875 10.88 40.3075 10.99 40.5675 10.99C41.1475 10.99 41.4275 10.61 41.4275 10.03V4.91H42.7175V9.93ZM44.9231 12H43.4031V10.44H44.9231V12Z" fill="#BD9832"/>
</g>
<defs>
<clipPath id="clip0_281_15915">
<rect width="64" height="64" fill="white"/>
</clipPath>
</defs>
</svg>
