<svg width="64" height="64" viewBox="0 0 64 64" fill="none" xmlns="http://www.w3.org/2000/svg">
<g clip-path="url(#clip0_572_7124)">
<rect width="64" height="64" fill="#0000FF"/>
<rect width="64" height="64" rx="6" fill="#0000FF"/>
<path d="M30.2266 39H26.9866L25.8826 35.736H19.1146L18.0106 39H14.8906L20.8666 21.984H24.2506L30.2266 39ZM24.9226 32.952L22.4986 25.776L20.0746 32.952H24.9226ZM38.9593 38.832C38.1193 39.048 37.2793 39.168 36.3913 39.168C33.8713 39.168 32.6233 37.728 32.6233 35.328V28.992H30.3433V26.52H32.6233V23.352L35.6233 22.608V26.52H38.7673V28.992H35.6233V35.064C35.6233 36.024 36.0553 36.432 37.0153 36.432C37.6393 36.432 38.1433 36.408 38.9593 36.312V38.832ZM48.7846 29.304C48.4486 29.232 48.0886 29.184 47.7526 29.184C45.6406 29.184 44.5366 30.696 44.5366 32.712V39H41.5126V26.52H44.0566L44.3206 28.392C44.8966 26.952 46.3846 26.352 47.8486 26.352C48.1606 26.352 48.4726 26.376 48.7846 26.424V29.304Z" fill="#EEEEFF"/>
<path d="M9.92635 59H5.04235V57.9L8.02335 54.347C8.28735 54.039 8.41935 53.676 8.41935 53.368C8.41935 52.829 8.07835 52.411 7.45135 52.411C6.80235 52.411 6.42835 52.906 6.42835 53.511H5.02035C5.03135 52.169 5.88935 51.212 7.46235 51.212C8.77135 51.212 9.81635 52.015 9.81635 53.357C9.81635 54.039 9.40935 54.71 8.98035 55.227L6.86835 57.757H9.92635V59ZM16.6838 57.46H15.7158V59H14.3408V57.46H10.9308V56.162L13.7358 51.355H15.2318L12.3828 56.217H14.3408V54.424H15.7158V56.217H16.6838V57.46ZM22.7372 55.172C22.7372 56.426 22.6162 57.702 21.8242 58.461C21.4282 58.846 20.8672 59.143 20.0422 59.143C19.2172 59.143 18.6562 58.846 18.2602 58.461C17.4682 57.702 17.3472 56.426 17.3472 55.172C17.3472 53.918 17.4682 52.642 18.2602 51.883C18.6562 51.498 19.2172 51.212 20.0422 51.212C20.8672 51.212 21.4282 51.498 21.8242 51.883C22.6162 52.642 22.7372 53.918 22.7372 55.172ZM21.3402 55.172C21.3402 54.182 21.4612 52.477 20.0422 52.477C18.6232 52.477 18.7442 54.182 18.7442 55.172C18.7442 56.162 18.6232 57.867 20.0422 57.867C21.4612 57.867 21.3402 56.162 21.3402 55.172ZM28.7467 59H23.8627V57.9L26.8437 54.347C27.1077 54.039 27.2397 53.676 27.2397 53.368C27.2397 52.829 26.8987 52.411 26.2717 52.411C25.6227 52.411 25.2487 52.906 25.2487 53.511H23.8407C23.8517 52.169 24.7097 51.212 26.2827 51.212C27.5917 51.212 28.6367 52.015 28.6367 53.357C28.6367 54.039 28.2297 54.71 27.8007 55.227L25.6887 57.757H28.7467V59ZM35.0201 59H30.1361V57.9L33.1171 54.347C33.3811 54.039 33.5131 53.676 33.5131 53.368C33.5131 52.829 33.1721 52.411 32.5451 52.411C31.8961 52.411 31.5221 52.906 31.5221 53.511H30.1141C30.1251 52.169 30.9831 51.212 32.5561 51.212C33.8651 51.212 34.9101 52.015 34.9101 53.357C34.9101 54.039 34.5031 54.71 34.0741 55.227L31.9621 57.757H35.0201V59ZM41.5575 55.172C41.5575 56.426 41.4365 57.702 40.6445 58.461C40.2485 58.846 39.6875 59.143 38.8625 59.143C38.0375 59.143 37.4765 58.846 37.0805 58.461C36.2885 57.702 36.1675 56.426 36.1675 55.172C36.1675 53.918 36.2885 52.642 37.0805 51.883C37.4765 51.498 38.0375 51.212 38.8625 51.212C39.6875 51.212 40.2485 51.498 40.6445 51.883C41.4365 52.642 41.5575 53.918 41.5575 55.172ZM40.1605 55.172C40.1605 54.182 40.2815 52.477 38.8625 52.477C37.4435 52.477 37.5645 54.182 37.5645 55.172C37.5645 56.162 37.4435 57.867 38.8625 57.867C40.2815 57.867 40.1605 56.162 40.1605 55.172ZM46.434 56.228H42.661V54.996H46.434V56.228ZM52.9228 55.172C52.9228 56.426 52.8018 57.702 52.0098 58.461C51.6138 58.846 51.0528 59.143 50.2278 59.143C49.4028 59.143 48.8418 58.846 48.4458 58.461C47.6538 57.702 47.5328 56.426 47.5328 55.172C47.5328 53.918 47.6538 52.642 48.4458 51.883C48.8418 51.498 49.4028 51.212 50.2278 51.212C51.0528 51.212 51.6138 51.498 52.0098 51.883C52.8018 52.642 52.9228 53.918 52.9228 55.172ZM51.5258 55.172C51.5258 54.182 51.6468 52.477 50.2278 52.477C48.8088 52.477 48.9298 54.182 48.9298 55.172C48.9298 56.162 48.8088 57.867 50.2278 57.867C51.6468 57.867 51.5258 56.162 51.5258 55.172ZM59.1962 55.172C59.1962 56.426 59.0752 57.702 58.2832 58.461C57.8872 58.846 57.3262 59.143 56.5012 59.143C55.6762 59.143 55.1152 58.846 54.7192 58.461C53.9272 57.702 53.8062 56.426 53.8062 55.172C53.8062 53.918 53.9272 52.642 54.7192 51.883C55.1152 51.498 55.6762 51.212 56.5012 51.212C57.3262 51.212 57.8872 51.498 58.2832 51.883C59.0752 52.642 59.1962 53.918 59.1962 55.172ZM57.7992 55.172C57.7992 54.182 57.9202 52.477 56.5012 52.477C55.0822 52.477 55.2032 54.182 55.2032 55.172C55.2032 56.162 55.0822 57.867 56.5012 57.867C57.9202 57.867 57.7992 56.162 57.7992 55.172Z" fill="#EEEEFF"/>
<path d="M10.41 8.45C10.41 9.43 10.31 10.49 9.58 11.24C9.11 11.73 8.4 12 7.59 12H4.83V4.91H7.59C8.4 4.91 9.11 5.18 9.58 5.67C10.31 6.42 10.41 7.47 10.41 8.45ZM9.1 8.45C9.1 7.8 9.09 6.97 8.59 6.47C8.35 6.23 8 6.07 7.59 6.07H6.12V10.84H7.59C8 10.84 8.35 10.68 8.59 10.44C9.09 9.94 9.1 9.1 9.1 8.45ZM17.0459 12H16.2159L16.0659 11.22C15.8559 11.63 15.1759 12.12 14.2859 12.13C13.4659 12.14 12.7359 11.93 12.1759 11.34C11.4359 10.57 11.2559 9.62 11.2559 8.46C11.2559 7.3 11.4059 6.38 12.1759 5.61C12.7159 5.07 13.5259 4.78 14.2859 4.78C15.1559 4.78 15.9059 5.1 16.3859 5.59C16.7359 5.95 16.9959 6.4 17.0359 7.02H15.7159C15.6959 6.74 15.5559 6.55 15.4059 6.37C15.1559 6.08 14.7659 5.94 14.2759 5.94C13.8659 5.94 13.3959 6.12 13.1159 6.42C12.6259 6.93 12.5659 7.81 12.5659 8.46C12.5659 9.11 12.6359 10.02 13.1259 10.53C13.4059 10.83 13.8659 10.98 14.2759 10.98C14.7359 10.98 15.0959 10.82 15.3359 10.57C15.7159 10.17 15.7959 9.73 15.7959 9.19H14.1059V8.12H17.0459V12ZM23.6719 9.74C23.6119 10.3 23.4019 10.87 22.9919 11.29C22.4619 11.83 21.7219 12.13 20.9619 12.13C20.2019 12.13 19.4919 11.88 18.9519 11.34C18.1819 10.57 18.0719 9.62 18.0719 8.46C18.0719 7.3 18.1819 6.35 18.9519 5.58C19.4919 5.04 20.2019 4.78 20.9619 4.78C21.7219 4.78 22.4619 5.06 22.9919 5.6C23.4019 6.02 23.6119 6.58 23.6719 7.14H22.3519C22.3219 6.83 22.2119 6.61 22.0319 6.39C21.8019 6.1 21.4019 5.95 20.9619 5.95C20.5519 5.95 20.1519 6.12 19.8719 6.42C19.3819 6.93 19.3819 7.81 19.3819 8.46C19.3819 9.11 19.3819 9.99 19.8719 10.5C20.1519 10.8 20.5519 10.97 20.9619 10.97C21.4019 10.97 21.8019 10.81 22.0319 10.52C22.2119 10.3 22.3219 10.05 22.3519 9.74H23.6719ZM29.3612 12H24.7812V4.91H26.0712V10.78H29.3612V12Z" fill="#EEEEFF"/>
<path d="M54.634 4.5C55.0189 3.83333 55.9811 3.83333 56.366 4.5L59.3971 9.75C59.782 10.4167 59.3009 11.25 58.5311 11.25H52.4689C51.6991 11.25 51.218 10.4167 51.6029 9.75L54.634 4.5Z" fill="#EEEEFF"/>
</g>
<defs>
<clipPath id="clip0_572_7124">
<rect width="64" height="64" fill="white"/>
</clipPath>
</defs>
</svg>
