<svg width="64" height="64" viewBox="0 0 64 64" fill="none" xmlns="http://www.w3.org/2000/svg">
<g clip-path="url(#clip0_387_7658)">
<rect width="64" height="64" fill="#F49A27"/>
<path d="M10.41 8.45C10.41 9.43 10.31 10.49 9.58 11.24C9.11 11.73 8.4 12 7.59 12H4.83V4.91H7.59C8.4 4.91 9.11 5.18 9.58 5.67C10.31 6.42 10.41 7.47 10.41 8.45ZM9.1 8.45C9.1 7.8 9.09 6.97 8.59 6.47C8.35 6.23 8 6.07 7.59 6.07H6.12V10.84H7.59C8 10.84 8.35 10.68 8.59 10.44C9.09 9.94 9.1 9.1 9.1 8.45ZM17.0259 9.28C17.0259 10.97 16.0759 12.13 14.2459 12.13C12.4159 12.13 11.4659 10.97 11.4659 9.28V4.91H12.7559V9.26C12.7559 10.27 13.2159 10.96 14.2459 10.96C15.2759 10.96 15.7359 10.27 15.7359 9.26V4.91H17.0259V9.28ZM23.9123 9.94C23.9123 10.57 23.7023 11.14 23.1923 11.53C22.6423 11.95 21.9823 12.01 21.3023 12.01H18.4823V4.91H21.3023C21.8723 4.91 22.4623 4.99 22.9423 5.3C23.4623 5.64 23.7623 6.23 23.7623 6.84C23.7623 7.42 23.4923 8.07 22.8923 8.34C23.5623 8.65 23.9123 9.28 23.9123 9.94ZM22.4523 6.92C22.4523 6.24 21.9323 6.02 21.3523 6.02H19.7623V7.8H21.3823C21.9623 7.8 22.4523 7.59 22.4523 6.92ZM22.6023 9.91C22.6023 9.15 22.0723 8.88 21.3923 8.88H19.7623V10.85H21.3523C21.9523 10.85 22.6023 10.63 22.6023 9.91ZM30.6341 12H29.2841L28.8241 10.64H26.0041L25.5441 12H24.2441L26.7341 4.91H28.1441L30.6341 12ZM28.4241 9.48L27.4141 6.49L26.4041 9.48H28.4241ZM32.7709 12H31.4609V4.91H32.7709V12ZM41.7995 7.18C41.7995 8.54 40.9295 9.46 39.2995 9.46H37.7995V12H36.5195V4.91H39.2995C40.9295 4.91 41.7995 5.82 41.7995 7.18ZM40.4995 7.19C40.4995 6.51 40.1095 6.04 39.2495 6.04H37.7995V8.33H39.2495C40.1095 8.33 40.4995 7.87 40.4995 7.19ZM42.4016 12H40.8816V10.44H42.4016V12Z" fill="#B15300"/>
<rect x="58.5007" y="4" width="2.1215" height="10.6075" transform="rotate(45 58.5007 4)" fill="#B15300"/>
<rect x="60.0007" y="11.501" width="2.1215" height="10.6075" transform="rotate(135 60.0007 11.501)" fill="#B15300"/>
<path d="M20.6803 34.056C20.6803 35.568 20.1763 36.936 18.9523 37.872C17.6323 38.88 16.0483 39.024 14.4163 39.024H7.64825V21.984H14.4163C15.7843 21.984 17.2003 22.176 18.3523 22.92C19.6003 23.736 20.3203 25.152 20.3203 26.616C20.3203 28.008 19.6723 29.568 18.2323 30.216C19.8403 30.96 20.6803 32.472 20.6803 34.056ZM17.1763 26.808C17.1763 25.176 15.9283 24.648 14.5363 24.648H10.7203V28.92H14.6083C16.0003 28.92 17.1763 28.416 17.1763 26.808ZM17.5363 33.984C17.5363 32.16 16.2643 31.512 14.6323 31.512H10.7203V36.24H14.5363C15.9763 36.24 17.5363 35.712 17.5363 33.984ZM36.6178 34.056C36.6178 35.568 36.1138 36.936 34.8898 37.872C33.5698 38.88 31.9858 39.024 30.3538 39.024H23.5858V21.984H30.3538C31.7218 21.984 33.1378 22.176 34.2898 22.92C35.5378 23.736 36.2578 25.152 36.2578 26.616C36.2578 28.008 35.6098 29.568 34.1698 30.216C35.7778 30.96 36.6178 32.472 36.6178 34.056ZM33.1138 26.808C33.1138 25.176 31.8658 24.648 30.4738 24.648H26.6578V28.92H30.5458C31.9378 28.92 33.1138 28.416 33.1138 26.808ZM33.4738 33.984C33.4738 32.16 32.2018 31.512 30.5698 31.512H26.6578V36.24H30.4738C31.9138 36.24 33.4738 35.712 33.4738 33.984ZM57.9341 21.984L54.5501 39H51.4541L47.9021 27.264L44.3501 39H41.2541L37.8221 21.984H40.7741L43.1501 33.816L46.6541 22.248H49.2461L52.6781 33.816L55.1021 21.984H57.9341Z" fill="#B15300"/>
<path d="M8.69435 59H7.31935V52.983L5.63635 54.204V52.708L7.51735 51.355H8.69435V59ZM16.4198 52.455L13.4388 59H11.9538L14.9458 52.587H11.1508V51.355H16.4198V52.455ZM22.7372 55.172C22.7372 56.426 22.6162 57.702 21.8242 58.461C21.4282 58.846 20.8672 59.143 20.0422 59.143C19.2172 59.143 18.6562 58.846 18.2602 58.461C17.4682 57.702 17.3472 56.426 17.3472 55.172C17.3472 53.918 17.4682 52.642 18.2602 51.883C18.6562 51.498 19.2172 51.212 20.0422 51.212C20.8672 51.212 21.4282 51.498 21.8242 51.883C22.6162 52.642 22.7372 53.918 22.7372 55.172ZM21.3402 55.172C21.3402 54.182 21.4612 52.477 20.0422 52.477C18.6232 52.477 18.7442 54.182 18.7442 55.172C18.7442 56.162 18.6232 57.867 20.0422 57.867C21.4612 57.867 21.3402 56.162 21.3402 55.172ZM28.7467 59H23.8627V57.9L26.8437 54.347C27.1077 54.039 27.2397 53.676 27.2397 53.368C27.2397 52.829 26.8987 52.411 26.2717 52.411C25.6227 52.411 25.2487 52.906 25.2487 53.511H23.8407C23.8517 52.169 24.7097 51.212 26.2827 51.212C27.5917 51.212 28.6367 52.015 28.6367 53.357C28.6367 54.039 28.2297 54.71 27.8007 55.227L25.6887 57.757H28.7467V59ZM35.2841 55.172C35.2841 56.426 35.1631 57.702 34.3711 58.461C33.9751 58.846 33.4141 59.143 32.5891 59.143C31.7641 59.143 31.2031 58.846 30.8071 58.461C30.0151 57.702 29.8941 56.426 29.8941 55.172C29.8941 53.918 30.0151 52.642 30.8071 51.883C31.2031 51.498 31.7641 51.212 32.5891 51.212C33.4141 51.212 33.9751 51.498 34.3711 51.883C35.1631 52.642 35.2841 53.918 35.2841 55.172ZM33.8871 55.172C33.8871 54.182 34.0081 52.477 32.5891 52.477C31.1701 52.477 31.2911 54.182 31.2911 55.172C31.2911 56.162 31.1701 57.867 32.5891 57.867C34.0081 57.867 33.8871 56.162 33.8871 55.172ZM41.5135 52.455L38.5325 59H37.0475L40.0395 52.587H36.2445V51.355H41.5135V52.455ZM46.434 56.228H42.661V54.996H46.434V56.228ZM52.9228 55.172C52.9228 56.426 52.8018 57.702 52.0098 58.461C51.6138 58.846 51.0528 59.143 50.2278 59.143C49.4028 59.143 48.8418 58.846 48.4458 58.461C47.6538 57.702 47.5328 56.426 47.5328 55.172C47.5328 53.918 47.6538 52.642 48.4458 51.883C48.8418 51.498 49.4028 51.212 50.2278 51.212C51.0528 51.212 51.6138 51.498 52.0098 51.883C52.8018 52.642 52.9228 53.918 52.9228 55.172ZM51.5258 55.172C51.5258 54.182 51.6468 52.477 50.2278 52.477C48.8088 52.477 48.9298 54.182 48.9298 55.172C48.9298 56.162 48.8088 57.867 50.2278 57.867C51.6468 57.867 51.5258 56.162 51.5258 55.172ZM59.1962 55.172C59.1962 56.426 59.0752 57.702 58.2832 58.461C57.8872 58.846 57.3262 59.143 56.5012 59.143C55.6762 59.143 55.1152 58.846 54.7192 58.461C53.9272 57.702 53.8062 56.426 53.8062 55.172C53.8062 53.918 53.9272 52.642 54.7192 51.883C55.1152 51.498 55.6762 51.212 56.5012 51.212C57.3262 51.212 57.8872 51.498 58.2832 51.883C59.0752 52.642 59.1962 53.918 59.1962 55.172ZM57.7992 55.172C57.7992 54.182 57.9202 52.477 56.5012 52.477C55.0822 52.477 55.2032 54.182 55.2032 55.172C55.2032 56.162 55.0822 57.867 56.5012 57.867C57.9202 57.867 57.7992 56.162 57.7992 55.172Z" fill="#B15300"/>
</g>
<defs>
<clipPath id="clip0_387_7658">
<rect width="64" height="64" fill="white"/>
</clipPath>
</defs>
</svg>
