<svg width="64" height="64" viewBox="0 0 64 64" fill="none" xmlns="http://www.w3.org/2000/svg">
<g clip-path="url(#clip0_156_811)">
<rect width="64" height="64" fill="#149618"/>
<rect width="64" height="64" rx="6" fill="#149618"/>
<path d="M27.9928 34.056C27.9928 35.568 27.4888 36.936 26.2648 37.872C24.9448 38.88 23.3608 39.024 21.7288 39.024H14.9608V21.984H21.7288C23.0968 21.984 24.5128 22.176 25.6648 22.92C26.9128 23.736 27.6328 25.152 27.6328 26.616C27.6328 28.008 26.9848 29.568 25.5448 30.216C27.1528 30.96 27.9928 32.472 27.9928 34.056ZM24.4888 26.808C24.4888 25.176 23.2408 24.648 21.8488 24.648H18.0328V28.92H21.9208C23.3128 28.92 24.4888 28.416 24.4888 26.808ZM24.8488 33.984C24.8488 32.16 23.5768 31.512 21.9448 31.512H18.0328V36.24H21.8488C23.2888 36.24 24.8488 35.712 24.8488 33.984ZM37.8343 38.832C36.9943 39.048 36.1543 39.168 35.2663 39.168C32.7463 39.168 31.4983 37.728 31.4983 35.328V28.992H29.2183V26.52H31.4983V23.352L34.4983 22.608V26.52H37.6423V28.992H34.4983V35.064C34.4983 36.024 34.9303 36.432 35.8903 36.432C36.5143 36.432 37.0183 36.408 37.8343 36.312V38.832ZM50.2333 34.584C50.1853 35.568 49.8493 36.552 49.2733 37.296C48.4093 38.376 46.8973 39.264 45.0013 39.264C43.1053 39.264 41.5213 38.352 40.6573 37.296C39.7213 36.12 39.2893 34.56 39.2893 32.736C39.2893 30.912 39.7213 29.352 40.6573 28.176C41.5213 27.12 43.1053 26.208 45.0013 26.208C46.8973 26.208 48.4093 27.096 49.2733 28.176C49.8493 28.92 50.1853 29.904 50.2333 30.888H47.2813C47.2573 30.432 47.1133 30.048 46.9213 29.736C46.5613 29.184 45.9133 28.8 45.0013 28.8C44.1853 28.8 43.5853 29.136 43.1773 29.568C42.4573 30.36 42.3373 31.56 42.3373 32.736C42.3373 33.912 42.4573 35.088 43.1773 35.88C43.5853 36.312 44.1853 36.672 45.0013 36.672C45.9133 36.672 46.5613 36.288 46.9213 35.736C47.1133 35.424 47.2573 35.04 47.2813 34.584H50.2333Z" fill="#CCFFCE"/>
<path d="M9.92635 59H5.04235V57.9L8.02335 54.347C8.28735 54.039 8.41935 53.676 8.41935 53.368C8.41935 52.829 8.07835 52.411 7.45135 52.411C6.80235 52.411 6.42835 52.906 6.42835 53.511H5.02035C5.03135 52.169 5.88935 51.212 7.46235 51.212C8.77135 51.212 9.81635 52.015 9.81635 53.357C9.81635 54.039 9.40935 54.71 8.98035 55.227L6.86835 57.757H9.92635V59ZM16.1998 59H11.3158V57.9L14.2968 54.347C14.5608 54.039 14.6928 53.676 14.6928 53.368C14.6928 52.829 14.3518 52.411 13.7248 52.411C13.0758 52.411 12.7018 52.906 12.7018 53.511H11.2938C11.3048 52.169 12.1628 51.212 13.7358 51.212C15.0448 51.212 16.0898 52.015 16.0898 53.357C16.0898 54.039 15.6828 54.71 15.2538 55.227L13.1418 57.757H16.1998V59ZM22.7372 55.172C22.7372 56.426 22.6162 57.702 21.8242 58.461C21.4282 58.846 20.8672 59.143 20.0422 59.143C19.2172 59.143 18.6562 58.846 18.2602 58.461C17.4682 57.702 17.3472 56.426 17.3472 55.172C17.3472 53.918 17.4682 52.642 18.2602 51.883C18.6562 51.498 19.2172 51.212 20.0422 51.212C20.8672 51.212 21.4282 51.498 21.8242 51.883C22.6162 52.642 22.7372 53.918 22.7372 55.172ZM21.3402 55.172C21.3402 54.182 21.4612 52.477 20.0422 52.477C18.6232 52.477 18.7442 54.182 18.7442 55.172C18.7442 56.162 18.6232 57.867 20.0422 57.867C21.4612 57.867 21.3402 56.162 21.3402 55.172ZM28.7467 59H23.8627V57.9L26.8437 54.347C27.1077 54.039 27.2397 53.676 27.2397 53.368C27.2397 52.829 26.8987 52.411 26.2717 52.411C25.6227 52.411 25.2487 52.906 25.2487 53.511H23.8407C23.8517 52.169 24.7097 51.212 26.2827 51.212C27.5917 51.212 28.6367 52.015 28.6367 53.357C28.6367 54.039 28.2297 54.71 27.8007 55.227L25.6887 57.757H28.7467V59ZM35.0201 59H30.1361V57.9L33.1171 54.347C33.3811 54.039 33.5131 53.676 33.5131 53.368C33.5131 52.829 33.1721 52.411 32.5451 52.411C31.8961 52.411 31.5221 52.906 31.5221 53.511H30.1141C30.1251 52.169 30.9831 51.212 32.5561 51.212C33.8651 51.212 34.9101 52.015 34.9101 53.357C34.9101 54.039 34.5031 54.71 34.0741 55.227L31.9621 57.757H35.0201V59ZM41.4695 55.04C41.4695 56.162 41.4035 57.537 40.6225 58.373C40.2045 58.813 39.6655 59.143 38.7525 59.143C37.9715 59.143 37.3995 58.89 37.0035 58.516C36.5745 58.109 36.3545 57.559 36.3545 57.108H37.7405C37.7625 57.339 37.8615 57.548 38.0045 57.691C38.1805 57.878 38.4445 57.966 38.8185 57.966C39.1815 57.966 39.3905 57.834 39.5775 57.658C39.9955 57.273 40.1055 56.58 40.1055 55.909C39.7645 56.316 39.1155 56.47 38.6535 56.47C37.0035 56.47 36.1345 55.414 36.1345 53.863C36.1345 52.367 37.0255 51.212 38.7635 51.212C40.2155 51.212 41.1175 52.235 41.3485 53.61C41.4365 54.105 41.4695 54.556 41.4695 55.04ZM39.9735 53.918C39.9735 53.082 39.5775 52.433 38.7635 52.433C37.9385 52.433 37.5315 53.027 37.5315 53.918C37.5315 54.71 37.9385 55.348 38.7855 55.348C39.5225 55.348 39.9735 54.721 39.9735 53.918ZM46.434 56.228H42.661V54.996H46.434V56.228ZM52.9228 55.172C52.9228 56.426 52.8018 57.702 52.0098 58.461C51.6138 58.846 51.0528 59.143 50.2278 59.143C49.4028 59.143 48.8418 58.846 48.4458 58.461C47.6538 57.702 47.5328 56.426 47.5328 55.172C47.5328 53.918 47.6538 52.642 48.4458 51.883C48.8418 51.498 49.4028 51.212 50.2278 51.212C51.0528 51.212 51.6138 51.498 52.0098 51.883C52.8018 52.642 52.9228 53.918 52.9228 55.172ZM51.5258 55.172C51.5258 54.182 51.6468 52.477 50.2278 52.477C48.8088 52.477 48.9298 54.182 48.9298 55.172C48.9298 56.162 48.8088 57.867 50.2278 57.867C51.6468 57.867 51.5258 56.162 51.5258 55.172ZM59.1962 55.172C59.1962 56.426 59.0752 57.702 58.2832 58.461C57.8872 58.846 57.3262 59.143 56.5012 59.143C55.6762 59.143 55.1152 58.846 54.7192 58.461C53.9272 57.702 53.8062 56.426 53.8062 55.172C53.8062 53.918 53.9272 52.642 54.7192 51.883C55.1152 51.498 55.6762 51.212 56.5012 51.212C57.3262 51.212 57.8872 51.498 58.2832 51.883C59.0752 52.642 59.1962 53.918 59.1962 55.172ZM57.7992 55.172C57.7992 54.182 57.9202 52.477 56.5012 52.477C55.0822 52.477 55.2032 54.182 55.2032 55.172C55.2032 56.162 55.0822 57.867 56.5012 57.867C57.9202 57.867 57.7992 56.162 57.7992 55.172Z" fill="#CCFFCE"/>
<path d="M10.26 9.94C10.26 10.57 10.05 11.14 9.54 11.53C8.99 11.95 8.33 12.01 7.65 12.01H4.83V4.91H7.65C8.22 4.91 8.81 4.99 9.29 5.3C9.81 5.64 10.11 6.23 10.11 6.84C10.11 7.42 9.84 8.07 9.24 8.34C9.91 8.65 10.26 9.28 10.26 9.94ZM8.8 6.92C8.8 6.24 8.28 6.02 7.7 6.02H6.11V7.8H7.73C8.31 7.8 8.8 7.59 8.8 6.92ZM8.95 9.91C8.95 9.15 8.42 8.88 7.74 8.88H6.11V10.85H7.7C8.3 10.85 8.95 10.63 8.95 9.91ZM16.5206 12H11.4706V4.91H16.5206V6.08H12.7606V7.73H16.0706V8.89H12.7606V10.83H16.5206V12ZM23.1599 4.91L20.6799 9.28V12H19.3799V9.28L16.9199 4.91H18.3199L20.0699 7.97L21.8199 4.91H23.1599ZM29.1086 8.46C29.1086 9.62 28.9786 10.56 28.2086 11.33C27.6686 11.87 26.9286 12.13 26.1686 12.13C25.4086 12.13 24.6686 11.87 24.1286 11.33C23.3586 10.56 23.2286 9.62 23.2286 8.46C23.2286 7.3 23.3586 6.35 24.1286 5.58C24.6686 5.04 25.4086 4.78 26.1686 4.78C26.9286 4.78 27.6686 5.04 28.2086 5.58C28.9786 6.35 29.1086 7.3 29.1086 8.46ZM27.7986 8.46C27.7986 7.81 27.7786 6.93 27.2886 6.42C27.0086 6.12 26.5786 5.95 26.1686 5.95C25.7586 5.95 25.3286 6.12 25.0486 6.42C24.5586 6.93 24.5386 7.81 24.5386 8.46C24.5386 9.11 24.5586 9.98 25.0486 10.49C25.3286 10.79 25.7586 10.96 26.1686 10.96C26.5786 10.96 27.0086 10.79 27.2886 10.49C27.7786 9.98 27.7986 9.11 27.7986 8.46ZM36.0273 12H34.6973L31.6273 7.13V12H30.3573V4.91H31.7273L34.7573 9.71V4.91H36.0273V12Z" fill="#CCFFCE"/>
<rect x="58.5007" y="3" width="2.1215" height="10.6075" transform="rotate(45 58.5007 3)" fill="#CCFFCE"/>
<rect x="60.0007" y="10.501" width="2.1215" height="10.6075" transform="rotate(135 60.0007 10.501)" fill="#CCFFCE"/>
</g>
<defs>
<clipPath id="clip0_156_811">
<rect width="64" height="64" fill="white"/>
</clipPath>
</defs>
</svg>
