<svg width="64" height="64" viewBox="0 0 64 64" fill="none" xmlns="http://www.w3.org/2000/svg">
<g clip-path="url(#clip0_156_1057)">
<rect width="64" height="64" fill="#0000FF"/>
<rect width="64" height="64" rx="6" fill="#0000FF"/>
<path d="M24.568 33.576C24.424 34.92 23.92 36.288 22.936 37.296C21.664 38.592 19.888 39.312 18.064 39.312C16.24 39.312 14.536 38.712 13.24 37.416C11.392 35.568 11.128 33.288 11.128 30.504C11.128 27.72 11.392 25.44 13.24 23.592C14.536 22.296 16.24 21.672 18.064 21.672C19.888 21.672 21.664 22.344 22.936 23.64C23.92 24.648 24.424 25.992 24.568 27.336H21.4C21.328 26.592 21.064 26.064 20.632 25.536C20.08 24.84 19.12 24.48 18.064 24.48C17.08 24.48 16.12 24.888 15.448 25.608C14.272 26.832 14.272 28.944 14.272 30.504C14.272 32.064 14.272 34.176 15.448 35.4C16.12 36.12 17.08 36.528 18.064 36.528C19.12 36.528 20.08 36.144 20.632 35.448C21.064 34.92 21.328 34.32 21.4 33.576H24.568ZM37.7423 39H34.7423V31.296C34.7423 29.856 34.2623 28.968 32.6783 28.968C30.8783 28.968 30.1103 30.888 30.1103 32.424V39H27.1103V21.672H30.1103V27.84C30.8303 26.784 32.2223 26.208 33.5183 26.208C36.1823 26.208 37.7423 28.104 37.7423 30.672V39ZM51.97 39H49.378L49.186 37.632C48.442 38.784 47.05 39.288 45.682 39.288C44.434 39.288 43.402 38.856 42.634 38.232C41.146 37.008 40.426 35.136 40.426 32.784C40.426 30.336 41.17 28.44 42.658 27.216C43.426 26.592 44.434 26.208 45.706 26.208C47.29 26.208 48.442 26.736 48.97 27.384V21.672H51.97V39ZM49.114 32.736C49.114 30.936 48.634 28.728 46.282 28.728C45.346 28.728 44.698 29.16 44.266 29.712C43.642 30.528 43.474 31.656 43.474 32.736C43.474 33.816 43.642 34.968 44.266 35.784C44.698 36.336 45.346 36.768 46.282 36.768C48.634 36.768 49.114 34.536 49.114 32.736Z" fill="#EEEEFF"/>
<path d="M9.92635 59H5.04235V57.9L8.02335 54.347C8.28735 54.039 8.41935 53.676 8.41935 53.368C8.41935 52.829 8.07835 52.411 7.45135 52.411C6.80235 52.411 6.42835 52.906 6.42835 53.511H5.02035C5.03135 52.169 5.88935 51.212 7.46235 51.212C8.77135 51.212 9.81635 52.015 9.81635 53.357C9.81635 54.039 9.40935 54.71 8.98035 55.227L6.86835 57.757H9.92635V59ZM16.1998 59H11.3158V57.9L14.2968 54.347C14.5608 54.039 14.6928 53.676 14.6928 53.368C14.6928 52.829 14.3518 52.411 13.7248 52.411C13.0758 52.411 12.7018 52.906 12.7018 53.511H11.2938C11.3048 52.169 12.1628 51.212 13.7358 51.212C15.0448 51.212 16.0898 52.015 16.0898 53.357C16.0898 54.039 15.6828 54.71 15.2538 55.227L13.1418 57.757H16.1998V59ZM22.7372 55.172C22.7372 56.426 22.6162 57.702 21.8242 58.461C21.4282 58.846 20.8672 59.143 20.0422 59.143C19.2172 59.143 18.6562 58.846 18.2602 58.461C17.4682 57.702 17.3472 56.426 17.3472 55.172C17.3472 53.918 17.4682 52.642 18.2602 51.883C18.6562 51.498 19.2172 51.212 20.0422 51.212C20.8672 51.212 21.4282 51.498 21.8242 51.883C22.6162 52.642 22.7372 53.918 22.7372 55.172ZM21.3402 55.172C21.3402 54.182 21.4612 52.477 20.0422 52.477C18.6232 52.477 18.7442 54.182 18.7442 55.172C18.7442 56.162 18.6232 57.867 20.0422 57.867C21.4612 57.867 21.3402 56.162 21.3402 55.172ZM28.7467 59H23.8627V57.9L26.8437 54.347C27.1077 54.039 27.2397 53.676 27.2397 53.368C27.2397 52.829 26.8987 52.411 26.2717 52.411C25.6227 52.411 25.2487 52.906 25.2487 53.511H23.8407C23.8517 52.169 24.7097 51.212 26.2827 51.212C27.5917 51.212 28.6367 52.015 28.6367 53.357C28.6367 54.039 28.2297 54.71 27.8007 55.227L25.6887 57.757H28.7467V59ZM35.2291 56.855C35.2291 58.34 33.9641 59.154 32.5891 59.154C31.2141 59.154 29.9491 58.34 29.9491 56.855C29.9491 56.096 30.3341 55.37 31.0601 55.029C30.4991 54.721 30.1031 54.028 30.1031 53.379C30.1031 51.938 31.2581 51.212 32.5891 51.212C33.9201 51.212 35.0751 51.938 35.0751 53.379C35.0751 54.028 34.6791 54.721 34.1181 55.029C34.8441 55.37 35.2291 56.096 35.2291 56.855ZM33.6891 53.401C33.6891 52.84 33.3151 52.411 32.5891 52.411C31.8521 52.411 31.4891 52.84 31.4891 53.401C31.4891 53.962 31.8631 54.424 32.5891 54.424C33.3151 54.424 33.6891 53.962 33.6891 53.401ZM33.8431 56.767C33.8431 56.14 33.4031 55.634 32.5891 55.634C31.7751 55.634 31.3351 56.14 31.3351 56.767C31.3351 57.471 31.8411 57.933 32.5891 57.933C33.3371 57.933 33.8431 57.471 33.8431 56.767ZM41.5905 56.404C41.5905 58.021 40.6335 59.154 38.9285 59.154C37.4105 59.154 36.3545 58.208 36.2775 56.767H37.6525C37.6855 57.526 38.2135 57.933 38.9395 57.933C39.8635 57.933 40.1935 57.262 40.1935 56.437C40.1935 55.634 39.8195 55.051 38.9395 55.051C38.4885 55.051 38.0375 55.282 37.7955 55.667H36.4425L36.6075 51.355H41.2495V52.587H37.7955L37.7075 54.336C38.0595 54.006 38.5435 53.841 39.2255 53.841C40.7655 53.841 41.5905 54.952 41.5905 56.404ZM46.434 56.228H42.661V54.996H46.434V56.228ZM52.9228 55.172C52.9228 56.426 52.8018 57.702 52.0098 58.461C51.6138 58.846 51.0528 59.143 50.2278 59.143C49.4028 59.143 48.8418 58.846 48.4458 58.461C47.6538 57.702 47.5328 56.426 47.5328 55.172C47.5328 53.918 47.6538 52.642 48.4458 51.883C48.8418 51.498 49.4028 51.212 50.2278 51.212C51.0528 51.212 51.6138 51.498 52.0098 51.883C52.8018 52.642 52.9228 53.918 52.9228 55.172ZM51.5258 55.172C51.5258 54.182 51.6468 52.477 50.2278 52.477C48.8088 52.477 48.9298 54.182 48.9298 55.172C48.9298 56.162 48.8088 57.867 50.2278 57.867C51.6468 57.867 51.5258 56.162 51.5258 55.172ZM57.7002 59H56.3252V52.983L54.6422 54.204V52.708L56.5232 51.355H57.7002V59Z" fill="#EEEEFF"/>
<path d="M10.5 12H9.17L6.1 7.13V12H4.83V4.91H6.2L9.23 9.71V4.91H10.5V12ZM17.214 12H12.164V4.91H17.214V6.08H13.454V7.73H16.764V8.89H13.454V10.83H17.214V12ZM23.8645 8.46C23.8645 9.62 23.7345 10.56 22.9645 11.33C22.4245 11.87 21.6845 12.13 20.9245 12.13C20.1645 12.13 19.4245 11.87 18.8845 11.33C18.1145 10.56 17.9845 9.62 17.9845 8.46C17.9845 7.3 18.1145 6.35 18.8845 5.58C19.4245 5.04 20.1645 4.78 20.9245 4.78C21.6845 4.78 22.4245 5.04 22.9645 5.58C23.7345 6.35 23.8645 7.3 23.8645 8.46ZM22.5545 8.46C22.5545 7.81 22.5345 6.93 22.0445 6.42C21.7645 6.12 21.3345 5.95 20.9245 5.95C20.5145 5.95 20.0845 6.12 19.8045 6.42C19.3145 6.93 19.2945 7.81 19.2945 8.46C19.2945 9.11 19.3145 9.98 19.8045 10.49C20.0845 10.79 20.5145 10.96 20.9245 10.96C21.3345 10.96 21.7645 10.79 22.0445 10.49C22.5345 9.98 22.5545 9.11 22.5545 8.46ZM32.2332 12H30.9832V6.94L29.1432 11.9H28.1932L26.3632 6.88V12H25.1132V4.91H26.8532L28.7132 9.96L30.5832 4.91H32.2332V12Z" fill="#EEEEFF"/>
<rect x="53" y="4" width="7" height="7" rx="3.5" stroke="#EEEEFF" stroke-width="2"/>
</g>
<defs>
<clipPath id="clip0_156_1057">
<rect width="64" height="64" fill="white"/>
</clipPath>
</defs>
</svg>
