<svg width="64" height="64" viewBox="0 0 64 64" fill="none" xmlns="http://www.w3.org/2000/svg">
<g clip-path="url(#clip0_156_1116)">
<rect width="64" height="64" fill="#621495"/>
<rect width="64" height="64" rx="6" fill="#621495"/>
<path d="M25.9156 33.576C25.7716 34.92 25.2676 36.288 24.2836 37.296C23.0116 38.592 21.2356 39.312 19.4116 39.312C17.5876 39.312 15.8836 38.712 14.5876 37.416C12.7396 35.568 12.4756 33.288 12.4756 30.504C12.4756 27.72 12.7396 25.44 14.5876 23.592C15.8836 22.296 17.5876 21.672 19.4116 21.672C21.2356 21.672 23.0116 22.344 24.2836 23.64C25.2676 24.648 25.7716 25.992 25.9156 27.336H22.7476C22.6756 26.592 22.4116 26.064 21.9796 25.536C21.4276 24.84 20.4676 24.48 19.4116 24.48C18.4276 24.48 17.4676 24.888 16.7956 25.608C15.6196 26.832 15.6196 28.944 15.6196 30.504C15.6196 32.064 15.6196 34.176 16.7956 35.4C17.4676 36.12 18.4276 36.528 19.4116 36.528C20.4676 36.528 21.4276 36.144 21.9796 35.448C22.4116 34.92 22.6756 34.32 22.7476 33.576H25.9156ZM39.2579 32.76C39.2579 34.872 38.7299 36.192 37.7939 37.368C36.9299 38.424 35.3219 39.312 33.4259 39.312C31.5299 39.312 29.9219 38.424 29.0579 37.368C28.1219 36.192 27.5939 34.872 27.5939 32.76C27.5939 30.648 28.1219 29.328 29.0579 28.152C29.9219 27.096 31.5299 26.208 33.4259 26.208C35.3219 26.208 36.9299 27.096 37.7939 28.152C38.7299 29.328 39.2579 30.648 39.2579 32.76ZM36.2099 32.76C36.2099 31.584 36.0419 30.408 35.3219 29.616C34.9139 29.184 34.2419 28.824 33.4259 28.824C32.6099 28.824 31.9379 29.184 31.5299 29.616C30.8099 30.408 30.6419 31.584 30.6419 32.76C30.6419 33.936 30.8099 35.112 31.5299 35.904C31.9379 36.336 32.6099 36.696 33.4259 36.696C34.2419 36.696 34.9139 36.336 35.3219 35.904C36.0419 35.112 36.2099 33.936 36.2099 32.76ZM52.4922 26.52L47.9803 39H44.7883L40.1562 26.52H43.3242L46.4443 35.304L49.3963 26.52H52.4922Z" fill="#EFD8FF"/>
<path d="M8.69435 59H7.31935V52.983L5.63635 54.204V52.708L7.51735 51.355H8.69435V59ZM16.3758 55.04C16.3758 56.162 16.3098 57.537 15.5288 58.373C15.1108 58.813 14.5718 59.143 13.6588 59.143C12.8778 59.143 12.3058 58.89 11.9098 58.516C11.4808 58.109 11.2608 57.559 11.2608 57.108H12.6468C12.6688 57.339 12.7678 57.548 12.9108 57.691C13.0868 57.878 13.3508 57.966 13.7248 57.966C14.0878 57.966 14.2968 57.834 14.4838 57.658C14.9018 57.273 15.0118 56.58 15.0118 55.909C14.6708 56.316 14.0218 56.47 13.5598 56.47C11.9098 56.47 11.0408 55.414 11.0408 53.863C11.0408 52.367 11.9318 51.212 13.6698 51.212C15.1218 51.212 16.0238 52.235 16.2548 53.61C16.3428 54.105 16.3758 54.556 16.3758 55.04ZM14.8798 53.918C14.8798 53.082 14.4838 52.433 13.6698 52.433C12.8448 52.433 12.4378 53.027 12.4378 53.918C12.4378 54.71 12.8448 55.348 13.6918 55.348C14.4288 55.348 14.8798 54.721 14.8798 53.918ZM22.7372 55.172C22.7372 56.426 22.6162 57.702 21.8242 58.461C21.4282 58.846 20.8672 59.143 20.0422 59.143C19.2172 59.143 18.6562 58.846 18.2602 58.461C17.4682 57.702 17.3472 56.426 17.3472 55.172C17.3472 53.918 17.4682 52.642 18.2602 51.883C18.6562 51.498 19.2172 51.212 20.0422 51.212C20.8672 51.212 21.4282 51.498 21.8242 51.883C22.6162 52.642 22.7372 53.918 22.7372 55.172ZM21.3402 55.172C21.3402 54.182 21.4612 52.477 20.0422 52.477C18.6232 52.477 18.7442 54.182 18.7442 55.172C18.7442 56.162 18.6232 57.867 20.0422 57.867C21.4612 57.867 21.3402 56.162 21.3402 55.172ZM29.0107 55.172C29.0107 56.426 28.8897 57.702 28.0977 58.461C27.7017 58.846 27.1407 59.143 26.3157 59.143C25.4907 59.143 24.9297 58.846 24.5337 58.461C23.7417 57.702 23.6207 56.426 23.6207 55.172C23.6207 53.918 23.7417 52.642 24.5337 51.883C24.9297 51.498 25.4907 51.212 26.3157 51.212C27.1407 51.212 27.7017 51.498 28.0977 51.883C28.8897 52.642 29.0107 53.918 29.0107 55.172ZM27.6137 55.172C27.6137 54.182 27.7347 52.477 26.3157 52.477C24.8967 52.477 25.0177 54.182 25.0177 55.172C25.0177 56.162 24.8967 57.867 26.3157 57.867C27.7347 57.867 27.6137 56.162 27.6137 55.172ZM35.5041 57.46H34.5361V59H33.1611V57.46H29.7511V56.162L32.5561 51.355H34.0521L31.2031 56.217H33.1611V54.424H34.5361V56.217H35.5041V57.46ZM41.5025 56.855C41.5025 58.34 40.2375 59.154 38.8625 59.154C37.4875 59.154 36.2225 58.34 36.2225 56.855C36.2225 56.096 36.6075 55.37 37.3335 55.029C36.7725 54.721 36.3765 54.028 36.3765 53.379C36.3765 51.938 37.5315 51.212 38.8625 51.212C40.1935 51.212 41.3485 51.938 41.3485 53.379C41.3485 54.028 40.9525 54.721 40.3915 55.029C41.1175 55.37 41.5025 56.096 41.5025 56.855ZM39.9625 53.401C39.9625 52.84 39.5885 52.411 38.8625 52.411C38.1255 52.411 37.7625 52.84 37.7625 53.401C37.7625 53.962 38.1365 54.424 38.8625 54.424C39.5885 54.424 39.9625 53.962 39.9625 53.401ZM40.1165 56.767C40.1165 56.14 39.6765 55.634 38.8625 55.634C38.0485 55.634 37.6085 56.14 37.6085 56.767C37.6085 57.471 38.1145 57.933 38.8625 57.933C39.6105 57.933 40.1165 57.471 40.1165 56.767ZM46.434 56.228H42.661V54.996H46.434V56.228ZM52.9228 55.172C52.9228 56.426 52.8018 57.702 52.0098 58.461C51.6138 58.846 51.0528 59.143 50.2278 59.143C49.4028 59.143 48.8418 58.846 48.4458 58.461C47.6538 57.702 47.5328 56.426 47.5328 55.172C47.5328 53.918 47.6538 52.642 48.4458 51.883C48.8418 51.498 49.4028 51.212 50.2278 51.212C51.0528 51.212 51.6138 51.498 52.0098 51.883C52.8018 52.642 52.9228 53.918 52.9228 55.172ZM51.5258 55.172C51.5258 54.182 51.6468 52.477 50.2278 52.477C48.8088 52.477 48.9298 54.182 48.9298 55.172C48.9298 56.162 48.8088 57.867 50.2278 57.867C51.6468 57.867 51.5258 56.162 51.5258 55.172ZM59.1962 55.172C59.1962 56.426 59.0752 57.702 58.2832 58.461C57.8872 58.846 57.3262 59.143 56.5012 59.143C55.6762 59.143 55.1152 58.846 54.7192 58.461C53.9272 57.702 53.8062 56.426 53.8062 55.172C53.8062 53.918 53.9272 52.642 54.7192 51.883C55.1152 51.498 55.6762 51.212 56.5012 51.212C57.3262 51.212 57.8872 51.498 58.2832 51.883C59.0752 52.642 59.1962 53.918 59.1962 55.172ZM57.7992 55.172C57.7992 54.182 57.9202 52.477 56.5012 52.477C55.0822 52.477 55.2032 54.182 55.2032 55.172C55.2032 56.162 55.0822 57.867 56.5012 57.867C57.9202 57.867 57.7992 56.162 57.7992 55.172Z" fill="#EFD8FF"/>
<rect x="58.5007" y="3" width="2.1215" height="10.6075" transform="rotate(45 58.5007 3)" fill="#EFD8FF"/>
<rect x="60.0007" y="10.501" width="2.1215" height="10.6075" transform="rotate(135 60.0007 10.501)" fill="#EFD8FF"/>
<path d="M11.95 12H10.7V6.94L8.86 11.9H7.91L6.08 6.88V12H4.83V4.91H6.57L8.43 9.96L10.3 4.91H11.95V12ZM19.0793 8.46C19.0793 9.62 18.9493 10.56 18.1793 11.33C17.6393 11.87 16.8993 12.13 16.1393 12.13C15.3793 12.13 14.6393 11.87 14.0993 11.33C13.3293 10.56 13.1993 9.62 13.1993 8.46C13.1993 7.3 13.3293 6.35 14.0993 5.58C14.6393 5.04 15.3793 4.78 16.1393 4.78C16.8993 4.78 17.6393 5.04 18.1793 5.58C18.9493 6.35 19.0793 7.3 19.0793 8.46ZM17.7693 8.46C17.7693 7.81 17.7493 6.93 17.2593 6.42C16.9793 6.12 16.5493 5.95 16.1393 5.95C15.7293 5.95 15.2993 6.12 15.0193 6.42C14.5293 6.93 14.5093 7.81 14.5093 8.46C14.5093 9.11 14.5293 9.98 15.0193 10.49C15.2993 10.79 15.7293 10.96 16.1393 10.96C16.5493 10.96 16.9793 10.79 17.2593 10.49C17.7493 9.98 17.7693 9.11 17.7693 8.46ZM25.908 8.45C25.908 9.43 25.808 10.49 25.078 11.24C24.608 11.73 23.898 12 23.088 12H20.328V4.91H23.088C23.898 4.91 24.608 5.18 25.078 5.67C25.808 6.42 25.908 7.47 25.908 8.45ZM24.598 8.45C24.598 7.8 24.588 6.97 24.088 6.47C23.848 6.23 23.498 6.07 23.088 6.07H21.618V10.84H23.088C23.498 10.84 23.848 10.68 24.088 10.44C24.588 9.94 24.598 9.1 24.598 8.45ZM32.634 8.46C32.634 9.62 32.504 10.56 31.734 11.33C31.194 11.87 30.454 12.13 29.694 12.13C28.934 12.13 28.194 11.87 27.654 11.33C26.884 10.56 26.754 9.62 26.754 8.46C26.754 7.3 26.884 6.35 27.654 5.58C28.194 5.04 28.934 4.78 29.694 4.78C30.454 4.78 31.194 5.04 31.734 5.58C32.504 6.35 32.634 7.3 32.634 8.46ZM31.324 8.46C31.324 7.81 31.304 6.93 30.814 6.42C30.534 6.12 30.104 5.95 29.694 5.95C29.284 5.95 28.854 6.12 28.574 6.42C28.084 6.93 28.064 7.81 28.064 8.46C28.064 9.11 28.084 9.98 28.574 10.49C28.854 10.79 29.284 10.96 29.694 10.96C30.104 10.96 30.534 10.79 30.814 10.49C31.304 9.98 31.324 9.11 31.324 8.46ZM39.5527 12H38.2227L35.1527 7.13V12H33.8827V4.91H35.2527L38.2827 9.71V4.91H39.5527V12Z" fill="#EFD8FF"/>
</g>
<defs>
<clipPath id="clip0_156_1116">
<rect width="64" height="64" fill="white"/>
</clipPath>
</defs>
</svg>
