<svg width="64" height="64" viewBox="0 0 64 64" fill="none" xmlns="http://www.w3.org/2000/svg">
<g clip-path="url(#clip0_156_1069)">
<rect width="64" height="64" fill="#0000FF"/>
<rect width="64" height="64" rx="6" fill="#0000FF"/>
<path d="M24.5797 33.576C24.4357 34.92 23.9317 36.288 22.9477 37.296C21.6757 38.592 19.8997 39.312 18.0757 39.312C16.2517 39.312 14.5477 38.712 13.2517 37.416C11.4037 35.568 11.1397 33.288 11.1397 30.504C11.1397 27.72 11.4037 25.44 13.2517 23.592C14.5477 22.296 16.2517 21.672 18.0757 21.672C19.8997 21.672 21.6757 22.344 22.9477 23.64C23.9317 24.648 24.4357 25.992 24.5797 27.336H21.4117C21.3397 26.592 21.0757 26.064 20.6437 25.536C20.0917 24.84 19.1317 24.48 18.0757 24.48C17.0917 24.48 16.1317 24.888 15.4597 25.608C14.2837 26.832 14.2837 28.944 14.2837 30.504C14.2837 32.064 14.2837 34.176 15.4597 35.4C16.1317 36.12 17.0917 36.528 18.0757 36.528C19.1317 36.528 20.0917 36.144 20.6437 35.448C21.0757 34.92 21.3397 34.32 21.4117 33.576H24.5797ZM37.538 39H35.042L34.826 37.368C34.226 38.592 32.834 39.312 31.25 39.312C28.586 39.312 26.93 37.512 26.93 34.848V26.52H29.93V34.176C29.93 35.64 30.506 36.552 32.09 36.552C32.786 36.552 33.266 36.288 33.626 35.928C34.346 35.256 34.538 34.128 34.538 33.12V26.52H37.538V39ZM52.8223 32.784C52.8223 35.136 52.0782 37.008 50.5903 38.232C49.8223 38.856 48.8143 39.288 47.5663 39.288C46.1983 39.288 44.8063 38.784 44.0623 37.632L43.8703 39H41.2783V21.672H44.2783V27.432C44.8543 26.736 46.0543 26.208 47.5423 26.208C48.8143 26.208 49.8223 26.592 50.5903 27.216C52.0782 28.44 52.8223 30.336 52.8223 32.784ZM49.7743 32.736C49.7743 31.656 49.6063 30.528 48.9823 29.712C48.5503 29.16 47.9023 28.728 46.9663 28.728C44.6143 28.728 44.1343 30.936 44.1343 32.736C44.1343 33.96 44.3503 35.352 45.2143 36.144C45.6223 36.528 46.1983 36.768 46.9663 36.768C47.9023 36.768 48.5503 36.336 48.9823 35.784C49.6063 34.968 49.7743 33.816 49.7743 32.736Z" fill="#EEEEFF"/>
<path d="M9.92635 59H5.04235V57.9L8.02335 54.347C8.28735 54.039 8.41935 53.676 8.41935 53.368C8.41935 52.829 8.07835 52.411 7.45135 52.411C6.80235 52.411 6.42835 52.906 6.42835 53.511H5.02035C5.03135 52.169 5.88935 51.212 7.46235 51.212C8.77135 51.212 9.81635 52.015 9.81635 53.357C9.81635 54.039 9.40935 54.71 8.98035 55.227L6.86835 57.757H9.92635V59ZM14.9678 59H13.5928V52.983L11.9098 54.204V52.708L13.7908 51.355H14.9678V59ZM22.7372 55.172C22.7372 56.426 22.6162 57.702 21.8242 58.461C21.4282 58.846 20.8672 59.143 20.0422 59.143C19.2172 59.143 18.6562 58.846 18.2602 58.461C17.4682 57.702 17.3472 56.426 17.3472 55.172C17.3472 53.918 17.4682 52.642 18.2602 51.883C18.6562 51.498 19.2172 51.212 20.0422 51.212C20.8672 51.212 21.4282 51.498 21.8242 51.883C22.6162 52.642 22.7372 53.918 22.7372 55.172ZM21.3402 55.172C21.3402 54.182 21.4612 52.477 20.0422 52.477C18.6232 52.477 18.7442 54.182 18.7442 55.172C18.7442 56.162 18.6232 57.867 20.0422 57.867C21.4612 57.867 21.3402 56.162 21.3402 55.172ZM29.0107 55.172C29.0107 56.426 28.8897 57.702 28.0977 58.461C27.7017 58.846 27.1407 59.143 26.3157 59.143C25.4907 59.143 24.9297 58.846 24.5337 58.461C23.7417 57.702 23.6207 56.426 23.6207 55.172C23.6207 53.918 23.7417 52.642 24.5337 51.883C24.9297 51.498 25.4907 51.212 26.3157 51.212C27.1407 51.212 27.7017 51.498 28.0977 51.883C28.8897 52.642 29.0107 53.918 29.0107 55.172ZM27.6137 55.172C27.6137 54.182 27.7347 52.477 26.3157 52.477C24.8967 52.477 25.0177 54.182 25.0177 55.172C25.0177 56.162 24.8967 57.867 26.3157 57.867C27.7347 57.867 27.6137 56.162 27.6137 55.172ZM35.3391 56.481C35.3391 57.977 34.4481 59.143 32.7101 59.143C31.2581 59.143 30.3561 58.109 30.1251 56.734C30.0371 56.239 30.0041 55.788 30.0041 55.304C30.0041 54.182 30.0701 52.807 30.8511 51.971C31.2691 51.531 31.8081 51.212 32.7211 51.212C33.5021 51.212 34.0741 51.454 34.4701 51.828C34.8991 52.235 35.1191 52.785 35.1191 53.236H33.7331C33.7111 53.005 33.6121 52.796 33.4691 52.653C33.2931 52.466 33.0291 52.378 32.6551 52.378C32.2921 52.378 32.0831 52.51 31.8961 52.686C31.4781 53.071 31.3681 53.764 31.3681 54.435C31.7091 54.028 32.3581 53.874 32.8201 53.874C34.4701 53.874 35.3391 54.93 35.3391 56.481ZM33.9421 56.426C33.9421 55.634 33.5351 54.996 32.6881 54.996C31.9511 54.996 31.5001 55.623 31.5001 56.426C31.5001 57.262 31.8961 57.911 32.7101 57.911C33.5351 57.911 33.9421 57.317 33.9421 56.426ZM40.0615 59H38.6865V52.983L37.0035 54.204V52.708L38.8845 51.355H40.0615V59ZM46.434 56.228H42.661V54.996H46.434V56.228ZM52.9228 55.172C52.9228 56.426 52.8018 57.702 52.0098 58.461C51.6138 58.846 51.0528 59.143 50.2278 59.143C49.4028 59.143 48.8418 58.846 48.4458 58.461C47.6538 57.702 47.5328 56.426 47.5328 55.172C47.5328 53.918 47.6538 52.642 48.4458 51.883C48.8418 51.498 49.4028 51.212 50.2278 51.212C51.0528 51.212 51.6138 51.498 52.0098 51.883C52.8018 52.642 52.9228 53.918 52.9228 55.172ZM51.5258 55.172C51.5258 54.182 51.6468 52.477 50.2278 52.477C48.8088 52.477 48.9298 54.182 48.9298 55.172C48.9298 56.162 48.8088 57.867 50.2278 57.867C51.6468 57.867 51.5258 56.162 51.5258 55.172ZM59.1962 55.172C59.1962 56.426 59.0752 57.702 58.2832 58.461C57.8872 58.846 57.3262 59.143 56.5012 59.143C55.6762 59.143 55.1152 58.846 54.7192 58.461C53.9272 57.702 53.8062 56.426 53.8062 55.172C53.8062 53.918 53.9272 52.642 54.7192 51.883C55.1152 51.498 55.6762 51.212 56.5012 51.212C57.3262 51.212 57.8872 51.498 58.2832 51.883C59.0752 52.642 59.1962 53.918 59.1962 55.172ZM57.7992 55.172C57.7992 54.182 57.9202 52.477 56.5012 52.477C55.0822 52.477 55.2032 54.182 55.2032 55.172C55.2032 56.162 55.0822 57.867 56.5012 57.867C57.9202 57.867 57.7992 56.162 57.7992 55.172Z" fill="#EEEEFF"/>
<path d="M10.5 12H9.17L6.1 7.13V12H4.83V4.91H6.2L9.23 9.71V4.91H10.5V12ZM17.214 12H12.164V4.91H17.214V6.08H13.454V7.73H16.764V8.89H13.454V10.83H17.214V12ZM23.8645 8.46C23.8645 9.62 23.7345 10.56 22.9645 11.33C22.4245 11.87 21.6845 12.13 20.9245 12.13C20.1645 12.13 19.4245 11.87 18.8845 11.33C18.1145 10.56 17.9845 9.62 17.9845 8.46C17.9845 7.3 18.1145 6.35 18.8845 5.58C19.4245 5.04 20.1645 4.78 20.9245 4.78C21.6845 4.78 22.4245 5.04 22.9645 5.58C23.7345 6.35 23.8645 7.3 23.8645 8.46ZM22.5545 8.46C22.5545 7.81 22.5345 6.93 22.0445 6.42C21.7645 6.12 21.3345 5.95 20.9245 5.95C20.5145 5.95 20.0845 6.12 19.8045 6.42C19.3145 6.93 19.2945 7.81 19.2945 8.46C19.2945 9.11 19.3145 9.98 19.8045 10.49C20.0845 10.79 20.5145 10.96 20.9245 10.96C21.3345 10.96 21.7645 10.79 22.0445 10.49C22.5345 9.98 22.5545 9.11 22.5545 8.46ZM32.2332 12H30.9832V6.94L29.1432 11.9H28.1932L26.3632 6.88V12H25.1132V4.91H26.8532L28.7132 9.96L30.5832 4.91H32.2332V12Z" fill="#EEEEFF"/>
<rect x="53" y="4" width="7" height="7" rx="3.5" stroke="#EEEEFF" stroke-width="2"/>
</g>
<defs>
<clipPath id="clip0_156_1069">
<rect width="64" height="64" fill="white"/>
</clipPath>
</defs>
</svg>
