<svg width="64" height="64" viewBox="0 0 64 64" fill="none" xmlns="http://www.w3.org/2000/svg">
<g clip-path="url(#clip0_177_1646)">
<rect width="64" height="64" fill="#FCFF3A"/>
<rect width="64" height="64" rx="6" fill="#FCFF3A"/>
<path d="M9.55 6.11H7.45V12H6.16V6.11H4.06V4.91H9.55V6.11ZM15.4855 12H10.4355V4.91H15.4855V6.08H11.7255V7.73H15.0355V8.89H11.7255V10.83H15.4855V12ZM21.8359 9.74C21.7759 10.3 21.5659 10.87 21.1559 11.29C20.6259 11.83 19.8859 12.13 19.1259 12.13C18.3659 12.13 17.6559 11.88 17.1159 11.34C16.3459 10.57 16.2359 9.62 16.2359 8.46C16.2359 7.3 16.3459 6.35 17.1159 5.58C17.6559 5.04 18.3659 4.78 19.1259 4.78C19.8859 4.78 20.6259 5.06 21.1559 5.6C21.5659 6.02 21.7759 6.58 21.8359 7.14H20.5159C20.4859 6.83 20.3759 6.61 20.1959 6.39C19.9659 6.1 19.5659 5.95 19.1259 5.95C18.7159 5.95 18.3159 6.12 18.0359 6.42C17.5459 6.93 17.5459 7.81 17.5459 8.46C17.5459 9.11 17.5459 9.99 18.0359 10.5C18.3159 10.8 18.7159 10.97 19.1259 10.97C19.5659 10.97 19.9659 10.81 20.1959 10.52C20.3759 10.3 20.4859 10.05 20.5159 9.74H21.8359ZM28.4152 8.46C28.4152 9.62 28.2852 10.56 27.5152 11.33C26.9752 11.87 26.2352 12.13 25.4752 12.13C24.7152 12.13 23.9752 11.87 23.4352 11.33C22.6652 10.56 22.5352 9.62 22.5352 8.46C22.5352 7.3 22.6652 6.35 23.4352 5.58C23.9752 5.04 24.7152 4.78 25.4752 4.78C26.2352 4.78 26.9752 5.04 27.5152 5.58C28.2852 6.35 28.4152 7.3 28.4152 8.46ZM27.1052 8.46C27.1052 7.81 27.0852 6.93 26.5952 6.42C26.3152 6.12 25.8852 5.95 25.4752 5.95C25.0652 5.95 24.6352 6.12 24.3552 6.42C23.8652 6.93 23.8452 7.81 23.8452 8.46C23.8452 9.11 23.8652 9.98 24.3552 10.49C24.6352 10.79 25.0652 10.96 25.4752 10.96C25.8852 10.96 26.3152 10.79 26.5952 10.49C27.0852 9.98 27.1052 9.11 27.1052 8.46ZM36.784 12H35.534V6.94L33.694 11.9H32.744L30.914 6.88V12H29.664V4.91H31.404L33.264 9.96L35.134 4.91H36.784V12Z" fill="#BD9832"/>
<rect x="58.5007" y="4" width="2.1215" height="10.6075" transform="rotate(45 58.5007 4)" fill="#BD9832"/>
<rect x="60.0007" y="11.501" width="2.1215" height="10.6075" transform="rotate(135 60.0007 11.501)" fill="#BD9832"/>
<path d="M24.3684 30.48C24.3684 32.832 24.1284 35.376 22.3764 37.176C21.2484 38.352 19.5444 39 17.6004 39H10.9764V21.984H17.6004C19.5444 21.984 21.2484 22.632 22.3764 23.808C24.1284 25.608 24.3684 28.128 24.3684 30.48ZM21.2244 30.48C21.2244 28.92 21.2004 26.928 20.0004 25.728C19.4244 25.152 18.5844 24.768 17.6004 24.768H14.0724V36.216H17.6004C18.5844 36.216 19.4244 35.832 20.0004 35.256C21.2004 34.056 21.2244 32.04 21.2244 30.48ZM37.7746 34.224C37.7746 37.56 35.2306 39.312 32.0866 39.312C29.0146 39.312 26.5186 37.296 26.4226 34.176H29.4226C29.5426 35.808 30.6466 36.672 32.1106 36.672C33.5986 36.672 34.7506 35.76 34.7506 34.176C34.7506 32.448 33.3826 31.656 31.8226 31.656H30.5746V29.04H31.8226C33.4546 29.04 34.3906 28.368 34.3906 26.808C34.3906 25.608 33.4306 24.624 32.1106 24.624C30.6226 24.624 29.5666 25.368 29.5426 26.88H26.5186C26.5666 23.736 29.0626 22.008 32.1106 22.008C35.1346 22.008 37.4386 23.856 37.4386 26.736C37.4386 28.248 36.5506 29.784 35.0386 30.312C36.7666 30.792 37.7746 32.496 37.7746 34.224ZM54.1021 34.056C54.1021 35.568 53.5981 36.936 52.3741 37.872C51.0541 38.88 49.4701 39.024 47.8381 39.024H41.0701V21.984H47.8381C49.2061 21.984 50.6221 22.176 51.7741 22.92C53.0221 23.736 53.7421 25.152 53.7421 26.616C53.7421 28.008 53.0941 29.568 51.6541 30.216C53.2621 30.96 54.1021 32.472 54.1021 34.056ZM50.5981 26.808C50.5981 25.176 49.3501 24.648 47.9581 24.648H44.1421V28.92H48.0301C49.4221 28.92 50.5981 28.416 50.5981 26.808ZM50.9581 33.984C50.9581 32.16 49.6861 31.512 48.0541 31.512H44.1421V36.24H47.9581C49.3981 36.24 50.9581 35.712 50.9581 33.984Z" fill="#BD9832"/>
<path d="M8.69435 59H7.31935V52.983L5.63635 54.204V52.708L7.51735 51.355H8.69435V59ZM16.4198 52.455L13.4388 59H11.9538L14.9458 52.587H11.1508V51.355H16.4198V52.455ZM22.7372 55.172C22.7372 56.426 22.6162 57.702 21.8242 58.461C21.4282 58.846 20.8672 59.143 20.0422 59.143C19.2172 59.143 18.6562 58.846 18.2602 58.461C17.4682 57.702 17.3472 56.426 17.3472 55.172C17.3472 53.918 17.4682 52.642 18.2602 51.883C18.6562 51.498 19.2172 51.212 20.0422 51.212C20.8672 51.212 21.4282 51.498 21.8242 51.883C22.6162 52.642 22.7372 53.918 22.7372 55.172ZM21.3402 55.172C21.3402 54.182 21.4612 52.477 20.0422 52.477C18.6232 52.477 18.7442 54.182 18.7442 55.172C18.7442 56.162 18.6232 57.867 20.0422 57.867C21.4612 57.867 21.3402 56.162 21.3402 55.172ZM29.0107 55.172C29.0107 56.426 28.8897 57.702 28.0977 58.461C27.7017 58.846 27.1407 59.143 26.3157 59.143C25.4907 59.143 24.9297 58.846 24.5337 58.461C23.7417 57.702 23.6207 56.426 23.6207 55.172C23.6207 53.918 23.7417 52.642 24.5337 51.883C24.9297 51.498 25.4907 51.212 26.3157 51.212C27.1407 51.212 27.7017 51.498 28.0977 51.883C28.8897 52.642 29.0107 53.918 29.0107 55.172ZM27.6137 55.172C27.6137 54.182 27.7347 52.477 26.3157 52.477C24.8967 52.477 25.0177 54.182 25.0177 55.172C25.0177 56.162 24.8967 57.867 26.3157 57.867C27.7347 57.867 27.6137 56.162 27.6137 55.172ZM35.2401 52.455L32.2591 59H30.7741L33.7661 52.587H29.9711V51.355H35.2401V52.455ZM41.6125 56.481C41.6125 57.977 40.7215 59.143 38.9835 59.143C37.5315 59.143 36.6295 58.109 36.3985 56.734C36.3105 56.239 36.2775 55.788 36.2775 55.304C36.2775 54.182 36.3435 52.807 37.1245 51.971C37.5425 51.531 38.0815 51.212 38.9945 51.212C39.7755 51.212 40.3475 51.454 40.7435 51.828C41.1725 52.235 41.3925 52.785 41.3925 53.236H40.0065C39.9845 53.005 39.8855 52.796 39.7425 52.653C39.5665 52.466 39.3025 52.378 38.9285 52.378C38.5655 52.378 38.3565 52.51 38.1695 52.686C37.7515 53.071 37.6415 53.764 37.6415 54.435C37.9825 54.028 38.6315 53.874 39.0935 53.874C40.7435 53.874 41.6125 54.93 41.6125 56.481ZM40.2155 56.426C40.2155 55.634 39.8085 54.996 38.9615 54.996C38.2245 54.996 37.7735 55.623 37.7735 56.426C37.7735 57.262 38.1695 57.911 38.9835 57.911C39.8085 57.911 40.2155 57.317 40.2155 56.426ZM46.434 56.228H42.661V54.996H46.434V56.228ZM52.9228 55.172C52.9228 56.426 52.8018 57.702 52.0098 58.461C51.6138 58.846 51.0528 59.143 50.2278 59.143C49.4028 59.143 48.8418 58.846 48.4458 58.461C47.6538 57.702 47.5328 56.426 47.5328 55.172C47.5328 53.918 47.6538 52.642 48.4458 51.883C48.8418 51.498 49.4028 51.212 50.2278 51.212C51.0528 51.212 51.6138 51.498 52.0098 51.883C52.8018 52.642 52.9228 53.918 52.9228 55.172ZM51.5258 55.172C51.5258 54.182 51.6468 52.477 50.2278 52.477C48.8088 52.477 48.9298 54.182 48.9298 55.172C48.9298 56.162 48.8088 57.867 50.2278 57.867C51.6468 57.867 51.5258 56.162 51.5258 55.172ZM59.1962 55.172C59.1962 56.426 59.0752 57.702 58.2832 58.461C57.8872 58.846 57.3262 59.143 56.5012 59.143C55.6762 59.143 55.1152 58.846 54.7192 58.461C53.9272 57.702 53.8062 56.426 53.8062 55.172C53.8062 53.918 53.9272 52.642 54.7192 51.883C55.1152 51.498 55.6762 51.212 56.5012 51.212C57.3262 51.212 57.8872 51.498 58.2832 51.883C59.0752 52.642 59.1962 53.918 59.1962 55.172ZM57.7992 55.172C57.7992 54.182 57.9202 52.477 56.5012 52.477C55.0822 52.477 55.2032 54.182 55.2032 55.172C55.2032 56.162 55.0822 57.867 56.5012 57.867C57.9202 57.867 57.7992 56.162 57.7992 55.172Z" fill="#BD9832"/>
</g>
<defs>
<clipPath id="clip0_177_1646">
<rect width="64" height="64" fill="white"/>
</clipPath>
</defs>
</svg>
