<svg width="64" height="64" viewBox="0 0 64 64" fill="none" xmlns="http://www.w3.org/2000/svg">
<g clip-path="url(#clip0_156_1041)">
<rect width="64" height="64" fill="#149618"/>
<rect width="64" height="64" rx="6" fill="#149618"/>
<path d="M24.4973 30.48C24.4973 32.832 24.2573 35.376 22.5053 37.176C21.3773 38.352 19.6733 39 17.7293 39H11.1053V21.984H17.7293C19.6733 21.984 21.3773 22.632 22.5053 23.808C24.2573 25.608 24.4973 28.128 24.4973 30.48ZM21.3533 30.48C21.3533 28.92 21.3293 26.928 20.1293 25.728C19.5533 25.152 18.7133 24.768 17.7293 24.768H14.2013V36.216H17.7293C18.7133 36.216 19.5533 35.832 20.1293 35.256C21.3293 34.056 21.3533 32.04 21.3533 30.48ZM39.9195 33.576C39.7755 34.92 39.2715 36.288 38.2875 37.296C37.0155 38.592 35.2395 39.312 33.4155 39.312C31.5915 39.312 29.8875 38.712 28.5915 37.416C26.7435 35.568 26.4795 33.288 26.4795 30.504C26.4795 27.72 26.7435 25.44 28.5915 23.592C29.8875 22.296 31.5915 21.672 33.4155 21.672C35.2395 21.672 37.0155 22.344 38.2875 23.64C39.2715 24.648 39.7755 25.992 39.9195 27.336H36.7515C36.6795 26.592 36.4155 26.064 35.9835 25.536C35.4315 24.84 34.4715 24.48 33.4155 24.48C32.4315 24.48 31.4715 24.888 30.7995 25.608C29.6235 26.832 29.6235 28.944 29.6235 30.504C29.6235 32.064 29.6235 34.176 30.7995 35.4C31.4715 36.12 32.4315 36.528 33.4155 36.528C34.4715 36.528 35.4315 36.144 35.9835 35.448C36.4155 34.92 36.6795 34.32 36.7515 33.576H39.9195ZM54.8783 21.984L49.2863 39H45.8783L40.2383 21.984H43.5263L47.6543 34.968L51.7583 21.984H54.8783Z" fill="#CCFFCE"/>
<path d="M9.92635 59H5.04235V57.9L8.02335 54.347C8.28735 54.039 8.41935 53.676 8.41935 53.368C8.41935 52.829 8.07835 52.411 7.45135 52.411C6.80235 52.411 6.42835 52.906 6.42835 53.511H5.02035C5.03135 52.169 5.88935 51.212 7.46235 51.212C8.77135 51.212 9.81635 52.015 9.81635 53.357C9.81635 54.039 9.40935 54.71 8.98035 55.227L6.86835 57.757H9.92635V59ZM14.9678 59H13.5928V52.983L11.9098 54.204V52.708L13.7908 51.355H14.9678V59ZM22.7372 55.172C22.7372 56.426 22.6162 57.702 21.8242 58.461C21.4282 58.846 20.8672 59.143 20.0422 59.143C19.2172 59.143 18.6562 58.846 18.2602 58.461C17.4682 57.702 17.3472 56.426 17.3472 55.172C17.3472 53.918 17.4682 52.642 18.2602 51.883C18.6562 51.498 19.2172 51.212 20.0422 51.212C20.8672 51.212 21.4282 51.498 21.8242 51.883C22.6162 52.642 22.7372 53.918 22.7372 55.172ZM21.3402 55.172C21.3402 54.182 21.4612 52.477 20.0422 52.477C18.6232 52.477 18.7442 54.182 18.7442 55.172C18.7442 56.162 18.6232 57.867 20.0422 57.867C21.4612 57.867 21.3402 56.162 21.3402 55.172ZM28.7467 59H23.8627V57.9L26.8437 54.347C27.1077 54.039 27.2397 53.676 27.2397 53.368C27.2397 52.829 26.8987 52.411 26.2717 52.411C25.6227 52.411 25.2487 52.906 25.2487 53.511H23.8407C23.8517 52.169 24.7097 51.212 26.2827 51.212C27.5917 51.212 28.6367 52.015 28.6367 53.357C28.6367 54.039 28.2297 54.71 27.8007 55.227L25.6887 57.757H28.7467V59ZM35.0201 59H30.1361V57.9L33.1171 54.347C33.3811 54.039 33.5131 53.676 33.5131 53.368C33.5131 52.829 33.1721 52.411 32.5451 52.411C31.8961 52.411 31.5221 52.906 31.5221 53.511H30.1141C30.1251 52.169 30.9831 51.212 32.5561 51.212C33.8651 51.212 34.9101 52.015 34.9101 53.357C34.9101 54.039 34.5031 54.71 34.0741 55.227L31.9621 57.757H35.0201V59ZM41.4035 56.811C41.4035 58.34 40.2375 59.143 38.7965 59.143C37.3885 59.143 36.2445 58.219 36.2005 56.789H37.5755C37.6305 57.537 38.1365 57.933 38.8075 57.933C39.4895 57.933 40.0175 57.515 40.0175 56.789C40.0175 55.997 39.3905 55.634 38.6755 55.634H38.1035V54.435H38.6755C39.4235 54.435 39.8525 54.127 39.8525 53.412C39.8525 52.862 39.4125 52.411 38.8075 52.411C38.1255 52.411 37.6415 52.752 37.6305 53.445H36.2445C36.2665 52.004 37.4105 51.212 38.8075 51.212C40.1935 51.212 41.2495 52.059 41.2495 53.379C41.2495 54.072 40.8425 54.776 40.1495 55.018C40.9415 55.238 41.4035 56.019 41.4035 56.811ZM46.434 56.228H42.661V54.996H46.434V56.228ZM52.9228 55.172C52.9228 56.426 52.8018 57.702 52.0098 58.461C51.6138 58.846 51.0528 59.143 50.2278 59.143C49.4028 59.143 48.8418 58.846 48.4458 58.461C47.6538 57.702 47.5328 56.426 47.5328 55.172C47.5328 53.918 47.6538 52.642 48.4458 51.883C48.8418 51.498 49.4028 51.212 50.2278 51.212C51.0528 51.212 51.6138 51.498 52.0098 51.883C52.8018 52.642 52.9228 53.918 52.9228 55.172ZM51.5258 55.172C51.5258 54.182 51.6468 52.477 50.2278 52.477C48.8088 52.477 48.9298 54.182 48.9298 55.172C48.9298 56.162 48.8088 57.867 50.2278 57.867C51.6468 57.867 51.5258 56.162 51.5258 55.172ZM59.1962 55.172C59.1962 56.426 59.0752 57.702 58.2832 58.461C57.8872 58.846 57.3262 59.143 56.5012 59.143C55.6762 59.143 55.1152 58.846 54.7192 58.461C53.9272 57.702 53.8062 56.426 53.8062 55.172C53.8062 53.918 53.9272 52.642 54.7192 51.883C55.1152 51.498 55.6762 51.212 56.5012 51.212C57.3262 51.212 57.8872 51.498 58.2832 51.883C59.0752 52.642 59.1962 53.918 59.1962 55.172ZM57.7992 55.172C57.7992 54.182 57.9202 52.477 56.5012 52.477C55.0822 52.477 55.2032 54.182 55.2032 55.172C55.2032 56.162 55.0822 57.867 56.5012 57.867C57.9202 57.867 57.7992 56.162 57.7992 55.172Z" fill="#CCFFCE"/>
<path d="M12.55 4.91L11.14 12H9.85L8.37 7.11L6.89 12H5.6L4.17 4.91H5.4L6.39 9.84L7.85 5.02H8.93L10.36 9.84L11.37 4.91H12.55ZM18.9642 12H17.6142L17.1542 10.64H14.3342L13.8742 12H12.5742L15.0642 4.91H16.4742L18.9642 12ZM16.7542 9.48L15.7442 6.49L14.7342 9.48H16.7542ZM24.9021 9.89C24.9021 10.55 24.6621 11.02 24.3121 11.37C23.7721 11.91 22.9421 12.13 22.0721 12.13C21.3221 12.13 20.5321 11.93 19.9521 11.4C19.5321 11.02 19.2121 10.42 19.2121 9.75H20.5321C20.5321 10.1 20.6921 10.41 20.9021 10.62C21.2021 10.92 21.6821 11 22.0921 11C22.5821 11 23.0521 10.9 23.3221 10.62C23.4821 10.45 23.6021 10.28 23.6021 9.94C23.6021 9.42 23.2021 9.18 22.7621 9.1C22.2821 9.01 21.6621 8.99 21.1921 8.91C20.2121 8.75 19.3921 8.11 19.3921 6.93C19.3921 6.37 19.6421 5.9 20.0121 5.53C20.4821 5.07 21.2621 4.78 22.0921 4.78C22.8521 4.78 23.5921 5.02 24.0721 5.47C24.4921 5.87 24.7821 6.39 24.7921 6.98H23.4721C23.4621 6.73 23.3321 6.46 23.1621 6.28C22.9321 6.04 22.4621 5.9 22.0821 5.9C21.6821 5.9 21.2221 5.99 20.9321 6.29C20.7821 6.45 20.6921 6.63 20.6921 6.89C20.6921 7.35 20.9921 7.59 21.4121 7.66C21.8621 7.73 22.4921 7.78 22.9521 7.84C24.0121 7.99 24.9021 8.68 24.9021 9.89ZM30.6405 12H26.0605V4.91H27.3505V10.78H30.6405V12Z" fill="#CCFFCE"/>
<rect x="58.5007" y="3" width="2.1215" height="10.6075" transform="rotate(45 58.5007 3)" fill="#CCFFCE"/>
<rect x="60.0007" y="10.501" width="2.1215" height="10.6075" transform="rotate(135 60.0007 10.501)" fill="#CCFFCE"/>
</g>
<defs>
<clipPath id="clip0_156_1041">
<rect width="64" height="64" fill="white"/>
</clipPath>
</defs>
</svg>
