<svg width="64" height="64" viewBox="0 0 64 64" fill="none" xmlns="http://www.w3.org/2000/svg">
<g clip-path="url(#clip0_156_1104)">
<rect width="64" height="64" fill="#621495"/>
<rect width="64" height="64" rx="6" fill="#621495"/>
<path d="M22.3879 30.48C22.3879 32.832 22.1479 35.376 20.3959 37.176C19.2679 38.352 17.5639 39 15.6199 39H8.99591V21.984H15.6199C17.5639 21.984 19.2679 22.632 20.3959 23.808C22.1479 25.608 22.3879 28.128 22.3879 30.48ZM19.2439 30.48C19.2439 28.92 19.2199 26.928 18.0199 25.728C17.4439 25.152 16.6039 24.768 15.6199 24.768H12.0919V36.216H15.6199C16.6039 36.216 17.4439 35.832 18.0199 35.256C19.2199 34.056 19.2439 32.04 19.2439 30.48ZM42.4902 39H39.4902V26.856L35.0742 38.76H32.7942L28.4022 26.712V39H25.4022V21.984H29.5782L34.0422 34.104L38.5302 21.984H42.4902V39ZM56.0485 35.136C56.0485 36.336 55.6165 37.224 54.9685 37.872C53.9605 38.88 52.4005 39.312 50.6965 39.312C49.1125 39.312 47.6965 38.856 46.6645 37.872C45.9445 37.176 45.3445 36.144 45.3445 34.968H48.1525C48.1525 35.52 48.4405 36.12 48.8245 36.432C49.3045 36.816 49.8565 36.984 50.7205 36.984C51.7285 36.984 53.2645 36.768 53.2645 35.4C53.2645 34.68 52.7845 34.2 52.0165 34.08C50.9125 33.912 49.6645 33.84 48.5605 33.6C46.8565 33.24 45.7045 31.848 45.7045 30.264C45.7045 28.992 46.2325 28.104 46.9765 27.456C47.8885 26.664 49.2085 26.208 50.7685 26.208C52.2565 26.208 53.7685 26.688 54.6805 27.672C55.3525 28.392 55.7845 29.328 55.7845 30.24H52.9285C52.9285 29.76 52.7125 29.376 52.4245 29.064C52.0645 28.704 51.4165 28.488 50.7925 28.488C50.3605 28.488 49.9525 28.488 49.4965 28.68C48.9685 28.896 48.5365 29.352 48.5365 30C48.5365 30.888 49.3045 31.152 49.9765 31.248C51.1045 31.392 51.4165 31.416 52.6405 31.608C54.6085 31.92 56.0485 33.168 56.0485 35.136Z" fill="#EFD8FF"/>
<path d="M16.2017 52.521H13.8917V59H12.4727V52.521H10.1627V51.201H16.2017V52.521ZM21.8287 59H16.9447V57.9L19.9257 54.347C20.1897 54.039 20.3217 53.676 20.3217 53.368C20.3217 52.829 19.9807 52.411 19.3537 52.411C18.7047 52.411 18.3307 52.906 18.3307 53.511H16.9227C16.9337 52.169 17.7917 51.212 19.3647 51.212C20.6737 51.212 21.7187 52.015 21.7187 53.357C21.7187 54.039 21.3117 54.71 20.8827 55.227L18.7707 57.757H21.8287V59ZM28.3661 55.172C28.3661 56.426 28.2451 57.702 27.4531 58.461C27.0571 58.846 26.4961 59.143 25.6711 59.143C24.8461 59.143 24.2851 58.846 23.8891 58.461C23.0971 57.702 22.9761 56.426 22.9761 55.172C22.9761 53.918 23.0971 52.642 23.8891 51.883C24.2851 51.498 24.8461 51.212 25.6711 51.212C26.4961 51.212 27.0571 51.498 27.4531 51.883C28.2451 52.642 28.3661 53.918 28.3661 55.172ZM26.9691 55.172C26.9691 54.182 27.0901 52.477 25.6711 52.477C24.2521 52.477 24.3731 54.182 24.3731 55.172C24.3731 56.162 24.2521 57.867 25.6711 57.867C27.0901 57.867 26.9691 56.162 26.9691 55.172ZM34.6396 55.172C34.6396 56.426 34.5186 57.702 33.7266 58.461C33.3306 58.846 32.7696 59.143 31.9446 59.143C31.1196 59.143 30.5586 58.846 30.1626 58.461C29.3706 57.702 29.2496 56.426 29.2496 55.172C29.2496 53.918 29.3706 52.642 30.1626 51.883C30.5586 51.498 31.1196 51.212 31.9446 51.212C32.7696 51.212 33.3306 51.498 33.7266 51.883C34.5186 52.642 34.6396 53.918 34.6396 55.172ZM33.2426 55.172C33.2426 54.182 33.3636 52.477 31.9446 52.477C30.5256 52.477 30.6466 54.182 30.6466 55.172C30.6466 56.162 30.5256 57.867 31.9446 57.867C33.3636 57.867 33.2426 56.162 33.2426 55.172ZM40.649 59H35.765V57.9L38.746 54.347C39.01 54.039 39.142 53.676 39.142 53.368C39.142 52.829 38.801 52.411 38.174 52.411C37.525 52.411 37.151 52.906 37.151 53.511H35.743C35.754 52.169 36.612 51.212 38.185 51.212C39.494 51.212 40.539 52.015 40.539 53.357C40.539 54.039 40.132 54.71 39.703 55.227L37.591 57.757H40.649V59ZM47.2194 56.404C47.2194 58.021 46.2624 59.154 44.5574 59.154C43.0394 59.154 41.9834 58.208 41.9064 56.767H43.2814C43.3144 57.526 43.8424 57.933 44.5684 57.933C45.4924 57.933 45.8224 57.262 45.8224 56.437C45.8224 55.634 45.4484 55.051 44.5684 55.051C44.1174 55.051 43.6664 55.282 43.4244 55.667H42.0714L42.2364 51.355H46.8784V52.587H43.4244L43.3364 54.336C43.6884 54.006 44.1724 53.841 44.8544 53.841C46.3944 53.841 47.2194 54.952 47.2194 56.404ZM53.4599 55.172C53.4599 56.426 53.3389 57.702 52.5469 58.461C52.1509 58.846 51.5899 59.143 50.7649 59.143C49.9399 59.143 49.3789 58.846 48.9829 58.461C48.1909 57.702 48.0699 56.426 48.0699 55.172C48.0699 53.918 48.1909 52.642 48.9829 51.883C49.3789 51.498 49.9399 51.212 50.7649 51.212C51.5899 51.212 52.1509 51.498 52.5469 51.883C53.3389 52.642 53.4599 53.918 53.4599 55.172ZM52.0629 55.172C52.0629 54.182 52.1839 52.477 50.7649 52.477C49.3459 52.477 49.4669 54.182 49.4669 55.172C49.4669 56.162 49.3459 57.867 50.7649 57.867C52.1839 57.867 52.0629 56.162 52.0629 55.172Z" fill="#EFD8FF"/>
<path d="M6.14 12H4.83V4.91H6.14V12ZM12.5188 6.11H10.4188V12H9.12875V6.11H7.02875V4.91H12.5188V6.11ZM18.8942 12H17.6042V8.91H14.6942V12H13.4042V4.91H14.6942V7.68H17.6042V4.91H18.8942V12ZM27.6727 12H26.4227V6.94L24.5827 11.9H23.6327L21.8027 6.88V12H20.5527V4.91H22.2927L24.1527 9.96L26.0227 4.91H27.6727V12ZM34.892 12H33.542L33.082 10.64H30.262L29.802 12H28.502L30.992 4.91H32.402L34.892 12ZM32.682 9.48L31.672 6.49L30.662 9.48H32.682ZM41.2787 12H39.9287L39.4687 10.64H36.6487L36.1887 12H34.8887L37.3787 4.91H38.7887L41.2787 12ZM39.0687 9.48L38.0587 6.49L37.0487 9.48H39.0687ZM47.5554 12H46.1554L44.9754 9.32H43.4054V12H42.1054V4.91H45.0954C46.7854 4.91 47.5554 5.97 47.5554 7.11C47.5554 8.06 47.0354 8.81 46.2554 9.1L47.5554 12ZM46.2654 7.11C46.2654 6.54 45.8254 6.04 45.0954 6.04H43.3954V8.16H45.1154C45.8454 8.16 46.2654 7.78 46.2654 7.11Z" fill="#EFD8FF"/>
<path d="M54.634 4.5C55.0189 3.83333 55.9811 3.83333 56.366 4.5L59.3971 9.75C59.782 10.4167 59.3009 11.25 58.5311 11.25H52.4689C51.6991 11.25 51.218 10.4167 51.6029 9.75L54.634 4.5Z" fill="#EFD8FF"/>
</g>
<defs>
<clipPath id="clip0_156_1104">
<rect width="64" height="64" fill="white"/>
</clipPath>
</defs>
</svg>
