<svg width="64" height="64" viewBox="0 0 64 64" fill="none" xmlns="http://www.w3.org/2000/svg">
<g clip-path="url(#clip0_161_1599)">
<rect width="64" height="64" fill="#F49A27"/>
<path d="M10.28 12H8.88L7.7 9.32H6.13V12H4.83V4.91H7.82C9.51 4.91 10.28 5.97 10.28 7.11C10.28 8.06 9.76 8.81 8.98 9.1L10.28 12ZM8.99 7.11C8.99 6.54 8.55 6.04 7.82 6.04H6.12V8.16H7.84C8.57 8.16 8.99 7.78 8.99 7.11ZM15.9018 11.94C15.6918 12.03 15.5818 12.08 15.2818 12.08C14.7418 12.08 14.4418 11.74 14.4018 11.35C14.1618 11.77 13.5618 12.13 12.8218 12.13C11.5818 12.13 10.9418 11.35 10.9418 10.5C10.9418 9.51 11.7118 8.94 12.7018 8.87L14.2318 8.76V8.44C14.2318 7.95 14.0618 7.62 13.3518 7.62C12.7718 7.62 12.4318 7.88 12.4018 8.36H11.1918C11.2618 7.19 12.1918 6.67 13.3518 6.67C14.2418 6.67 15.0018 6.95 15.3018 7.73C15.4318 8.06 15.4518 8.43 15.4518 8.78V10.71C15.4518 10.95 15.5318 11.04 15.7418 11.04C15.8218 11.04 15.9018 11.02 15.9018 11.02V11.94ZM14.2318 9.93V9.69L12.9118 9.79C12.5318 9.82 12.1618 10.05 12.1618 10.47C12.1618 10.87 12.5118 11.12 12.9018 11.12C13.6818 11.12 14.2318 10.7 14.2318 9.93ZM21.417 12H20.167V8.79C20.167 8.19 19.967 7.82 19.307 7.82C18.557 7.82 18.237 8.62 18.237 9.26V12H16.987V4.78H18.237V7.35C18.537 6.91 19.117 6.67 19.657 6.67C20.767 6.67 21.417 7.46 21.417 8.53V12ZM24.2152 6.08H22.8752V4.79H24.2152V6.08ZM24.1852 12H22.9152V6.8H24.1852V12ZM33.1266 12H31.8866V8.77C31.8866 8.13 31.7166 7.76 31.0866 7.76C30.3766 7.76 30.0666 8.51 30.0666 9.16V12H28.8266V8.77C28.8266 8.13 28.6566 7.76 28.0266 7.76C27.3166 7.76 26.9966 8.51 26.9966 9.16V12H25.7566V6.8H26.7966L26.8966 7.49C27.1866 7.01 27.6866 6.67 28.3766 6.67C29.1066 6.67 29.6066 6.99 29.8666 7.52C30.1766 6.98 30.7366 6.67 31.4366 6.67C32.5466 6.67 33.1266 7.41 33.1266 8.49V12ZM42.2341 12H40.9441V8.91H38.0341V12H36.7441V4.91H38.0341V7.68H40.9441V4.91H42.2341V12ZM45.2825 12H43.7625V10.44H45.2825V12Z" fill="#B15300"/>
<rect x="58.5007" y="4" width="2.1215" height="10.6075" transform="rotate(45 58.5007 4)" fill="#B15300"/>
<rect x="60.0007" y="11.501" width="2.1215" height="10.6075" transform="rotate(135 60.0007 11.501)" fill="#B15300"/>
<path d="M22.4582 30.48C22.4582 32.832 22.2182 35.376 20.4662 37.176C19.3382 38.352 17.6342 39 15.6902 39H9.06622V21.984H15.6902C17.6342 21.984 19.3382 22.632 20.4662 23.808C22.2182 25.608 22.4582 28.128 22.4582 30.48ZM19.3142 30.48C19.3142 28.92 19.2902 26.928 18.0902 25.728C17.5142 25.152 16.6742 24.768 15.6902 24.768H12.1622V36.216H15.6902C16.6742 36.216 17.5142 35.832 18.0902 35.256C19.2902 34.056 19.3142 32.04 19.3142 30.48ZM42.5605 39H39.5605V26.856L35.1445 38.76H32.8645L28.4725 26.712V39H25.4725V21.984H29.6485L34.1125 34.104L38.6005 21.984H42.5605V39ZM56.8628 26.52L52.5668 32.664L56.8388 39H53.4548L50.6708 34.824L47.9348 39H44.6468L49.0148 32.64L44.6228 26.52H48.0788L50.8628 30.552L53.5748 26.52H56.8628Z" fill="#B15300"/>
<path d="M8.69435 59H7.31935V52.983L5.63635 54.204V52.708L7.51735 51.355H8.69435V59ZM16.4198 52.455L13.4388 59H11.9538L14.9458 52.587H11.1508V51.355H16.4198V52.455ZM22.7372 55.172C22.7372 56.426 22.6162 57.702 21.8242 58.461C21.4282 58.846 20.8672 59.143 20.0422 59.143C19.2172 59.143 18.6562 58.846 18.2602 58.461C17.4682 57.702 17.3472 56.426 17.3472 55.172C17.3472 53.918 17.4682 52.642 18.2602 51.883C18.6562 51.498 19.2172 51.212 20.0422 51.212C20.8672 51.212 21.4282 51.498 21.8242 51.883C22.6162 52.642 22.7372 53.918 22.7372 55.172ZM21.3402 55.172C21.3402 54.182 21.4612 52.477 20.0422 52.477C18.6232 52.477 18.7442 54.182 18.7442 55.172C18.7442 56.162 18.6232 57.867 20.0422 57.867C21.4612 57.867 21.3402 56.162 21.3402 55.172ZM29.0107 55.172C29.0107 56.426 28.8897 57.702 28.0977 58.461C27.7017 58.846 27.1407 59.143 26.3157 59.143C25.4907 59.143 24.9297 58.846 24.5337 58.461C23.7417 57.702 23.6207 56.426 23.6207 55.172C23.6207 53.918 23.7417 52.642 24.5337 51.883C24.9297 51.498 25.4907 51.212 26.3157 51.212C27.1407 51.212 27.7017 51.498 28.0977 51.883C28.8897 52.642 29.0107 53.918 29.0107 55.172ZM27.6137 55.172C27.6137 54.182 27.7347 52.477 26.3157 52.477C24.8967 52.477 25.0177 54.182 25.0177 55.172C25.0177 56.162 24.8967 57.867 26.3157 57.867C27.7347 57.867 27.6137 56.162 27.6137 55.172ZM35.2401 52.455L32.2591 59H30.7741L33.7661 52.587H29.9711V51.355H35.2401V52.455ZM41.4695 55.04C41.4695 56.162 41.4035 57.537 40.6225 58.373C40.2045 58.813 39.6655 59.143 38.7525 59.143C37.9715 59.143 37.3995 58.89 37.0035 58.516C36.5745 58.109 36.3545 57.559 36.3545 57.108H37.7405C37.7625 57.339 37.8615 57.548 38.0045 57.691C38.1805 57.878 38.4445 57.966 38.8185 57.966C39.1815 57.966 39.3905 57.834 39.5775 57.658C39.9955 57.273 40.1055 56.58 40.1055 55.909C39.7645 56.316 39.1155 56.47 38.6535 56.47C37.0035 56.47 36.1345 55.414 36.1345 53.863C36.1345 52.367 37.0255 51.212 38.7635 51.212C40.2155 51.212 41.1175 52.235 41.3485 53.61C41.4365 54.105 41.4695 54.556 41.4695 55.04ZM39.9735 53.918C39.9735 53.082 39.5775 52.433 38.7635 52.433C37.9385 52.433 37.5315 53.027 37.5315 53.918C37.5315 54.71 37.9385 55.348 38.7855 55.348C39.5225 55.348 39.9735 54.721 39.9735 53.918ZM46.434 56.228H42.661V54.996H46.434V56.228ZM52.9228 55.172C52.9228 56.426 52.8018 57.702 52.0098 58.461C51.6138 58.846 51.0528 59.143 50.2278 59.143C49.4028 59.143 48.8418 58.846 48.4458 58.461C47.6538 57.702 47.5328 56.426 47.5328 55.172C47.5328 53.918 47.6538 52.642 48.4458 51.883C48.8418 51.498 49.4028 51.212 50.2278 51.212C51.0528 51.212 51.6138 51.498 52.0098 51.883C52.8018 52.642 52.9228 53.918 52.9228 55.172ZM51.5258 55.172C51.5258 54.182 51.6468 52.477 50.2278 52.477C48.8088 52.477 48.9298 54.182 48.9298 55.172C48.9298 56.162 48.8088 57.867 50.2278 57.867C51.6468 57.867 51.5258 56.162 51.5258 55.172ZM59.1962 55.172C59.1962 56.426 59.0752 57.702 58.2832 58.461C57.8872 58.846 57.3262 59.143 56.5012 59.143C55.6762 59.143 55.1152 58.846 54.7192 58.461C53.9272 57.702 53.8062 56.426 53.8062 55.172C53.8062 53.918 53.9272 52.642 54.7192 51.883C55.1152 51.498 55.6762 51.212 56.5012 51.212C57.3262 51.212 57.8872 51.498 58.2832 51.883C59.0752 52.642 59.1962 53.918 59.1962 55.172ZM57.7992 55.172C57.7992 54.182 57.9202 52.477 56.5012 52.477C55.0822 52.477 55.2032 54.182 55.2032 55.172C55.2032 56.162 55.0822 57.867 56.5012 57.867C57.9202 57.867 57.7992 56.162 57.7992 55.172Z" fill="#B15300"/>
</g>
<defs>
<clipPath id="clip0_161_1599">
<rect width="64" height="64" fill="white"/>
</clipPath>
</defs>
</svg>
