<svg width="64" height="64" viewBox="0 0 64 64" fill="none" xmlns="http://www.w3.org/2000/svg">
<g clip-path="url(#clip0_156_1234)">
<rect width="64" height="64" fill="#F49A27"/>
<path d="M9.88 12H4.83V4.91H9.88V6.08H6.12V7.73H9.43V8.89H6.12V10.83H9.88V12ZM18.2293 12H16.9793V6.94L15.1393 11.9H14.1893L12.3593 6.88V12H11.1093V4.91H12.8493L14.7093 9.96L16.5793 4.91H18.2293V12ZM25.4486 12H24.0986L23.6386 10.64H20.8186L20.3586 12H19.0586L21.5486 4.91H22.9586L25.4486 12ZM23.2386 9.48L22.2286 6.49L21.2186 9.48H23.2386ZM31.8353 12H30.4853L30.0253 10.64H27.2053L26.7453 12H25.4453L27.9353 4.91H29.3453L31.8353 12ZM29.6253 9.48L28.6153 6.49L27.6053 9.48H29.6253ZM38.112 12H36.712L35.532 9.32H33.962V12H32.662V4.91H35.652C37.342 4.91 38.112 5.97 38.112 7.11C38.112 8.06 37.592 8.81 36.812 9.1L38.112 12ZM36.822 7.11C36.822 6.54 36.382 6.04 35.652 6.04H33.952V8.16H35.672C36.402 8.16 36.822 7.78 36.822 7.11Z" fill="#B15300"/>
<rect x="58.5007" y="4" width="2.1215" height="10.6075" transform="rotate(45 58.5007 4)" fill="#B15300"/>
<rect x="60.0007" y="11.501" width="2.1215" height="10.6075" transform="rotate(135 60.0007 11.501)" fill="#B15300"/>
<path d="M24.5261 39H12.4061V21.984H24.5261V24.792H15.5021V28.752H23.4461V31.536H15.5021V36.192H24.5261V39ZM38.9004 32.736C38.9004 35.184 38.1564 37.08 36.6684 38.304C35.9004 38.928 34.8924 39.312 33.6204 39.312C32.1324 39.312 30.9324 38.784 30.3564 38.088V43.776H27.3564V26.52H29.9484L30.1404 27.888C30.8844 26.736 32.2764 26.232 33.6444 26.232C34.8924 26.232 35.9004 26.664 36.6684 27.288C38.1564 28.512 38.9004 30.384 38.9004 32.736ZM35.8524 32.784C35.8524 31.704 35.6844 30.552 35.0604 29.736C34.6284 29.184 33.9804 28.752 33.0444 28.752C30.6924 28.752 30.2124 30.984 30.2124 32.784C30.2124 34.584 30.6924 36.792 33.0444 36.792C33.9804 36.792 34.6284 36.36 35.0604 35.808C35.6844 34.992 35.8524 33.864 35.8524 32.784ZM52.2824 34.224C52.2824 37.56 49.7384 39.312 46.5944 39.312C43.5224 39.312 41.0264 37.296 40.9304 34.176H43.9304C44.0504 35.808 45.1544 36.672 46.6184 36.672C48.1064 36.672 49.2584 35.76 49.2584 34.176C49.2584 32.448 47.8904 31.656 46.3304 31.656H45.0824V29.04H46.3304C47.9624 29.04 48.8984 28.368 48.8984 26.808C48.8984 25.608 47.9384 24.624 46.6184 24.624C45.1304 24.624 44.0744 25.368 44.0504 26.88H41.0264C41.0744 23.736 43.5704 22.008 46.6184 22.008C49.6424 22.008 51.9464 23.856 51.9464 26.736C51.9464 28.248 51.0584 29.784 49.5464 30.312C51.2744 30.792 52.2824 32.496 52.2824 34.224Z" fill="#B15300"/>
<path d="M16.2017 52.521H13.8917V59H12.4727V52.521H10.1627V51.201H16.2017V52.521ZM20.5967 59H19.2217V52.983L17.5387 54.204V52.708L19.4197 51.355H20.5967V59ZM28.3221 52.455L25.3411 59H23.8561L26.8481 52.587H23.0531V51.355H28.3221V52.455ZM33.1436 59H31.7686V52.983L30.0856 54.204V52.708L31.9666 51.355H33.1436V59ZM40.649 59H35.765V57.9L38.746 54.347C39.01 54.039 39.142 53.676 39.142 53.368C39.142 52.829 38.801 52.411 38.174 52.411C37.525 52.411 37.151 52.906 37.151 53.511H35.743C35.754 52.169 36.612 51.212 38.185 51.212C39.494 51.212 40.539 52.015 40.539 53.357C40.539 54.039 40.132 54.71 39.703 55.227L37.591 57.757H40.649V59ZM47.0324 56.811C47.0324 58.34 45.8664 59.143 44.4254 59.143C43.0174 59.143 41.8734 58.219 41.8294 56.789H43.2044C43.2594 57.537 43.7654 57.933 44.4364 57.933C45.1184 57.933 45.6464 57.515 45.6464 56.789C45.6464 55.997 45.0194 55.634 44.3044 55.634H43.7324V54.435H44.3044C45.0524 54.435 45.4814 54.127 45.4814 53.412C45.4814 52.862 45.0414 52.411 44.4364 52.411C43.7544 52.411 43.2704 52.752 43.2594 53.445H41.8734C41.8954 52.004 43.0394 51.212 44.4364 51.212C45.8224 51.212 46.8784 52.059 46.8784 53.379C46.8784 54.072 46.4714 54.776 45.7784 55.018C46.5704 55.238 47.0324 56.019 47.0324 56.811ZM53.4159 52.455L50.4349 59H48.9499L51.9419 52.587H48.1469V51.355H53.4159V52.455Z" fill="#B15300"/>
</g>
<defs>
<clipPath id="clip0_156_1234">
<rect width="64" height="64" fill="white"/>
</clipPath>
</defs>
</svg>
