<svg width="64" height="64" viewBox="0 0 64 64" fill="none" xmlns="http://www.w3.org/2000/svg">
<g clip-path="url(#clip0_215_1022)">
<rect width="64" height="64" fill="#F49A27"/>
<path d="M9.88 12H4.83V4.91H9.88V6.08H6.12V7.73H9.43V8.89H6.12V10.83H9.88V12ZM18.2293 12H16.9793V6.94L15.1393 11.9H14.1893L12.3593 6.88V12H11.1093V4.91H12.8493L14.7093 9.96L16.5793 4.91H18.2293V12ZM25.4486 12H24.0986L23.6386 10.64H20.8186L20.3586 12H19.0586L21.5486 4.91H22.9586L25.4486 12ZM23.2386 9.48L22.2286 6.49L21.2186 9.48H23.2386ZM31.8353 12H30.4853L30.0253 10.64H27.2053L26.7453 12H25.4453L27.9353 4.91H29.3453L31.8353 12ZM29.6253 9.48L28.6153 6.49L27.6053 9.48H29.6253ZM38.112 12H36.712L35.532 9.32H33.962V12H32.662V4.91H35.652C37.342 4.91 38.112 5.97 38.112 7.11C38.112 8.06 37.592 8.81 36.812 9.1L38.112 12ZM36.822 7.11C36.822 6.54 36.382 6.04 35.652 6.04H33.952V8.16H35.672C36.402 8.16 36.822 7.78 36.822 7.11Z" fill="#B15300"/>
<rect x="58.5007" y="4" width="2.1215" height="10.6075" transform="rotate(45 58.5007 4)" fill="#B15300"/>
<rect x="60.0007" y="11.501" width="2.1215" height="10.6075" transform="rotate(135 60.0007 11.501)" fill="#B15300"/>
<path d="M22.8503 39H10.7303V21.984H22.8503V24.792H13.8263V28.752H21.7703V31.536H13.8263V36.192H22.8503V39ZM38.0674 33.936C38.0674 35.52 37.4914 36.648 36.6514 37.488C35.3554 38.784 33.3634 39.312 31.2754 39.312C29.4754 39.312 27.5794 38.832 26.1874 37.56C25.1794 36.648 24.4114 35.208 24.4114 33.6H27.5794C27.5794 34.44 27.9634 35.184 28.4674 35.688C29.1874 36.408 30.3394 36.6 31.3234 36.6C32.4994 36.6 33.6274 36.36 34.2754 35.688C34.6594 35.28 34.9474 34.872 34.9474 34.056C34.9474 32.808 33.9874 32.232 32.9314 32.04C31.7794 31.824 30.2914 31.776 29.1634 31.584C26.8114 31.2 24.8434 29.664 24.8434 26.832C24.8434 25.488 25.4434 24.36 26.3314 23.472C27.4594 22.368 29.3314 21.672 31.3234 21.672C33.1474 21.672 34.9234 22.248 36.0754 23.328C37.0834 24.288 37.7794 25.536 37.8034 26.952H34.6354C34.6114 26.352 34.2994 25.704 33.8914 25.272C33.3394 24.696 32.2114 24.36 31.2994 24.36C30.3394 24.36 29.2354 24.576 28.5394 25.296C28.1794 25.68 27.9634 26.112 27.9634 26.736C27.9634 27.84 28.6834 28.416 29.6914 28.584C30.7714 28.752 32.2834 28.872 33.3874 29.016C35.9314 29.376 38.0674 31.032 38.0674 33.936ZM54.2395 30.48C54.2395 32.832 53.9995 35.376 52.2475 37.176C51.1195 38.352 49.4155 39 47.4715 39H40.8475V21.984H47.4715C49.4155 21.984 51.1195 22.632 52.2475 23.808C53.9995 25.608 54.2395 28.128 54.2395 30.48ZM51.0955 30.48C51.0955 28.92 51.0715 26.928 49.8715 25.728C49.2955 25.152 48.4555 24.768 47.4715 24.768H43.9435V36.216H47.4715C48.4555 36.216 49.2955 35.832 49.8715 35.256C51.0715 34.056 51.0955 32.04 51.0955 30.48Z" fill="#B15300"/>
<path d="M8.69435 59H7.31935V52.983L5.63635 54.204V52.708L7.51735 51.355H8.69435V59ZM16.4198 52.455L13.4388 59H11.9538L14.9458 52.587H11.1508V51.355H16.4198V52.455ZM22.7372 55.172C22.7372 56.426 22.6162 57.702 21.8242 58.461C21.4282 58.846 20.8672 59.143 20.0422 59.143C19.2172 59.143 18.6562 58.846 18.2602 58.461C17.4682 57.702 17.3472 56.426 17.3472 55.172C17.3472 53.918 17.4682 52.642 18.2602 51.883C18.6562 51.498 19.2172 51.212 20.0422 51.212C20.8672 51.212 21.4282 51.498 21.8242 51.883C22.6162 52.642 22.7372 53.918 22.7372 55.172ZM21.3402 55.172C21.3402 54.182 21.4612 52.477 20.0422 52.477C18.6232 52.477 18.7442 54.182 18.7442 55.172C18.7442 56.162 18.6232 57.867 20.0422 57.867C21.4612 57.867 21.3402 56.162 21.3402 55.172ZM28.7467 59H23.8627V57.9L26.8437 54.347C27.1077 54.039 27.2397 53.676 27.2397 53.368C27.2397 52.829 26.8987 52.411 26.2717 52.411C25.6227 52.411 25.2487 52.906 25.2487 53.511H23.8407C23.8517 52.169 24.7097 51.212 26.2827 51.212C27.5917 51.212 28.6367 52.015 28.6367 53.357C28.6367 54.039 28.2297 54.71 27.8007 55.227L25.6887 57.757H28.7467V59ZM35.2401 52.455L32.2591 59H30.7741L33.7661 52.587H29.9711V51.355H35.2401V52.455ZM41.2935 59H36.4095V57.9L39.3905 54.347C39.6545 54.039 39.7865 53.676 39.7865 53.368C39.7865 52.829 39.4455 52.411 38.8185 52.411C38.1695 52.411 37.7955 52.906 37.7955 53.511H36.3875C36.3985 52.169 37.2565 51.212 38.8295 51.212C40.1385 51.212 41.1835 52.015 41.1835 53.357C41.1835 54.039 40.7765 54.71 40.3475 55.227L38.2355 57.757H41.2935V59ZM46.434 56.228H42.661V54.996H46.434V56.228ZM52.9228 55.172C52.9228 56.426 52.8018 57.702 52.0098 58.461C51.6138 58.846 51.0528 59.143 50.2278 59.143C49.4028 59.143 48.8418 58.846 48.4458 58.461C47.6538 57.702 47.5328 56.426 47.5328 55.172C47.5328 53.918 47.6538 52.642 48.4458 51.883C48.8418 51.498 49.4028 51.212 50.2278 51.212C51.0528 51.212 51.6138 51.498 52.0098 51.883C52.8018 52.642 52.9228 53.918 52.9228 55.172ZM51.5258 55.172C51.5258 54.182 51.6468 52.477 50.2278 52.477C48.8088 52.477 48.9298 54.182 48.9298 55.172C48.9298 56.162 48.8088 57.867 50.2278 57.867C51.6468 57.867 51.5258 56.162 51.5258 55.172ZM59.1962 55.172C59.1962 56.426 59.0752 57.702 58.2832 58.461C57.8872 58.846 57.3262 59.143 56.5012 59.143C55.6762 59.143 55.1152 58.846 54.7192 58.461C53.9272 57.702 53.8062 56.426 53.8062 55.172C53.8062 53.918 53.9272 52.642 54.7192 51.883C55.1152 51.498 55.6762 51.212 56.5012 51.212C57.3262 51.212 57.8872 51.498 58.2832 51.883C59.0752 52.642 59.1962 53.918 59.1962 55.172ZM57.7992 55.172C57.7992 54.182 57.9202 52.477 56.5012 52.477C55.0822 52.477 55.2032 54.182 55.2032 55.172C55.2032 56.162 55.0822 57.867 56.5012 57.867C57.9202 57.867 57.7992 56.162 57.7992 55.172Z" fill="#B15300"/>
</g>
<defs>
<clipPath id="clip0_215_1022">
<rect width="64" height="64" fill="white"/>
</clipPath>
</defs>
</svg>
