<svg width="64" height="64" viewBox="0 0 64 64" fill="none" xmlns="http://www.w3.org/2000/svg">
<g clip-path="url(#clip0_414_12921)">
<rect width="64" height="64" fill="#149618"/>
<rect width="64" height="64" rx="6" fill="#149618"/>
<path d="M23.9551 24.792H15.2911V29.352H23.0191V32.16H15.2911V39H12.1951V21.984H23.9551V24.792ZM37.7285 32.784C37.7285 35.136 36.9845 37.008 35.4965 38.232C34.7285 38.856 33.7205 39.288 32.4725 39.288C31.1045 39.288 29.7125 38.784 28.9685 37.632L28.7765 39H26.1845V21.672H29.1845V27.432C29.7605 26.736 30.9605 26.208 32.4485 26.208C33.7205 26.208 34.7285 26.592 35.4965 27.216C36.9845 28.44 37.7285 30.336 37.7285 32.784ZM34.6805 32.736C34.6805 31.656 34.5125 30.528 33.8885 29.712C33.4565 29.16 32.8085 28.728 31.8725 28.728C29.5205 28.728 29.0405 30.936 29.0405 32.736C29.0405 33.96 29.2565 35.352 30.1205 36.144C30.5285 36.528 31.1045 36.768 31.8725 36.768C32.8085 36.768 33.4565 36.336 33.8885 35.784C34.5125 34.968 34.6805 33.816 34.6805 32.736ZM53.1266 33.576C52.9826 34.92 52.4786 36.288 51.4946 37.296C50.2226 38.592 48.4466 39.312 46.6226 39.312C44.7986 39.312 43.0946 38.712 41.7986 37.416C39.9506 35.568 39.6866 33.288 39.6866 30.504C39.6866 27.72 39.9506 25.44 41.7986 23.592C43.0946 22.296 44.7986 21.672 46.6226 21.672C48.4466 21.672 50.2226 22.344 51.4946 23.64C52.4786 24.648 52.9826 25.992 53.1266 27.336H49.9586C49.8866 26.592 49.6226 26.064 49.1906 25.536C48.6386 24.84 47.6786 24.48 46.6226 24.48C45.6386 24.48 44.6786 24.888 44.0066 25.608C42.8306 26.832 42.8306 28.944 42.8306 30.504C42.8306 32.064 42.8306 34.176 44.0066 35.4C44.6786 36.12 45.6386 36.528 46.6226 36.528C47.6786 36.528 48.6386 36.144 49.1906 35.448C49.6226 34.92 49.8866 34.32 49.9586 33.576H53.1266Z" fill="#CCFFCE"/>
<path d="M16.2017 52.521H13.8917V59H12.4727V52.521H10.1627V51.201H16.2017V52.521ZM21.8287 59H16.9447V57.9L19.9257 54.347C20.1897 54.039 20.3217 53.676 20.3217 53.368C20.3217 52.829 19.9807 52.411 19.3537 52.411C18.7047 52.411 18.3307 52.906 18.3307 53.511H16.9227C16.9337 52.169 17.7917 51.212 19.3647 51.212C20.6737 51.212 21.7187 52.015 21.7187 53.357C21.7187 54.039 21.3117 54.71 20.8827 55.227L18.7707 57.757H21.8287V59ZM28.3661 55.172C28.3661 56.426 28.2451 57.702 27.4531 58.461C27.0571 58.846 26.4961 59.143 25.6711 59.143C24.8461 59.143 24.2851 58.846 23.8891 58.461C23.0971 57.702 22.9761 56.426 22.9761 55.172C22.9761 53.918 23.0971 52.642 23.8891 51.883C24.2851 51.498 24.8461 51.212 25.6711 51.212C26.4961 51.212 27.0571 51.498 27.4531 51.883C28.2451 52.642 28.3661 53.918 28.3661 55.172ZM26.9691 55.172C26.9691 54.182 27.0901 52.477 25.6711 52.477C24.2521 52.477 24.3731 54.182 24.3731 55.172C24.3731 56.162 24.2521 57.867 25.6711 57.867C27.0901 57.867 26.9691 56.162 26.9691 55.172ZM34.6396 55.172C34.6396 56.426 34.5186 57.702 33.7266 58.461C33.3306 58.846 32.7696 59.143 31.9446 59.143C31.1196 59.143 30.5586 58.846 30.1626 58.461C29.3706 57.702 29.2496 56.426 29.2496 55.172C29.2496 53.918 29.3706 52.642 30.1626 51.883C30.5586 51.498 31.1196 51.212 31.9446 51.212C32.7696 51.212 33.3306 51.498 33.7266 51.883C34.5186 52.642 34.6396 53.918 34.6396 55.172ZM33.2426 55.172C33.2426 54.182 33.3636 52.477 31.9446 52.477C30.5256 52.477 30.6466 54.182 30.6466 55.172C30.6466 56.162 30.5256 57.867 31.9446 57.867C33.3636 57.867 33.2426 56.162 33.2426 55.172ZM40.858 56.855C40.858 58.34 39.593 59.154 38.218 59.154C36.843 59.154 35.578 58.34 35.578 56.855C35.578 56.096 35.963 55.37 36.689 55.029C36.128 54.721 35.732 54.028 35.732 53.379C35.732 51.938 36.887 51.212 38.218 51.212C39.549 51.212 40.704 51.938 40.704 53.379C40.704 54.028 40.308 54.721 39.747 55.029C40.473 55.37 40.858 56.096 40.858 56.855ZM39.318 53.401C39.318 52.84 38.944 52.411 38.218 52.411C37.481 52.411 37.118 52.84 37.118 53.401C37.118 53.962 37.492 54.424 38.218 54.424C38.944 54.424 39.318 53.962 39.318 53.401ZM39.472 56.767C39.472 56.14 39.032 55.634 38.218 55.634C37.404 55.634 36.964 56.14 36.964 56.767C36.964 57.471 37.47 57.933 38.218 57.933C38.966 57.933 39.472 57.471 39.472 56.767ZM47.2414 56.481C47.2414 57.977 46.3504 59.143 44.6124 59.143C43.1604 59.143 42.2584 58.109 42.0274 56.734C41.9394 56.239 41.9064 55.788 41.9064 55.304C41.9064 54.182 41.9724 52.807 42.7534 51.971C43.1714 51.531 43.7104 51.212 44.6234 51.212C45.4044 51.212 45.9764 51.454 46.3724 51.828C46.8014 52.235 47.0214 52.785 47.0214 53.236H45.6354C45.6134 53.005 45.5144 52.796 45.3714 52.653C45.1954 52.466 44.9314 52.378 44.5574 52.378C44.1944 52.378 43.9854 52.51 43.7984 52.686C43.3804 53.071 43.2704 53.764 43.2704 54.435C43.6114 54.028 44.2604 53.874 44.7224 53.874C46.3724 53.874 47.2414 54.93 47.2414 56.481ZM45.8444 56.426C45.8444 55.634 45.4374 54.996 44.5904 54.996C43.8534 54.996 43.4024 55.623 43.4024 56.426C43.4024 57.262 43.7984 57.911 44.6124 57.911C45.4374 57.911 45.8444 57.317 45.8444 56.426ZM53.3059 56.811C53.3059 58.34 52.1399 59.143 50.6989 59.143C49.2909 59.143 48.1469 58.219 48.1029 56.789H49.4779C49.5329 57.537 50.0389 57.933 50.7099 57.933C51.3919 57.933 51.9199 57.515 51.9199 56.789C51.9199 55.997 51.2929 55.634 50.5779 55.634H50.0059V54.435H50.5779C51.3259 54.435 51.7549 54.127 51.7549 53.412C51.7549 52.862 51.3149 52.411 50.7099 52.411C50.0279 52.411 49.5439 52.752 49.5329 53.445H48.1469C48.1689 52.004 49.3129 51.212 50.7099 51.212C52.0959 51.212 53.1519 52.059 53.1519 53.379C53.1519 54.072 52.7449 54.776 52.0519 55.018C52.8439 55.238 53.3059 56.019 53.3059 56.811Z" fill="#CCFFCE"/>
<path d="M7.73 6.08H4.12V7.98H7.34V9.15H4.12V12H2.83V4.91H7.73V6.08ZM13.0124 9.4C13.0124 10.28 12.7924 10.83 12.4024 11.32C12.0424 11.76 11.3724 12.13 10.5824 12.13C9.79242 12.13 9.12242 11.76 8.76242 11.32C8.37242 10.83 8.15242 10.28 8.15242 9.4C8.15242 8.52 8.37242 7.97 8.76242 7.48C9.12242 7.04 9.79242 6.67 10.5824 6.67C11.3724 6.67 12.0424 7.04 12.4024 7.48C12.7924 7.97 13.0124 8.52 13.0124 9.4ZM11.7424 9.4C11.7424 8.91 11.6724 8.42 11.3724 8.09C11.2024 7.91 10.9224 7.76 10.5824 7.76C10.2424 7.76 9.96242 7.91 9.79242 8.09C9.49242 8.42 9.42242 8.91 9.42242 9.4C9.42242 9.89 9.49242 10.38 9.79242 10.71C9.96242 10.89 10.2424 11.04 10.5824 11.04C10.9224 11.04 11.2024 10.89 11.3724 10.71C11.6724 10.38 11.7424 9.89 11.7424 9.4ZM18.7155 9.4C18.7155 10.28 18.4955 10.83 18.1055 11.32C17.7455 11.76 17.0755 12.13 16.2855 12.13C15.4955 12.13 14.8255 11.76 14.4655 11.32C14.0755 10.83 13.8555 10.28 13.8555 9.4C13.8555 8.52 14.0755 7.97 14.4655 7.48C14.8255 7.04 15.4955 6.67 16.2855 6.67C17.0755 6.67 17.7455 7.04 18.1055 7.48C18.4955 7.97 18.7155 8.52 18.7155 9.4ZM17.4455 9.4C17.4455 8.91 17.3755 8.42 17.0755 8.09C16.9055 7.91 16.6255 7.76 16.2855 7.76C15.9455 7.76 15.6655 7.91 15.4955 8.09C15.1955 8.42 15.1255 8.91 15.1255 9.4C15.1255 9.89 15.1955 10.38 15.4955 10.71C15.6655 10.89 15.9455 11.04 16.2855 11.04C16.6255 11.04 16.9055 10.89 17.0755 10.71C17.3755 10.38 17.4455 9.89 17.4455 9.4ZM22.8098 11.93C22.4598 12.02 22.1098 12.07 21.7398 12.07C20.6898 12.07 20.1698 11.47 20.1698 10.47V7.83H19.2198V6.8H20.1698V5.48L21.4198 5.17V6.8H22.7298V7.83H21.4198V10.36C21.4198 10.76 21.5998 10.93 21.9998 10.93C22.2598 10.93 22.4698 10.92 22.8098 10.88V11.93ZM28.6838 9.41C28.6838 10.39 28.3737 11.17 27.7538 11.68C27.4338 11.94 27.0138 12.12 26.4938 12.12C25.9238 12.12 25.3438 11.91 25.0338 11.43L24.9538 12H23.8738V4.78H25.1238V7.18C25.3638 6.89 25.8638 6.67 26.4838 6.67C27.0138 6.67 27.4338 6.83 27.7538 7.09C28.3737 7.6 28.6838 8.39 28.6838 9.41ZM27.4138 9.39C27.4138 8.94 27.3438 8.47 27.0838 8.13C26.9038 7.9 26.6338 7.72 26.2438 7.72C25.2638 7.72 25.0638 8.64 25.0638 9.39C25.0638 9.9 25.1538 10.48 25.5138 10.81C25.6838 10.97 25.9238 11.07 26.2438 11.07C26.6338 11.07 26.9038 10.89 27.0838 10.66C27.3438 10.32 27.4138 9.84 27.4138 9.39ZM34.4096 11.94C34.1996 12.03 34.0896 12.08 33.7896 12.08C33.2496 12.08 32.9496 11.74 32.9096 11.35C32.6696 11.77 32.0696 12.13 31.3296 12.13C30.0896 12.13 29.4496 11.35 29.4496 10.5C29.4496 9.51 30.2196 8.94 31.2096 8.87L32.7396 8.76V8.44C32.7396 7.95 32.5696 7.62 31.8596 7.62C31.2796 7.62 30.9396 7.88 30.9096 8.36H29.6996C29.7696 7.19 30.6996 6.67 31.8596 6.67C32.7496 6.67 33.5096 6.95 33.8096 7.73C33.9396 8.06 33.9596 8.43 33.9596 8.78V10.71C33.9596 10.95 34.0396 11.04 34.2496 11.04C34.3296 11.04 34.4096 11.02 34.4096 11.02V11.94ZM32.7396 9.93V9.69L31.4196 9.79C31.0396 9.82 30.6696 10.05 30.6696 10.47C30.6696 10.87 31.0196 11.12 31.4096 11.12C32.1896 11.12 32.7396 10.7 32.7396 9.93ZM37.4348 11.99C37.1848 12.04 37.1348 12.06 36.8848 12.06C36.0348 12.06 35.4648 11.65 35.4648 10.66V4.77H36.7248V10.45C36.7248 10.75 36.7948 10.95 37.2248 10.95C37.3348 10.95 37.3648 10.94 37.4348 10.94V11.99Z" fill="#CCFFCE"/>
<rect x="58.5" y="3" width="2.1215" height="10.6075" transform="rotate(45 58.5 3)" fill="#CCFFCE"/>
<rect x="60" y="10.501" width="2.1215" height="10.6075" transform="rotate(135 60 10.501)" fill="#CCFFCE"/>
</g>
<defs>
<clipPath id="clip0_414_12921">
<rect width="64" height="64" fill="white"/>
</clipPath>
</defs>
</svg>
