<svg width="64" height="64" viewBox="0 0 64 64" fill="none" xmlns="http://www.w3.org/2000/svg">
<g clip-path="url(#clip0_156_857)">
<rect width="64" height="64" fill="#149618"/>
<rect width="64" height="64" rx="6" fill="#149618"/>
<path d="M25.6543 24.792H16.9903V29.352H24.7183V32.16H16.9903V39H13.8943V21.984H25.6543V24.792ZM37.6122 34.584C37.5642 35.568 37.2282 36.552 36.6522 37.296C35.7882 38.376 34.2762 39.264 32.3802 39.264C30.4842 39.264 28.9002 38.352 28.0362 37.296C27.1002 36.12 26.6682 34.56 26.6682 32.736C26.6682 30.912 27.1002 29.352 28.0362 28.176C28.9002 27.12 30.4842 26.208 32.3802 26.208C34.2762 26.208 35.7882 27.096 36.6522 28.176C37.2282 28.92 37.5642 29.904 37.6122 30.888H34.6602C34.6362 30.432 34.4922 30.048 34.3002 29.736C33.9402 29.184 33.2922 28.8 32.3802 28.8C31.5642 28.8 30.9642 29.136 30.5562 29.568C29.8362 30.36 29.7162 31.56 29.7162 32.736C29.7162 33.912 29.8362 35.088 30.5562 35.88C30.9642 36.312 31.5642 36.672 32.3802 36.672C33.2922 36.672 33.9402 36.288 34.3002 35.736C34.4922 35.424 34.6362 35.04 34.6602 34.584H37.6122ZM50.5542 39H39.8982V36.6L46.4022 28.848C46.9782 28.176 47.2662 27.384 47.2662 26.712C47.2662 25.536 46.5222 24.624 45.1542 24.624C43.7382 24.624 42.9222 25.704 42.9222 27.024H39.8502C39.8742 24.096 41.7462 22.008 45.1782 22.008C48.0342 22.008 50.3142 23.76 50.3142 26.688C50.3142 28.176 49.4262 29.64 48.4902 30.768L43.8822 36.288H50.5542V39Z" fill="#CCFFCE"/>
<path d="M9.92635 59H5.04235V57.9L8.02335 54.347C8.28735 54.039 8.41935 53.676 8.41935 53.368C8.41935 52.829 8.07835 52.411 7.45135 52.411C6.80235 52.411 6.42835 52.906 6.42835 53.511H5.02035C5.03135 52.169 5.88935 51.212 7.46235 51.212C8.77135 51.212 9.81635 52.015 9.81635 53.357C9.81635 54.039 9.40935 54.71 8.98035 55.227L6.86835 57.757H9.92635V59ZM16.1998 59H11.3158V57.9L14.2968 54.347C14.5608 54.039 14.6928 53.676 14.6928 53.368C14.6928 52.829 14.3518 52.411 13.7248 52.411C13.0758 52.411 12.7018 52.906 12.7018 53.511H11.2938C11.3048 52.169 12.1628 51.212 13.7358 51.212C15.0448 51.212 16.0898 52.015 16.0898 53.357C16.0898 54.039 15.6828 54.71 15.2538 55.227L13.1418 57.757H16.1998V59ZM22.7372 55.172C22.7372 56.426 22.6162 57.702 21.8242 58.461C21.4282 58.846 20.8672 59.143 20.0422 59.143C19.2172 59.143 18.6562 58.846 18.2602 58.461C17.4682 57.702 17.3472 56.426 17.3472 55.172C17.3472 53.918 17.4682 52.642 18.2602 51.883C18.6562 51.498 19.2172 51.212 20.0422 51.212C20.8672 51.212 21.4282 51.498 21.8242 51.883C22.6162 52.642 22.7372 53.918 22.7372 55.172ZM21.3402 55.172C21.3402 54.182 21.4612 52.477 20.0422 52.477C18.6232 52.477 18.7442 54.182 18.7442 55.172C18.7442 56.162 18.6232 57.867 20.0422 57.867C21.4612 57.867 21.3402 56.162 21.3402 55.172ZM28.7467 59H23.8627V57.9L26.8437 54.347C27.1077 54.039 27.2397 53.676 27.2397 53.368C27.2397 52.829 26.8987 52.411 26.2717 52.411C25.6227 52.411 25.2487 52.906 25.2487 53.511H23.8407C23.8517 52.169 24.7097 51.212 26.2827 51.212C27.5917 51.212 28.6367 52.015 28.6367 53.357C28.6367 54.039 28.2297 54.71 27.8007 55.227L25.6887 57.757H28.7467V59ZM35.5041 57.46H34.5361V59H33.1611V57.46H29.7511V56.162L32.5561 51.355H34.0521L31.2031 56.217H33.1611V54.424H34.5361V56.217H35.5041V57.46ZM41.6125 56.481C41.6125 57.977 40.7215 59.143 38.9835 59.143C37.5315 59.143 36.6295 58.109 36.3985 56.734C36.3105 56.239 36.2775 55.788 36.2775 55.304C36.2775 54.182 36.3435 52.807 37.1245 51.971C37.5425 51.531 38.0815 51.212 38.9945 51.212C39.7755 51.212 40.3475 51.454 40.7435 51.828C41.1725 52.235 41.3925 52.785 41.3925 53.236H40.0065C39.9845 53.005 39.8855 52.796 39.7425 52.653C39.5665 52.466 39.3025 52.378 38.9285 52.378C38.5655 52.378 38.3565 52.51 38.1695 52.686C37.7515 53.071 37.6415 53.764 37.6415 54.435C37.9825 54.028 38.6315 53.874 39.0935 53.874C40.7435 53.874 41.6125 54.93 41.6125 56.481ZM40.2155 56.426C40.2155 55.634 39.8085 54.996 38.9615 54.996C38.2245 54.996 37.7735 55.623 37.7735 56.426C37.7735 57.262 38.1695 57.911 38.9835 57.911C39.8085 57.911 40.2155 57.317 40.2155 56.426ZM46.434 56.228H42.661V54.996H46.434V56.228ZM52.9228 55.172C52.9228 56.426 52.8018 57.702 52.0098 58.461C51.6138 58.846 51.0528 59.143 50.2278 59.143C49.4028 59.143 48.8418 58.846 48.4458 58.461C47.6538 57.702 47.5328 56.426 47.5328 55.172C47.5328 53.918 47.6538 52.642 48.4458 51.883C48.8418 51.498 49.4028 51.212 50.2278 51.212C51.0528 51.212 51.6138 51.498 52.0098 51.883C52.8018 52.642 52.9228 53.918 52.9228 55.172ZM51.5258 55.172C51.5258 54.182 51.6468 52.477 50.2278 52.477C48.8088 52.477 48.9298 54.182 48.9298 55.172C48.9298 56.162 48.8088 57.867 50.2278 57.867C51.6468 57.867 51.5258 56.162 51.5258 55.172ZM59.1962 55.172C59.1962 56.426 59.0752 57.702 58.2832 58.461C57.8872 58.846 57.3262 59.143 56.5012 59.143C55.6762 59.143 55.1152 58.846 54.7192 58.461C53.9272 57.702 53.8062 56.426 53.8062 55.172C53.8062 53.918 53.9272 52.642 54.7192 51.883C55.1152 51.498 55.6762 51.212 56.5012 51.212C57.3262 51.212 57.8872 51.498 58.2832 51.883C59.0752 52.642 59.1962 53.918 59.1962 55.172ZM57.7992 55.172C57.7992 54.182 57.9202 52.477 56.5012 52.477C55.0822 52.477 55.2032 54.182 55.2032 55.172C55.2032 56.162 55.0822 57.867 56.5012 57.867C57.9202 57.867 57.7992 56.162 57.7992 55.172Z" fill="#CCFFCE"/>
<path d="M8.41 8.45C8.41 9.43 8.31 10.49 7.58 11.24C7.11 11.73 6.4 12 5.59 12H2.83V4.91H5.59C6.4 4.91 7.11 5.18 7.58 5.67C8.31 6.42 8.41 7.47 8.41 8.45ZM7.1 8.45C7.1 7.8 7.09 6.97 6.59 6.47C6.35 6.23 6 6.07 5.59 6.07H4.12V10.84H5.59C6 10.84 6.35 10.68 6.59 10.44C7.09 9.94 7.1 9.1 7.1 8.45ZM10.9759 12H9.66594V4.91H10.9759V12ZM17.5347 6.08H13.9247V7.98H17.1447V9.15H13.9247V12H12.6347V4.91H17.5347V6.08ZM23.5859 9.74C23.5259 10.3 23.3159 10.87 22.9059 11.29C22.3759 11.83 21.6359 12.13 20.8759 12.13C20.1159 12.13 19.4059 11.88 18.8659 11.34C18.0959 10.57 17.9859 9.62 17.9859 8.46C17.9859 7.3 18.0959 6.35 18.8659 5.58C19.4059 5.04 20.1159 4.78 20.8759 4.78C21.6359 4.78 22.3759 5.06 22.9059 5.6C23.3159 6.02 23.5259 6.58 23.5859 7.14H22.2659C22.2359 6.83 22.1259 6.61 21.9459 6.39C21.7159 6.1 21.3159 5.95 20.8759 5.95C20.4659 5.95 20.0659 6.12 19.7859 6.42C19.2959 6.93 19.2959 7.81 19.2959 8.46C19.2959 9.11 19.2959 9.99 19.7859 10.5C20.0659 10.8 20.4659 10.97 20.8759 10.97C21.3159 10.97 21.7159 10.81 21.9459 10.52C22.1259 10.3 22.2359 10.05 22.2659 9.74H23.5859Z" fill="#CCFFCE"/>
<rect x="58.5" y="3" width="2.1215" height="10.6075" transform="rotate(45 58.5 3)" fill="#CCFFCE"/>
<rect x="60" y="10.501" width="2.1215" height="10.6075" transform="rotate(135 60 10.501)" fill="#CCFFCE"/>
</g>
<defs>
<clipPath id="clip0_156_857">
<rect width="64" height="64" fill="white"/>
</clipPath>
</defs>
</svg>
