<svg width="64" height="64" viewBox="0 0 64 64" fill="none" xmlns="http://www.w3.org/2000/svg">
<g clip-path="url(#clip0_156_1218)">
<rect width="64" height="64" fill="#F49A27"/>
<path d="M10.11 7.18C10.11 8.54 9.24 9.46 7.61 9.46H6.11V12H4.83V4.91H7.61C9.24 4.91 10.11 5.82 10.11 7.18ZM8.81 7.19C8.81 6.51 8.42 6.04 7.56 6.04H6.11V8.33H7.56C8.42 8.33 8.81 7.87 8.81 7.19ZM16.5202 12H15.1202L13.9402 9.32H12.3702V12H11.0702V4.91H14.0602C15.7502 4.91 16.5202 5.97 16.5202 7.11C16.5202 8.06 16.0002 8.81 15.2202 9.1L16.5202 12ZM15.2302 7.11C15.2302 6.54 14.7902 6.04 14.0602 6.04H12.3602V8.16H14.0802C14.8102 8.16 15.2302 7.78 15.2302 7.11ZM18.972 12H17.662V4.91H18.972V12ZM25.9008 4.91L23.5708 12H22.1508L19.8008 4.91H21.1708L22.8908 10.32L24.6008 4.91H25.9008ZM31.9427 12H30.5927L30.1327 10.64H27.3127L26.8527 12H25.5527L28.0427 4.91H29.4527L31.9427 12ZM29.7327 9.48L28.7227 6.49L27.7127 9.48H29.7327ZM36.7863 6.11H34.6863V12H33.3963V6.11H31.2963V4.91H36.7863V6.11ZM42.7218 12H37.6718V4.91H42.7218V6.08H38.9618V7.73H42.2718V8.89H38.9618V10.83H42.7218V12Z" fill="#B15300"/>
<path d="M23.4043 24.792H14.7403V29.352H22.4683V32.16H14.7403V39H11.6443V21.984H23.4043V24.792ZM32.6713 29.304C32.3353 29.232 31.9753 29.184 31.6393 29.184C29.5273 29.184 28.4233 30.696 28.4233 32.712V39H25.3993V26.52H27.9433L28.2073 28.392C28.7833 26.952 30.2713 26.352 31.7353 26.352C32.0473 26.352 32.3593 26.376 32.6713 26.424V29.304ZM52.6733 39H49.6973V31.248C49.6973 29.712 49.2893 28.824 47.7773 28.824C46.0733 28.824 45.3293 30.624 45.3293 32.184V39H42.3533V31.248C42.3533 29.712 41.9453 28.824 40.4333 28.824C38.7293 28.824 37.9613 30.624 37.9613 32.184V39H34.9853V26.52H37.4813L37.7213 28.176C38.4173 27.024 39.6173 26.208 41.2733 26.208C43.0253 26.208 44.2253 26.976 44.8493 28.248C45.5933 26.952 46.9373 26.208 48.6173 26.208C51.2813 26.208 52.6733 27.984 52.6733 30.576V39Z" fill="#B15300"/>
<path d="M19.5103 52.521H17.2003V59H15.7813V52.521H13.4713V51.201H19.5103V52.521ZM25.1373 59H20.2533V57.9L23.2343 54.347C23.4983 54.039 23.6303 53.676 23.6303 53.368C23.6303 52.829 23.2893 52.411 22.6623 52.411C22.0133 52.411 21.6393 52.906 21.6393 53.511H20.2313C20.2423 52.169 21.1003 51.212 22.6733 51.212C23.9823 51.212 25.0273 52.015 25.0273 53.357C25.0273 54.039 24.6203 54.71 24.1913 55.227L22.0793 57.757H25.1373V59ZM31.8947 57.46H30.9267V59H29.5517V57.46H26.1417V56.162L28.9467 51.355H30.4427L27.5937 56.217H29.5517V54.424H30.9267V56.217H31.8947V57.46ZM37.9482 55.172C37.9482 56.426 37.8272 57.702 37.0352 58.461C36.6392 58.846 36.0782 59.143 35.2532 59.143C34.4282 59.143 33.8672 58.846 33.4712 58.461C32.6792 57.702 32.5582 56.426 32.5582 55.172C32.5582 53.918 32.6792 52.642 33.4712 51.883C33.8672 51.498 34.4282 51.212 35.2532 51.212C36.0782 51.212 36.6392 51.498 37.0352 51.883C37.8272 52.642 37.9482 53.918 37.9482 55.172ZM36.5512 55.172C36.5512 54.182 36.6722 52.477 35.2532 52.477C33.8342 52.477 33.9552 54.182 33.9552 55.172C33.9552 56.162 33.8342 57.867 35.2532 57.867C36.6722 57.867 36.5512 56.162 36.5512 55.172ZM44.2766 56.481C44.2766 57.977 43.3856 59.143 41.6476 59.143C40.1956 59.143 39.2936 58.109 39.0626 56.734C38.9746 56.239 38.9416 55.788 38.9416 55.304C38.9416 54.182 39.0076 52.807 39.7886 51.971C40.2066 51.531 40.7456 51.212 41.6586 51.212C42.4396 51.212 43.0116 51.454 43.4076 51.828C43.8366 52.235 44.0566 52.785 44.0566 53.236H42.6706C42.6486 53.005 42.5496 52.796 42.4066 52.653C42.2306 52.466 41.9666 52.378 41.5926 52.378C41.2296 52.378 41.0206 52.51 40.8336 52.686C40.4156 53.071 40.3056 53.764 40.3056 54.435C40.6466 54.028 41.2956 53.874 41.7576 53.874C43.4076 53.874 44.2766 54.93 44.2766 56.481ZM42.8796 56.426C42.8796 55.634 42.4726 54.996 41.6256 54.996C40.8886 54.996 40.4376 55.623 40.4376 56.426C40.4376 57.262 40.8336 57.911 41.6476 57.911C42.4726 57.911 42.8796 57.317 42.8796 56.426ZM50.55 56.481C50.55 57.977 49.659 59.143 47.921 59.143C46.469 59.143 45.567 58.109 45.336 56.734C45.248 56.239 45.215 55.788 45.215 55.304C45.215 54.182 45.281 52.807 46.062 51.971C46.48 51.531 47.019 51.212 47.932 51.212C48.713 51.212 49.285 51.454 49.681 51.828C50.11 52.235 50.33 52.785 50.33 53.236H48.944C48.922 53.005 48.823 52.796 48.68 52.653C48.504 52.466 48.24 52.378 47.866 52.378C47.503 52.378 47.294 52.51 47.107 52.686C46.689 53.071 46.579 53.764 46.579 54.435C46.92 54.028 47.569 53.874 48.031 53.874C49.681 53.874 50.55 54.93 50.55 56.481ZM49.153 56.426C49.153 55.634 48.746 54.996 47.899 54.996C47.162 54.996 46.711 55.623 46.711 56.426C46.711 57.262 47.107 57.911 47.921 57.911C48.746 57.911 49.153 57.317 49.153 56.426ZM56.7135 56.855C56.7135 58.34 55.4485 59.154 54.0735 59.154C52.6985 59.154 51.4335 58.34 51.4335 56.855C51.4335 56.096 51.8185 55.37 52.5445 55.029C51.9835 54.721 51.5875 54.028 51.5875 53.379C51.5875 51.938 52.7425 51.212 54.0735 51.212C55.4045 51.212 56.5595 51.938 56.5595 53.379C56.5595 54.028 56.1635 54.721 55.6025 55.029C56.3285 55.37 56.7135 56.096 56.7135 56.855ZM55.1735 53.401C55.1735 52.84 54.7995 52.411 54.0735 52.411C53.3365 52.411 52.9735 52.84 52.9735 53.401C52.9735 53.962 53.3475 54.424 54.0735 54.424C54.7995 54.424 55.1735 53.962 55.1735 53.401ZM55.3275 56.767C55.3275 56.14 54.8875 55.634 54.0735 55.634C53.2595 55.634 52.8195 56.14 52.8195 56.767C52.8195 57.471 53.3255 57.933 54.0735 57.933C54.8215 57.933 55.3275 57.471 55.3275 56.767Z" fill="#B15300"/>
<rect x="58.5007" y="4" width="2.1215" height="10.6075" transform="rotate(45 58.5007 4)" fill="#B15300"/>
<rect x="60.0007" y="11.501" width="2.1215" height="10.6075" transform="rotate(135 60.0007 11.501)" fill="#B15300"/>
</g>
<defs>
<clipPath id="clip0_156_1218">
<rect width="64" height="64" fill="white"/>
</clipPath>
</defs>
</svg>
