<svg width="64" height="64" viewBox="0 0 64 64" fill="none" xmlns="http://www.w3.org/2000/svg">
<g clip-path="url(#clip0_606_7136)">
<rect width="64" height="64" fill="#F49A27"/>
<path d="M11.95 12H10.7V6.94L8.86 11.9H7.91L6.08 6.88V12H4.83V4.91H6.57L8.43 9.96L10.3 4.91H11.95V12ZM19.1693 12H17.8193L17.3593 10.64H14.5393L14.0793 12H12.7793L15.2693 4.91H16.6793L19.1693 12ZM16.9593 9.48L15.9493 6.49L14.9393 9.48H16.9593ZM24.896 6.08H21.286V7.98H24.506V9.15H21.286V12H19.996V4.91H24.896V6.08Z" fill="#B15300"/>
<rect x="58.5007" y="4" width="2.1215" height="10.6075" transform="rotate(45 58.5007 4)" fill="#B15300"/>
<rect x="60.0007" y="11.501" width="2.1215" height="10.6075" transform="rotate(135 60.0007 11.501)" fill="#B15300"/>
<path d="M27.4157 39H25.4237L25.0637 37.128C24.5597 38.112 22.9277 39.288 20.7917 39.312C18.8237 39.336 17.0717 38.832 15.7277 37.416C13.9517 35.568 13.5197 33.288 13.5197 30.504C13.5197 27.72 13.8797 25.512 15.7277 23.664C17.0237 22.368 18.9677 21.672 20.7917 21.672C22.8797 21.672 24.6797 22.44 25.8317 23.616C26.6717 24.48 27.2957 25.56 27.3917 27.048H24.2237C24.1757 26.376 23.8397 25.92 23.4797 25.488C22.8797 24.792 21.9437 24.456 20.7677 24.456C19.7837 24.456 18.6557 24.888 17.9837 25.608C16.8077 26.832 16.6637 28.944 16.6637 30.504C16.6637 32.064 16.8317 34.248 18.0077 35.472C18.6797 36.192 19.7837 36.552 20.7677 36.552C21.8717 36.552 22.7357 36.168 23.3117 35.568C24.2237 34.608 24.4157 33.552 24.4157 32.256H20.3597V29.688H27.4157V39ZM41.662 38.856C41.158 39.072 40.894 39.192 40.174 39.192C38.878 39.192 38.158 38.376 38.062 37.44C37.486 38.448 36.046 39.312 34.27 39.312C31.294 39.312 29.758 37.44 29.758 35.4C29.758 33.024 31.606 31.656 33.982 31.488L37.654 31.224V30.456C37.654 29.28 37.246 28.488 35.542 28.488C34.15 28.488 33.334 29.112 33.262 30.264H30.358C30.526 27.456 32.758 26.208 35.542 26.208C37.678 26.208 39.502 26.88 40.222 28.752C40.534 29.544 40.582 30.432 40.582 31.272V35.904C40.582 36.48 40.774 36.696 41.278 36.696C41.47 36.696 41.662 36.648 41.662 36.648V38.856ZM37.654 34.032V33.456L34.486 33.696C33.574 33.768 32.686 34.32 32.686 35.328C32.686 36.288 33.526 36.888 34.462 36.888C36.334 36.888 37.654 35.88 37.654 34.032ZM51.4905 24.048C50.8665 23.928 50.3145 23.856 49.5225 23.856C48.4425 23.856 47.8905 24.48 47.8905 25.368V26.52H51.2265V28.992H47.8905V39H44.8905V28.992H42.7785V26.52H44.8905V25.32C44.8905 23.016 46.4505 21.384 49.1385 21.384C50.0025 21.384 50.5545 21.456 51.4905 21.648V24.048Z" fill="#B15300"/>
<path d="M9.92635 59H5.04235V57.9L8.02335 54.347C8.28735 54.039 8.41935 53.676 8.41935 53.368C8.41935 52.829 8.07835 52.411 7.45135 52.411C6.80235 52.411 6.42835 52.906 6.42835 53.511H5.02035C5.03135 52.169 5.88935 51.212 7.46235 51.212C8.77135 51.212 9.81635 52.015 9.81635 53.357C9.81635 54.039 9.40935 54.71 8.98035 55.227L6.86835 57.757H9.92635V59ZM16.6838 57.46H15.7158V59H14.3408V57.46H10.9308V56.162L13.7358 51.355H15.2318L12.3828 56.217H14.3408V54.424H15.7158V56.217H16.6838V57.46ZM22.7372 55.172C22.7372 56.426 22.6162 57.702 21.8242 58.461C21.4282 58.846 20.8672 59.143 20.0422 59.143C19.2172 59.143 18.6562 58.846 18.2602 58.461C17.4682 57.702 17.3472 56.426 17.3472 55.172C17.3472 53.918 17.4682 52.642 18.2602 51.883C18.6562 51.498 19.2172 51.212 20.0422 51.212C20.8672 51.212 21.4282 51.498 21.8242 51.883C22.6162 52.642 22.7372 53.918 22.7372 55.172ZM21.3402 55.172C21.3402 54.182 21.4612 52.477 20.0422 52.477C18.6232 52.477 18.7442 54.182 18.7442 55.172C18.7442 56.162 18.6232 57.867 20.0422 57.867C21.4612 57.867 21.3402 56.162 21.3402 55.172ZM29.0107 55.172C29.0107 56.426 28.8897 57.702 28.0977 58.461C27.7017 58.846 27.1407 59.143 26.3157 59.143C25.4907 59.143 24.9297 58.846 24.5337 58.461C23.7417 57.702 23.6207 56.426 23.6207 55.172C23.6207 53.918 23.7417 52.642 24.5337 51.883C24.9297 51.498 25.4907 51.212 26.3157 51.212C27.1407 51.212 27.7017 51.498 28.0977 51.883C28.8897 52.642 29.0107 53.918 29.0107 55.172ZM27.6137 55.172C27.6137 54.182 27.7347 52.477 26.3157 52.477C24.8967 52.477 25.0177 54.182 25.0177 55.172C25.0177 56.162 24.8967 57.867 26.3157 57.867C27.7347 57.867 27.6137 56.162 27.6137 55.172ZM35.1961 55.04C35.1961 56.162 35.1301 57.537 34.3491 58.373C33.9311 58.813 33.3921 59.143 32.4791 59.143C31.6981 59.143 31.1261 58.89 30.7301 58.516C30.3011 58.109 30.0811 57.559 30.0811 57.108H31.4671C31.4891 57.339 31.5881 57.548 31.7311 57.691C31.9071 57.878 32.1711 57.966 32.5451 57.966C32.9081 57.966 33.1171 57.834 33.3041 57.658C33.7221 57.273 33.8321 56.58 33.8321 55.909C33.4911 56.316 32.8421 56.47 32.3801 56.47C30.7301 56.47 29.8611 55.414 29.8611 53.863C29.8611 52.367 30.7521 51.212 32.4901 51.212C33.9421 51.212 34.8441 52.235 35.0751 53.61C35.1631 54.105 35.1961 54.556 35.1961 55.04ZM33.7001 53.918C33.7001 53.082 33.3041 52.433 32.4901 52.433C31.6651 52.433 31.2581 53.027 31.2581 53.918C31.2581 54.71 31.6651 55.348 32.5121 55.348C33.2491 55.348 33.7001 54.721 33.7001 53.918ZM41.2935 59H36.4095V57.9L39.3905 54.347C39.6545 54.039 39.7865 53.676 39.7865 53.368C39.7865 52.829 39.4455 52.411 38.8185 52.411C38.1695 52.411 37.7955 52.906 37.7955 53.511H36.3875C36.3985 52.169 37.2565 51.212 38.8295 51.212C40.1385 51.212 41.1835 52.015 41.1835 53.357C41.1835 54.039 40.7765 54.71 40.3475 55.227L38.2355 57.757H41.2935V59ZM46.434 56.228H42.661V54.996H46.434V56.228ZM52.9228 55.172C52.9228 56.426 52.8018 57.702 52.0098 58.461C51.6138 58.846 51.0528 59.143 50.2278 59.143C49.4028 59.143 48.8418 58.846 48.4458 58.461C47.6538 57.702 47.5328 56.426 47.5328 55.172C47.5328 53.918 47.6538 52.642 48.4458 51.883C48.8418 51.498 49.4028 51.212 50.2278 51.212C51.0528 51.212 51.6138 51.498 52.0098 51.883C52.8018 52.642 52.9228 53.918 52.9228 55.172ZM51.5258 55.172C51.5258 54.182 51.6468 52.477 50.2278 52.477C48.8088 52.477 48.9298 54.182 48.9298 55.172C48.9298 56.162 48.8088 57.867 50.2278 57.867C51.6468 57.867 51.5258 56.162 51.5258 55.172ZM59.1962 55.172C59.1962 56.426 59.0752 57.702 58.2832 58.461C57.8872 58.846 57.3262 59.143 56.5012 59.143C55.6762 59.143 55.1152 58.846 54.7192 58.461C53.9272 57.702 53.8062 56.426 53.8062 55.172C53.8062 53.918 53.9272 52.642 54.7192 51.883C55.1152 51.498 55.6762 51.212 56.5012 51.212C57.3262 51.212 57.8872 51.498 58.2832 51.883C59.0752 52.642 59.1962 53.918 59.1962 55.172ZM57.7992 55.172C57.7992 54.182 57.9202 52.477 56.5012 52.477C55.0822 52.477 55.2032 54.182 55.2032 55.172C55.2032 56.162 55.0822 57.867 56.5012 57.867C57.9202 57.867 57.7992 56.162 57.7992 55.172Z" fill="#B15300"/>
</g>
<defs>
<clipPath id="clip0_606_7136">
<rect width="64" height="64" fill="white"/>
</clipPath>
</defs>
</svg>
