<svg width="64" height="64" viewBox="0 0 64 64" fill="none" xmlns="http://www.w3.org/2000/svg">
<g clip-path="url(#clip0_414_12905)">
<rect width="64" height="64" fill="#F49A27"/>
<path d="M10.21 12H9.38L9.23 11.22C9.02 11.63 8.34 12.12 7.45 12.13C6.63 12.14 5.9 11.93 5.34 11.34C4.6 10.57 4.42 9.62 4.42 8.46C4.42 7.3 4.57 6.38 5.34 5.61C5.88 5.07 6.69 4.78 7.45 4.78C8.32 4.78 9.07 5.1 9.55 5.59C9.9 5.95 10.16 6.4 10.2 7.02H8.88C8.86 6.74 8.72 6.55 8.57 6.37C8.32 6.08 7.93 5.94 7.44 5.94C7.03 5.94 6.56 6.12 6.28 6.42C5.79 6.93 5.73 7.81 5.73 8.46C5.73 9.11 5.8 10.02 6.29 10.53C6.57 10.83 7.03 10.98 7.44 10.98C7.9 10.98 8.26 10.82 8.5 10.57C8.88 10.17 8.96 9.73 8.96 9.19H7.27V8.12H10.21V12ZM16.0159 9.44C16.0159 9.44 16.0059 9.68 16.0059 9.79H12.5259C12.5159 10.19 12.6559 10.57 12.9059 10.81C13.0859 10.98 13.3359 11.13 13.6759 11.13C14.0359 11.13 14.2559 11.06 14.4359 10.88C14.5459 10.77 14.6359 10.63 14.6859 10.44H15.8859C15.8559 10.75 15.6459 11.16 15.4459 11.4C15.0059 11.92 14.3559 12.13 13.6959 12.13C12.9859 12.13 12.4659 11.88 12.0559 11.49C11.5359 10.99 11.2559 10.26 11.2559 9.41C11.2559 8.58 11.5059 7.84 12.0059 7.33C12.3959 6.93 12.9559 6.67 13.6659 6.67C14.4359 6.67 15.1359 6.98 15.5659 7.63C15.9459 8.2 16.0359 8.79 16.0159 9.44ZM14.7659 8.88C14.7559 8.49 14.6459 8.19 14.4459 7.97C14.2759 7.79 14.0159 7.67 13.6559 7.67C13.2759 7.67 12.9659 7.83 12.7859 8.07C12.6059 8.3 12.5259 8.54 12.5159 8.88H14.7659ZM24.5523 12H23.3123V8.77C23.3123 8.13 23.1423 7.76 22.5123 7.76C21.8023 7.76 21.4923 8.51 21.4923 9.16V12H20.2523V8.77C20.2523 8.13 20.0823 7.76 19.4523 7.76C18.7423 7.76 18.4223 8.51 18.4223 9.16V12H17.1823V6.8H18.2223L18.3223 7.49C18.6123 7.01 19.1123 6.67 19.8023 6.67C20.5323 6.67 21.0323 6.99 21.2923 7.52C21.6023 6.98 22.1623 6.67 22.8623 6.67C23.9723 6.67 24.5523 7.41 24.5523 8.49V12ZM27.35 6.08H26.01V4.79H27.35V6.08ZM27.32 12H26.05V6.8H27.32V12ZM33.3213 12H32.0713V8.81C32.0713 8.2 31.8713 7.83 31.2113 7.83C30.7713 7.83 30.4813 8.11 30.3113 8.49C30.1313 8.9 30.1413 9.44 30.1413 9.88V12H28.8913V6.8H29.9413L30.0313 7.47C30.3413 6.92 30.9613 6.67 31.5613 6.67C32.6713 6.67 33.3213 7.45 33.3213 8.53V12ZM36.1195 6.08H34.7795V4.79H36.1195V6.08ZM36.0895 12H34.8195V6.8H36.0895V12ZM45.0807 7.18C45.0807 8.54 44.2107 9.46 42.5807 9.46H41.0807V12H39.8007V4.91H42.5807C44.2107 4.91 45.0807 5.82 45.0807 7.18ZM43.7807 7.19C43.7807 6.51 43.3907 6.04 42.5307 6.04H41.0807V8.33H42.5307C43.3907 8.33 43.7807 7.87 43.7807 7.19ZM45.6829 12H44.1629V10.44H45.6829V12Z" fill="#B15300"/>
<rect x="58.5007" y="4" width="2.1215" height="10.6075" transform="rotate(45 58.5007 4)" fill="#B15300"/>
<rect x="60.0007" y="11.501" width="2.1215" height="10.6075" transform="rotate(135 60.0007 11.501)" fill="#B15300"/>
<path d="M21.404 39H19.412L19.052 37.128C18.548 38.112 16.916 39.288 14.78 39.312C12.812 39.336 11.06 38.832 9.716 37.416C7.94 35.568 7.508 33.288 7.508 30.504C7.508 27.72 7.868 25.512 9.716 23.664C11.012 22.368 12.956 21.672 14.78 21.672C16.868 21.672 18.668 22.44 19.82 23.616C20.66 24.48 21.284 25.56 21.38 27.048H18.212C18.164 26.376 17.828 25.92 17.468 25.488C16.868 24.792 15.932 24.456 14.756 24.456C13.772 24.456 12.644 24.888 11.972 25.608C10.796 26.832 10.652 28.944 10.652 30.504C10.652 32.064 10.82 34.248 11.996 35.472C12.668 36.192 13.772 36.552 14.756 36.552C15.86 36.552 16.724 36.168 17.3 35.568C18.212 34.608 18.404 33.552 18.404 32.256H14.348V29.688H21.404V39ZM35.3383 32.856C35.3383 32.856 35.3143 33.432 35.3143 33.696H26.9623C26.9383 34.656 27.2743 35.568 27.8743 36.144C28.3063 36.552 28.9062 36.912 29.7223 36.912C30.5863 36.912 31.1143 36.744 31.5463 36.312C31.8103 36.048 32.0263 35.712 32.1463 35.256H35.0262C34.9543 36 34.4503 36.984 33.9703 37.56C32.9143 38.808 31.3543 39.312 29.7703 39.312C28.0663 39.312 26.8183 38.712 25.8343 37.776C24.5863 36.576 23.9143 34.824 23.9143 32.784C23.9143 30.792 24.5143 29.016 25.7143 27.792C26.6503 26.832 27.9943 26.208 29.6983 26.208C31.5463 26.208 33.2263 26.952 34.2583 28.512C35.1703 29.88 35.3863 31.296 35.3383 32.856ZM32.3383 31.512C32.3143 30.576 32.0503 29.856 31.5703 29.328C31.1623 28.896 30.5383 28.608 29.6743 28.608C28.7623 28.608 28.0183 28.992 27.5863 29.568C27.1543 30.12 26.9623 30.696 26.9383 31.512H32.3383ZM55.8256 39H52.8496V31.248C52.8496 29.712 52.4416 28.824 50.9296 28.824C49.2256 28.824 48.4816 30.624 48.4816 32.184V39H45.5056V31.248C45.5056 29.712 45.0976 28.824 43.5856 28.824C41.8816 28.824 41.1136 30.624 41.1136 32.184V39H38.1376V26.52H40.6336L40.8736 28.176C41.5696 27.024 42.7696 26.208 44.4256 26.208C46.1776 26.208 47.3776 26.976 48.0016 28.248C48.7456 26.952 50.0896 26.208 51.7696 26.208C54.4336 26.208 55.8256 27.984 55.8256 30.576V39Z" fill="#B15300"/>
<path d="M8.69435 59H7.31935V52.983L5.63635 54.204V52.708L7.51735 51.355H8.69435V59ZM16.4968 56.404C16.4968 58.021 15.5398 59.154 13.8348 59.154C12.3168 59.154 11.2608 58.208 11.1838 56.767H12.5588C12.5918 57.526 13.1198 57.933 13.8458 57.933C14.7698 57.933 15.0998 57.262 15.0998 56.437C15.0998 55.634 14.7258 55.051 13.8458 55.051C13.3948 55.051 12.9438 55.282 12.7018 55.667H11.3488L11.5138 51.355H16.1558V52.587H12.7018L12.6138 54.336C12.9658 54.006 13.4498 53.841 14.1318 53.841C15.6718 53.841 16.4968 54.952 16.4968 56.404ZM22.7372 55.172C22.7372 56.426 22.6162 57.702 21.8242 58.461C21.4282 58.846 20.8672 59.143 20.0422 59.143C19.2172 59.143 18.6562 58.846 18.2602 58.461C17.4682 57.702 17.3472 56.426 17.3472 55.172C17.3472 53.918 17.4682 52.642 18.2602 51.883C18.6562 51.498 19.2172 51.212 20.0422 51.212C20.8672 51.212 21.4282 51.498 21.8242 51.883C22.6162 52.642 22.7372 53.918 22.7372 55.172ZM21.3402 55.172C21.3402 54.182 21.4612 52.477 20.0422 52.477C18.6232 52.477 18.7442 54.182 18.7442 55.172C18.7442 56.162 18.6232 57.867 20.0422 57.867C21.4612 57.867 21.3402 56.162 21.3402 55.172ZM27.5147 59H26.1397V52.983L24.4567 54.204V52.708L26.3377 51.355H27.5147V59ZM35.1961 55.04C35.1961 56.162 35.1301 57.537 34.3491 58.373C33.9311 58.813 33.3921 59.143 32.4791 59.143C31.6981 59.143 31.1261 58.89 30.7301 58.516C30.3011 58.109 30.0811 57.559 30.0811 57.108H31.4671C31.4891 57.339 31.5881 57.548 31.7311 57.691C31.9071 57.878 32.1711 57.966 32.5451 57.966C32.9081 57.966 33.1171 57.834 33.3041 57.658C33.7221 57.273 33.8321 56.58 33.8321 55.909C33.4911 56.316 32.8421 56.47 32.3801 56.47C30.7301 56.47 29.8611 55.414 29.8611 53.863C29.8611 52.367 30.7521 51.212 32.4901 51.212C33.9421 51.212 34.8441 52.235 35.0751 53.61C35.1631 54.105 35.1961 54.556 35.1961 55.04ZM33.7001 53.918C33.7001 53.082 33.3041 52.433 32.4901 52.433C31.6651 52.433 31.2581 53.027 31.2581 53.918C31.2581 54.71 31.6651 55.348 32.5121 55.348C33.2491 55.348 33.7001 54.721 33.7001 53.918ZM41.6125 56.481C41.6125 57.977 40.7215 59.143 38.9835 59.143C37.5315 59.143 36.6295 58.109 36.3985 56.734C36.3105 56.239 36.2775 55.788 36.2775 55.304C36.2775 54.182 36.3435 52.807 37.1245 51.971C37.5425 51.531 38.0815 51.212 38.9945 51.212C39.7755 51.212 40.3475 51.454 40.7435 51.828C41.1725 52.235 41.3925 52.785 41.3925 53.236H40.0065C39.9845 53.005 39.8855 52.796 39.7425 52.653C39.5665 52.466 39.3025 52.378 38.9285 52.378C38.5655 52.378 38.3565 52.51 38.1695 52.686C37.7515 53.071 37.6415 53.764 37.6415 54.435C37.9825 54.028 38.6315 53.874 39.0935 53.874C40.7435 53.874 41.6125 54.93 41.6125 56.481ZM40.2155 56.426C40.2155 55.634 39.8085 54.996 38.9615 54.996C38.2245 54.996 37.7735 55.623 37.7735 56.426C37.7735 57.262 38.1695 57.911 38.9835 57.911C39.8085 57.911 40.2155 57.317 40.2155 56.426ZM46.434 56.228H42.661V54.996H46.434V56.228ZM52.9228 55.172C52.9228 56.426 52.8018 57.702 52.0098 58.461C51.6138 58.846 51.0528 59.143 50.2278 59.143C49.4028 59.143 48.8418 58.846 48.4458 58.461C47.6538 57.702 47.5328 56.426 47.5328 55.172C47.5328 53.918 47.6538 52.642 48.4458 51.883C48.8418 51.498 49.4028 51.212 50.2278 51.212C51.0528 51.212 51.6138 51.498 52.0098 51.883C52.8018 52.642 52.9228 53.918 52.9228 55.172ZM51.5258 55.172C51.5258 54.182 51.6468 52.477 50.2278 52.477C48.8088 52.477 48.9298 54.182 48.9298 55.172C48.9298 56.162 48.8088 57.867 50.2278 57.867C51.6468 57.867 51.5258 56.162 51.5258 55.172ZM59.1962 55.172C59.1962 56.426 59.0752 57.702 58.2832 58.461C57.8872 58.846 57.3262 59.143 56.5012 59.143C55.6762 59.143 55.1152 58.846 54.7192 58.461C53.9272 57.702 53.8062 56.426 53.8062 55.172C53.8062 53.918 53.9272 52.642 54.7192 51.883C55.1152 51.498 55.6762 51.212 56.5012 51.212C57.3262 51.212 57.8872 51.498 58.2832 51.883C59.0752 52.642 59.1962 53.918 59.1962 55.172ZM57.7992 55.172C57.7992 54.182 57.9202 52.477 56.5012 52.477C55.0822 52.477 55.2032 54.182 55.2032 55.172C55.2032 56.162 55.0822 57.867 56.5012 57.867C57.9202 57.867 57.7992 56.162 57.7992 55.172Z" fill="#B15300"/>
</g>
<defs>
<clipPath id="clip0_414_12905">
<rect width="64" height="64" fill="white"/>
</clipPath>
</defs>
</svg>
