<svg width="64" height="64" viewBox="0 0 64 64" fill="none" xmlns="http://www.w3.org/2000/svg">
<g clip-path="url(#clip0_582_7133)">
<rect width="64" height="64" fill="#149618"/>
<rect width="64" height="64" rx="6" fill="#149618"/>
<path d="M28.0603 39H26.0683L25.7083 37.128C25.2043 38.112 23.5723 39.288 21.4363 39.312C19.4683 39.336 17.7163 38.832 16.3723 37.416C14.5963 35.568 14.1643 33.288 14.1643 30.504C14.1643 27.72 14.5243 25.512 16.3723 23.664C17.6683 22.368 19.6123 21.672 21.4363 21.672C23.5243 21.672 25.3243 22.44 26.4763 23.616C27.3163 24.48 27.9403 25.56 28.0363 27.048H24.8683C24.8203 26.376 24.4843 25.92 24.1243 25.488C23.5243 24.792 22.5883 24.456 21.4123 24.456C20.4283 24.456 19.3003 24.888 18.6283 25.608C17.4523 26.832 17.3083 28.944 17.3083 30.504C17.3083 32.064 17.4763 34.248 18.6523 35.472C19.3242 36.192 20.4283 36.552 21.4123 36.552C22.5163 36.552 23.3803 36.168 23.9563 35.568C24.8683 34.608 25.0603 33.552 25.0603 32.256H21.0043V29.688H28.0603V39ZM34.6025 24.792H31.3865V21.696H34.6025V24.792ZM34.5305 39H31.4825V26.52H34.5305V39ZM48.9817 39H46.3897L46.1977 37.632C45.4537 38.784 44.0617 39.288 42.6937 39.288C41.4457 39.288 40.4137 38.856 39.6457 38.232C38.1577 37.008 37.4377 35.136 37.4377 32.784C37.4377 30.336 38.1817 28.44 39.6697 27.216C40.4377 26.592 41.4457 26.208 42.7177 26.208C44.3017 26.208 45.4537 26.736 45.9817 27.384V21.672H48.9817V39ZM46.1257 32.736C46.1257 30.936 45.6457 28.728 43.2937 28.728C42.3577 28.728 41.7097 29.16 41.2777 29.712C40.6537 30.528 40.4857 31.656 40.4857 32.736C40.4857 33.816 40.6537 34.968 41.2777 35.784C41.7097 36.336 42.3577 36.768 43.2937 36.768C45.6457 36.768 46.1257 34.536 46.1257 32.736Z" fill="#CCFFCE"/>
<path d="M18.7457 59H13.8617V57.9L16.8427 54.347C17.1067 54.039 17.2387 53.676 17.2387 53.368C17.2387 52.829 16.8977 52.411 16.2707 52.411C15.6217 52.411 15.2477 52.906 15.2477 53.511H13.8397C13.8507 52.169 14.7087 51.212 16.2817 51.212C17.5907 51.212 18.6357 52.015 18.6357 53.357C18.6357 54.039 18.2287 54.71 17.7997 55.227L15.6877 57.757H18.7457V59ZM23.7871 59H22.4121V52.983L20.7291 54.204V52.708L22.6101 51.355H23.7871V59ZM31.5566 55.172C31.5566 56.426 31.4356 57.702 30.6436 58.461C30.2476 58.846 29.6866 59.143 28.8616 59.143C28.0366 59.143 27.4756 58.846 27.0796 58.461C26.2876 57.702 26.1666 56.426 26.1666 55.172C26.1666 53.918 26.2876 52.642 27.0796 51.883C27.4756 51.498 28.0366 51.212 28.8616 51.212C29.6866 51.212 30.2476 51.498 30.6436 51.883C31.4356 52.642 31.5566 53.918 31.5566 55.172ZM30.1596 55.172C30.1596 54.182 30.2806 52.477 28.8616 52.477C27.4426 52.477 27.5636 54.182 27.5636 55.172C27.5636 56.162 27.4426 57.867 28.8616 57.867C30.2806 57.867 30.1596 56.162 30.1596 55.172ZM37.676 56.811C37.676 58.34 36.51 59.143 35.069 59.143C33.661 59.143 32.517 58.219 32.473 56.789H33.848C33.903 57.537 34.409 57.933 35.08 57.933C35.762 57.933 36.29 57.515 36.29 56.789C36.29 55.997 35.663 55.634 34.948 55.634H34.376V54.435H34.948C35.696 54.435 36.125 54.127 36.125 53.412C36.125 52.862 35.685 52.411 35.08 52.411C34.398 52.411 33.914 52.752 33.903 53.445H32.517C32.539 52.004 33.683 51.212 35.08 51.212C36.466 51.212 37.522 52.059 37.522 53.379C37.522 54.072 37.115 54.776 36.422 55.018C37.214 55.238 37.676 56.019 37.676 56.811ZM43.9494 56.811C43.9494 58.34 42.7834 59.143 41.3424 59.143C39.9344 59.143 38.7904 58.219 38.7464 56.789H40.1214C40.1764 57.537 40.6824 57.933 41.3534 57.933C42.0354 57.933 42.5634 57.515 42.5634 56.789C42.5634 55.997 41.9364 55.634 41.2214 55.634H40.6494V54.435H41.2214C41.9694 54.435 42.3984 54.127 42.3984 53.412C42.3984 52.862 41.9584 52.411 41.3534 52.411C40.6714 52.411 40.1874 52.752 40.1764 53.445H38.7904C38.8124 52.004 39.9564 51.212 41.3534 51.212C42.7394 51.212 43.7954 52.059 43.7954 53.379C43.7954 54.072 43.3884 54.776 42.6954 55.018C43.4874 55.238 43.9494 56.019 43.9494 56.811ZM50.4099 56.404C50.4099 58.021 49.4529 59.154 47.7479 59.154C46.2299 59.154 45.1739 58.208 45.0969 56.767H46.4719C46.5049 57.526 47.0329 57.933 47.7589 57.933C48.6829 57.933 49.0129 57.262 49.0129 56.437C49.0129 55.634 48.6389 55.051 47.7589 55.051C47.3079 55.051 46.8569 55.282 46.6149 55.667H45.2619L45.4269 51.355H50.0689V52.587H46.6149L46.5269 54.336C46.8789 54.006 47.3629 53.841 48.0449 53.841C49.5849 53.841 50.4099 54.952 50.4099 56.404Z" fill="#CCFFCE"/>
<path d="M10.5 12H9.17L6.1 7.13V12H4.83V4.91H6.2L9.23 9.71V4.91H10.5V12ZM17.214 12H12.164V4.91H17.214V6.08H13.454V7.73H16.764V8.89H13.454V10.83H17.214V12ZM23.8645 8.46C23.8645 9.62 23.7345 10.56 22.9645 11.33C22.4245 11.87 21.6845 12.13 20.9245 12.13C20.1645 12.13 19.4245 11.87 18.8845 11.33C18.1145 10.56 17.9845 9.62 17.9845 8.46C17.9845 7.3 18.1145 6.35 18.8845 5.58C19.4245 5.04 20.1645 4.78 20.9245 4.78C21.6845 4.78 22.4245 5.04 22.9645 5.58C23.7345 6.35 23.8645 7.3 23.8645 8.46ZM22.5545 8.46C22.5545 7.81 22.5345 6.93 22.0445 6.42C21.7645 6.12 21.3345 5.95 20.9245 5.95C20.5145 5.95 20.0845 6.12 19.8045 6.42C19.3145 6.93 19.2945 7.81 19.2945 8.46C19.2945 9.11 19.3145 9.98 19.8045 10.49C20.0845 10.79 20.5145 10.96 20.9245 10.96C21.3345 10.96 21.7645 10.79 22.0445 10.49C22.5345 9.98 22.5545 9.11 22.5545 8.46ZM32.2332 12H30.9832V6.94L29.1432 11.9H28.1932L26.3632 6.88V12H25.1132V4.91H26.8532L28.7132 9.96L30.5832 4.91H32.2332V12Z" fill="#CCFFCE"/>
<rect x="53" y="4" width="7" height="7" rx="3.5" stroke="#CCFFCE" stroke-width="2"/>
</g>
<defs>
<clipPath id="clip0_582_7133">
<rect width="64" height="64" fill="white"/>
</clipPath>
</defs>
</svg>
