<svg width="64" height="64" viewBox="0 0 64 64" fill="none" xmlns="http://www.w3.org/2000/svg">
<g clip-path="url(#clip0_343_7039)">
<rect width="64" height="64" fill="#F49A27"/>
<rect width="64" height="64" rx="6" fill="#F49A27"/>
<path d="M21.322 39H19.33L18.97 37.128C18.466 38.112 16.834 39.288 14.698 39.312C12.73 39.336 10.978 38.832 9.63397 37.416C7.85797 35.568 7.42597 33.288 7.42597 30.504C7.42597 27.72 7.78597 25.512 9.63397 23.664C10.93 22.368 12.874 21.672 14.698 21.672C16.786 21.672 18.586 22.44 19.738 23.616C20.578 24.48 21.202 25.56 21.298 27.048H18.13C18.082 26.376 17.746 25.92 17.386 25.488C16.786 24.792 15.85 24.456 14.674 24.456C13.69 24.456 12.562 24.888 11.89 25.608C10.714 26.832 10.57 28.944 10.57 30.504C10.57 32.064 10.738 34.248 11.914 35.472C12.586 36.192 13.69 36.552 14.674 36.552C15.778 36.552 16.642 36.168 17.218 35.568C18.13 34.608 18.322 33.552 18.322 32.256H14.266V29.688H21.322V39ZM35.4962 32.76C35.4962 34.872 34.9682 36.192 34.0322 37.368C33.1682 38.424 31.5602 39.312 29.6642 39.312C27.7682 39.312 26.1602 38.424 25.2962 37.368C24.3602 36.192 23.8322 34.872 23.8322 32.76C23.8322 30.648 24.3602 29.328 25.2962 28.152C26.1602 27.096 27.7682 26.208 29.6642 26.208C31.5602 26.208 33.1682 27.096 34.0322 28.152C34.9682 29.328 35.4962 30.648 35.4962 32.76ZM32.4482 32.76C32.4482 31.584 32.2802 30.408 31.5602 29.616C31.1522 29.184 30.4802 28.824 29.6642 28.824C28.8482 28.824 28.1762 29.184 27.7682 29.616C27.0482 30.408 26.8802 31.584 26.8802 32.76C26.8802 33.936 27.0482 35.112 27.7682 35.904C28.1762 36.336 28.8482 36.696 29.6642 36.696C30.4802 36.696 31.1522 36.336 31.5602 35.904C32.2802 35.112 32.4482 33.936 32.4482 32.76ZM55.5917 39H52.5917V26.856L48.1757 38.76H45.8957L41.5037 26.712V39H38.5037V21.984H42.6797L47.1437 34.104L51.6317 21.984H55.5917V39Z" fill="#B15300"/>
<path d="M9.92635 59H5.04235V57.9L8.02335 54.347C8.28735 54.039 8.41935 53.676 8.41935 53.368C8.41935 52.829 8.07835 52.411 7.45135 52.411C6.80235 52.411 6.42835 52.906 6.42835 53.511H5.02035C5.03135 52.169 5.88935 51.212 7.46235 51.212C8.77135 51.212 9.81635 52.015 9.81635 53.357C9.81635 54.039 9.40935 54.71 8.98035 55.227L6.86835 57.757H9.92635V59ZM14.9678 59H13.5928V52.983L11.9098 54.204V52.708L13.7908 51.355H14.9678V59ZM22.7372 55.172C22.7372 56.426 22.6162 57.702 21.8242 58.461C21.4282 58.846 20.8672 59.143 20.0422 59.143C19.2172 59.143 18.6562 58.846 18.2602 58.461C17.4682 57.702 17.3472 56.426 17.3472 55.172C17.3472 53.918 17.4682 52.642 18.2602 51.883C18.6562 51.498 19.2172 51.212 20.0422 51.212C20.8672 51.212 21.4282 51.498 21.8242 51.883C22.6162 52.642 22.7372 53.918 22.7372 55.172ZM21.3402 55.172C21.3402 54.182 21.4612 52.477 20.0422 52.477C18.6232 52.477 18.7442 54.182 18.7442 55.172C18.7442 56.162 18.6232 57.867 20.0422 57.867C21.4612 57.867 21.3402 56.162 21.3402 55.172ZM28.8567 56.811C28.8567 58.34 27.6907 59.143 26.2497 59.143C24.8417 59.143 23.6977 58.219 23.6537 56.789H25.0287C25.0837 57.537 25.5897 57.933 26.2607 57.933C26.9427 57.933 27.4707 57.515 27.4707 56.789C27.4707 55.997 26.8437 55.634 26.1287 55.634H25.5567V54.435H26.1287C26.8767 54.435 27.3057 54.127 27.3057 53.412C27.3057 52.862 26.8657 52.411 26.2607 52.411C25.5787 52.411 25.0947 52.752 25.0837 53.445H23.6977C23.7197 52.004 24.8637 51.212 26.2607 51.212C27.6467 51.212 28.7027 52.059 28.7027 53.379C28.7027 54.072 28.2957 54.776 27.6027 55.018C28.3947 55.238 28.8567 56.019 28.8567 56.811ZM35.1301 56.811C35.1301 58.34 33.9641 59.143 32.5231 59.143C31.1151 59.143 29.9711 58.219 29.9271 56.789H31.3021C31.3571 57.537 31.8631 57.933 32.5341 57.933C33.2161 57.933 33.7441 57.515 33.7441 56.789C33.7441 55.997 33.1171 55.634 32.4021 55.634H31.8301V54.435H32.4021C33.1501 54.435 33.5791 54.127 33.5791 53.412C33.5791 52.862 33.1391 52.411 32.5341 52.411C31.8521 52.411 31.3681 52.752 31.3571 53.445H29.9711C29.9931 52.004 31.1371 51.212 32.5341 51.212C33.9201 51.212 34.9761 52.059 34.9761 53.379C34.9761 54.072 34.5691 54.776 33.8761 55.018C34.6681 55.238 35.1301 56.019 35.1301 56.811ZM41.5905 56.404C41.5905 58.021 40.6335 59.154 38.9285 59.154C37.4105 59.154 36.3545 58.208 36.2775 56.767H37.6525C37.6855 57.526 38.2135 57.933 38.9395 57.933C39.8635 57.933 40.1935 57.262 40.1935 56.437C40.1935 55.634 39.8195 55.051 38.9395 55.051C38.4885 55.051 38.0375 55.282 37.7955 55.667H36.4425L36.6075 51.355H41.2495V52.587H37.7955L37.7075 54.336C38.0595 54.006 38.5435 53.841 39.2255 53.841C40.7655 53.841 41.5905 54.952 41.5905 56.404ZM46.434 56.228H42.661V54.996H46.434V56.228ZM52.9228 55.172C52.9228 56.426 52.8018 57.702 52.0098 58.461C51.6138 58.846 51.0528 59.143 50.2278 59.143C49.4028 59.143 48.8418 58.846 48.4458 58.461C47.6538 57.702 47.5328 56.426 47.5328 55.172C47.5328 53.918 47.6538 52.642 48.4458 51.883C48.8418 51.498 49.4028 51.212 50.2278 51.212C51.0528 51.212 51.6138 51.498 52.0098 51.883C52.8018 52.642 52.9228 53.918 52.9228 55.172ZM51.5258 55.172C51.5258 54.182 51.6468 52.477 50.2278 52.477C48.8088 52.477 48.9298 54.182 48.9298 55.172C48.9298 56.162 48.8088 57.867 50.2278 57.867C51.6468 57.867 51.5258 56.162 51.5258 55.172ZM59.2292 56.404C59.2292 58.021 58.2722 59.154 56.5672 59.154C55.0492 59.154 53.9932 58.208 53.9162 56.767H55.2912C55.3242 57.526 55.8522 57.933 56.5782 57.933C57.5022 57.933 57.8322 57.262 57.8322 56.437C57.8322 55.634 57.4582 55.051 56.5782 55.051C56.1272 55.051 55.6762 55.282 55.4342 55.667H54.0812L54.2462 51.355H58.8882V52.587H55.4342L55.3462 54.336C55.6982 54.006 56.1822 53.841 56.8642 53.841C58.4042 53.841 59.2292 54.952 59.2292 56.404Z" fill="#B15300"/>
<path d="M10.5 12H9.17L6.1 7.13V12H4.83V4.91H6.2L9.23 9.71V4.91H10.5V12ZM17.214 12H12.164V4.91H17.214V6.08H13.454V7.73H16.764V8.89H13.454V10.83H17.214V12ZM23.8645 8.46C23.8645 9.62 23.7345 10.56 22.9645 11.33C22.4245 11.87 21.6845 12.13 20.9245 12.13C20.1645 12.13 19.4245 11.87 18.8845 11.33C18.1145 10.56 17.9845 9.62 17.9845 8.46C17.9845 7.3 18.1145 6.35 18.8845 5.58C19.4245 5.04 20.1645 4.78 20.9245 4.78C21.6845 4.78 22.4245 5.04 22.9645 5.58C23.7345 6.35 23.8645 7.3 23.8645 8.46ZM22.5545 8.46C22.5545 7.81 22.5345 6.93 22.0445 6.42C21.7645 6.12 21.3345 5.95 20.9245 5.95C20.5145 5.95 20.0845 6.12 19.8045 6.42C19.3145 6.93 19.2945 7.81 19.2945 8.46C19.2945 9.11 19.3145 9.98 19.8045 10.49C20.0845 10.79 20.5145 10.96 20.9245 10.96C21.3345 10.96 21.7645 10.79 22.0445 10.49C22.5345 9.98 22.5545 9.11 22.5545 8.46ZM32.2332 12H30.9832V6.94L29.1432 11.9H28.1932L26.3632 6.88V12H25.1132V4.91H26.8532L28.7132 9.96L30.5832 4.91H32.2332V12Z" fill="#B15300"/>
<rect x="53" y="4" width="7" height="7" rx="3.5" stroke="#B15300" stroke-width="2"/>
</g>
<defs>
<clipPath id="clip0_343_7039">
<rect width="64" height="64" fill="white"/>
</clipPath>
</defs>
</svg>
