<svg width="64" height="64" viewBox="0 0 64 64" fill="none" xmlns="http://www.w3.org/2000/svg">
<g clip-path="url(#clip0_376_7084)">
<rect width="64" height="64" fill="#149618"/>
<rect width="64" height="64" rx="6" fill="#149618"/>
<path d="M24.2751 39H22.2831L21.9231 37.128C21.4191 38.112 19.7871 39.288 17.6511 39.312C15.6831 39.336 13.9311 38.832 12.5871 37.416C10.8111 35.568 10.3791 33.288 10.3791 30.504C10.3791 27.72 10.7391 25.512 12.5871 23.664C13.8831 22.368 15.8271 21.672 17.6511 21.672C19.7391 21.672 21.5391 22.44 22.6911 23.616C23.5311 24.48 24.1551 25.56 24.2511 27.048H21.0831C21.0351 26.376 20.6991 25.92 20.3391 25.488C19.7391 24.792 18.8031 24.456 17.6271 24.456C16.6431 24.456 15.5151 24.888 14.8431 25.608C13.6671 26.832 13.5231 28.944 13.5231 30.504C13.5231 32.064 13.6911 34.248 14.8671 35.472C15.5391 36.192 16.6431 36.552 17.6271 36.552C18.7311 36.552 19.5951 36.168 20.1711 35.568C21.0831 34.608 21.2751 33.552 21.2751 32.256H17.2191V29.688H24.2751V39ZM38.4493 32.76C38.4493 34.872 37.9213 36.192 36.9853 37.368C36.1213 38.424 34.5133 39.312 32.6173 39.312C30.7213 39.312 29.1133 38.424 28.2493 37.368C27.3133 36.192 26.7853 34.872 26.7853 32.76C26.7853 30.648 27.3133 29.328 28.2493 28.152C29.1133 27.096 30.7213 26.208 32.6173 26.208C34.5133 26.208 36.1213 27.096 36.9853 28.152C37.9213 29.328 38.4493 30.648 38.4493 32.76ZM35.4013 32.76C35.4013 31.584 35.2333 30.408 34.5133 29.616C34.1053 29.184 33.4333 28.824 32.6173 28.824C31.8013 28.824 31.1293 29.184 30.7213 29.616C30.0013 30.408 29.8333 31.584 29.8333 32.76C29.8333 33.936 30.0013 35.112 30.7213 35.904C31.1293 36.336 31.8013 36.696 32.6173 36.696C33.4333 36.696 34.1053 36.336 34.5133 35.904C35.2333 35.112 35.4013 33.936 35.4013 32.76ZM53.8408 33.936C53.8408 35.52 53.2648 36.648 52.4248 37.488C51.1288 38.784 49.1368 39.312 47.0488 39.312C45.2488 39.312 43.3528 38.832 41.9608 37.56C40.9528 36.648 40.1848 35.208 40.1848 33.6H43.3528C43.3528 34.44 43.7368 35.184 44.2408 35.688C44.9608 36.408 46.1128 36.6 47.0968 36.6C48.2728 36.6 49.4008 36.36 50.0488 35.688C50.4328 35.28 50.7208 34.872 50.7208 34.056C50.7208 32.808 49.7608 32.232 48.7048 32.04C47.5528 31.824 46.0648 31.776 44.9368 31.584C42.5848 31.2 40.6168 29.664 40.6168 26.832C40.6168 25.488 41.2168 24.36 42.1048 23.472C43.2328 22.368 45.1048 21.672 47.0968 21.672C48.9208 21.672 50.6968 22.248 51.8488 23.328C52.8568 24.288 53.5528 25.536 53.5768 26.952H50.4088C50.3848 26.352 50.0728 25.704 49.6648 25.272C49.1128 24.696 47.9848 24.36 47.0728 24.36C46.1128 24.36 45.0088 24.576 44.3128 25.296C43.9528 25.68 43.7368 26.112 43.7368 26.736C43.7368 27.84 44.4568 28.416 45.4648 28.584C46.5448 28.752 48.0568 28.872 49.1608 29.016C51.7048 29.376 53.8408 31.032 53.8408 33.936Z" fill="#CCFFCE"/>
<path d="M9.92635 59H5.04235V57.9L8.02335 54.347C8.28735 54.039 8.41935 53.676 8.41935 53.368C8.41935 52.829 8.07835 52.411 7.45135 52.411C6.80235 52.411 6.42835 52.906 6.42835 53.511H5.02035C5.03135 52.169 5.88935 51.212 7.46235 51.212C8.77135 51.212 9.81635 52.015 9.81635 53.357C9.81635 54.039 9.40935 54.71 8.98035 55.227L6.86835 57.757H9.92635V59ZM14.9678 59H13.5928V52.983L11.9098 54.204V52.708L13.7908 51.355H14.9678V59ZM22.7372 55.172C22.7372 56.426 22.6162 57.702 21.8242 58.461C21.4282 58.846 20.8672 59.143 20.0422 59.143C19.2172 59.143 18.6562 58.846 18.2602 58.461C17.4682 57.702 17.3472 56.426 17.3472 55.172C17.3472 53.918 17.4682 52.642 18.2602 51.883C18.6562 51.498 19.2172 51.212 20.0422 51.212C20.8672 51.212 21.4282 51.498 21.8242 51.883C22.6162 52.642 22.7372 53.918 22.7372 55.172ZM21.3402 55.172C21.3402 54.182 21.4612 52.477 20.0422 52.477C18.6232 52.477 18.7442 54.182 18.7442 55.172C18.7442 56.162 18.6232 57.867 20.0422 57.867C21.4612 57.867 21.3402 56.162 21.3402 55.172ZM28.8567 56.811C28.8567 58.34 27.6907 59.143 26.2497 59.143C24.8417 59.143 23.6977 58.219 23.6537 56.789H25.0287C25.0837 57.537 25.5897 57.933 26.2607 57.933C26.9427 57.933 27.4707 57.515 27.4707 56.789C27.4707 55.997 26.8437 55.634 26.1287 55.634H25.5567V54.435H26.1287C26.8767 54.435 27.3057 54.127 27.3057 53.412C27.3057 52.862 26.8657 52.411 26.2607 52.411C25.5787 52.411 25.0947 52.752 25.0837 53.445H23.6977C23.7197 52.004 24.8637 51.212 26.2607 51.212C27.6467 51.212 28.7027 52.059 28.7027 53.379C28.7027 54.072 28.2957 54.776 27.6027 55.018C28.3947 55.238 28.8567 56.019 28.8567 56.811ZM35.1301 56.811C35.1301 58.34 33.9641 59.143 32.5231 59.143C31.1151 59.143 29.9711 58.219 29.9271 56.789H31.3021C31.3571 57.537 31.8631 57.933 32.5341 57.933C33.2161 57.933 33.7441 57.515 33.7441 56.789C33.7441 55.997 33.1171 55.634 32.4021 55.634H31.8301V54.435H32.4021C33.1501 54.435 33.5791 54.127 33.5791 53.412C33.5791 52.862 33.1391 52.411 32.5341 52.411C31.8521 52.411 31.3681 52.752 31.3571 53.445H29.9711C29.9931 52.004 31.1371 51.212 32.5341 51.212C33.9201 51.212 34.9761 52.059 34.9761 53.379C34.9761 54.072 34.5691 54.776 33.8761 55.018C34.6681 55.238 35.1301 56.019 35.1301 56.811ZM41.5905 56.404C41.5905 58.021 40.6335 59.154 38.9285 59.154C37.4105 59.154 36.3545 58.208 36.2775 56.767H37.6525C37.6855 57.526 38.2135 57.933 38.9395 57.933C39.8635 57.933 40.1935 57.262 40.1935 56.437C40.1935 55.634 39.8195 55.051 38.9395 55.051C38.4885 55.051 38.0375 55.282 37.7955 55.667H36.4425L36.6075 51.355H41.2495V52.587H37.7955L37.7075 54.336C38.0595 54.006 38.5435 53.841 39.2255 53.841C40.7655 53.841 41.5905 54.952 41.5905 56.404ZM46.434 56.228H42.661V54.996H46.434V56.228ZM52.9228 55.172C52.9228 56.426 52.8018 57.702 52.0098 58.461C51.6138 58.846 51.0528 59.143 50.2278 59.143C49.4028 59.143 48.8418 58.846 48.4458 58.461C47.6538 57.702 47.5328 56.426 47.5328 55.172C47.5328 53.918 47.6538 52.642 48.4458 51.883C48.8418 51.498 49.4028 51.212 50.2278 51.212C51.0528 51.212 51.6138 51.498 52.0098 51.883C52.8018 52.642 52.9228 53.918 52.9228 55.172ZM51.5258 55.172C51.5258 54.182 51.6468 52.477 50.2278 52.477C48.8088 52.477 48.9298 54.182 48.9298 55.172C48.9298 56.162 48.8088 57.867 50.2278 57.867C51.6468 57.867 51.5258 56.162 51.5258 55.172ZM59.2512 56.481C59.2512 57.977 58.3602 59.143 56.6222 59.143C55.1702 59.143 54.2682 58.109 54.0372 56.734C53.9492 56.239 53.9162 55.788 53.9162 55.304C53.9162 54.182 53.9822 52.807 54.7632 51.971C55.1812 51.531 55.7202 51.212 56.6332 51.212C57.4142 51.212 57.9862 51.454 58.3822 51.828C58.8112 52.235 59.0312 52.785 59.0312 53.236H57.6452C57.6232 53.005 57.5242 52.796 57.3812 52.653C57.2052 52.466 56.9412 52.378 56.5672 52.378C56.2042 52.378 55.9952 52.51 55.8082 52.686C55.3902 53.071 55.2802 53.764 55.2802 54.435C55.6212 54.028 56.2702 53.874 56.7322 53.874C58.3822 53.874 59.2512 54.93 59.2512 56.481ZM57.8542 56.426C57.8542 55.634 57.4472 54.996 56.6002 54.996C55.8632 54.996 55.4122 55.623 55.4122 56.426C55.4122 57.262 55.8082 57.911 56.6222 57.911C57.4472 57.911 57.8542 57.317 57.8542 56.426Z" fill="#CCFFCE"/>
<path d="M10.5 12H9.17L6.1 7.13V12H4.83V4.91H6.2L9.23 9.71V4.91H10.5V12ZM17.214 12H12.164V4.91H17.214V6.08H13.454V7.73H16.764V8.89H13.454V10.83H17.214V12ZM23.8645 8.46C23.8645 9.62 23.7345 10.56 22.9645 11.33C22.4245 11.87 21.6845 12.13 20.9245 12.13C20.1645 12.13 19.4245 11.87 18.8845 11.33C18.1145 10.56 17.9845 9.62 17.9845 8.46C17.9845 7.3 18.1145 6.35 18.8845 5.58C19.4245 5.04 20.1645 4.78 20.9245 4.78C21.6845 4.78 22.4245 5.04 22.9645 5.58C23.7345 6.35 23.8645 7.3 23.8645 8.46ZM22.5545 8.46C22.5545 7.81 22.5345 6.93 22.0445 6.42C21.7645 6.12 21.3345 5.95 20.9245 5.95C20.5145 5.95 20.0845 6.12 19.8045 6.42C19.3145 6.93 19.2945 7.81 19.2945 8.46C19.2945 9.11 19.3145 9.98 19.8045 10.49C20.0845 10.79 20.5145 10.96 20.9245 10.96C21.3345 10.96 21.7645 10.79 22.0445 10.49C22.5345 9.98 22.5545 9.11 22.5545 8.46ZM32.2332 12H30.9832V6.94L29.1432 11.9H28.1932L26.3632 6.88V12H25.1132V4.91H26.8532L28.7132 9.96L30.5832 4.91H32.2332V12Z" fill="#CCFFCE"/>
<rect x="53" y="4" width="7" height="7" rx="3.5" stroke="#CCFFCE" stroke-width="2"/>
</g>
<defs>
<clipPath id="clip0_376_7084">
<rect width="64" height="64" fill="white"/>
</clipPath>
</defs>
</svg>
