<svg width="64" height="64" viewBox="0 0 64 64" fill="none" xmlns="http://www.w3.org/2000/svg">
<g clip-path="url(#clip0_156_1190)">
<rect width="64" height="64" fill="#F49A27"/>
<path d="M11.95 12H10.7V6.94L8.86 11.9H7.91L6.08 6.88V12H4.83V4.91H6.57L8.43 9.96L10.3 4.91H11.95V12ZM19.0793 8.46C19.0793 9.62 18.9493 10.56 18.1793 11.33C17.6393 11.87 16.8993 12.13 16.1393 12.13C15.3793 12.13 14.6393 11.87 14.0993 11.33C13.3293 10.56 13.1993 9.62 13.1993 8.46C13.1993 7.3 13.3293 6.35 14.0993 5.58C14.6393 5.04 15.3793 4.78 16.1393 4.78C16.8993 4.78 17.6393 5.04 18.1793 5.58C18.9493 6.35 19.0793 7.3 19.0793 8.46ZM17.7693 8.46C17.7693 7.81 17.7493 6.93 17.2593 6.42C16.9793 6.12 16.5493 5.95 16.1393 5.95C15.7293 5.95 15.2993 6.12 15.0193 6.42C14.5293 6.93 14.5093 7.81 14.5093 8.46C14.5093 9.11 14.5293 9.98 15.0193 10.49C15.2993 10.79 15.7293 10.96 16.1393 10.96C16.5493 10.96 16.9793 10.79 17.2593 10.49C17.7493 9.98 17.7693 9.11 17.7693 8.46ZM25.908 8.45C25.908 9.43 25.808 10.49 25.078 11.24C24.608 11.73 23.898 12 23.088 12H20.328V4.91H23.088C23.898 4.91 24.608 5.18 25.078 5.67C25.808 6.42 25.908 7.47 25.908 8.45ZM24.598 8.45C24.598 7.8 24.588 6.97 24.088 6.47C23.848 6.23 23.498 6.07 23.088 6.07H21.618V10.84H23.088C23.498 10.84 23.848 10.68 24.088 10.44C24.588 9.94 24.598 9.1 24.598 8.45ZM32.634 8.46C32.634 9.62 32.504 10.56 31.734 11.33C31.194 11.87 30.454 12.13 29.694 12.13C28.934 12.13 28.194 11.87 27.654 11.33C26.884 10.56 26.754 9.62 26.754 8.46C26.754 7.3 26.884 6.35 27.654 5.58C28.194 5.04 28.934 4.78 29.694 4.78C30.454 4.78 31.194 5.04 31.734 5.58C32.504 6.35 32.634 7.3 32.634 8.46ZM31.324 8.46C31.324 7.81 31.304 6.93 30.814 6.42C30.534 6.12 30.104 5.95 29.694 5.95C29.284 5.95 28.854 6.12 28.574 6.42C28.084 6.93 28.064 7.81 28.064 8.46C28.064 9.11 28.084 9.98 28.574 10.49C28.854 10.79 29.284 10.96 29.694 10.96C30.104 10.96 30.534 10.79 30.814 10.49C31.304 9.98 31.324 9.11 31.324 8.46ZM39.5527 12H38.2227L35.1527 7.13V12H33.8827V4.91H35.2527L38.2827 9.71V4.91H39.5527V12Z" fill="#B15300"/>
<rect x="59.5007" y="3" width="2.1215" height="10.6075" transform="rotate(45 59.5007 3)" fill="#B15300"/>
<rect x="61.0007" y="10.501" width="2.1215" height="10.6075" transform="rotate(135 61.0007 10.501)" fill="#B15300"/>
<path d="M23.4727 39H20.3767V31.584H13.3927V39H10.2967V21.984H13.3927V28.632H20.3767V21.984H23.4727V39ZM38.0129 39H35.4209L35.2289 37.632C34.4849 38.784 33.0929 39.288 31.7249 39.288C30.4769 39.288 29.4449 38.856 28.6769 38.232C27.1889 37.008 26.4689 35.136 26.4689 32.784C26.4689 30.336 27.2129 28.44 28.7009 27.216C29.4689 26.592 30.4769 26.208 31.7489 26.208C33.3329 26.208 34.4849 26.736 35.0129 27.384V21.672H38.0129V39ZM35.1569 32.736C35.1569 30.936 34.6769 28.728 32.3249 28.728C31.3889 28.728 30.7409 29.16 30.3089 29.712C29.6849 30.528 29.5169 31.656 29.5169 32.736C29.5169 33.816 29.6849 34.968 30.3089 35.784C30.7409 36.336 31.3889 36.768 32.3249 36.768C34.6769 36.768 35.1569 34.536 35.1569 32.736ZM54.947 39H51.587L48.755 32.568H44.987V39H41.867V21.984H49.043C53.099 21.984 54.947 24.528 54.947 27.264C54.947 29.544 53.699 31.344 51.827 32.04L54.947 39ZM51.851 27.264C51.851 25.896 50.795 24.696 49.043 24.696H44.963V29.784H49.091C50.843 29.784 51.851 28.872 51.851 27.264Z" fill="#B15300"/>
<path d="M16.2017 52.521H13.8917V59H12.4727V52.521H10.1627V51.201H16.2017V52.521ZM20.5967 59H19.2217V52.983L17.5387 54.204V52.708L19.4197 51.355H20.5967V59ZM28.2781 55.04C28.2781 56.162 28.2121 57.537 27.4311 58.373C27.0131 58.813 26.4741 59.143 25.5611 59.143C24.7801 59.143 24.2081 58.89 23.8121 58.516C23.3831 58.109 23.1631 57.559 23.1631 57.108H24.5491C24.5711 57.339 24.6701 57.548 24.8131 57.691C24.9891 57.878 25.2531 57.966 25.6271 57.966C25.9901 57.966 26.1991 57.834 26.3861 57.658C26.8041 57.273 26.9141 56.58 26.9141 55.909C26.5731 56.316 25.9241 56.47 25.4621 56.47C23.8121 56.47 22.9431 55.414 22.9431 53.863C22.9431 52.367 23.8341 51.212 25.5721 51.212C27.0241 51.212 27.9261 52.235 28.1571 53.61C28.2451 54.105 28.2781 54.556 28.2781 55.04ZM26.7821 53.918C26.7821 53.082 26.3861 52.433 25.5721 52.433C24.7471 52.433 24.3401 53.027 24.3401 53.918C24.3401 54.71 24.7471 55.348 25.5941 55.348C26.3311 55.348 26.7821 54.721 26.7821 53.918ZM34.6396 55.172C34.6396 56.426 34.5186 57.702 33.7266 58.461C33.3306 58.846 32.7696 59.143 31.9446 59.143C31.1196 59.143 30.5586 58.846 30.1626 58.461C29.3706 57.702 29.2496 56.426 29.2496 55.172C29.2496 53.918 29.3706 52.642 30.1626 51.883C30.5586 51.498 31.1196 51.212 31.9446 51.212C32.7696 51.212 33.3306 51.498 33.7266 51.883C34.5186 52.642 34.6396 53.918 34.6396 55.172ZM33.2426 55.172C33.2426 54.182 33.3636 52.477 31.9446 52.477C30.5256 52.477 30.6466 54.182 30.6466 55.172C30.6466 56.162 30.5256 57.867 31.9446 57.867C33.3636 57.867 33.2426 56.162 33.2426 55.172ZM40.946 56.404C40.946 58.021 39.989 59.154 38.284 59.154C36.766 59.154 35.71 58.208 35.633 56.767H37.008C37.041 57.526 37.569 57.933 38.295 57.933C39.219 57.933 39.549 57.262 39.549 56.437C39.549 55.634 39.175 55.051 38.295 55.051C37.844 55.051 37.393 55.282 37.151 55.667H35.798L35.963 51.355H40.605V52.587H37.151L37.063 54.336C37.415 54.006 37.899 53.841 38.581 53.841C40.121 53.841 40.946 54.952 40.946 56.404ZM47.4064 57.46H46.4384V59H45.0634V57.46H41.6534V56.162L44.4584 51.355H45.9544L43.1054 56.217H45.0634V54.424H46.4384V56.217H47.4064V57.46ZM53.4599 55.172C53.4599 56.426 53.3389 57.702 52.5469 58.461C52.1509 58.846 51.5899 59.143 50.7649 59.143C49.9399 59.143 49.3789 58.846 48.9829 58.461C48.1909 57.702 48.0699 56.426 48.0699 55.172C48.0699 53.918 48.1909 52.642 48.9829 51.883C49.3789 51.498 49.9399 51.212 50.7649 51.212C51.5899 51.212 52.1509 51.498 52.5469 51.883C53.3389 52.642 53.4599 53.918 53.4599 55.172ZM52.0629 55.172C52.0629 54.182 52.1839 52.477 50.7649 52.477C49.3459 52.477 49.4669 54.182 49.4669 55.172C49.4669 56.162 49.3459 57.867 50.7649 57.867C52.1839 57.867 52.0629 56.162 52.0629 55.172Z" fill="#B15300"/>
</g>
<defs>
<clipPath id="clip0_156_1190">
<rect width="64" height="64" fill="white"/>
</clipPath>
</defs>
</svg>
