<svg width="64" height="64" viewBox="0 0 64 64" fill="none" xmlns="http://www.w3.org/2000/svg">
<g clip-path="url(#clip0_434_7182)">
<rect width="64" height="64" fill="#621495"/>
<rect width="64" height="64" rx="6" fill="#621495"/>
<path d="M18.9986 34.032C18.9986 37.248 17.1026 39.336 13.8386 39.336C12.2306 39.336 11.0546 38.808 10.2146 37.944C9.20656 36.912 8.72656 35.52 8.72656 33.672H11.7266C11.7266 34.512 11.8226 35.376 12.3506 35.952C12.6866 36.312 13.2146 36.576 13.8386 36.576C15.2306 36.576 15.9026 35.664 15.9026 34.272V21.984H18.9986V34.032ZM32.6596 39H22.0036V36.6L28.5076 28.848C29.0836 28.176 29.3716 27.384 29.3716 26.712C29.3716 25.536 28.6276 24.624 27.2596 24.624C25.8436 24.624 25.0276 25.704 25.0276 27.024H21.9556C21.9796 24.096 23.8516 22.008 27.2836 22.008C30.1396 22.008 32.4196 23.76 32.4196 26.688C32.4196 28.176 31.5316 29.64 30.5956 30.768L25.9876 36.288H32.6596V39ZM53.2831 39H50.2831V26.856L45.8671 38.76H43.5871L39.1951 26.712V39H36.1951V21.984H40.3711L44.8351 34.104L49.3231 21.984H53.2831V39Z" fill="#EFD8FF"/>
<path d="M16.2017 52.521H13.8917V59H12.4727V52.521H10.1627V51.201H16.2017V52.521ZM20.5967 59H19.2217V52.983L17.5387 54.204V52.708L19.4197 51.355H20.5967V59ZM28.3221 52.455L25.3411 59H23.8561L26.8481 52.587H23.0531V51.355H28.3221V52.455ZM33.1436 59H31.7686V52.983L30.0856 54.204V52.708L31.9666 51.355H33.1436V59ZM40.649 59H35.765V57.9L38.746 54.347C39.01 54.039 39.142 53.676 39.142 53.368C39.142 52.829 38.801 52.411 38.174 52.411C37.525 52.411 37.151 52.906 37.151 53.511H35.743C35.754 52.169 36.612 51.212 38.185 51.212C39.494 51.212 40.539 52.015 40.539 53.357C40.539 54.039 40.132 54.71 39.703 55.227L37.591 57.757H40.649V59ZM47.1424 52.455L44.1614 59H42.6764L45.6684 52.587H41.8734V51.355H47.1424V52.455ZM53.3059 56.811C53.3059 58.34 52.1399 59.143 50.6989 59.143C49.2909 59.143 48.1469 58.219 48.1029 56.789H49.4779C49.5329 57.537 50.0389 57.933 50.7099 57.933C51.3919 57.933 51.9199 57.515 51.9199 56.789C51.9199 55.997 51.2929 55.634 50.5779 55.634H50.0059V54.435H50.5779C51.3259 54.435 51.7549 54.127 51.7549 53.412C51.7549 52.862 51.3149 52.411 50.7099 52.411C50.0279 52.411 49.5439 52.752 49.5329 53.445H48.1469C48.1689 52.004 49.3129 51.212 50.7099 51.212C52.0959 51.212 53.1519 52.059 53.1519 53.379C53.1519 54.072 52.7449 54.776 52.0519 55.018C52.8439 55.238 53.3059 56.019 53.3059 56.811Z" fill="#EFD8FF"/>
<rect x="58.5007" y="3" width="2.1215" height="10.6075" transform="rotate(45 58.5007 3)" fill="#EFD8FF"/>
<rect x="60.0007" y="10.501" width="2.1215" height="10.6075" transform="rotate(135 60.0007 10.501)" fill="#EFD8FF"/>
<path d="M12.55 4.91L11.14 12H9.85L8.37 7.11L6.89 12H5.6L4.17 4.91H5.4L6.39 9.84L7.85 5.02H8.93L10.36 9.84L11.37 4.91H12.55ZM18.9642 12H17.6142L17.1542 10.64H14.3342L13.8742 12H12.5742L15.0642 4.91H16.4742L18.9642 12ZM16.7542 9.48L15.7442 6.49L14.7342 9.48H16.7542ZM24.9021 9.89C24.9021 10.55 24.6621 11.02 24.3121 11.37C23.7721 11.91 22.9421 12.13 22.0721 12.13C21.3221 12.13 20.5321 11.93 19.9521 11.4C19.5321 11.02 19.2121 10.42 19.2121 9.75H20.5321C20.5321 10.1 20.6921 10.41 20.9021 10.62C21.2021 10.92 21.6821 11 22.0921 11C22.5821 11 23.0521 10.9 23.3221 10.62C23.4821 10.45 23.6021 10.28 23.6021 9.94C23.6021 9.42 23.2021 9.18 22.7621 9.1C22.2821 9.01 21.6621 8.99 21.1921 8.91C20.2121 8.75 19.3921 8.11 19.3921 6.93C19.3921 6.37 19.6421 5.9 20.0121 5.53C20.4821 5.07 21.2621 4.78 22.0921 4.78C22.8521 4.78 23.5921 5.02 24.0721 5.47C24.4921 5.87 24.7821 6.39 24.7921 6.98H23.4721C23.4621 6.73 23.3321 6.46 23.1621 6.28C22.9321 6.04 22.4621 5.9 22.0821 5.9C21.6821 5.9 21.2221 5.99 20.9321 6.29C20.7821 6.45 20.6921 6.63 20.6921 6.89C20.6921 7.35 20.9921 7.59 21.4121 7.66C21.8621 7.73 22.4921 7.78 22.9521 7.84C24.0121 7.99 24.9021 8.68 24.9021 9.89ZM30.6405 12H26.0605V4.91H27.3505V10.78H30.6405V12Z" fill="#EFD8FF"/>
</g>
<defs>
<clipPath id="clip0_434_7182">
<rect width="64" height="64" fill="white"/>
</clipPath>
</defs>
</svg>
