<svg width="64" height="64" viewBox="0 0 64 64" fill="none" xmlns="http://www.w3.org/2000/svg">
<g clip-path="url(#clip0_156_1110)">
<rect width="64" height="64" fill="#621495"/>
<rect width="64" height="64" rx="6" fill="#621495"/>
<path d="M20.6392 34.032C20.6392 37.248 18.7432 39.336 15.4792 39.336C13.8712 39.336 12.6952 38.808 11.8552 37.944C10.8472 36.912 10.3672 35.52 10.3672 33.672H13.3672C13.3672 34.512 13.4632 35.376 13.9912 35.952C14.3272 36.312 14.8552 36.576 15.4792 36.576C16.8712 36.576 17.5432 35.664 17.5432 34.272V21.984H20.6392V34.032ZM36.5563 33.576C36.4123 34.92 35.9083 36.288 34.9243 37.296C33.6523 38.592 31.8763 39.312 30.0523 39.312C28.2283 39.312 26.5243 38.712 25.2283 37.416C23.3803 35.568 23.1163 33.288 23.1163 30.504C23.1163 27.72 23.3803 25.44 25.2283 23.592C26.5243 22.296 28.2283 21.672 30.0523 21.672C31.8763 21.672 33.6523 22.344 34.9243 23.64C35.9083 24.648 36.4123 25.992 36.5563 27.336H33.3883C33.3163 26.592 33.0523 26.064 32.6203 25.536C32.0683 24.84 31.1083 24.48 30.0523 24.48C29.0683 24.48 28.1083 24.888 27.4363 25.608C26.2603 26.832 26.2603 28.944 26.2603 30.504C26.2603 32.064 26.2603 34.176 27.4363 35.4C28.1083 36.12 29.0683 36.528 30.0523 36.528C31.1083 36.528 32.0683 36.144 32.6203 35.448C33.0523 34.92 33.3163 34.32 33.3883 33.576H36.5563ZM52.6106 30.48C52.6106 32.832 52.3706 35.376 50.6186 37.176C49.4906 38.352 47.7866 39 45.8426 39H39.2186V21.984H45.8426C47.7866 21.984 49.4906 22.632 50.6186 23.808C52.3706 25.608 52.6106 28.128 52.6106 30.48ZM49.4666 30.48C49.4666 28.92 49.4426 26.928 48.2426 25.728C47.6666 25.152 46.8266 24.768 45.8426 24.768H42.3146V36.216H45.8426C46.8266 36.216 47.6666 35.832 48.2426 35.256C49.4426 34.056 49.4666 32.04 49.4666 30.48Z" fill="#EFD8FF"/>
<path d="M16.2017 52.521H13.8917V59H12.4727V52.521H10.1627V51.201H16.2017V52.521ZM21.8287 59H16.9447V57.9L19.9257 54.347C20.1897 54.039 20.3217 53.676 20.3217 53.368C20.3217 52.829 19.9807 52.411 19.3537 52.411C18.7047 52.411 18.3307 52.906 18.3307 53.511H16.9227C16.9337 52.169 17.7917 51.212 19.3647 51.212C20.6737 51.212 21.7187 52.015 21.7187 53.357C21.7187 54.039 21.3117 54.71 20.8827 55.227L18.7707 57.757H21.8287V59ZM28.3661 55.172C28.3661 56.426 28.2451 57.702 27.4531 58.461C27.0571 58.846 26.4961 59.143 25.6711 59.143C24.8461 59.143 24.2851 58.846 23.8891 58.461C23.0971 57.702 22.9761 56.426 22.9761 55.172C22.9761 53.918 23.0971 52.642 23.8891 51.883C24.2851 51.498 24.8461 51.212 25.6711 51.212C26.4961 51.212 27.0571 51.498 27.4531 51.883C28.2451 52.642 28.3661 53.918 28.3661 55.172ZM26.9691 55.172C26.9691 54.182 27.0901 52.477 25.6711 52.477C24.2521 52.477 24.3731 54.182 24.3731 55.172C24.3731 56.162 24.2521 57.867 25.6711 57.867C27.0901 57.867 26.9691 56.162 26.9691 55.172ZM34.6396 55.172C34.6396 56.426 34.5186 57.702 33.7266 58.461C33.3306 58.846 32.7696 59.143 31.9446 59.143C31.1196 59.143 30.5586 58.846 30.1626 58.461C29.3706 57.702 29.2496 56.426 29.2496 55.172C29.2496 53.918 29.3706 52.642 30.1626 51.883C30.5586 51.498 31.1196 51.212 31.9446 51.212C32.7696 51.212 33.3306 51.498 33.7266 51.883C34.5186 52.642 34.6396 53.918 34.6396 55.172ZM33.2426 55.172C33.2426 54.182 33.3636 52.477 31.9446 52.477C30.5256 52.477 30.6466 54.182 30.6466 55.172C30.6466 56.162 30.5256 57.867 31.9446 57.867C33.3636 57.867 33.2426 56.162 33.2426 55.172ZM40.649 59H35.765V57.9L38.746 54.347C39.01 54.039 39.142 53.676 39.142 53.368C39.142 52.829 38.801 52.411 38.174 52.411C37.525 52.411 37.151 52.906 37.151 53.511H35.743C35.754 52.169 36.612 51.212 38.185 51.212C39.494 51.212 40.539 52.015 40.539 53.357C40.539 54.039 40.132 54.71 39.703 55.227L37.591 57.757H40.649V59ZM47.2194 56.404C47.2194 58.021 46.2624 59.154 44.5574 59.154C43.0394 59.154 41.9834 58.208 41.9064 56.767H43.2814C43.3144 57.526 43.8424 57.933 44.5684 57.933C45.4924 57.933 45.8224 57.262 45.8224 56.437C45.8224 55.634 45.4484 55.051 44.5684 55.051C44.1174 55.051 43.6664 55.282 43.4244 55.667H42.0714L42.2364 51.355H46.8784V52.587H43.4244L43.3364 54.336C43.6884 54.006 44.1724 53.841 44.8544 53.841C46.3944 53.841 47.2194 54.952 47.2194 56.404ZM53.4599 55.172C53.4599 56.426 53.3389 57.702 52.5469 58.461C52.1509 58.846 51.5899 59.143 50.7649 59.143C49.9399 59.143 49.3789 58.846 48.9829 58.461C48.1909 57.702 48.0699 56.426 48.0699 55.172C48.0699 53.918 48.1909 52.642 48.9829 51.883C49.3789 51.498 49.9399 51.212 50.7649 51.212C51.5899 51.212 52.1509 51.498 52.5469 51.883C53.3389 52.642 53.4599 53.918 53.4599 55.172ZM52.0629 55.172C52.0629 54.182 52.1839 52.477 50.7649 52.477C49.3459 52.477 49.4669 54.182 49.4669 55.172C49.4669 56.162 49.3459 57.867 50.7649 57.867C52.1839 57.867 52.0629 56.162 52.0629 55.172Z" fill="#EFD8FF"/>
<path d="M11.95 12H10.7V6.94L8.86 11.9H7.91L6.08 6.88V12H4.83V4.91H6.57L8.43 9.96L10.3 4.91H11.95V12ZM14.9993 12H13.4793V10.44H14.9993V12ZM23.3008 9.74C23.2408 10.3 23.0308 10.87 22.6208 11.29C22.0908 11.83 21.3508 12.13 20.5908 12.13C19.8308 12.13 19.1208 11.88 18.5808 11.34C17.8108 10.57 17.7008 9.62 17.7008 8.46C17.7008 7.3 17.8108 6.35 18.5808 5.58C19.1208 5.04 19.8308 4.78 20.5908 4.78C21.3508 4.78 22.0908 5.06 22.6208 5.6C23.0308 6.02 23.2408 6.58 23.3008 7.14H21.9808C21.9508 6.83 21.8408 6.61 21.6608 6.39C21.4308 6.1 21.0308 5.95 20.5908 5.95C20.1808 5.95 19.7808 6.12 19.5008 6.42C19.0108 6.93 19.0108 7.81 19.0108 8.46C19.0108 9.11 19.0108 9.99 19.5008 10.5C19.7808 10.8 20.1808 10.97 20.5908 10.97C21.0308 10.97 21.4308 10.81 21.6608 10.52C21.8408 10.3 21.9508 10.05 21.9808 9.74H23.3008ZM28.7001 12H27.6601L27.5701 11.32C27.3201 11.83 26.7401 12.13 26.0801 12.13C24.9701 12.13 24.2801 11.38 24.2801 10.27V6.8H25.5301V9.99C25.5301 10.6 25.7701 10.98 26.4301 10.98C26.7201 10.98 26.9201 10.87 27.0701 10.72C27.3701 10.44 27.4501 9.97 27.4501 9.55V6.8H28.7001V12ZM32.1985 11.99C31.9485 12.04 31.8985 12.06 31.6485 12.06C30.7985 12.06 30.2285 11.65 30.2285 10.66V4.77H31.4885V10.45C31.4885 10.75 31.5585 10.95 31.9885 10.95C32.0985 10.95 32.1285 10.94 32.1985 10.94V11.99ZM36.2161 11.93C35.8661 12.02 35.5161 12.07 35.1461 12.07C34.0961 12.07 33.5761 11.47 33.5761 10.47V7.83H32.6261V6.8H33.5761V5.48L34.8261 5.17V6.8H36.1361V7.83H34.8261V10.36C34.8261 10.76 35.0061 10.93 35.4061 10.93C35.6661 10.93 35.8761 10.92 36.2161 10.88V11.93Z" fill="#EFD8FF"/>
<path d="M54.634 4.5C55.0189 3.83333 55.9811 3.83333 56.366 4.5L59.3971 9.75C59.782 10.4167 59.3009 11.25 58.5311 11.25H52.4689C51.6991 11.25 51.218 10.4167 51.6029 9.75L54.634 4.5Z" fill="#EFD8FF"/>
</g>
<defs>
<clipPath id="clip0_156_1110">
<rect width="64" height="64" fill="white"/>
</clipPath>
</defs>
</svg>
