<svg width="64" height="64" viewBox="0 0 64 64" fill="none" xmlns="http://www.w3.org/2000/svg">
<g clip-path="url(#clip0_156_1075)">
<rect width="64" height="64" fill="#0000FF"/>
<rect width="64" height="64" rx="6" fill="#0000FF"/>
<path d="M22.2329 34.032C22.2329 37.248 20.3369 39.336 17.0729 39.336C15.4649 39.336 14.2889 38.808 13.4489 37.944C12.4409 36.912 11.9609 35.52 11.9609 33.672H14.9609C14.9609 34.512 15.0569 35.376 15.5849 35.952C15.9209 36.312 16.4489 36.576 17.0729 36.576C18.4649 36.576 19.1369 35.664 19.1369 34.272V21.984H22.2329V34.032ZM36.614 40.656C36.614 43.944 33.374 44.832 30.59 44.832C29.078 44.832 27.47 44.712 26.174 43.8C25.214 43.128 24.662 42.24 24.662 41.064C24.662 39.984 25.19 39 26.15 38.52C25.358 38.088 24.902 37.2 24.902 36.384C24.902 35.328 25.382 34.488 26.39 33.864C25.622 33.096 25.142 32.064 25.142 30.792C25.142 27.816 27.446 26.208 30.254 26.208C31.286 26.208 32.27 26.496 33.086 26.976C33.614 25.896 34.574 25.416 35.63 25.416C35.822 25.416 36.254 25.416 36.446 25.464V27.792C36.374 27.792 36.278 27.768 36.206 27.768C35.51 27.768 34.886 27.96 34.694 28.56C35.102 29.232 35.342 29.976 35.342 30.816C35.342 33.672 32.942 35.352 30.254 35.352C29.558 35.352 28.862 35.232 28.238 35.016C27.95 35.184 27.614 35.496 27.614 35.904C27.614 36.648 28.358 36.816 28.982 36.816H31.046C32.294 36.816 33.926 36.84 35.102 37.656C36.182 38.4 36.614 39.456 36.614 40.656ZM32.462 30.792C32.462 29.448 31.622 28.464 30.254 28.464C28.886 28.464 28.046 29.448 28.046 30.792C28.046 32.136 28.886 33.096 30.254 33.096C31.622 33.096 32.462 32.136 32.462 30.792ZM33.782 40.728C33.782 39.192 31.934 39.192 30.806 39.192H28.454C27.806 39.384 27.326 39.936 27.326 40.728C27.326 42.312 29.294 42.456 30.47 42.456C31.67 42.456 33.782 42.384 33.782 40.728ZM51.3688 33.576C51.2248 34.92 50.7208 36.288 49.7368 37.296C48.4648 38.592 46.6888 39.312 44.8648 39.312C43.0408 39.312 41.3368 38.712 40.0408 37.416C38.1928 35.568 37.9288 33.288 37.9288 30.504C37.9288 27.72 38.1928 25.44 40.0408 23.592C41.3368 22.296 43.0408 21.672 44.8648 21.672C46.6888 21.672 48.4648 22.344 49.7368 23.64C50.7208 24.648 51.2248 25.992 51.3688 27.336H48.2008C48.1288 26.592 47.8648 26.064 47.4328 25.536C46.8808 24.84 45.9208 24.48 44.8648 24.48C43.8808 24.48 42.9208 24.888 42.2488 25.608C41.0728 26.832 41.0728 28.944 41.0728 30.504C41.0728 32.064 41.0728 34.176 42.2488 35.4C42.9208 36.12 43.8808 36.528 44.8648 36.528C45.9208 36.528 46.8808 36.144 47.4328 35.448C47.8648 34.92 48.1288 34.32 48.2008 33.576H51.3688Z" fill="#EEEEFF"/>
<path d="M9.92635 59H5.04235V57.9L8.02335 54.347C8.28735 54.039 8.41935 53.676 8.41935 53.368C8.41935 52.829 8.07835 52.411 7.45135 52.411C6.80235 52.411 6.42835 52.906 6.42835 53.511H5.02035C5.03135 52.169 5.88935 51.212 7.46235 51.212C8.77135 51.212 9.81635 52.015 9.81635 53.357C9.81635 54.039 9.40935 54.71 8.98035 55.227L6.86835 57.757H9.92635V59ZM14.9678 59H13.5928V52.983L11.9098 54.204V52.708L13.7908 51.355H14.9678V59ZM22.7372 55.172C22.7372 56.426 22.6162 57.702 21.8242 58.461C21.4282 58.846 20.8672 59.143 20.0422 59.143C19.2172 59.143 18.6562 58.846 18.2602 58.461C17.4682 57.702 17.3472 56.426 17.3472 55.172C17.3472 53.918 17.4682 52.642 18.2602 51.883C18.6562 51.498 19.2172 51.212 20.0422 51.212C20.8672 51.212 21.4282 51.498 21.8242 51.883C22.6162 52.642 22.7372 53.918 22.7372 55.172ZM21.3402 55.172C21.3402 54.182 21.4612 52.477 20.0422 52.477C18.6232 52.477 18.7442 54.182 18.7442 55.172C18.7442 56.162 18.6232 57.867 20.0422 57.867C21.4612 57.867 21.3402 56.162 21.3402 55.172ZM28.8567 56.811C28.8567 58.34 27.6907 59.143 26.2497 59.143C24.8417 59.143 23.6977 58.219 23.6537 56.789H25.0287C25.0837 57.537 25.5897 57.933 26.2607 57.933C26.9427 57.933 27.4707 57.515 27.4707 56.789C27.4707 55.997 26.8437 55.634 26.1287 55.634H25.5567V54.435H26.1287C26.8767 54.435 27.3057 54.127 27.3057 53.412C27.3057 52.862 26.8657 52.411 26.2607 52.411C25.5787 52.411 25.0947 52.752 25.0837 53.445H23.6977C23.7197 52.004 24.8637 51.212 26.2607 51.212C27.6467 51.212 28.7027 52.059 28.7027 53.379C28.7027 54.072 28.2957 54.776 27.6027 55.018C28.3947 55.238 28.8567 56.019 28.8567 56.811ZM35.1301 56.811C35.1301 58.34 33.9641 59.143 32.5231 59.143C31.1151 59.143 29.9711 58.219 29.9271 56.789H31.3021C31.3571 57.537 31.8631 57.933 32.5341 57.933C33.2161 57.933 33.7441 57.515 33.7441 56.789C33.7441 55.997 33.1171 55.634 32.4021 55.634H31.8301V54.435H32.4021C33.1501 54.435 33.5791 54.127 33.5791 53.412C33.5791 52.862 33.1391 52.411 32.5341 52.411C31.8521 52.411 31.3681 52.752 31.3571 53.445H29.9711C29.9931 52.004 31.1371 51.212 32.5341 51.212C33.9201 51.212 34.9761 52.059 34.9761 53.379C34.9761 54.072 34.5691 54.776 33.8761 55.018C34.6681 55.238 35.1301 56.019 35.1301 56.811ZM41.5905 56.404C41.5905 58.021 40.6335 59.154 38.9285 59.154C37.4105 59.154 36.3545 58.208 36.2775 56.767H37.6525C37.6855 57.526 38.2135 57.933 38.9395 57.933C39.8635 57.933 40.1935 57.262 40.1935 56.437C40.1935 55.634 39.8195 55.051 38.9395 55.051C38.4885 55.051 38.0375 55.282 37.7955 55.667H36.4425L36.6075 51.355H41.2495V52.587H37.7955L37.7075 54.336C38.0595 54.006 38.5435 53.841 39.2255 53.841C40.7655 53.841 41.5905 54.952 41.5905 56.404ZM46.434 56.228H42.661V54.996H46.434V56.228ZM52.9228 55.172C52.9228 56.426 52.8018 57.702 52.0098 58.461C51.6138 58.846 51.0528 59.143 50.2278 59.143C49.4028 59.143 48.8418 58.846 48.4458 58.461C47.6538 57.702 47.5328 56.426 47.5328 55.172C47.5328 53.918 47.6538 52.642 48.4458 51.883C48.8418 51.498 49.4028 51.212 50.2278 51.212C51.0528 51.212 51.6138 51.498 52.0098 51.883C52.8018 52.642 52.9228 53.918 52.9228 55.172ZM51.5258 55.172C51.5258 54.182 51.6468 52.477 50.2278 52.477C48.8088 52.477 48.9298 54.182 48.9298 55.172C48.9298 56.162 48.8088 57.867 50.2278 57.867C51.6468 57.867 51.5258 56.162 51.5258 55.172ZM59.1962 55.172C59.1962 56.426 59.0752 57.702 58.2832 58.461C57.8872 58.846 57.3262 59.143 56.5012 59.143C55.6762 59.143 55.1152 58.846 54.7192 58.461C53.9272 57.702 53.8062 56.426 53.8062 55.172C53.8062 53.918 53.9272 52.642 54.7192 51.883C55.1152 51.498 55.6762 51.212 56.5012 51.212C57.3262 51.212 57.8872 51.498 58.2832 51.883C59.0752 52.642 59.1962 53.918 59.1962 55.172ZM57.7992 55.172C57.7992 54.182 57.9202 52.477 56.5012 52.477C55.0822 52.477 55.2032 54.182 55.2032 55.172C55.2032 56.162 55.0822 57.867 56.5012 57.867C57.9202 57.867 57.7992 56.162 57.7992 55.172Z" fill="#EEEEFF"/>
<path d="M10.5 12H9.17L6.1 7.13V12H4.83V4.91H6.2L9.23 9.71V4.91H10.5V12ZM17.214 12H12.164V4.91H17.214V6.08H13.454V7.73H16.764V8.89H13.454V10.83H17.214V12ZM23.8645 8.46C23.8645 9.62 23.7345 10.56 22.9645 11.33C22.4245 11.87 21.6845 12.13 20.9245 12.13C20.1645 12.13 19.4245 11.87 18.8845 11.33C18.1145 10.56 17.9845 9.62 17.9845 8.46C17.9845 7.3 18.1145 6.35 18.8845 5.58C19.4245 5.04 20.1645 4.78 20.9245 4.78C21.6845 4.78 22.4245 5.04 22.9645 5.58C23.7345 6.35 23.8645 7.3 23.8645 8.46ZM22.5545 8.46C22.5545 7.81 22.5345 6.93 22.0445 6.42C21.7645 6.12 21.3345 5.95 20.9245 5.95C20.5145 5.95 20.0845 6.12 19.8045 6.42C19.3145 6.93 19.2945 7.81 19.2945 8.46C19.2945 9.11 19.3145 9.98 19.8045 10.49C20.0845 10.79 20.5145 10.96 20.9245 10.96C21.3345 10.96 21.7645 10.79 22.0445 10.49C22.5345 9.98 22.5545 9.11 22.5545 8.46ZM32.2332 12H30.9832V6.94L29.1432 11.9H28.1932L26.3632 6.88V12H25.1132V4.91H26.8532L28.7132 9.96L30.5832 4.91H32.2332V12Z" fill="#EEEEFF"/>
<rect x="53" y="4" width="7" height="7" rx="3.5" stroke="#EEEEFF" stroke-width="2"/>
</g>
<defs>
<clipPath id="clip0_156_1075">
<rect width="64" height="64" fill="white"/>
</clipPath>
</defs>
</svg>
