<svg width="64" height="64" viewBox="0 0 64 64" fill="none" xmlns="http://www.w3.org/2000/svg">
<g clip-path="url(#clip0_226_1970)">
<rect width="64" height="64" fill="#F49A27"/>
<path d="M9.99 9.89C9.99 10.55 9.75 11.02 9.4 11.37C8.86 11.91 8.03 12.13 7.16 12.13C6.41 12.13 5.62 11.93 5.04 11.4C4.62 11.02 4.3 10.42 4.3 9.75H5.62C5.62 10.1 5.78 10.41 5.99 10.62C6.29 10.92 6.77 11 7.18 11C7.67 11 8.14 10.9 8.41 10.62C8.57 10.45 8.69 10.28 8.69 9.94C8.69 9.42 8.29 9.18 7.85 9.1C7.37 9.01 6.75 8.99 6.28 8.91C5.3 8.75 4.48 8.11 4.48 6.93C4.48 6.37 4.73 5.9 5.1 5.53C5.57 5.07 6.35 4.78 7.18 4.78C7.94 4.78 8.68 5.02 9.16 5.47C9.58 5.87 9.87 6.39 9.88 6.98H8.56C8.55 6.73 8.42 6.46 8.25 6.28C8.02 6.04 7.55 5.9 7.17 5.9C6.77 5.9 6.31 5.99 6.02 6.29C5.87 6.45 5.78 6.63 5.78 6.89C5.78 7.35 6.08 7.59 6.5 7.66C6.95 7.73 7.58 7.78 8.04 7.84C9.1 7.99 9.99 8.68 9.99 9.89ZM16.1984 12H11.1484V4.91H16.1984V6.08H12.4384V7.73H15.7484V8.89H12.4384V10.83H16.1984V12ZM22.0077 12H17.4277V4.91H18.7177V10.78H22.0077V12ZM27.9757 12H22.9257V4.91H27.9757V6.08H24.2157V7.73H27.5257V8.89H24.2157V10.83H27.9757V12ZM34.3262 9.74C34.2662 10.3 34.0562 10.87 33.6462 11.29C33.1162 11.83 32.3762 12.13 31.6162 12.13C30.8562 12.13 30.1462 11.88 29.6062 11.34C28.8362 10.57 28.7262 9.62 28.7262 8.46C28.7262 7.3 28.8362 6.35 29.6062 5.58C30.1462 5.04 30.8562 4.78 31.6162 4.78C32.3762 4.78 33.1162 5.06 33.6462 5.6C34.0562 6.02 34.2662 6.58 34.3262 7.14H33.0062C32.9762 6.83 32.8662 6.61 32.6862 6.39C32.4562 6.1 32.0562 5.95 31.6162 5.95C31.2062 5.95 30.8062 6.12 30.5262 6.42C30.0362 6.93 30.0362 7.81 30.0362 8.46C30.0362 9.11 30.0362 9.99 30.5262 10.5C30.8062 10.8 31.2062 10.97 31.6162 10.97C32.0562 10.97 32.4562 10.81 32.6862 10.52C32.8662 10.3 32.9762 10.05 33.0062 9.74H34.3262ZM39.9602 6.11H37.8602V12H36.5702V6.11H34.4702V4.91H39.9602V6.11Z" fill="#B15300"/>
<rect x="58.5007" y="4" width="2.1215" height="10.6075" transform="rotate(45 58.5007 4)" fill="#B15300"/>
<rect x="60.0007" y="11.501" width="2.1215" height="10.6075" transform="rotate(135 60.0007 11.501)" fill="#B15300"/>
<path d="M17.8501 34.032C17.8501 37.248 15.9541 39.336 12.6901 39.336C11.0821 39.336 9.90613 38.808 9.06613 37.944C8.05813 36.912 7.57812 35.52 7.57812 33.672H10.5781C10.5781 34.512 10.6741 35.376 11.2021 35.952C11.5381 36.312 12.0661 36.576 12.6901 36.576C14.0821 36.576 14.7541 35.664 14.7541 34.272V21.984H17.8501V34.032ZM38.9272 39H35.9512V31.248C35.9512 29.712 35.5432 28.824 34.0312 28.824C32.3272 28.824 31.5832 30.624 31.5832 32.184V39H28.6072V31.248C28.6072 29.712 28.1992 28.824 26.6872 28.824C24.9832 28.824 24.2152 30.624 24.2152 32.184V39H21.2392V26.52H23.7352L23.9752 28.176C24.6712 27.024 25.8712 26.208 27.5272 26.208C29.2792 26.208 30.4792 26.976 31.1032 28.248C31.8472 26.952 33.1912 26.208 34.8712 26.208C37.5352 26.208 38.9272 27.984 38.9272 30.576V39ZM55.6736 39H52.3136L49.4816 32.568H45.7136V39H42.5936V21.984H49.7696C53.8256 21.984 55.6736 24.528 55.6736 27.264C55.6736 29.544 54.4256 31.344 52.5536 32.04L55.6736 39ZM52.5776 27.264C52.5776 25.896 51.5216 24.696 49.7696 24.696H45.6896V29.784H49.8176C51.5696 29.784 52.5776 28.872 52.5776 27.264Z" fill="#B15300"/>
<path d="M8.69435 59H7.31935V52.983L5.63635 54.204V52.708L7.51735 51.355H8.69435V59ZM16.6838 57.46H15.7158V59H14.3408V57.46H10.9308V56.162L13.7358 51.355H15.2318L12.3828 56.217H14.3408V54.424H15.7158V56.217H16.6838V57.46ZM22.7372 55.172C22.7372 56.426 22.6162 57.702 21.8242 58.461C21.4282 58.846 20.8672 59.143 20.0422 59.143C19.2172 59.143 18.6562 58.846 18.2602 58.461C17.4682 57.702 17.3472 56.426 17.3472 55.172C17.3472 53.918 17.4682 52.642 18.2602 51.883C18.6562 51.498 19.2172 51.212 20.0422 51.212C20.8672 51.212 21.4282 51.498 21.8242 51.883C22.6162 52.642 22.7372 53.918 22.7372 55.172ZM21.3402 55.172C21.3402 54.182 21.4612 52.477 20.0422 52.477C18.6232 52.477 18.7442 54.182 18.7442 55.172C18.7442 56.162 18.6232 57.867 20.0422 57.867C21.4612 57.867 21.3402 56.162 21.3402 55.172ZM29.0107 55.172C29.0107 56.426 28.8897 57.702 28.0977 58.461C27.7017 58.846 27.1407 59.143 26.3157 59.143C25.4907 59.143 24.9297 58.846 24.5337 58.461C23.7417 57.702 23.6207 56.426 23.6207 55.172C23.6207 53.918 23.7417 52.642 24.5337 51.883C24.9297 51.498 25.4907 51.212 26.3157 51.212C27.1407 51.212 27.7017 51.498 28.0977 51.883C28.8897 52.642 29.0107 53.918 29.0107 55.172ZM27.6137 55.172C27.6137 54.182 27.7347 52.477 26.3157 52.477C24.8967 52.477 25.0177 54.182 25.0177 55.172C25.0177 56.162 24.8967 57.867 26.3157 57.867C27.7347 57.867 27.6137 56.162 27.6137 55.172ZM35.5041 57.46H34.5361V59H33.1611V57.46H29.7511V56.162L32.5561 51.355H34.0521L31.2031 56.217H33.1611V54.424H34.5361V56.217H35.5041V57.46ZM41.5135 52.455L38.5325 59H37.0475L40.0395 52.587H36.2445V51.355H41.5135V52.455ZM46.434 56.228H42.661V54.996H46.434V56.228ZM52.9228 55.172C52.9228 56.426 52.8018 57.702 52.0098 58.461C51.6138 58.846 51.0528 59.143 50.2278 59.143C49.4028 59.143 48.8418 58.846 48.4458 58.461C47.6538 57.702 47.5328 56.426 47.5328 55.172C47.5328 53.918 47.6538 52.642 48.4458 51.883C48.8418 51.498 49.4028 51.212 50.2278 51.212C51.0528 51.212 51.6138 51.498 52.0098 51.883C52.8018 52.642 52.9228 53.918 52.9228 55.172ZM51.5258 55.172C51.5258 54.182 51.6468 52.477 50.2278 52.477C48.8088 52.477 48.9298 54.182 48.9298 55.172C48.9298 56.162 48.8088 57.867 50.2278 57.867C51.6468 57.867 51.5258 56.162 51.5258 55.172ZM59.2512 56.481C59.2512 57.977 58.3602 59.143 56.6222 59.143C55.1702 59.143 54.2682 58.109 54.0372 56.734C53.9492 56.239 53.9162 55.788 53.9162 55.304C53.9162 54.182 53.9822 52.807 54.7632 51.971C55.1812 51.531 55.7202 51.212 56.6332 51.212C57.4142 51.212 57.9862 51.454 58.3822 51.828C58.8112 52.235 59.0312 52.785 59.0312 53.236H57.6452C57.6232 53.005 57.5242 52.796 57.3812 52.653C57.2052 52.466 56.9412 52.378 56.5672 52.378C56.2042 52.378 55.9952 52.51 55.8082 52.686C55.3902 53.071 55.2802 53.764 55.2802 54.435C55.6212 54.028 56.2702 53.874 56.7322 53.874C58.3822 53.874 59.2512 54.93 59.2512 56.481ZM57.8542 56.426C57.8542 55.634 57.4472 54.996 56.6002 54.996C55.8632 54.996 55.4122 55.623 55.4122 56.426C55.4122 57.262 55.8082 57.911 56.6222 57.911C57.4472 57.911 57.8542 57.317 57.8542 56.426Z" fill="#B15300"/>
</g>
<defs>
<clipPath id="clip0_226_1970">
<rect width="64" height="64" fill="white"/>
</clipPath>
</defs>
</svg>
