<svg width="64" height="64" viewBox="0 0 64 64" fill="none" xmlns="http://www.w3.org/2000/svg">
<g clip-path="url(#clip0_156_1017)">
<rect width="64" height="64" fill="#0000FF"/>
<rect width="64" height="64" rx="6" fill="#0000FF"/>
<path d="M22.1392 34.032C22.1392 37.248 20.2432 39.336 16.9792 39.336C15.3712 39.336 14.1952 38.808 13.3552 37.944C12.3472 36.912 11.8672 35.52 11.8672 33.672H14.8672C14.8672 34.512 14.9632 35.376 15.4912 35.952C15.8272 36.312 16.3552 36.576 16.9792 36.576C18.3712 36.576 19.0432 35.664 19.0432 34.272V21.984H22.1392V34.032ZM38.2963 21.984L32.7043 39H29.2963L23.6562 21.984H26.9443L31.0723 34.968L35.1763 21.984H38.2963ZM50.4571 39H47.4571V31.344C47.4571 29.88 46.9771 28.992 45.3931 28.992C44.3371 28.992 43.6411 29.664 43.2331 30.576C42.8011 31.56 42.8251 32.856 42.8251 33.912V39H39.8251V26.52H42.3451L42.5611 28.128C43.3051 26.808 44.7931 26.208 46.2331 26.208C48.8971 26.208 50.4571 28.08 50.4571 30.672V39Z" fill="#EEEEFF"/>
<path d="M8.69435 59H7.31935V52.983L5.63635 54.204V52.708L7.51735 51.355H8.69435V59ZM16.4968 56.404C16.4968 58.021 15.5398 59.154 13.8348 59.154C12.3168 59.154 11.2608 58.208 11.1838 56.767H12.5588C12.5918 57.526 13.1198 57.933 13.8458 57.933C14.7698 57.933 15.0998 57.262 15.0998 56.437C15.0998 55.634 14.7258 55.051 13.8458 55.051C13.3948 55.051 12.9438 55.282 12.7018 55.667H11.3488L11.5138 51.355H16.1558V52.587H12.7018L12.6138 54.336C12.9658 54.006 13.4498 53.841 14.1318 53.841C15.6718 53.841 16.4968 54.952 16.4968 56.404ZM22.7372 55.172C22.7372 56.426 22.6162 57.702 21.8242 58.461C21.4282 58.846 20.8672 59.143 20.0422 59.143C19.2172 59.143 18.6562 58.846 18.2602 58.461C17.4682 57.702 17.3472 56.426 17.3472 55.172C17.3472 53.918 17.4682 52.642 18.2602 51.883C18.6562 51.498 19.2172 51.212 20.0422 51.212C20.8672 51.212 21.4282 51.498 21.8242 51.883C22.6162 52.642 22.7372 53.918 22.7372 55.172ZM21.3402 55.172C21.3402 54.182 21.4612 52.477 20.0422 52.477C18.6232 52.477 18.7442 54.182 18.7442 55.172C18.7442 56.162 18.6232 57.867 20.0422 57.867C21.4612 57.867 21.3402 56.162 21.3402 55.172ZM27.5147 59H26.1397V52.983L24.4567 54.204V52.708L26.3377 51.355H27.5147V59ZM35.2401 52.455L32.2591 59H30.7741L33.7661 52.587H29.9711V51.355H35.2401V52.455ZM40.0615 59H38.6865V52.983L37.0035 54.204V52.708L38.8845 51.355H40.0615V59ZM46.434 56.228H42.661V54.996H46.434V56.228ZM52.9228 55.172C52.9228 56.426 52.8018 57.702 52.0098 58.461C51.6138 58.846 51.0528 59.143 50.2278 59.143C49.4028 59.143 48.8418 58.846 48.4458 58.461C47.6538 57.702 47.5328 56.426 47.5328 55.172C47.5328 53.918 47.6538 52.642 48.4458 51.883C48.8418 51.498 49.4028 51.212 50.2278 51.212C51.0528 51.212 51.6138 51.498 52.0098 51.883C52.8018 52.642 52.9228 53.918 52.9228 55.172ZM51.5258 55.172C51.5258 54.182 51.6468 52.477 50.2278 52.477C48.8088 52.477 48.9298 54.182 48.9298 55.172C48.9298 56.162 48.8088 57.867 50.2278 57.867C51.6468 57.867 51.5258 56.162 51.5258 55.172ZM59.1962 55.172C59.1962 56.426 59.0752 57.702 58.2832 58.461C57.8872 58.846 57.3262 59.143 56.5012 59.143C55.6762 59.143 55.1152 58.846 54.7192 58.461C53.9272 57.702 53.8062 56.426 53.8062 55.172C53.8062 53.918 53.9272 52.642 54.7192 51.883C55.1152 51.498 55.6762 51.212 56.5012 51.212C57.3262 51.212 57.8872 51.498 58.2832 51.883C59.0752 52.642 59.1962 53.918 59.1962 55.172ZM57.7992 55.172C57.7992 54.182 57.9202 52.477 56.5012 52.477C55.0822 52.477 55.2032 54.182 55.2032 55.172C55.2032 56.162 55.0822 57.867 56.5012 57.867C57.9202 57.867 57.7992 56.162 57.7992 55.172Z" fill="#EEEEFF"/>
<path d="M10.39 12H9.04L8.58 10.64H5.76L5.3 12H4L6.49 4.91H7.9L10.39 12ZM8.18 9.48L7.17 6.49L6.16 9.48H8.18ZM12.5579 11.99C12.3079 12.04 12.2579 12.06 12.0079 12.06C11.1579 12.06 10.5879 11.65 10.5879 10.66V4.77H11.8479V10.45C11.8479 10.75 11.9179 10.95 12.3479 10.95C12.4579 10.95 12.4879 10.94 12.5579 10.94V11.99ZM21.8953 12H20.6453V6.94L18.8053 11.9H17.8553L16.0253 6.88V12H14.7753V4.91H16.5153L18.3753 9.96L20.2453 4.91H21.8953V12ZM27.5346 11.94C27.3246 12.03 27.2146 12.08 26.9146 12.08C26.3746 12.08 26.0746 11.74 26.0346 11.35C25.7946 11.77 25.1946 12.13 24.4546 12.13C23.2146 12.13 22.5746 11.35 22.5746 10.5C22.5746 9.51 23.3446 8.94 24.3346 8.87L25.8646 8.76V8.44C25.8646 7.95 25.6946 7.62 24.9846 7.62C24.4046 7.62 24.0646 7.88 24.0346 8.36H22.8246C22.8946 7.19 23.8246 6.67 24.9846 6.67C25.8746 6.67 26.6346 6.95 26.9346 7.73C27.0646 8.06 27.0846 8.43 27.0846 8.78V10.71C27.0846 10.95 27.1646 11.04 27.3746 11.04C27.4546 11.04 27.5346 11.02 27.5346 11.02V11.94ZM25.8646 9.93V9.69L24.5446 9.79C24.1646 9.82 23.7946 10.05 23.7946 10.47C23.7946 10.87 24.1446 11.12 24.5346 11.12C25.3146 11.12 25.8646 10.7 25.8646 9.93ZM32.5698 12H31.4898L31.4098 11.43C31.0998 11.91 30.5198 12.12 29.9498 12.12C29.4298 12.12 28.9998 11.94 28.6798 11.68C28.0598 11.17 27.7598 10.39 27.7598 9.41C27.7598 8.39 28.0698 7.6 28.6898 7.09C29.0098 6.83 29.4298 6.67 29.9598 6.67C30.6198 6.67 31.0998 6.89 31.3198 7.16V4.78H32.5698V12ZM31.3798 9.39C31.3798 8.64 31.1798 7.72 30.1998 7.72C29.8098 7.72 29.5398 7.9 29.3598 8.13C29.0998 8.47 29.0298 8.94 29.0298 9.39C29.0298 9.84 29.0998 10.32 29.3598 10.66C29.5398 10.89 29.8098 11.07 30.1998 11.07C31.1798 11.07 31.3798 10.14 31.3798 9.39ZM35.0657 12H33.5457V10.44H35.0657V12Z" fill="#EEEEFF"/>
<rect x="58.5007" y="3" width="2.1215" height="10.6075" transform="rotate(45 58.5007 3)" fill="#EEEEFF"/>
<rect x="60.0007" y="10.501" width="2.1215" height="10.6075" transform="rotate(135 60.0007 10.501)" fill="#EEEEFF"/>
</g>
<defs>
<clipPath id="clip0_156_1017">
<rect width="64" height="64" fill="white"/>
</clipPath>
</defs>
</svg>
