<svg width="64" height="64" viewBox="0 0 64 64" fill="none" xmlns="http://www.w3.org/2000/svg">
<g clip-path="url(#clip0_397_7686)">
<rect width="64" height="64" fill="#149618"/>
<rect width="64" height="64" rx="6" fill="#149618"/>
<path d="M22.022 39H18.374L13.766 30.96L10.838 34.392V39H7.742V21.984H10.838V29.832L17.63 21.984H21.398L15.926 28.416L22.022 39ZM36.3916 33.936C36.3916 35.52 35.8156 36.648 34.9756 37.488C33.6796 38.784 31.6876 39.312 29.5996 39.312C27.7996 39.312 25.9036 38.832 24.5116 37.56C23.5036 36.648 22.7356 35.208 22.7356 33.6H25.9036C25.9036 34.44 26.2876 35.184 26.7916 35.688C27.5116 36.408 28.6636 36.6 29.6476 36.6C30.8236 36.6 31.9516 36.36 32.5996 35.688C32.9836 35.28 33.2716 34.872 33.2716 34.056C33.2716 32.808 32.3116 32.232 31.2556 32.04C30.1036 31.824 28.6156 31.776 27.4876 31.584C25.1356 31.2 23.1676 29.664 23.1676 26.832C23.1676 25.488 23.7676 24.36 24.6556 23.472C25.7836 22.368 27.6556 21.672 29.6476 21.672C31.4716 21.672 33.2476 22.248 34.3996 23.328C35.4076 24.288 36.1036 25.536 36.1276 26.952H32.9596C32.9356 26.352 32.6236 25.704 32.2156 25.272C31.6636 24.696 30.5356 24.36 29.6236 24.36C28.6636 24.36 27.5596 24.576 26.8636 25.296C26.5036 25.68 26.2876 26.112 26.2876 26.736C26.2876 27.84 27.0076 28.416 28.0156 28.584C29.0956 28.752 30.6076 28.872 31.7116 29.016C34.2556 29.376 36.3916 31.032 36.3916 33.936ZM56.2597 39H53.2597V26.856L48.8437 38.76H46.5637L42.1717 26.712V39H39.1717V21.984H43.3477L47.8117 34.104L52.2997 21.984H56.2597V39Z" fill="#CCFFCE"/>
<path d="M9.92635 59H5.04235V57.9L8.02335 54.347C8.28735 54.039 8.41935 53.676 8.41935 53.368C8.41935 52.829 8.07835 52.411 7.45135 52.411C6.80235 52.411 6.42835 52.906 6.42835 53.511H5.02035C5.03135 52.169 5.88935 51.212 7.46235 51.212C8.77135 51.212 9.81635 52.015 9.81635 53.357C9.81635 54.039 9.40935 54.71 8.98035 55.227L6.86835 57.757H9.92635V59ZM16.6838 57.46H15.7158V59H14.3408V57.46H10.9308V56.162L13.7358 51.355H15.2318L12.3828 56.217H14.3408V54.424H15.7158V56.217H16.6838V57.46ZM22.7372 55.172C22.7372 56.426 22.6162 57.702 21.8242 58.461C21.4282 58.846 20.8672 59.143 20.0422 59.143C19.2172 59.143 18.6562 58.846 18.2602 58.461C17.4682 57.702 17.3472 56.426 17.3472 55.172C17.3472 53.918 17.4682 52.642 18.2602 51.883C18.6562 51.498 19.2172 51.212 20.0422 51.212C20.8672 51.212 21.4282 51.498 21.8242 51.883C22.6162 52.642 22.7372 53.918 22.7372 55.172ZM21.3402 55.172C21.3402 54.182 21.4612 52.477 20.0422 52.477C18.6232 52.477 18.7442 54.182 18.7442 55.172C18.7442 56.162 18.6232 57.867 20.0422 57.867C21.4612 57.867 21.3402 56.162 21.3402 55.172ZM28.7467 59H23.8627V57.9L26.8437 54.347C27.1077 54.039 27.2397 53.676 27.2397 53.368C27.2397 52.829 26.8987 52.411 26.2717 52.411C25.6227 52.411 25.2487 52.906 25.2487 53.511H23.8407C23.8517 52.169 24.7097 51.212 26.2827 51.212C27.5917 51.212 28.6367 52.015 28.6367 53.357C28.6367 54.039 28.2297 54.71 27.8007 55.227L25.6887 57.757H28.7467V59ZM33.7881 59H32.4131V52.983L30.7301 54.204V52.708L32.6111 51.355H33.7881V59ZM41.6125 56.481C41.6125 57.977 40.7215 59.143 38.9835 59.143C37.5315 59.143 36.6295 58.109 36.3985 56.734C36.3105 56.239 36.2775 55.788 36.2775 55.304C36.2775 54.182 36.3435 52.807 37.1245 51.971C37.5425 51.531 38.0815 51.212 38.9945 51.212C39.7755 51.212 40.3475 51.454 40.7435 51.828C41.1725 52.235 41.3925 52.785 41.3925 53.236H40.0065C39.9845 53.005 39.8855 52.796 39.7425 52.653C39.5665 52.466 39.3025 52.378 38.9285 52.378C38.5655 52.378 38.3565 52.51 38.1695 52.686C37.7515 53.071 37.6415 53.764 37.6415 54.435C37.9825 54.028 38.6315 53.874 39.0935 53.874C40.7435 53.874 41.6125 54.93 41.6125 56.481ZM40.2155 56.426C40.2155 55.634 39.8085 54.996 38.9615 54.996C38.2245 54.996 37.7735 55.623 37.7735 56.426C37.7735 57.262 38.1695 57.911 38.9835 57.911C39.8085 57.911 40.2155 57.317 40.2155 56.426ZM46.434 56.228H42.661V54.996H46.434V56.228ZM52.9228 55.172C52.9228 56.426 52.8018 57.702 52.0098 58.461C51.6138 58.846 51.0528 59.143 50.2278 59.143C49.4028 59.143 48.8418 58.846 48.4458 58.461C47.6538 57.702 47.5328 56.426 47.5328 55.172C47.5328 53.918 47.6538 52.642 48.4458 51.883C48.8418 51.498 49.4028 51.212 50.2278 51.212C51.0528 51.212 51.6138 51.498 52.0098 51.883C52.8018 52.642 52.9228 53.918 52.9228 55.172ZM51.5258 55.172C51.5258 54.182 51.6468 52.477 50.2278 52.477C48.8088 52.477 48.9298 54.182 48.9298 55.172C48.9298 56.162 48.8088 57.867 50.2278 57.867C51.6468 57.867 51.5258 56.162 51.5258 55.172ZM59.1962 55.172C59.1962 56.426 59.0752 57.702 58.2832 58.461C57.8872 58.846 57.3262 59.143 56.5012 59.143C55.6762 59.143 55.1152 58.846 54.7192 58.461C53.9272 57.702 53.8062 56.426 53.8062 55.172C53.8062 53.918 53.9272 52.642 54.7192 51.883C55.1152 51.498 55.6762 51.212 56.5012 51.212C57.3262 51.212 57.8872 51.498 58.2832 51.883C59.0752 52.642 59.1962 53.918 59.1962 55.172ZM57.7992 55.172C57.7992 54.182 57.9202 52.477 56.5012 52.477C55.0822 52.477 55.2032 54.182 55.2032 55.172C55.2032 56.162 55.0822 57.867 56.5012 57.867C57.9202 57.867 57.7992 56.162 57.7992 55.172Z" fill="#CCFFCE"/>
<path d="M11.95 12H10.7V6.94L8.86 11.9H7.91L6.08 6.88V12H4.83V4.91H6.57L8.43 9.96L10.3 4.91H11.95V12ZM19.0793 8.46C19.0793 9.62 18.9493 10.56 18.1793 11.33C17.6393 11.87 16.8993 12.13 16.1393 12.13C15.3793 12.13 14.6393 11.87 14.0993 11.33C13.3293 10.56 13.1993 9.62 13.1993 8.46C13.1993 7.3 13.3293 6.35 14.0993 5.58C14.6393 5.04 15.3793 4.78 16.1393 4.78C16.8993 4.78 17.6393 5.04 18.1793 5.58C18.9493 6.35 19.0793 7.3 19.0793 8.46ZM17.7693 8.46C17.7693 7.81 17.7493 6.93 17.2593 6.42C16.9793 6.12 16.5493 5.95 16.1393 5.95C15.7293 5.95 15.2993 6.12 15.0193 6.42C14.5293 6.93 14.5093 7.81 14.5093 8.46C14.5093 9.11 14.5293 9.98 15.0193 10.49C15.2993 10.79 15.7293 10.96 16.1393 10.96C16.5493 10.96 16.9793 10.79 17.2593 10.49C17.7493 9.98 17.7693 9.11 17.7693 8.46ZM25.908 8.45C25.908 9.43 25.808 10.49 25.078 11.24C24.608 11.73 23.898 12 23.088 12H20.328V4.91H23.088C23.898 4.91 24.608 5.18 25.078 5.67C25.808 6.42 25.908 7.47 25.908 8.45ZM24.598 8.45C24.598 7.8 24.588 6.97 24.088 6.47C23.848 6.23 23.498 6.07 23.088 6.07H21.618V10.84H23.088C23.498 10.84 23.848 10.68 24.088 10.44C24.588 9.94 24.598 9.1 24.598 8.45ZM32.634 8.46C32.634 9.62 32.504 10.56 31.734 11.33C31.194 11.87 30.454 12.13 29.694 12.13C28.934 12.13 28.194 11.87 27.654 11.33C26.884 10.56 26.754 9.62 26.754 8.46C26.754 7.3 26.884 6.35 27.654 5.58C28.194 5.04 28.934 4.78 29.694 4.78C30.454 4.78 31.194 5.04 31.734 5.58C32.504 6.35 32.634 7.3 32.634 8.46ZM31.324 8.46C31.324 7.81 31.304 6.93 30.814 6.42C30.534 6.12 30.104 5.95 29.694 5.95C29.284 5.95 28.854 6.12 28.574 6.42C28.084 6.93 28.064 7.81 28.064 8.46C28.064 9.11 28.084 9.98 28.574 10.49C28.854 10.79 29.284 10.96 29.694 10.96C30.104 10.96 30.534 10.79 30.814 10.49C31.304 9.98 31.324 9.11 31.324 8.46ZM39.5527 12H38.2227L35.1527 7.13V12H33.8827V4.91H35.2527L38.2827 9.71V4.91H39.5527V12Z" fill="#CCFFCE"/>
<rect x="53" y="4" width="7" height="7" rx="3.5" stroke="#CCFFCE" stroke-width="2"/>
</g>
<defs>
<clipPath id="clip0_397_7686">
<rect width="64" height="64" fill="white"/>
</clipPath>
</defs>
</svg>
