<svg width="64" height="64" viewBox="0 0 64 64" fill="none" xmlns="http://www.w3.org/2000/svg">
<g clip-path="url(#clip0_342_7030)">
<rect width="64" height="64" fill="#149618"/>
<rect width="64" height="64" rx="6" fill="#149618"/>
<path d="M27.6871 39H16.6951V21.984H19.7911V36.072H27.6871V39ZM40.1864 39H37.6904L37.4744 37.368C36.8744 38.592 35.4824 39.312 33.8984 39.312C31.2344 39.312 29.5784 37.512 29.5784 34.848V26.52H32.5784V34.176C32.5784 35.64 33.1544 36.552 34.7384 36.552C35.4344 36.552 35.9144 36.288 36.2744 35.928C36.9944 35.256 37.1864 34.128 37.1864 33.12V26.52H40.1864V39ZM48.5827 38.976C47.9827 39.096 47.8627 39.144 47.2627 39.144C45.2227 39.144 43.8547 38.16 43.8547 35.784V21.648H46.8787V35.28C46.8787 36 47.0467 36.48 48.0787 36.48C48.3427 36.48 48.4147 36.456 48.5827 36.456V38.976Z" fill="#CCFFCE"/>
<path d="M8.69435 59H7.31935V52.983L5.63635 54.204V52.708L7.51735 51.355H8.69435V59ZM16.3758 55.04C16.3758 56.162 16.3098 57.537 15.5288 58.373C15.1108 58.813 14.5718 59.143 13.6588 59.143C12.8778 59.143 12.3058 58.89 11.9098 58.516C11.4808 58.109 11.2608 57.559 11.2608 57.108H12.6468C12.6688 57.339 12.7678 57.548 12.9108 57.691C13.0868 57.878 13.3508 57.966 13.7248 57.966C14.0878 57.966 14.2968 57.834 14.4838 57.658C14.9018 57.273 15.0118 56.58 15.0118 55.909C14.6708 56.316 14.0218 56.47 13.5598 56.47C11.9098 56.47 11.0408 55.414 11.0408 53.863C11.0408 52.367 11.9318 51.212 13.6698 51.212C15.1218 51.212 16.0238 52.235 16.2548 53.61C16.3428 54.105 16.3758 54.556 16.3758 55.04ZM14.8798 53.918C14.8798 53.082 14.4838 52.433 13.6698 52.433C12.8448 52.433 12.4378 53.027 12.4378 53.918C12.4378 54.71 12.8448 55.348 13.6918 55.348C14.4288 55.348 14.8798 54.721 14.8798 53.918ZM22.7372 55.172C22.7372 56.426 22.6162 57.702 21.8242 58.461C21.4282 58.846 20.8672 59.143 20.0422 59.143C19.2172 59.143 18.6562 58.846 18.2602 58.461C17.4682 57.702 17.3472 56.426 17.3472 55.172C17.3472 53.918 17.4682 52.642 18.2602 51.883C18.6562 51.498 19.2172 51.212 20.0422 51.212C20.8672 51.212 21.4282 51.498 21.8242 51.883C22.6162 52.642 22.7372 53.918 22.7372 55.172ZM21.3402 55.172C21.3402 54.182 21.4612 52.477 20.0422 52.477C18.6232 52.477 18.7442 54.182 18.7442 55.172C18.7442 56.162 18.6232 57.867 20.0422 57.867C21.4612 57.867 21.3402 56.162 21.3402 55.172ZM28.7467 59H23.8627V57.9L26.8437 54.347C27.1077 54.039 27.2397 53.676 27.2397 53.368C27.2397 52.829 26.8987 52.411 26.2717 52.411C25.6227 52.411 25.2487 52.906 25.2487 53.511H23.8407C23.8517 52.169 24.7097 51.212 26.2827 51.212C27.5917 51.212 28.6367 52.015 28.6367 53.357C28.6367 54.039 28.2297 54.71 27.8007 55.227L25.6887 57.757H28.7467V59ZM35.5041 57.46H34.5361V59H33.1611V57.46H29.7511V56.162L32.5561 51.355H34.0521L31.2031 56.217H33.1611V54.424H34.5361V56.217H35.5041V57.46ZM41.4035 56.811C41.4035 58.34 40.2375 59.143 38.7965 59.143C37.3885 59.143 36.2445 58.219 36.2005 56.789H37.5755C37.6305 57.537 38.1365 57.933 38.8075 57.933C39.4895 57.933 40.0175 57.515 40.0175 56.789C40.0175 55.997 39.3905 55.634 38.6755 55.634H38.1035V54.435H38.6755C39.4235 54.435 39.8525 54.127 39.8525 53.412C39.8525 52.862 39.4125 52.411 38.8075 52.411C38.1255 52.411 37.6415 52.752 37.6305 53.445H36.2445C36.2665 52.004 37.4105 51.212 38.8075 51.212C40.1935 51.212 41.2495 52.059 41.2495 53.379C41.2495 54.072 40.8425 54.776 40.1495 55.018C40.9415 55.238 41.4035 56.019 41.4035 56.811ZM46.434 56.228H42.661V54.996H46.434V56.228ZM52.9228 55.172C52.9228 56.426 52.8018 57.702 52.0098 58.461C51.6138 58.846 51.0528 59.143 50.2278 59.143C49.4028 59.143 48.8418 58.846 48.4458 58.461C47.6538 57.702 47.5328 56.426 47.5328 55.172C47.5328 53.918 47.6538 52.642 48.4458 51.883C48.8418 51.498 49.4028 51.212 50.2278 51.212C51.0528 51.212 51.6138 51.498 52.0098 51.883C52.8018 52.642 52.9228 53.918 52.9228 55.172ZM51.5258 55.172C51.5258 54.182 51.6468 52.477 50.2278 52.477C48.8088 52.477 48.9298 54.182 48.9298 55.172C48.9298 56.162 48.8088 57.867 50.2278 57.867C51.6468 57.867 51.5258 56.162 51.5258 55.172ZM59.1522 52.455L56.1712 59H54.6862L57.6782 52.587H53.8832V51.355H59.1522V52.455Z" fill="#CCFFCE"/>
<path d="M54.634 4.5C55.0189 3.83333 55.9811 3.83333 56.366 4.5L59.3971 9.75C59.782 10.4167 59.3009 11.25 58.5311 11.25H52.4689C51.6991 11.25 51.218 10.4167 51.6029 9.75L54.634 4.5Z" fill="#CCFFCE"/>
<path d="M11.95 12H10.7V6.94L8.86 11.9H7.91L6.08 6.88V12H4.83V4.91H6.57L8.43 9.96L10.3 4.91H11.95V12ZM19.0793 8.46C19.0793 9.62 18.9493 10.56 18.1793 11.33C17.6393 11.87 16.8993 12.13 16.1393 12.13C15.3793 12.13 14.6393 11.87 14.0993 11.33C13.3293 10.56 13.1993 9.62 13.1993 8.46C13.1993 7.3 13.3293 6.35 14.0993 5.58C14.6393 5.04 15.3793 4.78 16.1393 4.78C16.8993 4.78 17.6393 5.04 18.1793 5.58C18.9493 6.35 19.0793 7.3 19.0793 8.46ZM17.7693 8.46C17.7693 7.81 17.7493 6.93 17.2593 6.42C16.9793 6.12 16.5493 5.95 16.1393 5.95C15.7293 5.95 15.2993 6.12 15.0193 6.42C14.5293 6.93 14.5093 7.81 14.5093 8.46C14.5093 9.11 14.5293 9.98 15.0193 10.49C15.2993 10.79 15.7293 10.96 16.1393 10.96C16.5493 10.96 16.9793 10.79 17.2593 10.49C17.7493 9.98 17.7693 9.11 17.7693 8.46ZM25.908 8.45C25.908 9.43 25.808 10.49 25.078 11.24C24.608 11.73 23.898 12 23.088 12H20.328V4.91H23.088C23.898 4.91 24.608 5.18 25.078 5.67C25.808 6.42 25.908 7.47 25.908 8.45ZM24.598 8.45C24.598 7.8 24.588 6.97 24.088 6.47C23.848 6.23 23.498 6.07 23.088 6.07H21.618V10.84H23.088C23.498 10.84 23.848 10.68 24.088 10.44C24.588 9.94 24.598 9.1 24.598 8.45ZM32.634 8.46C32.634 9.62 32.504 10.56 31.734 11.33C31.194 11.87 30.454 12.13 29.694 12.13C28.934 12.13 28.194 11.87 27.654 11.33C26.884 10.56 26.754 9.62 26.754 8.46C26.754 7.3 26.884 6.35 27.654 5.58C28.194 5.04 28.934 4.78 29.694 4.78C30.454 4.78 31.194 5.04 31.734 5.58C32.504 6.35 32.634 7.3 32.634 8.46ZM31.324 8.46C31.324 7.81 31.304 6.93 30.814 6.42C30.534 6.12 30.104 5.95 29.694 5.95C29.284 5.95 28.854 6.12 28.574 6.42C28.084 6.93 28.064 7.81 28.064 8.46C28.064 9.11 28.084 9.98 28.574 10.49C28.854 10.79 29.284 10.96 29.694 10.96C30.104 10.96 30.534 10.79 30.814 10.49C31.304 9.98 31.324 9.11 31.324 8.46ZM39.5527 12H38.2227L35.1527 7.13V12H33.8827V4.91H35.2527L38.2827 9.71V4.91H39.5527V12Z" fill="#CCFFCE"/>
</g>
<defs>
<clipPath id="clip0_342_7030">
<rect width="64" height="64" fill="white"/>
</clipPath>
</defs>
</svg>
