<svg width="64" height="64" viewBox="0 0 64 64" fill="none" xmlns="http://www.w3.org/2000/svg">
<g clip-path="url(#clip0_156_1250)">
<rect width="64" height="64" fill="#FCFF3A"/>
<rect width="64" height="64" rx="6" fill="#FCFF3A"/>
<path d="M11.95 12H10.7V6.94L8.86 11.9H7.91L6.08 6.88V12H4.83V4.91H6.57L8.43 9.96L10.3 4.91H11.95V12ZM19.0393 9.94C19.0393 10.57 18.8293 11.14 18.3193 11.53C17.7693 11.95 17.1093 12.01 16.4293 12.01H13.6093V4.91H16.4293C16.9993 4.91 17.5893 4.99 18.0693 5.3C18.5893 5.64 18.8893 6.23 18.8893 6.84C18.8893 7.42 18.6193 8.07 18.0193 8.34C18.6893 8.65 19.0393 9.28 19.0393 9.94ZM17.5793 6.92C17.5793 6.24 17.0593 6.02 16.4793 6.02H14.8893V7.8H16.5093C17.0893 7.8 17.5793 7.59 17.5793 6.92ZM17.7293 9.91C17.7293 9.15 17.1993 8.88 16.5193 8.88H14.8893V10.85H16.4793C17.0793 10.85 17.7293 10.63 17.7293 9.91ZM25.4199 9.74C25.3599 10.3 25.1499 10.87 24.7399 11.29C24.2099 11.83 23.4699 12.13 22.7099 12.13C21.9499 12.13 21.2399 11.88 20.6999 11.34C19.9299 10.57 19.8199 9.62 19.8199 8.46C19.8199 7.3 19.9299 6.35 20.6999 5.58C21.2399 5.04 21.9499 4.78 22.7099 4.78C23.4699 4.78 24.2099 5.06 24.7399 5.6C25.1499 6.02 25.3599 6.58 25.4199 7.14H24.0999C24.0699 6.83 23.9599 6.61 23.7799 6.39C23.5499 6.1 23.1499 5.95 22.7099 5.95C22.2999 5.95 21.8999 6.12 21.6199 6.42C21.1299 6.93 21.1299 7.81 21.1299 8.46C21.1299 9.11 21.1299 9.99 21.6199 10.5C21.8999 10.8 22.2999 10.97 22.7099 10.97C23.1499 10.97 23.5499 10.81 23.7799 10.52C23.9599 10.3 24.0699 10.05 24.0999 9.74H25.4199Z" fill="#BD9832"/>
<path d="M24.373 39H21.373V26.856L16.957 38.76H14.677L10.285 26.712V39H7.28497V21.984H11.461L15.925 34.104L20.413 21.984H24.373V39ZM41.3873 34.056C41.3873 35.568 40.8833 36.936 39.6593 37.872C38.3393 38.88 36.7553 39.024 35.1233 39.024H28.3553V21.984H35.1233C36.4913 21.984 37.9073 22.176 39.0593 22.92C40.3073 23.736 41.0273 25.152 41.0273 26.616C41.0273 28.008 40.3793 29.568 38.9393 30.216C40.5473 30.96 41.3873 32.472 41.3873 34.056ZM37.8833 26.808C37.8833 25.176 36.6353 24.648 35.2433 24.648H31.4273V28.92H35.3153C36.7073 28.92 37.8833 28.416 37.8833 26.808ZM38.2433 33.984C38.2433 32.16 36.9713 31.512 35.3393 31.512H31.4273V36.24H35.2433C36.6833 36.24 38.2433 35.712 38.2433 33.984ZM57.6848 30.48C57.6848 32.832 57.4448 35.376 55.6928 37.176C54.5648 38.352 52.8608 39 50.9168 39H44.2928V21.984H50.9168C52.8608 21.984 54.5648 22.632 55.6928 23.808C57.4448 25.608 57.6848 28.128 57.6848 30.48ZM54.5408 30.48C54.5408 28.92 54.5168 26.928 53.3168 25.728C52.7408 25.152 51.9008 24.768 50.9168 24.768H47.3888V36.216H50.9168C51.9008 36.216 52.7408 35.832 53.3168 35.256C54.5168 34.056 54.5408 32.04 54.5408 30.48Z" fill="#BD9832"/>
<path d="M16.2017 52.521H13.8917V59H12.4727V52.521H10.1627V51.201H16.2017V52.521ZM21.8287 59H16.9447V57.9L19.9257 54.347C20.1897 54.039 20.3217 53.676 20.3217 53.368C20.3217 52.829 19.9807 52.411 19.3537 52.411C18.7047 52.411 18.3307 52.906 18.3307 53.511H16.9227C16.9337 52.169 17.7917 51.212 19.3647 51.212C20.6737 51.212 21.7187 52.015 21.7187 53.357C21.7187 54.039 21.3117 54.71 20.8827 55.227L18.7707 57.757H21.8287V59ZM26.8701 59H25.4951V52.983L23.8121 54.204V52.708L25.6931 51.355H26.8701V59ZM34.6396 55.172C34.6396 56.426 34.5186 57.702 33.7266 58.461C33.3306 58.846 32.7696 59.143 31.9446 59.143C31.1196 59.143 30.5586 58.846 30.1626 58.461C29.3706 57.702 29.2496 56.426 29.2496 55.172C29.2496 53.918 29.3706 52.642 30.1626 51.883C30.5586 51.498 31.1196 51.212 31.9446 51.212C32.7696 51.212 33.3306 51.498 33.7266 51.883C34.5186 52.642 34.6396 53.918 34.6396 55.172ZM33.2426 55.172C33.2426 54.182 33.3636 52.477 31.9446 52.477C30.5256 52.477 30.6466 54.182 30.6466 55.172C30.6466 56.162 30.5256 57.867 31.9446 57.867C33.3636 57.867 33.2426 56.162 33.2426 55.172ZM40.869 52.455L37.888 59H36.403L39.395 52.587H35.6V51.355H40.869V52.455ZM47.0324 56.811C47.0324 58.34 45.8664 59.143 44.4254 59.143C43.0174 59.143 41.8734 58.219 41.8294 56.789H43.2044C43.2594 57.537 43.7654 57.933 44.4364 57.933C45.1184 57.933 45.6464 57.515 45.6464 56.789C45.6464 55.997 45.0194 55.634 44.3044 55.634H43.7324V54.435H44.3044C45.0524 54.435 45.4814 54.127 45.4814 53.412C45.4814 52.862 45.0414 52.411 44.4364 52.411C43.7544 52.411 43.2704 52.752 43.2594 53.445H41.8734C41.8954 52.004 43.0394 51.212 44.4364 51.212C45.8224 51.212 46.8784 52.059 46.8784 53.379C46.8784 54.072 46.4714 54.776 45.7784 55.018C46.5704 55.238 47.0324 56.019 47.0324 56.811ZM53.5149 56.481C53.5149 57.977 52.6239 59.143 50.8859 59.143C49.4339 59.143 48.5319 58.109 48.3009 56.734C48.2129 56.239 48.1799 55.788 48.1799 55.304C48.1799 54.182 48.2459 52.807 49.0269 51.971C49.4449 51.531 49.9839 51.212 50.8969 51.212C51.6779 51.212 52.2499 51.454 52.6459 51.828C53.0749 52.235 53.2949 52.785 53.2949 53.236H51.9089C51.8869 53.005 51.7879 52.796 51.6449 52.653C51.4689 52.466 51.2049 52.378 50.8309 52.378C50.4679 52.378 50.2589 52.51 50.0719 52.686C49.6539 53.071 49.5439 53.764 49.5439 54.435C49.8849 54.028 50.5339 53.874 50.9959 53.874C52.6459 53.874 53.5149 54.93 53.5149 56.481ZM52.1179 56.426C52.1179 55.634 51.7109 54.996 50.8639 54.996C50.1269 54.996 49.6759 55.623 49.6759 56.426C49.6759 57.262 50.0719 57.911 50.8859 57.911C51.7109 57.911 52.1179 57.317 52.1179 56.426Z" fill="#BD9832"/>
<path d="M54.634 4.5C55.0189 3.83333 55.9811 3.83333 56.366 4.5L59.3971 9.75C59.782 10.4167 59.3009 11.25 58.5311 11.25H52.4689C51.6991 11.25 51.218 10.4167 51.6029 9.75L54.634 4.5Z" fill="#BD9832"/>
</g>
<defs>
<clipPath id="clip0_156_1250">
<rect width="64" height="64" fill="white"/>
</clipPath>
</defs>
</svg>
