<svg width="64" height="64" viewBox="0 0 64 64" fill="none" xmlns="http://www.w3.org/2000/svg">
<g clip-path="url(#clip0_156_1098)">
<rect width="64" height="64" fill="#621495"/>
<rect width="64" height="64" rx="6" fill="#621495"/>
<path d="M25.9784 39H22.9784V26.856L18.5624 38.76H16.2824L11.8904 26.712V39H8.89044V21.984H13.0664L17.5304 34.104L22.0184 21.984H25.9784V39ZM42.9928 34.056C42.9928 35.568 42.4888 36.936 41.2648 37.872C39.9448 38.88 38.3608 39.024 36.7288 39.024H29.9608V21.984H36.7288C38.0968 21.984 39.5128 22.176 40.6648 22.92C41.9128 23.736 42.6328 25.152 42.6328 26.616C42.6328 28.008 41.9848 29.568 40.5448 30.216C42.1528 30.96 42.9928 32.472 42.9928 34.056ZM39.4888 26.808C39.4888 25.176 38.2408 24.648 36.8488 24.648H33.0328V28.92H36.9208C38.3128 28.92 39.4888 28.416 39.4888 26.808ZM39.8488 33.984C39.8488 32.16 38.5768 31.512 36.9448 31.512H33.0328V36.24H36.8488C38.2888 36.24 39.8488 35.712 39.8488 33.984ZM56.8903 39H45.8983V21.984H48.9943V36.072H56.8903V39Z" fill="#EFD8FF"/>
<path d="M9.92635 59H5.04235V57.9L8.02335 54.347C8.28735 54.039 8.41935 53.676 8.41935 53.368C8.41935 52.829 8.07835 52.411 7.45135 52.411C6.80235 52.411 6.42835 52.906 6.42835 53.511H5.02035C5.03135 52.169 5.88935 51.212 7.46235 51.212C8.77135 51.212 9.81635 52.015 9.81635 53.357C9.81635 54.039 9.40935 54.71 8.98035 55.227L6.86835 57.757H9.92635V59ZM16.4638 55.172C16.4638 56.426 16.3428 57.702 15.5508 58.461C15.1548 58.846 14.5938 59.143 13.7688 59.143C12.9438 59.143 12.3828 58.846 11.9868 58.461C11.1948 57.702 11.0738 56.426 11.0738 55.172C11.0738 53.918 11.1948 52.642 11.9868 51.883C12.3828 51.498 12.9438 51.212 13.7688 51.212C14.5938 51.212 15.1548 51.498 15.5508 51.883C16.3428 52.642 16.4638 53.918 16.4638 55.172ZM15.0668 55.172C15.0668 54.182 15.1878 52.477 13.7688 52.477C12.3498 52.477 12.4708 54.182 12.4708 55.172C12.4708 56.162 12.3498 57.867 13.7688 57.867C15.1878 57.867 15.0668 56.162 15.0668 55.172ZM22.7372 55.172C22.7372 56.426 22.6162 57.702 21.8242 58.461C21.4282 58.846 20.8672 59.143 20.0422 59.143C19.2172 59.143 18.6562 58.846 18.2602 58.461C17.4682 57.702 17.3472 56.426 17.3472 55.172C17.3472 53.918 17.4682 52.642 18.2602 51.883C18.6562 51.498 19.2172 51.212 20.0422 51.212C20.8672 51.212 21.4282 51.498 21.8242 51.883C22.6162 52.642 22.7372 53.918 22.7372 55.172ZM21.3402 55.172C21.3402 54.182 21.4612 52.477 20.0422 52.477C18.6232 52.477 18.7442 54.182 18.7442 55.172C18.7442 56.162 18.6232 57.867 20.0422 57.867C21.4612 57.867 21.3402 56.162 21.3402 55.172ZM28.7467 59H23.8627V57.9L26.8437 54.347C27.1077 54.039 27.2397 53.676 27.2397 53.368C27.2397 52.829 26.8987 52.411 26.2717 52.411C25.6227 52.411 25.2487 52.906 25.2487 53.511H23.8407C23.8517 52.169 24.7097 51.212 26.2827 51.212C27.5917 51.212 28.6367 52.015 28.6367 53.357C28.6367 54.039 28.2297 54.71 27.8007 55.227L25.6887 57.757H28.7467V59ZM35.0201 59H30.1361V57.9L33.1171 54.347C33.3811 54.039 33.5131 53.676 33.5131 53.368C33.5131 52.829 33.1721 52.411 32.5451 52.411C31.8961 52.411 31.5221 52.906 31.5221 53.511H30.1141C30.1251 52.169 30.9831 51.212 32.5561 51.212C33.8651 51.212 34.9101 52.015 34.9101 53.357C34.9101 54.039 34.5031 54.71 34.0741 55.227L31.9621 57.757H35.0201V59ZM41.5905 56.404C41.5905 58.021 40.6335 59.154 38.9285 59.154C37.4105 59.154 36.3545 58.208 36.2775 56.767H37.6525C37.6855 57.526 38.2135 57.933 38.9395 57.933C39.8635 57.933 40.1935 57.262 40.1935 56.437C40.1935 55.634 39.8195 55.051 38.9395 55.051C38.4885 55.051 38.0375 55.282 37.7955 55.667H36.4425L36.6075 51.355H41.2495V52.587H37.7955L37.7075 54.336C38.0595 54.006 38.5435 53.841 39.2255 53.841C40.7655 53.841 41.5905 54.952 41.5905 56.404ZM46.434 56.228H42.661V54.996H46.434V56.228ZM52.9228 55.172C52.9228 56.426 52.8018 57.702 52.0098 58.461C51.6138 58.846 51.0528 59.143 50.2278 59.143C49.4028 59.143 48.8418 58.846 48.4458 58.461C47.6538 57.702 47.5328 56.426 47.5328 55.172C47.5328 53.918 47.6538 52.642 48.4458 51.883C48.8418 51.498 49.4028 51.212 50.2278 51.212C51.0528 51.212 51.6138 51.498 52.0098 51.883C52.8018 52.642 52.9228 53.918 52.9228 55.172ZM51.5258 55.172C51.5258 54.182 51.6468 52.477 50.2278 52.477C48.8088 52.477 48.9298 54.182 48.9298 55.172C48.9298 56.162 48.8088 57.867 50.2278 57.867C51.6468 57.867 51.5258 56.162 51.5258 55.172ZM59.1962 55.172C59.1962 56.426 59.0752 57.702 58.2832 58.461C57.8872 58.846 57.3262 59.143 56.5012 59.143C55.6762 59.143 55.1152 58.846 54.7192 58.461C53.9272 57.702 53.8062 56.426 53.8062 55.172C53.8062 53.918 53.9272 52.642 54.7192 51.883C55.1152 51.498 55.6762 51.212 56.5012 51.212C57.3262 51.212 57.8872 51.498 58.2832 51.883C59.0752 52.642 59.1962 53.918 59.1962 55.172ZM57.7992 55.172C57.7992 54.182 57.9202 52.477 56.5012 52.477C55.0822 52.477 55.2032 54.182 55.2032 55.172C55.2032 56.162 55.0822 57.867 56.5012 57.867C57.9202 57.867 57.7992 56.162 57.7992 55.172Z" fill="#EFD8FF"/>
<path d="M11.95 12H10.7V6.94L8.86 11.9H7.91L6.08 6.88V12H4.83V4.91H6.57L8.43 9.96L10.3 4.91H11.95V12ZM19.0393 9.94C19.0393 10.57 18.8293 11.14 18.3193 11.53C17.7693 11.95 17.1093 12.01 16.4293 12.01H13.6093V4.91H16.4293C16.9993 4.91 17.5893 4.99 18.0693 5.3C18.5893 5.64 18.8893 6.23 18.8893 6.84C18.8893 7.42 18.6193 8.07 18.0193 8.34C18.6893 8.65 19.0393 9.28 19.0393 9.94ZM17.5793 6.92C17.5793 6.24 17.0593 6.02 16.4793 6.02H14.8893V7.8H16.5093C17.0893 7.8 17.5793 7.59 17.5793 6.92ZM17.7293 9.91C17.7293 9.15 17.1993 8.88 16.5193 8.88H14.8893V10.85H16.4793C17.0793 10.85 17.7293 10.63 17.7293 9.91ZM25.4199 9.74C25.3599 10.3 25.1499 10.87 24.7399 11.29C24.2099 11.83 23.4699 12.13 22.7099 12.13C21.9499 12.13 21.2399 11.88 20.6999 11.34C19.9299 10.57 19.8199 9.62 19.8199 8.46C19.8199 7.3 19.9299 6.35 20.6999 5.58C21.2399 5.04 21.9499 4.78 22.7099 4.78C23.4699 4.78 24.2099 5.06 24.7399 5.6C25.1499 6.02 25.3599 6.58 25.4199 7.14H24.0999C24.0699 6.83 23.9599 6.61 23.7799 6.39C23.5499 6.1 23.1499 5.95 22.7099 5.95C22.2999 5.95 21.8999 6.12 21.6199 6.42C21.1299 6.93 21.1299 7.81 21.1299 8.46C21.1299 9.11 21.1299 9.99 21.6199 10.5C21.8999 10.8 22.2999 10.97 22.7099 10.97C23.1499 10.97 23.5499 10.81 23.7799 10.52C23.9599 10.3 24.0699 10.05 24.0999 9.74H25.4199Z" fill="#EFD8FF"/>
<path d="M54.634 4.5C55.0189 3.83333 55.9811 3.83333 56.366 4.5L59.3971 9.75C59.782 10.4167 59.3009 11.25 58.5311 11.25H52.4689C51.6991 11.25 51.218 10.4167 51.6029 9.75L54.634 4.5Z" fill="#EFD8FF"/>
</g>
<defs>
<clipPath id="clip0_156_1098">
<rect width="64" height="64" fill="white"/>
</clipPath>
</defs>
</svg>
