<svg width="64" height="64" viewBox="0 0 64 64" fill="none" xmlns="http://www.w3.org/2000/svg">
<g clip-path="url(#clip0_156_757)">
<rect width="64" height="64" fill="#149618"/>
<rect width="64" height="64" rx="6" fill="#149618"/>
<path d="M28.6034 39H25.6034V26.856L21.1874 38.76H18.9074L14.5154 26.712V39H11.5154V21.984H15.6914L20.1554 34.104L24.6434 21.984H28.6034V39ZM39.7378 29.304C39.4018 29.232 39.0418 29.184 38.7058 29.184C36.5938 29.184 35.4898 30.696 35.4898 32.712V39H32.4658V26.52H35.0098L35.2738 28.392C35.8498 26.952 37.3378 26.352 38.8018 26.352C39.1138 26.352 39.4258 26.376 39.7378 26.424V29.304ZM53.4785 32.784C53.4785 35.136 52.7345 37.008 51.2465 38.232C50.4785 38.856 49.4705 39.288 48.2225 39.288C46.8545 39.288 45.4625 38.784 44.7185 37.632L44.5265 39H41.9345V21.672H44.9345V27.432C45.5105 26.736 46.7105 26.208 48.1985 26.208C49.4705 26.208 50.4785 26.592 51.2465 27.216C52.7345 28.44 53.4785 30.336 53.4785 32.784ZM50.4305 32.736C50.4305 31.656 50.2625 30.528 49.6385 29.712C49.2065 29.16 48.5585 28.728 47.6225 28.728C45.2705 28.728 44.7905 30.936 44.7905 32.736C44.7905 33.96 45.0065 35.352 45.8705 36.144C46.2785 36.528 46.8545 36.768 47.6225 36.768C48.5585 36.768 49.2065 36.336 49.6385 35.784C50.2625 34.968 50.4305 33.816 50.4305 32.736Z" fill="#CCFFCE"/>
<path d="M9.92635 59H5.04235V57.9L8.02335 54.347C8.28735 54.039 8.41935 53.676 8.41935 53.368C8.41935 52.829 8.07835 52.411 7.45135 52.411C6.80235 52.411 6.42835 52.906 6.42835 53.511H5.02035C5.03135 52.169 5.88935 51.212 7.46235 51.212C8.77135 51.212 9.81635 52.015 9.81635 53.357C9.81635 54.039 9.40935 54.71 8.98035 55.227L6.86835 57.757H9.92635V59ZM16.6838 57.46H15.7158V59H14.3408V57.46H10.9308V56.162L13.7358 51.355H15.2318L12.3828 56.217H14.3408V54.424H15.7158V56.217H16.6838V57.46ZM22.7372 55.172C22.7372 56.426 22.6162 57.702 21.8242 58.461C21.4282 58.846 20.8672 59.143 20.0422 59.143C19.2172 59.143 18.6562 58.846 18.2602 58.461C17.4682 57.702 17.3472 56.426 17.3472 55.172C17.3472 53.918 17.4682 52.642 18.2602 51.883C18.6562 51.498 19.2172 51.212 20.0422 51.212C20.8672 51.212 21.4282 51.498 21.8242 51.883C22.6162 52.642 22.7372 53.918 22.7372 55.172ZM21.3402 55.172C21.3402 54.182 21.4612 52.477 20.0422 52.477C18.6232 52.477 18.7442 54.182 18.7442 55.172C18.7442 56.162 18.6232 57.867 20.0422 57.867C21.4612 57.867 21.3402 56.162 21.3402 55.172ZM29.0107 55.172C29.0107 56.426 28.8897 57.702 28.0977 58.461C27.7017 58.846 27.1407 59.143 26.3157 59.143C25.4907 59.143 24.9297 58.846 24.5337 58.461C23.7417 57.702 23.6207 56.426 23.6207 55.172C23.6207 53.918 23.7417 52.642 24.5337 51.883C24.9297 51.498 25.4907 51.212 26.3157 51.212C27.1407 51.212 27.7017 51.498 28.0977 51.883C28.8897 52.642 29.0107 53.918 29.0107 55.172ZM27.6137 55.172C27.6137 54.182 27.7347 52.477 26.3157 52.477C24.8967 52.477 25.0177 54.182 25.0177 55.172C25.0177 56.162 24.8967 57.867 26.3157 57.867C27.7347 57.867 27.6137 56.162 27.6137 55.172ZM35.3391 56.481C35.3391 57.977 34.4481 59.143 32.7101 59.143C31.2581 59.143 30.3561 58.109 30.1251 56.734C30.0371 56.239 30.0041 55.788 30.0041 55.304C30.0041 54.182 30.0701 52.807 30.8511 51.971C31.2691 51.531 31.8081 51.212 32.7211 51.212C33.5021 51.212 34.0741 51.454 34.4701 51.828C34.8991 52.235 35.1191 52.785 35.1191 53.236H33.7331C33.7111 53.005 33.6121 52.796 33.4691 52.653C33.2931 52.466 33.0291 52.378 32.6551 52.378C32.2921 52.378 32.0831 52.51 31.8961 52.686C31.4781 53.071 31.3681 53.764 31.3681 54.435C31.7091 54.028 32.3581 53.874 32.8201 53.874C34.4701 53.874 35.3391 54.93 35.3391 56.481ZM33.9421 56.426C33.9421 55.634 33.5351 54.996 32.6881 54.996C31.9511 54.996 31.5001 55.623 31.5001 56.426C31.5001 57.262 31.8961 57.911 32.7101 57.911C33.5351 57.911 33.9421 57.317 33.9421 56.426ZM41.4695 55.04C41.4695 56.162 41.4035 57.537 40.6225 58.373C40.2045 58.813 39.6655 59.143 38.7525 59.143C37.9715 59.143 37.3995 58.89 37.0035 58.516C36.5745 58.109 36.3545 57.559 36.3545 57.108H37.7405C37.7625 57.339 37.8615 57.548 38.0045 57.691C38.1805 57.878 38.4445 57.966 38.8185 57.966C39.1815 57.966 39.3905 57.834 39.5775 57.658C39.9955 57.273 40.1055 56.58 40.1055 55.909C39.7645 56.316 39.1155 56.47 38.6535 56.47C37.0035 56.47 36.1345 55.414 36.1345 53.863C36.1345 52.367 37.0255 51.212 38.7635 51.212C40.2155 51.212 41.1175 52.235 41.3485 53.61C41.4365 54.105 41.4695 54.556 41.4695 55.04ZM39.9735 53.918C39.9735 53.082 39.5775 52.433 38.7635 52.433C37.9385 52.433 37.5315 53.027 37.5315 53.918C37.5315 54.71 37.9385 55.348 38.7855 55.348C39.5225 55.348 39.9735 54.721 39.9735 53.918ZM46.434 56.228H42.661V54.996H46.434V56.228ZM52.9228 55.172C52.9228 56.426 52.8018 57.702 52.0098 58.461C51.6138 58.846 51.0528 59.143 50.2278 59.143C49.4028 59.143 48.8418 58.846 48.4458 58.461C47.6538 57.702 47.5328 56.426 47.5328 55.172C47.5328 53.918 47.6538 52.642 48.4458 51.883C48.8418 51.498 49.4028 51.212 50.2278 51.212C51.0528 51.212 51.6138 51.498 52.0098 51.883C52.8018 52.642 52.9228 53.918 52.9228 55.172ZM51.5258 55.172C51.5258 54.182 51.6468 52.477 50.2278 52.477C48.8088 52.477 48.9298 54.182 48.9298 55.172C48.9298 56.162 48.8088 57.867 50.2278 57.867C51.6468 57.867 51.5258 56.162 51.5258 55.172ZM59.1962 55.172C59.1962 56.426 59.0752 57.702 58.2832 58.461C57.8872 58.846 57.3262 59.143 56.5012 59.143C55.6762 59.143 55.1152 58.846 54.7192 58.461C53.9272 57.702 53.8062 56.426 53.8062 55.172C53.8062 53.918 53.9272 52.642 54.7192 51.883C55.1152 51.498 55.6762 51.212 56.5012 51.212C57.3262 51.212 57.8872 51.498 58.2832 51.883C59.0752 52.642 59.1962 53.918 59.1962 55.172ZM57.7992 55.172C57.7992 54.182 57.9202 52.477 56.5012 52.477C55.0822 52.477 55.2032 54.182 55.2032 55.172C55.2032 56.162 55.0822 57.867 56.5012 57.867C57.9202 57.867 57.7992 56.162 57.7992 55.172Z" fill="#CCFFCE"/>
<path d="M11.95 12H10.7V6.94L8.86 11.9H7.91L6.08 6.88V12H4.83V4.91H6.57L8.43 9.96L10.3 4.91H11.95V12ZM18.4693 9.28C18.4693 10.97 17.5193 12.13 15.6893 12.13C13.8593 12.13 12.9093 10.97 12.9093 9.28V4.91H14.1993V9.26C14.1993 10.27 14.6593 10.96 15.6893 10.96C16.7193 10.96 17.1793 10.27 17.1793 9.26V4.91H18.4693V9.28ZM24.8757 12H23.4757L22.2957 9.32H20.7257V12H19.4257V4.91H22.4157C24.1057 4.91 24.8757 5.97 24.8757 7.11C24.8757 8.06 24.3557 8.81 23.5757 9.1L24.8757 12ZM23.5857 7.11C23.5857 6.54 23.1457 6.04 22.4157 6.04H20.7157V8.16H22.4357C23.1657 8.16 23.5857 7.78 23.5857 7.11ZM31.0775 12H29.7275L29.2675 10.64H26.4475L25.9875 12H24.6875L27.1775 4.91H28.5875L31.0775 12ZM28.8675 9.48L27.8575 6.49L26.8475 9.48H28.8675ZM36.8342 9.94C36.8342 10.57 36.6242 11.14 36.1142 11.53C35.5642 11.95 34.9042 12.01 34.2242 12.01H31.4042V4.91H34.2242C34.7942 4.91 35.3842 4.99 35.8642 5.3C36.3842 5.64 36.6842 6.23 36.6842 6.84C36.6842 7.42 36.4142 8.07 35.8142 8.34C36.4842 8.65 36.8342 9.28 36.8342 9.94ZM35.3742 6.92C35.3742 6.24 34.8542 6.02 34.2742 6.02H32.6842V7.8H34.3042C34.8842 7.8 35.3742 7.59 35.3742 6.92ZM35.5242 9.91C35.5242 9.15 34.9942 8.88 34.3142 8.88H32.6842V10.85H34.2742C34.8742 10.85 35.5242 10.63 35.5242 9.91ZM42.9748 9.94C42.9748 10.57 42.7648 11.14 42.2548 11.53C41.7048 11.95 41.0448 12.01 40.3648 12.01H37.5448V4.91H40.3648C40.9348 4.91 41.5248 4.99 42.0048 5.3C42.5248 5.64 42.8248 6.23 42.8248 6.84C42.8248 7.42 42.5548 8.07 41.9548 8.34C42.6248 8.65 42.9748 9.28 42.9748 9.94ZM41.5148 6.92C41.5148 6.24 40.9948 6.02 40.4148 6.02H38.8248V7.8H40.4448C41.0248 7.8 41.5148 7.59 41.5148 6.92ZM41.6648 9.91C41.6648 9.15 41.1348 8.88 40.4548 8.88H38.8248V10.85H40.4148C41.0148 10.85 41.6648 10.63 41.6648 9.91ZM49.1966 12H47.8466L47.3866 10.64H44.5666L44.1066 12H42.8066L45.2966 4.91H46.7066L49.1966 12ZM46.9866 9.48L45.9766 6.49L44.9666 9.48H46.9866Z" fill="#CCFFCE"/>
<path d="M54.634 4.5C55.0189 3.83333 55.9811 3.83333 56.366 4.5L59.3971 9.75C59.782 10.4167 59.3009 11.25 58.5311 11.25H52.4689C51.6991 11.25 51.218 10.4167 51.6029 9.75L54.634 4.5Z" fill="#CCFFCE"/>
</g>
<defs>
<clipPath id="clip0_156_757">
<rect width="64" height="64" fill="white"/>
</clipPath>
</defs>
</svg>
