<svg width="64" height="64" viewBox="0 0 64 64" fill="none" xmlns="http://www.w3.org/2000/svg">
<g clip-path="url(#clip0_232_1981)">
<rect width="64" height="64" fill="#621495"/>
<rect width="64" height="64" rx="6" fill="#621495"/>
<path d="M29.8456 39H26.8456V26.856L22.4296 38.76H20.1496L15.7576 26.712V39H12.7576V21.984H16.9336L21.3976 34.104L25.8856 21.984H29.8456V39ZM44.1239 39H41.6279L41.4119 37.368C40.8119 38.592 39.4199 39.312 37.8359 39.312C35.1719 39.312 33.5159 37.512 33.5159 34.848V26.52H36.5159V34.176C36.5159 35.64 37.0919 36.552 38.6759 36.552C39.3719 36.552 39.8519 36.288 40.2119 35.928C40.9319 35.256 41.1239 34.128 41.1239 33.12V26.52H44.1239V39ZM52.5202 38.976C51.9202 39.096 51.8002 39.144 51.2002 39.144C49.1602 39.144 47.7922 38.16 47.7922 35.784V21.648H50.8162V35.28C50.8162 36 50.9842 36.48 52.0162 36.48C52.2802 36.48 52.3522 36.456 52.5202 36.456V38.976Z" fill="#EFD8FF"/>
<path d="M8.69435 59H7.31935V52.983L5.63635 54.204V52.708L7.51735 51.355H8.69435V59ZM16.4088 56.855C16.4088 58.34 15.1438 59.154 13.7688 59.154C12.3938 59.154 11.1288 58.34 11.1288 56.855C11.1288 56.096 11.5138 55.37 12.2398 55.029C11.6788 54.721 11.2828 54.028 11.2828 53.379C11.2828 51.938 12.4378 51.212 13.7688 51.212C15.0998 51.212 16.2548 51.938 16.2548 53.379C16.2548 54.028 15.8588 54.721 15.2978 55.029C16.0238 55.37 16.4088 56.096 16.4088 56.855ZM14.8688 53.401C14.8688 52.84 14.4948 52.411 13.7688 52.411C13.0318 52.411 12.6688 52.84 12.6688 53.401C12.6688 53.962 13.0428 54.424 13.7688 54.424C14.4948 54.424 14.8688 53.962 14.8688 53.401ZM15.0228 56.767C15.0228 56.14 14.5828 55.634 13.7688 55.634C12.9548 55.634 12.5148 56.14 12.5148 56.767C12.5148 57.471 13.0208 57.933 13.7688 57.933C14.5168 57.933 15.0228 57.471 15.0228 56.767ZM22.7372 55.172C22.7372 56.426 22.6162 57.702 21.8242 58.461C21.4282 58.846 20.8672 59.143 20.0422 59.143C19.2172 59.143 18.6562 58.846 18.2602 58.461C17.4682 57.702 17.3472 56.426 17.3472 55.172C17.3472 53.918 17.4682 52.642 18.2602 51.883C18.6562 51.498 19.2172 51.212 20.0422 51.212C20.8672 51.212 21.4282 51.498 21.8242 51.883C22.6162 52.642 22.7372 53.918 22.7372 55.172ZM21.3402 55.172C21.3402 54.182 21.4612 52.477 20.0422 52.477C18.6232 52.477 18.7442 54.182 18.7442 55.172C18.7442 56.162 18.6232 57.867 20.0422 57.867C21.4612 57.867 21.3402 56.162 21.3402 55.172ZM28.7467 59H23.8627V57.9L26.8437 54.347C27.1077 54.039 27.2397 53.676 27.2397 53.368C27.2397 52.829 26.8987 52.411 26.2717 52.411C25.6227 52.411 25.2487 52.906 25.2487 53.511H23.8407C23.8517 52.169 24.7097 51.212 26.2827 51.212C27.5917 51.212 28.6367 52.015 28.6367 53.357C28.6367 54.039 28.2297 54.71 27.8007 55.227L25.6887 57.757H28.7467V59ZM35.5041 57.46H34.5361V59H33.1611V57.46H29.7511V56.162L32.5561 51.355H34.0521L31.2031 56.217H33.1611V54.424H34.5361V56.217H35.5041V57.46ZM41.5025 56.855C41.5025 58.34 40.2375 59.154 38.8625 59.154C37.4875 59.154 36.2225 58.34 36.2225 56.855C36.2225 56.096 36.6075 55.37 37.3335 55.029C36.7725 54.721 36.3765 54.028 36.3765 53.379C36.3765 51.938 37.5315 51.212 38.8625 51.212C40.1935 51.212 41.3485 51.938 41.3485 53.379C41.3485 54.028 40.9525 54.721 40.3915 55.029C41.1175 55.37 41.5025 56.096 41.5025 56.855ZM39.9625 53.401C39.9625 52.84 39.5885 52.411 38.8625 52.411C38.1255 52.411 37.7625 52.84 37.7625 53.401C37.7625 53.962 38.1365 54.424 38.8625 54.424C39.5885 54.424 39.9625 53.962 39.9625 53.401ZM40.1165 56.767C40.1165 56.14 39.6765 55.634 38.8625 55.634C38.0485 55.634 37.6085 56.14 37.6085 56.767C37.6085 57.471 38.1145 57.933 38.8625 57.933C39.6105 57.933 40.1165 57.471 40.1165 56.767ZM46.434 56.228H42.661V54.996H46.434V56.228ZM52.9228 55.172C52.9228 56.426 52.8018 57.702 52.0098 58.461C51.6138 58.846 51.0528 59.143 50.2278 59.143C49.4028 59.143 48.8418 58.846 48.4458 58.461C47.6538 57.702 47.5328 56.426 47.5328 55.172C47.5328 53.918 47.6538 52.642 48.4458 51.883C48.8418 51.498 49.4028 51.212 50.2278 51.212C51.0528 51.212 51.6138 51.498 52.0098 51.883C52.8018 52.642 52.9228 53.918 52.9228 55.172ZM51.5258 55.172C51.5258 54.182 51.6468 52.477 50.2278 52.477C48.8088 52.477 48.9298 54.182 48.9298 55.172C48.9298 56.162 48.8088 57.867 50.2278 57.867C51.6468 57.867 51.5258 56.162 51.5258 55.172ZM59.1962 55.172C59.1962 56.426 59.0752 57.702 58.2832 58.461C57.8872 58.846 57.3262 59.143 56.5012 59.143C55.6762 59.143 55.1152 58.846 54.7192 58.461C53.9272 57.702 53.8062 56.426 53.8062 55.172C53.8062 53.918 53.9272 52.642 54.7192 51.883C55.1152 51.498 55.6762 51.212 56.5012 51.212C57.3262 51.212 57.8872 51.498 58.2832 51.883C59.0752 52.642 59.1962 53.918 59.1962 55.172ZM57.7992 55.172C57.7992 54.182 57.9202 52.477 56.5012 52.477C55.0822 52.477 55.2032 54.182 55.2032 55.172C55.2032 56.162 55.0822 57.867 56.5012 57.867C57.9202 57.867 57.7992 56.162 57.7992 55.172Z" fill="#EFD8FF"/>
<rect x="58.5007" y="3" width="2.1215" height="10.6075" transform="rotate(45 58.5007 3)" fill="#EFD8FF"/>
<rect x="60.0007" y="10.501" width="2.1215" height="10.6075" transform="rotate(135 60.0007 10.501)" fill="#EFD8FF"/>
<path d="M9.73 6.08H6.12V7.98H9.34V9.15H6.12V12H4.83V4.91H9.73V6.08ZM15.0913 11.94C14.8813 12.03 14.7713 12.08 14.4713 12.08C13.9313 12.08 13.6313 11.74 13.5913 11.35C13.3513 11.77 12.7513 12.13 12.0113 12.13C10.7713 12.13 10.1313 11.35 10.1313 10.5C10.1313 9.51 10.9013 8.94 11.8913 8.87L13.4213 8.76V8.44C13.4213 7.95 13.2513 7.62 12.5413 7.62C11.9613 7.62 11.6213 7.88 11.5913 8.36H10.3813C10.4513 7.19 11.3813 6.67 12.5413 6.67C13.4313 6.67 14.1913 6.95 14.4913 7.73C14.6213 8.06 14.6413 8.43 14.6413 8.78V10.71C14.6413 10.95 14.7213 11.04 14.9313 11.04C15.0113 11.04 15.0913 11.02 15.0913 11.02V11.94ZM13.4213 9.93V9.69L12.1013 9.79C11.7213 9.82 11.3513 10.05 11.3513 10.47C11.3513 10.87 11.7013 11.12 12.0913 11.12C12.8713 11.12 13.4213 10.7 13.4213 9.93ZM17.4965 6.08H16.1565V4.79H17.4965V6.08ZM17.4665 12H16.1965V6.8H17.4665V12ZM23.0778 10.39C23.0778 10.89 22.8978 11.26 22.6278 11.53C22.2078 11.95 21.5578 12.13 20.8478 12.13C20.1878 12.13 19.5978 11.94 19.1678 11.53C18.8678 11.24 18.6178 10.81 18.6178 10.32H19.7878C19.7878 10.55 19.9078 10.8 20.0678 10.93C20.2678 11.09 20.4978 11.16 20.8578 11.16C21.2778 11.16 21.9178 11.07 21.9178 10.5C21.9178 10.2 21.7178 10 21.3978 9.95C20.9378 9.88 20.4178 9.85 19.9578 9.75C19.2478 9.6 18.7678 9.02 18.7678 8.36C18.7678 7.83 18.9878 7.46 19.2978 7.19C19.6778 6.86 20.2278 6.67 20.8778 6.67C21.4978 6.67 22.1278 6.87 22.5078 7.28C22.7878 7.58 22.9678 7.97 22.9678 8.35H21.7778C21.7778 8.15 21.6878 7.99 21.5678 7.86C21.4178 7.71 21.1478 7.62 20.8878 7.62C20.7078 7.62 20.5378 7.62 20.3478 7.7C20.1278 7.79 19.9478 7.98 19.9478 8.25C19.9478 8.62 20.2678 8.73 20.5478 8.77C21.0178 8.83 21.1478 8.84 21.6578 8.92C22.4778 9.05 23.0778 9.57 23.0778 10.39ZM28.7827 11.94C28.5727 12.03 28.4627 12.08 28.1627 12.08C27.6227 12.08 27.3227 11.74 27.2827 11.35C27.0427 11.77 26.4427 12.13 25.7027 12.13C24.4627 12.13 23.8227 11.35 23.8227 10.5C23.8227 9.51 24.5927 8.94 25.5827 8.87L27.1127 8.76V8.44C27.1127 7.95 26.9427 7.62 26.2327 7.62C25.6527 7.62 25.3127 7.88 25.2827 8.36H24.0727C24.1427 7.19 25.0727 6.67 26.2327 6.67C27.1227 6.67 27.8827 6.95 28.1827 7.73C28.3127 8.06 28.3327 8.43 28.3327 8.78V10.71C28.3327 10.95 28.4127 11.04 28.6227 11.04C28.7027 11.04 28.7827 11.02 28.7827 11.02V11.94ZM27.1127 9.93V9.69L25.7927 9.79C25.4127 9.82 25.0427 10.05 25.0427 10.47C25.0427 10.87 25.3927 11.12 25.7827 11.12C26.5627 11.12 27.1127 10.7 27.1127 9.93ZM31.8079 11.99C31.5579 12.04 31.5079 12.06 31.2579 12.06C30.4079 12.06 29.8379 11.65 29.8379 10.66V4.77H31.0979V10.45C31.0979 10.75 31.1679 10.95 31.5979 10.95C31.7079 10.95 31.7379 10.94 31.8079 10.94V11.99Z" fill="#EFD8FF"/>
</g>
<defs>
<clipPath id="clip0_232_1981">
<rect width="64" height="64" fill="white"/>
</clipPath>
</defs>
</svg>
