<svg width="64" height="64" viewBox="0 0 64 64" fill="none" xmlns="http://www.w3.org/2000/svg">
<g clip-path="url(#clip0_317_20422)">
<rect width="64" height="64" fill="#F49A27"/>
<path d="M10.39 12H9.04L8.58 10.64H5.76L5.3 12H4L6.49 4.91H7.9L10.39 12ZM8.18 9.48L7.17 6.49L6.16 9.48H8.18ZM13.0579 11.99C12.8079 12.04 12.7579 12.06 12.5079 12.06C11.6579 12.06 11.0879 11.65 11.0879 10.66V4.77H12.3479V10.45C12.3479 10.75 12.4179 10.95 12.8479 10.95C12.9579 10.95 12.9879 10.94 13.0579 10.94V11.99ZM18.5366 12H17.4566L17.3766 11.43C17.0666 11.91 16.4866 12.12 15.9166 12.12C15.3966 12.12 14.9666 11.94 14.6466 11.68C14.0266 11.17 13.7266 10.39 13.7266 9.41C13.7266 8.39 14.0366 7.6 14.6566 7.09C14.9766 6.83 15.3966 6.67 15.9266 6.67C16.5866 6.67 17.0666 6.89 17.2866 7.16V4.78H18.5366V12ZM17.3466 9.39C17.3466 8.64 17.1466 7.72 16.1666 7.72C15.7766 7.72 15.5066 7.9 15.3266 8.13C15.0666 8.47 14.9966 8.94 14.9966 9.39C14.9966 9.84 15.0666 10.32 15.3266 10.66C15.5066 10.89 15.7766 11.07 16.1666 11.07C17.1466 11.07 17.3466 10.14 17.3466 9.39ZM24.6225 11.94C24.4125 12.03 24.3025 12.08 24.0025 12.08C23.4625 12.08 23.1625 11.74 23.1225 11.35C22.8825 11.77 22.2825 12.13 21.5425 12.13C20.3025 12.13 19.6625 11.35 19.6625 10.5C19.6625 9.51 20.4325 8.94 21.4225 8.87L22.9525 8.76V8.44C22.9525 7.95 22.7825 7.62 22.0725 7.62C21.4925 7.62 21.1525 7.88 21.1225 8.36H19.9125C19.9825 7.19 20.9125 6.67 22.0725 6.67C22.9625 6.67 23.7225 6.95 24.0225 7.73C24.1525 8.06 24.1725 8.43 24.1725 8.78V10.71C24.1725 10.95 24.2525 11.04 24.4625 11.04C24.5425 11.04 24.6225 11.02 24.6225 11.02V11.94ZM22.9525 9.93V9.69L21.6325 9.79C21.2525 9.82 20.8825 10.05 20.8825 10.47C20.8825 10.87 21.2325 11.12 21.6225 11.12C22.4025 11.12 22.9525 10.7 22.9525 9.93ZM28.7377 7.96C28.5977 7.93 28.4477 7.91 28.3077 7.91C27.4277 7.91 26.9677 8.54 26.9677 9.38V12H25.7077V6.8H26.7677L26.8777 7.58C27.1177 6.98 27.7377 6.73 28.3477 6.73C28.4777 6.73 28.6077 6.74 28.7377 6.76V7.96Z" fill="#B15300"/>
<rect x="58.5007" y="4" width="2.1215" height="10.6075" transform="rotate(45 58.5007 4)" fill="#B15300"/>
<rect x="60.0007" y="11.501" width="2.1215" height="10.6075" transform="rotate(135 60.0007 11.501)" fill="#B15300"/>
<path d="M27.0917 39H24.0917V26.856L19.6757 38.76H17.3957L13.0037 26.712V39H10.0037V21.984H14.1797L18.6437 34.104L23.1317 21.984H27.0917V39ZM41.802 26.52L36.306 41.136C35.682 42.768 34.65 44.256 32.466 44.256C31.482 44.256 30.81 44.112 30.162 43.944V41.448C30.954 41.592 31.17 41.664 31.842 41.664C32.394 41.664 32.97 41.472 33.282 40.728L34.002 38.976L29.082 26.52H32.37L35.634 35.544L38.754 26.52H41.802ZM54.3126 39H51.3126V31.344C51.3126 29.88 50.8326 28.992 49.2486 28.992C48.1926 28.992 47.4966 29.664 47.0886 30.576C46.6566 31.56 46.6806 32.856 46.6806 33.912V39H43.6806V26.52H46.2006L46.4166 28.128C47.1606 26.808 48.6486 26.208 50.0886 26.208C52.7526 26.208 54.3126 28.08 54.3126 30.672V39Z" fill="#B15300"/>
<path d="M8.69435 59H7.31935V52.983L5.63635 54.204V52.708L7.51735 51.355H8.69435V59ZM16.4968 56.404C16.4968 58.021 15.5398 59.154 13.8348 59.154C12.3168 59.154 11.2608 58.208 11.1838 56.767H12.5588C12.5918 57.526 13.1198 57.933 13.8458 57.933C14.7698 57.933 15.0998 57.262 15.0998 56.437C15.0998 55.634 14.7258 55.051 13.8458 55.051C13.3948 55.051 12.9438 55.282 12.7018 55.667H11.3488L11.5138 51.355H16.1558V52.587H12.7018L12.6138 54.336C12.9658 54.006 13.4498 53.841 14.1318 53.841C15.6718 53.841 16.4968 54.952 16.4968 56.404ZM22.7372 55.172C22.7372 56.426 22.6162 57.702 21.8242 58.461C21.4282 58.846 20.8672 59.143 20.0422 59.143C19.2172 59.143 18.6562 58.846 18.2602 58.461C17.4682 57.702 17.3472 56.426 17.3472 55.172C17.3472 53.918 17.4682 52.642 18.2602 51.883C18.6562 51.498 19.2172 51.212 20.0422 51.212C20.8672 51.212 21.4282 51.498 21.8242 51.883C22.6162 52.642 22.7372 53.918 22.7372 55.172ZM21.3402 55.172C21.3402 54.182 21.4612 52.477 20.0422 52.477C18.6232 52.477 18.7442 54.182 18.7442 55.172C18.7442 56.162 18.6232 57.867 20.0422 57.867C21.4612 57.867 21.3402 56.162 21.3402 55.172ZM29.0107 55.172C29.0107 56.426 28.8897 57.702 28.0977 58.461C27.7017 58.846 27.1407 59.143 26.3157 59.143C25.4907 59.143 24.9297 58.846 24.5337 58.461C23.7417 57.702 23.6207 56.426 23.6207 55.172C23.6207 53.918 23.7417 52.642 24.5337 51.883C24.9297 51.498 25.4907 51.212 26.3157 51.212C27.1407 51.212 27.7017 51.498 28.0977 51.883C28.8897 52.642 29.0107 53.918 29.0107 55.172ZM27.6137 55.172C27.6137 54.182 27.7347 52.477 26.3157 52.477C24.8967 52.477 25.0177 54.182 25.0177 55.172C25.0177 56.162 24.8967 57.867 26.3157 57.867C27.7347 57.867 27.6137 56.162 27.6137 55.172ZM35.5041 57.46H34.5361V59H33.1611V57.46H29.7511V56.162L32.5561 51.355H34.0521L31.2031 56.217H33.1611V54.424H34.5361V56.217H35.5041V57.46ZM41.2935 59H36.4095V57.9L39.3905 54.347C39.6545 54.039 39.7865 53.676 39.7865 53.368C39.7865 52.829 39.4455 52.411 38.8185 52.411C38.1695 52.411 37.7955 52.906 37.7955 53.511H36.3875C36.3985 52.169 37.2565 51.212 38.8295 51.212C40.1385 51.212 41.1835 52.015 41.1835 53.357C41.1835 54.039 40.7765 54.71 40.3475 55.227L38.2355 57.757H41.2935V59ZM46.434 56.228H42.661V54.996H46.434V56.228ZM52.9228 55.172C52.9228 56.426 52.8018 57.702 52.0098 58.461C51.6138 58.846 51.0528 59.143 50.2278 59.143C49.4028 59.143 48.8418 58.846 48.4458 58.461C47.6538 57.702 47.5328 56.426 47.5328 55.172C47.5328 53.918 47.6538 52.642 48.4458 51.883C48.8418 51.498 49.4028 51.212 50.2278 51.212C51.0528 51.212 51.6138 51.498 52.0098 51.883C52.8018 52.642 52.9228 53.918 52.9228 55.172ZM51.5258 55.172C51.5258 54.182 51.6468 52.477 50.2278 52.477C48.8088 52.477 48.9298 54.182 48.9298 55.172C48.9298 56.162 48.8088 57.867 50.2278 57.867C51.6468 57.867 51.5258 56.162 51.5258 55.172ZM59.1962 55.172C59.1962 56.426 59.0752 57.702 58.2832 58.461C57.8872 58.846 57.3262 59.143 56.5012 59.143C55.6762 59.143 55.1152 58.846 54.7192 58.461C53.9272 57.702 53.8062 56.426 53.8062 55.172C53.8062 53.918 53.9272 52.642 54.7192 51.883C55.1152 51.498 55.6762 51.212 56.5012 51.212C57.3262 51.212 57.8872 51.498 58.2832 51.883C59.0752 52.642 59.1962 53.918 59.1962 55.172ZM57.7992 55.172C57.7992 54.182 57.9202 52.477 56.5012 52.477C55.0822 52.477 55.2032 54.182 55.2032 55.172C55.2032 56.162 55.0822 57.867 56.5012 57.867C57.9202 57.867 57.7992 56.162 57.7992 55.172Z" fill="#B15300"/>
</g>
<defs>
<clipPath id="clip0_317_20422">
<rect width="64" height="64" fill="white"/>
</clipPath>
</defs>
</svg>
