<svg width="64" height="64" viewBox="0 0 64 64" fill="none" xmlns="http://www.w3.org/2000/svg">
<g clip-path="url(#clip0_156_1320)">
<rect width="64" height="64" fill="#F49A27"/>
<rect width="64" height="64" rx="6" fill="#F49A27"/>
<path d="M20.2953 39H17.1033L9.73531 27.312V39H6.68731V21.984H9.97531L17.2473 33.504V21.984H20.2953V39ZM37.3209 34.056C37.3209 35.568 36.8169 36.936 35.5929 37.872C34.2729 38.88 32.6889 39.024 31.0569 39.024H24.2889V21.984H31.0569C32.4249 21.984 33.8409 22.176 34.9929 22.92C36.2409 23.736 36.9609 25.152 36.9609 26.616C36.9609 28.008 36.3129 29.568 34.8729 30.216C36.4809 30.96 37.3209 32.472 37.3209 34.056ZM33.8169 26.808C33.8169 25.176 32.5689 24.648 31.1769 24.648H27.3609V28.92H31.2489C32.6409 28.92 33.8169 28.416 33.8169 26.808ZM34.1769 33.984C34.1769 32.16 32.9049 31.512 31.2729 31.512H27.3609V36.24H31.1769C32.6169 36.24 34.1769 35.712 34.1769 33.984ZM57.3144 39H54.3144V26.856L49.8984 38.76H47.6184L43.2264 26.712V39H40.2264V21.984H44.4024L48.8664 34.104L53.3544 21.984H57.3144V39Z" fill="#B15300"/>
<path d="M9.92635 59H5.04235V57.9L8.02335 54.347C8.28735 54.039 8.41935 53.676 8.41935 53.368C8.41935 52.829 8.07835 52.411 7.45135 52.411C6.80235 52.411 6.42835 52.906 6.42835 53.511H5.02035C5.03135 52.169 5.88935 51.212 7.46235 51.212C8.77135 51.212 9.81635 52.015 9.81635 53.357C9.81635 54.039 9.40935 54.71 8.98035 55.227L6.86835 57.757H9.92635V59ZM16.4638 55.172C16.4638 56.426 16.3428 57.702 15.5508 58.461C15.1548 58.846 14.5938 59.143 13.7688 59.143C12.9438 59.143 12.3828 58.846 11.9868 58.461C11.1948 57.702 11.0738 56.426 11.0738 55.172C11.0738 53.918 11.1948 52.642 11.9868 51.883C12.3828 51.498 12.9438 51.212 13.7688 51.212C14.5938 51.212 15.1548 51.498 15.5508 51.883C16.3428 52.642 16.4638 53.918 16.4638 55.172ZM15.0668 55.172C15.0668 54.182 15.1878 52.477 13.7688 52.477C12.3498 52.477 12.4708 54.182 12.4708 55.172C12.4708 56.162 12.3498 57.867 13.7688 57.867C15.1878 57.867 15.0668 56.162 15.0668 55.172ZM22.7372 55.172C22.7372 56.426 22.6162 57.702 21.8242 58.461C21.4282 58.846 20.8672 59.143 20.0422 59.143C19.2172 59.143 18.6562 58.846 18.2602 58.461C17.4682 57.702 17.3472 56.426 17.3472 55.172C17.3472 53.918 17.4682 52.642 18.2602 51.883C18.6562 51.498 19.2172 51.212 20.0422 51.212C20.8672 51.212 21.4282 51.498 21.8242 51.883C22.6162 52.642 22.7372 53.918 22.7372 55.172ZM21.3402 55.172C21.3402 54.182 21.4612 52.477 20.0422 52.477C18.6232 52.477 18.7442 54.182 18.7442 55.172C18.7442 56.162 18.6232 57.867 20.0422 57.867C21.4612 57.867 21.3402 56.162 21.3402 55.172ZM27.5147 59H26.1397V52.983L24.4567 54.204V52.708L26.3377 51.355H27.5147V59ZM35.3391 56.481C35.3391 57.977 34.4481 59.143 32.7101 59.143C31.2581 59.143 30.3561 58.109 30.1251 56.734C30.0371 56.239 30.0041 55.788 30.0041 55.304C30.0041 54.182 30.0701 52.807 30.8511 51.971C31.2691 51.531 31.8081 51.212 32.7211 51.212C33.5021 51.212 34.0741 51.454 34.4701 51.828C34.8991 52.235 35.1191 52.785 35.1191 53.236H33.7331C33.7111 53.005 33.6121 52.796 33.4691 52.653C33.2931 52.466 33.0291 52.378 32.6551 52.378C32.2921 52.378 32.0831 52.51 31.8961 52.686C31.4781 53.071 31.3681 53.764 31.3681 54.435C31.7091 54.028 32.3581 53.874 32.8201 53.874C34.4701 53.874 35.3391 54.93 35.3391 56.481ZM33.9421 56.426C33.9421 55.634 33.5351 54.996 32.6881 54.996C31.9511 54.996 31.5001 55.623 31.5001 56.426C31.5001 57.262 31.8961 57.911 32.7101 57.911C33.5351 57.911 33.9421 57.317 33.9421 56.426ZM40.0615 59H38.6865V52.983L37.0035 54.204V52.708L38.8845 51.355H40.0615V59ZM46.434 56.228H42.661V54.996H46.434V56.228ZM52.9228 55.172C52.9228 56.426 52.8018 57.702 52.0098 58.461C51.6138 58.846 51.0528 59.143 50.2278 59.143C49.4028 59.143 48.8418 58.846 48.4458 58.461C47.6538 57.702 47.5328 56.426 47.5328 55.172C47.5328 53.918 47.6538 52.642 48.4458 51.883C48.8418 51.498 49.4028 51.212 50.2278 51.212C51.0528 51.212 51.6138 51.498 52.0098 51.883C52.8018 52.642 52.9228 53.918 52.9228 55.172ZM51.5258 55.172C51.5258 54.182 51.6468 52.477 50.2278 52.477C48.8088 52.477 48.9298 54.182 48.9298 55.172C48.9298 56.162 48.8088 57.867 50.2278 57.867C51.6468 57.867 51.5258 56.162 51.5258 55.172ZM59.1962 55.172C59.1962 56.426 59.0752 57.702 58.2832 58.461C57.8872 58.846 57.3262 59.143 56.5012 59.143C55.6762 59.143 55.1152 58.846 54.7192 58.461C53.9272 57.702 53.8062 56.426 53.8062 55.172C53.8062 53.918 53.9272 52.642 54.7192 51.883C55.1152 51.498 55.6762 51.212 56.5012 51.212C57.3262 51.212 57.8872 51.498 58.2832 51.883C59.0752 52.642 59.1962 53.918 59.1962 55.172ZM57.7992 55.172C57.7992 54.182 57.9202 52.477 56.5012 52.477C55.0822 52.477 55.2032 54.182 55.2032 55.172C55.2032 56.162 55.0822 57.867 56.5012 57.867C57.9202 57.867 57.7992 56.162 57.7992 55.172Z" fill="#B15300"/>
<path d="M10.5 12H9.17L6.1 7.13V12H4.83V4.91H6.2L9.23 9.71V4.91H10.5V12ZM17.214 12H12.164V4.91H17.214V6.08H13.454V7.73H16.764V8.89H13.454V10.83H17.214V12ZM23.8645 8.46C23.8645 9.62 23.7345 10.56 22.9645 11.33C22.4245 11.87 21.6845 12.13 20.9245 12.13C20.1645 12.13 19.4245 11.87 18.8845 11.33C18.1145 10.56 17.9845 9.62 17.9845 8.46C17.9845 7.3 18.1145 6.35 18.8845 5.58C19.4245 5.04 20.1645 4.78 20.9245 4.78C21.6845 4.78 22.4245 5.04 22.9645 5.58C23.7345 6.35 23.8645 7.3 23.8645 8.46ZM22.5545 8.46C22.5545 7.81 22.5345 6.93 22.0445 6.42C21.7645 6.12 21.3345 5.95 20.9245 5.95C20.5145 5.95 20.0845 6.12 19.8045 6.42C19.3145 6.93 19.2945 7.81 19.2945 8.46C19.2945 9.11 19.3145 9.98 19.8045 10.49C20.0845 10.79 20.5145 10.96 20.9245 10.96C21.3345 10.96 21.7645 10.79 22.0445 10.49C22.5345 9.98 22.5545 9.11 22.5545 8.46ZM32.2332 12H30.9832V6.94L29.1432 11.9H28.1932L26.3632 6.88V12H25.1132V4.91H26.8532L28.7132 9.96L30.5832 4.91H32.2332V12Z" fill="#B15300"/>
<rect x="53" y="4" width="7" height="7" rx="3.5" stroke="#B15300" stroke-width="2"/>
</g>
<defs>
<clipPath id="clip0_156_1320">
<rect width="64" height="64" fill="white"/>
</clipPath>
</defs>
</svg>
