<svg width="64" height="64" viewBox="0 0 64 64" fill="none" xmlns="http://www.w3.org/2000/svg">
<g clip-path="url(#clip0_156_883)">
<rect width="64" height="64" fill="#149618"/>
<rect width="64" height="64" rx="6" fill="#149618"/>
<path d="M27.7016 39H24.5096L17.1416 27.312V39H14.0936V21.984H17.3816L24.6536 33.504V21.984H27.7016V39ZM34.8391 39H31.6951V21.984H34.8391V39ZM51.2281 33.576C51.0841 34.92 50.5801 36.288 49.5961 37.296C48.3241 38.592 46.5481 39.312 44.7241 39.312C42.9001 39.312 41.1961 38.712 39.9001 37.416C38.0521 35.568 37.7881 33.288 37.7881 30.504C37.7881 27.72 38.0521 25.44 39.9001 23.592C41.1961 22.296 42.9001 21.672 44.7241 21.672C46.5481 21.672 48.3241 22.344 49.5961 23.64C50.5801 24.648 51.0841 25.992 51.2281 27.336H48.0601C47.9881 26.592 47.7241 26.064 47.2921 25.536C46.7401 24.84 45.7801 24.48 44.7241 24.48C43.7401 24.48 42.7801 24.888 42.1081 25.608C40.9321 26.832 40.9321 28.944 40.9321 30.504C40.9321 32.064 40.9321 34.176 42.1081 35.4C42.7801 36.12 43.7401 36.528 44.7241 36.528C45.7801 36.528 46.7401 36.144 47.2921 35.448C47.7241 34.92 47.9881 34.32 48.0601 33.576H51.2281Z" fill="#CCFFCE"/>
<path d="M8.69435 59H7.31935V52.983L5.63635 54.204V52.708L7.51735 51.355H8.69435V59ZM16.3758 55.04C16.3758 56.162 16.3098 57.537 15.5288 58.373C15.1108 58.813 14.5718 59.143 13.6588 59.143C12.8778 59.143 12.3058 58.89 11.9098 58.516C11.4808 58.109 11.2608 57.559 11.2608 57.108H12.6468C12.6688 57.339 12.7678 57.548 12.9108 57.691C13.0868 57.878 13.3508 57.966 13.7248 57.966C14.0878 57.966 14.2968 57.834 14.4838 57.658C14.9018 57.273 15.0118 56.58 15.0118 55.909C14.6708 56.316 14.0218 56.47 13.5598 56.47C11.9098 56.47 11.0408 55.414 11.0408 53.863C11.0408 52.367 11.9318 51.212 13.6698 51.212C15.1218 51.212 16.0238 52.235 16.2548 53.61C16.3428 54.105 16.3758 54.556 16.3758 55.04ZM14.8798 53.918C14.8798 53.082 14.4838 52.433 13.6698 52.433C12.8448 52.433 12.4378 53.027 12.4378 53.918C12.4378 54.71 12.8448 55.348 13.6918 55.348C14.4288 55.348 14.8798 54.721 14.8798 53.918ZM22.7372 55.172C22.7372 56.426 22.6162 57.702 21.8242 58.461C21.4282 58.846 20.8672 59.143 20.0422 59.143C19.2172 59.143 18.6562 58.846 18.2602 58.461C17.4682 57.702 17.3472 56.426 17.3472 55.172C17.3472 53.918 17.4682 52.642 18.2602 51.883C18.6562 51.498 19.2172 51.212 20.0422 51.212C20.8672 51.212 21.4282 51.498 21.8242 51.883C22.6162 52.642 22.7372 53.918 22.7372 55.172ZM21.3402 55.172C21.3402 54.182 21.4612 52.477 20.0422 52.477C18.6232 52.477 18.7442 54.182 18.7442 55.172C18.7442 56.162 18.6232 57.867 20.0422 57.867C21.4612 57.867 21.3402 56.162 21.3402 55.172ZM27.5147 59H26.1397V52.983L24.4567 54.204V52.708L26.3377 51.355H27.5147V59ZM35.2291 56.855C35.2291 58.34 33.9641 59.154 32.5891 59.154C31.2141 59.154 29.9491 58.34 29.9491 56.855C29.9491 56.096 30.3341 55.37 31.0601 55.029C30.4991 54.721 30.1031 54.028 30.1031 53.379C30.1031 51.938 31.2581 51.212 32.5891 51.212C33.9201 51.212 35.0751 51.938 35.0751 53.379C35.0751 54.028 34.6791 54.721 34.1181 55.029C34.8441 55.37 35.2291 56.096 35.2291 56.855ZM33.6891 53.401C33.6891 52.84 33.3151 52.411 32.5891 52.411C31.8521 52.411 31.4891 52.84 31.4891 53.401C31.4891 53.962 31.8631 54.424 32.5891 54.424C33.3151 54.424 33.6891 53.962 33.6891 53.401ZM33.8431 56.767C33.8431 56.14 33.4031 55.634 32.5891 55.634C31.7751 55.634 31.3351 56.14 31.3351 56.767C31.3351 57.471 31.8411 57.933 32.5891 57.933C33.3371 57.933 33.8431 57.471 33.8431 56.767ZM41.7775 57.46H40.8095V59H39.4345V57.46H36.0245V56.162L38.8295 51.355H40.3255L37.4765 56.217H39.4345V54.424H40.8095V56.217H41.7775V57.46ZM46.434 56.228H42.661V54.996H46.434V56.228ZM52.9228 55.172C52.9228 56.426 52.8018 57.702 52.0098 58.461C51.6138 58.846 51.0528 59.143 50.2278 59.143C49.4028 59.143 48.8418 58.846 48.4458 58.461C47.6538 57.702 47.5328 56.426 47.5328 55.172C47.5328 53.918 47.6538 52.642 48.4458 51.883C48.8418 51.498 49.4028 51.212 50.2278 51.212C51.0528 51.212 51.6138 51.498 52.0098 51.883C52.8018 52.642 52.9228 53.918 52.9228 55.172ZM51.5258 55.172C51.5258 54.182 51.6468 52.477 50.2278 52.477C48.8088 52.477 48.9298 54.182 48.9298 55.172C48.9298 56.162 48.8088 57.867 50.2278 57.867C51.6468 57.867 51.5258 56.162 51.5258 55.172ZM59.1962 55.172C59.1962 56.426 59.0752 57.702 58.2832 58.461C57.8872 58.846 57.3262 59.143 56.5012 59.143C55.6762 59.143 55.1152 58.846 54.7192 58.461C53.9272 57.702 53.8062 56.426 53.8062 55.172C53.8062 53.918 53.9272 52.642 54.7192 51.883C55.1152 51.498 55.6762 51.212 56.5012 51.212C57.3262 51.212 57.8872 51.498 58.2832 51.883C59.0752 52.642 59.1962 53.918 59.1962 55.172ZM57.7992 55.172C57.7992 54.182 57.9202 52.477 56.5012 52.477C55.0822 52.477 55.2032 54.182 55.2032 55.172C55.2032 56.162 55.0822 57.867 56.5012 57.867C57.9202 57.867 57.7992 56.162 57.7992 55.172Z" fill="#CCFFCE"/>
<path d="M10.5 12H9.17L6.1 7.13V12H4.83V4.91H6.2L9.23 9.71V4.91H10.5V12ZM17.214 12H12.164V4.91H17.214V6.08H13.454V7.73H16.764V8.89H13.454V10.83H17.214V12ZM23.8645 8.46C23.8645 9.62 23.7345 10.56 22.9645 11.33C22.4245 11.87 21.6845 12.13 20.9245 12.13C20.1645 12.13 19.4245 11.87 18.8845 11.33C18.1145 10.56 17.9845 9.62 17.9845 8.46C17.9845 7.3 18.1145 6.35 18.8845 5.58C19.4245 5.04 20.1645 4.78 20.9245 4.78C21.6845 4.78 22.4245 5.04 22.9645 5.58C23.7345 6.35 23.8645 7.3 23.8645 8.46ZM22.5545 8.46C22.5545 7.81 22.5345 6.93 22.0445 6.42C21.7645 6.12 21.3345 5.95 20.9245 5.95C20.5145 5.95 20.0845 6.12 19.8045 6.42C19.3145 6.93 19.2945 7.81 19.2945 8.46C19.2945 9.11 19.3145 9.98 19.8045 10.49C20.0845 10.79 20.5145 10.96 20.9245 10.96C21.3345 10.96 21.7645 10.79 22.0445 10.49C22.5345 9.98 22.5545 9.11 22.5545 8.46ZM32.2332 12H30.9832V6.94L29.1432 11.9H28.1932L26.3632 6.88V12H25.1132V4.91H26.8532L28.7132 9.96L30.5832 4.91H32.2332V12Z" fill="#CCFFCE"/>
<rect x="53" y="4" width="7" height="7" rx="3.5" stroke="#CCFFCE" stroke-width="2"/>
</g>
<defs>
<clipPath id="clip0_156_883">
<rect width="64" height="64" fill="white"/>
</clipPath>
</defs>
</svg>
