<svg width="64" height="64" viewBox="0 0 64 64" fill="none" xmlns="http://www.w3.org/2000/svg">
<g clip-path="url(#clip0_156_895)">
<rect width="64" height="64" fill="#149618"/>
<rect width="64" height="64" rx="6" fill="#149618"/>
<path d="M22.8617 39H19.6697L12.3017 27.312V39H9.25372V21.984H12.5417L19.8137 33.504V21.984H22.8617V39ZM42.8153 26.52L39.7673 39H36.9833L34.1513 30.576L31.3673 39H28.5833L25.4153 26.52H28.3193L30.3113 34.704L32.9273 26.64H35.3993L38.0393 34.68L39.9593 26.52H42.8153ZM56.0057 38.856C55.5017 39.072 55.2377 39.192 54.5177 39.192C53.2217 39.192 52.5017 38.376 52.4057 37.44C51.8297 38.448 50.3897 39.312 48.6137 39.312C45.6377 39.312 44.1017 37.44 44.1017 35.4C44.1017 33.024 45.9497 31.656 48.3257 31.488L51.9977 31.224V30.456C51.9977 29.28 51.5897 28.488 49.8857 28.488C48.4937 28.488 47.6777 29.112 47.6057 30.264H44.7017C44.8697 27.456 47.1017 26.208 49.8857 26.208C52.0217 26.208 53.8457 26.88 54.5657 28.752C54.8777 29.544 54.9257 30.432 54.9257 31.272V35.904C54.9257 36.48 55.1177 36.696 55.6217 36.696C55.8137 36.696 56.0057 36.648 56.0057 36.648V38.856ZM51.9977 34.032V33.456L48.8297 33.696C47.9177 33.768 47.0297 34.32 47.0297 35.328C47.0297 36.288 47.8697 36.888 48.8057 36.888C50.6777 36.888 51.9977 35.88 51.9977 34.032Z" fill="#CCFFCE"/>
<path d="M17.5137 59H16.1387V52.983L14.4557 54.204V52.708L16.3367 51.355H17.5137V59ZM25.1951 55.04C25.1951 56.162 25.1291 57.537 24.3481 58.373C23.9301 58.813 23.3911 59.143 22.4781 59.143C21.6971 59.143 21.1251 58.89 20.7291 58.516C20.3001 58.109 20.0801 57.559 20.0801 57.108H21.4661C21.4881 57.339 21.5871 57.548 21.7301 57.691C21.9061 57.878 22.1701 57.966 22.5441 57.966C22.9071 57.966 23.1161 57.834 23.3031 57.658C23.7211 57.273 23.8311 56.58 23.8311 55.909C23.4901 56.316 22.8411 56.47 22.3791 56.47C20.7291 56.47 19.8601 55.414 19.8601 53.863C19.8601 52.367 20.7511 51.212 22.4891 51.212C23.9411 51.212 24.8431 52.235 25.0741 53.61C25.1621 54.105 25.1951 54.556 25.1951 55.04ZM23.6991 53.918C23.6991 53.082 23.3031 52.433 22.4891 52.433C21.6641 52.433 21.2571 53.027 21.2571 53.918C21.2571 54.71 21.6641 55.348 22.5111 55.348C23.2481 55.348 23.6991 54.721 23.6991 53.918ZM31.5566 55.172C31.5566 56.426 31.4356 57.702 30.6436 58.461C30.2476 58.846 29.6866 59.143 28.8616 59.143C28.0366 59.143 27.4756 58.846 27.0796 58.461C26.2876 57.702 26.1666 56.426 26.1666 55.172C26.1666 53.918 26.2876 52.642 27.0796 51.883C27.4756 51.498 28.0366 51.212 28.8616 51.212C29.6866 51.212 30.2476 51.498 30.6436 51.883C31.4356 52.642 31.5566 53.918 31.5566 55.172ZM30.1596 55.172C30.1596 54.182 30.2806 52.477 28.8616 52.477C27.4426 52.477 27.5636 54.182 27.5636 55.172C27.5636 56.162 27.4426 57.867 28.8616 57.867C30.2806 57.867 30.1596 56.162 30.1596 55.172ZM37.566 59H32.682V57.9L35.663 54.347C35.927 54.039 36.059 53.676 36.059 53.368C36.059 52.829 35.718 52.411 35.091 52.411C34.442 52.411 34.068 52.906 34.068 53.511H32.66C32.671 52.169 33.529 51.212 35.102 51.212C36.411 51.212 37.456 52.015 37.456 53.357C37.456 54.039 37.049 54.71 36.62 55.227L34.508 57.757H37.566V59ZM44.0594 52.455L41.0784 59H39.5934L42.5854 52.587H38.7904V51.355H44.0594V52.455ZM50.2229 56.811C50.2229 58.34 49.0569 59.143 47.6159 59.143C46.2079 59.143 45.0639 58.219 45.0199 56.789H46.3949C46.4499 57.537 46.9559 57.933 47.6269 57.933C48.3089 57.933 48.8369 57.515 48.8369 56.789C48.8369 55.997 48.2099 55.634 47.4949 55.634H46.9229V54.435H47.4949C48.2429 54.435 48.6719 54.127 48.6719 53.412C48.6719 52.862 48.2319 52.411 47.6269 52.411C46.9449 52.411 46.4609 52.752 46.4499 53.445H45.0639C45.0859 52.004 46.2299 51.212 47.6269 51.212C49.0129 51.212 50.0689 52.059 50.0689 53.379C50.0689 54.072 49.6619 54.776 48.9689 55.018C49.7609 55.238 50.2229 56.019 50.2229 56.811Z" fill="#CCFFCE"/>
<path d="M10.5 12H9.17L6.1 7.13V12H4.83V4.91H6.2L9.23 9.71V4.91H10.5V12ZM17.214 12H12.164V4.91H17.214V6.08H13.454V7.73H16.764V8.89H13.454V10.83H17.214V12ZM23.8645 8.46C23.8645 9.62 23.7345 10.56 22.9645 11.33C22.4245 11.87 21.6845 12.13 20.9245 12.13C20.1645 12.13 19.4245 11.87 18.8845 11.33C18.1145 10.56 17.9845 9.62 17.9845 8.46C17.9845 7.3 18.1145 6.35 18.8845 5.58C19.4245 5.04 20.1645 4.78 20.9245 4.78C21.6845 4.78 22.4245 5.04 22.9645 5.58C23.7345 6.35 23.8645 7.3 23.8645 8.46ZM22.5545 8.46C22.5545 7.81 22.5345 6.93 22.0445 6.42C21.7645 6.12 21.3345 5.95 20.9245 5.95C20.5145 5.95 20.0845 6.12 19.8045 6.42C19.3145 6.93 19.2945 7.81 19.2945 8.46C19.2945 9.11 19.3145 9.98 19.8045 10.49C20.0845 10.79 20.5145 10.96 20.9245 10.96C21.3345 10.96 21.7645 10.79 22.0445 10.49C22.5345 9.98 22.5545 9.11 22.5545 8.46ZM32.2332 12H30.9832V6.94L29.1432 11.9H28.1932L26.3632 6.88V12H25.1132V4.91H26.8532L28.7132 9.96L30.5832 4.91H32.2332V12Z" fill="#CCFFCE"/>
<rect x="53" y="4" width="7" height="7" rx="3.5" stroke="#CCFFCE" stroke-width="2"/>
</g>
<defs>
<clipPath id="clip0_156_895">
<rect width="64" height="64" fill="white"/>
</clipPath>
</defs>
</svg>
