<svg width="64" height="64" viewBox="0 0 64 64" fill="none" xmlns="http://www.w3.org/2000/svg">
<g clip-path="url(#clip0_156_1049)">
<rect width="64" height="64" fill="#149618"/>
<rect width="64" height="64" rx="6" fill="#149618"/>
<path d="M19.0766 39H15.8846L8.51656 27.312V39H5.46856V21.984H8.75656L16.0286 33.504V21.984H19.0766V39ZM39.0301 26.52L35.9821 39H33.1981L30.3661 30.576L27.5821 39H24.7981L21.6301 26.52H24.5341L26.5261 34.704L29.1421 26.64H31.6141L34.2541 34.68L36.1741 26.52H39.0301ZM60.1138 21.984L56.7298 39H53.6338L50.0818 27.264L46.5298 39H43.4338L40.0018 21.984H42.9538L45.3298 33.816L48.8338 22.248H51.4258L54.8578 33.816L57.2818 21.984H60.1138Z" fill="#CCFFCE"/>
<path d="M11.8311 59H10.4561V52.983L8.77307 54.204V52.708L10.6541 51.355H11.8311V59ZM19.5125 55.04C19.5125 56.162 19.4465 57.537 18.6655 58.373C18.2475 58.813 17.7085 59.143 16.7955 59.143C16.0145 59.143 15.4425 58.89 15.0465 58.516C14.6175 58.109 14.3975 57.559 14.3975 57.108H15.7835C15.8055 57.339 15.9045 57.548 16.0475 57.691C16.2235 57.878 16.4875 57.966 16.8615 57.966C17.2245 57.966 17.4335 57.834 17.6205 57.658C18.0385 57.273 18.1485 56.58 18.1485 55.909C17.8075 56.316 17.1585 56.47 16.6965 56.47C15.0465 56.47 14.1775 55.414 14.1775 53.863C14.1775 52.367 15.0685 51.212 16.8065 51.212C18.2585 51.212 19.1605 52.235 19.3915 53.61C19.4795 54.105 19.5125 54.556 19.5125 55.04ZM18.0165 53.918C18.0165 53.082 17.6205 52.433 16.8065 52.433C15.9815 52.433 15.5745 53.027 15.5745 53.918C15.5745 54.71 15.9815 55.348 16.8285 55.348C17.5655 55.348 18.0165 54.721 18.0165 53.918ZM25.8739 55.172C25.8739 56.426 25.7529 57.702 24.9609 58.461C24.5649 58.846 24.0039 59.143 23.1789 59.143C22.3539 59.143 21.7929 58.846 21.3969 58.461C20.6049 57.702 20.4839 56.426 20.4839 55.172C20.4839 53.918 20.6049 52.642 21.3969 51.883C21.7929 51.498 22.3539 51.212 23.1789 51.212C24.0039 51.212 24.5649 51.498 24.9609 51.883C25.7529 52.642 25.8739 53.918 25.8739 55.172ZM24.4769 55.172C24.4769 54.182 24.5979 52.477 23.1789 52.477C21.7599 52.477 21.8809 54.182 21.8809 55.172C21.8809 56.162 21.7599 57.867 23.1789 57.867C24.5979 57.867 24.4769 56.162 24.4769 55.172ZM32.1034 52.455L29.1224 59H27.6374L30.6294 52.587H26.8344V51.355H32.1034V52.455ZM36.9248 59H35.5498V52.983L33.8668 54.204V52.708L35.7478 51.355H36.9248V59ZM43.2973 56.228H39.5243V54.996H43.2973V56.228ZM49.7861 55.172C49.7861 56.426 49.6651 57.702 48.8731 58.461C48.4771 58.846 47.9161 59.143 47.0911 59.143C46.2661 59.143 45.7051 58.846 45.3091 58.461C44.5171 57.702 44.3961 56.426 44.3961 55.172C44.3961 53.918 44.5171 52.642 45.3091 51.883C45.7051 51.498 46.2661 51.212 47.0911 51.212C47.9161 51.212 48.4771 51.498 48.8731 51.883C49.6651 52.642 49.7861 53.918 49.7861 55.172ZM48.3891 55.172C48.3891 54.182 48.5101 52.477 47.0911 52.477C45.6721 52.477 45.7931 54.182 45.7931 55.172C45.7931 56.162 45.6721 57.867 47.0911 57.867C48.5101 57.867 48.3891 56.162 48.3891 55.172ZM56.0595 55.172C56.0595 56.426 55.9385 57.702 55.1465 58.461C54.7505 58.846 54.1895 59.143 53.3645 59.143C52.5395 59.143 51.9785 58.846 51.5825 58.461C50.7905 57.702 50.6695 56.426 50.6695 55.172C50.6695 53.918 50.7905 52.642 51.5825 51.883C51.9785 51.498 52.5395 51.212 53.3645 51.212C54.1895 51.212 54.7505 51.498 55.1465 51.883C55.9385 52.642 56.0595 53.918 56.0595 55.172ZM54.6625 55.172C54.6625 54.182 54.7835 52.477 53.3645 52.477C51.9455 52.477 52.0665 54.182 52.0665 55.172C52.0665 56.162 51.9455 57.867 53.3645 57.867C54.7835 57.867 54.6625 56.162 54.6625 55.172Z" fill="#CCFFCE"/>
<path d="M9.73 6.08H6.12V7.98H9.34V9.15H6.12V12H4.83V4.91H9.73V6.08ZM15.0913 11.94C14.8813 12.03 14.7713 12.08 14.4713 12.08C13.9313 12.08 13.6313 11.74 13.5913 11.35C13.3513 11.77 12.7513 12.13 12.0113 12.13C10.7713 12.13 10.1313 11.35 10.1313 10.5C10.1313 9.51 10.9013 8.94 11.8913 8.87L13.4213 8.76V8.44C13.4213 7.95 13.2513 7.62 12.5413 7.62C11.9613 7.62 11.6213 7.88 11.5913 8.36H10.3813C10.4513 7.19 11.3813 6.67 12.5413 6.67C13.4313 6.67 14.1913 6.95 14.4913 7.73C14.6213 8.06 14.6413 8.43 14.6413 8.78V10.71C14.6413 10.95 14.7213 11.04 14.9313 11.04C15.0113 11.04 15.0913 11.02 15.0913 11.02V11.94ZM13.4213 9.93V9.69L12.1013 9.79C11.7213 9.82 11.3513 10.05 11.3513 10.47C11.3513 10.87 11.7013 11.12 12.0913 11.12C12.8713 11.12 13.4213 10.7 13.4213 9.93ZM21.1665 12H19.7165L18.2565 9.73L17.4265 10.63V12H16.1765V4.78H17.4265V8.91L19.3965 6.8H20.9665L19.1065 8.81L21.1665 12ZM23.268 6.08H21.928V4.79H23.268V6.08ZM23.238 12H21.968V6.8H23.238V12ZM29.2093 9.44C29.2093 9.44 29.1993 9.68 29.1993 9.79H25.7193C25.7093 10.19 25.8493 10.57 26.0993 10.81C26.2793 10.98 26.5293 11.13 26.8693 11.13C27.2293 11.13 27.4493 11.06 27.6293 10.88C27.7393 10.77 27.8293 10.63 27.8793 10.44H29.0793C29.0493 10.75 28.8393 11.16 28.6393 11.4C28.1993 11.92 27.5493 12.13 26.8893 12.13C26.1793 12.13 25.6593 11.88 25.2493 11.49C24.7293 10.99 24.4493 10.26 24.4493 9.41C24.4493 8.58 24.6993 7.84 25.1993 7.33C25.5893 6.93 26.1493 6.67 26.8593 6.67C27.6293 6.67 28.3293 6.98 28.7593 7.63C29.1393 8.2 29.2293 8.79 29.2093 9.44ZM27.9593 8.88C27.9493 8.49 27.8393 8.19 27.6393 7.97C27.4693 7.79 27.2093 7.67 26.8493 7.67C26.4693 7.67 26.1593 7.83 25.9793 8.07C25.7993 8.3 25.7193 8.54 25.7093 8.88H27.9593ZM34.8057 12H33.5557V8.79C33.5557 8.19 33.3557 7.82 32.6957 7.82C31.9457 7.82 31.6257 8.62 31.6257 9.26V12H30.3757V4.78H31.6257V7.35C31.9257 6.91 32.5057 6.67 33.0457 6.67C34.1557 6.67 34.8057 7.46 34.8057 8.53V12Z" fill="#CCFFCE"/>
<rect x="58.5007" y="3" width="2.1215" height="10.6075" transform="rotate(45 58.5007 3)" fill="#CCFFCE"/>
<rect x="60.0007" y="10.501" width="2.1215" height="10.6075" transform="rotate(135 60.0007 10.501)" fill="#CCFFCE"/>
</g>
<defs>
<clipPath id="clip0_156_1049">
<rect width="64" height="64" fill="white"/>
</clipPath>
</defs>
</svg>
