<svg width="64" height="64" viewBox="0 0 64 64" fill="none" xmlns="http://www.w3.org/2000/svg">
<g clip-path="url(#clip0_156_919)">
<rect width="64" height="64" fill="#0000FF"/>
<rect width="64" height="64" rx="6" fill="#0000FF"/>
<path d="M25.288 30.504C25.288 33.288 24.976 35.544 23.128 37.392C21.832 38.688 20.056 39.312 18.232 39.312C16.408 39.312 14.632 38.688 13.336 37.392C11.488 35.544 11.176 33.288 11.176 30.504C11.176 27.72 11.488 25.44 13.336 23.592C14.632 22.296 16.408 21.672 18.232 21.672C20.056 21.672 21.832 22.296 23.128 23.592C24.976 25.44 25.288 27.72 25.288 30.504ZM22.144 30.504C22.144 28.944 22.096 26.832 20.92 25.608C20.248 24.888 19.216 24.48 18.232 24.48C17.248 24.48 16.216 24.888 15.544 25.608C14.368 26.832 14.32 28.944 14.32 30.504C14.32 32.064 14.368 34.152 15.544 35.376C16.216 36.096 17.248 36.504 18.232 36.504C19.216 36.504 20.248 36.096 20.92 35.376C22.096 34.152 22.144 32.064 22.144 30.504ZM38.797 39H35.797V31.344C35.797 29.88 35.317 28.992 33.733 28.992C32.677 28.992 31.981 29.664 31.573 30.576C31.141 31.56 31.165 32.856 31.165 33.912V39H28.165V26.52H30.685L30.901 28.128C31.645 26.808 33.133 26.208 34.573 26.208C37.237 26.208 38.797 28.08 38.797 30.672V39ZM52.9047 32.856C52.9047 32.856 52.8807 33.432 52.8807 33.696H44.5287C44.5047 34.656 44.8407 35.568 45.4407 36.144C45.8727 36.552 46.4727 36.912 47.2887 36.912C48.1527 36.912 48.6807 36.744 49.1127 36.312C49.3767 36.048 49.5927 35.712 49.7127 35.256H52.5927C52.5207 36 52.0167 36.984 51.5367 37.56C50.4807 38.808 48.9207 39.312 47.3367 39.312C45.6327 39.312 44.3847 38.712 43.4007 37.776C42.1527 36.576 41.4807 34.824 41.4807 32.784C41.4807 30.792 42.0807 29.016 43.2807 27.792C44.2167 26.832 45.5607 26.208 47.2647 26.208C49.1127 26.208 50.7927 26.952 51.8247 28.512C52.7367 29.88 52.9527 31.296 52.9047 32.856ZM49.9047 31.512C49.8807 30.576 49.6167 29.856 49.1367 29.328C48.7287 28.896 48.1047 28.608 47.2407 28.608C46.3287 28.608 45.5847 28.992 45.1527 29.568C44.7207 30.12 44.5287 30.696 44.5047 31.512H49.9047Z" fill="#EEEEFF"/>
<path d="M9.92635 59H5.04235V57.9L8.02335 54.347C8.28735 54.039 8.41935 53.676 8.41935 53.368C8.41935 52.829 8.07835 52.411 7.45135 52.411C6.80235 52.411 6.42835 52.906 6.42835 53.511H5.02035C5.03135 52.169 5.88935 51.212 7.46235 51.212C8.77135 51.212 9.81635 52.015 9.81635 53.357C9.81635 54.039 9.40935 54.71 8.98035 55.227L6.86835 57.757H9.92635V59ZM16.3098 56.811C16.3098 58.34 15.1438 59.143 13.7028 59.143C12.2948 59.143 11.1508 58.219 11.1068 56.789H12.4818C12.5368 57.537 13.0428 57.933 13.7138 57.933C14.3958 57.933 14.9238 57.515 14.9238 56.789C14.9238 55.997 14.2968 55.634 13.5818 55.634H13.0098V54.435H13.5818C14.3298 54.435 14.7588 54.127 14.7588 53.412C14.7588 52.862 14.3188 52.411 13.7138 52.411C13.0318 52.411 12.5478 52.752 12.5368 53.445H11.1508C11.1728 52.004 12.3168 51.212 13.7138 51.212C15.0998 51.212 16.1558 52.059 16.1558 53.379C16.1558 54.072 15.7488 54.776 15.0558 55.018C15.8478 55.238 16.3098 56.019 16.3098 56.811ZM22.7372 55.172C22.7372 56.426 22.6162 57.702 21.8242 58.461C21.4282 58.846 20.8672 59.143 20.0422 59.143C19.2172 59.143 18.6562 58.846 18.2602 58.461C17.4682 57.702 17.3472 56.426 17.3472 55.172C17.3472 53.918 17.4682 52.642 18.2602 51.883C18.6562 51.498 19.2172 51.212 20.0422 51.212C20.8672 51.212 21.4282 51.498 21.8242 51.883C22.6162 52.642 22.7372 53.918 22.7372 55.172ZM21.3402 55.172C21.3402 54.182 21.4612 52.477 20.0422 52.477C18.6232 52.477 18.7442 54.182 18.7442 55.172C18.7442 56.162 18.6232 57.867 20.0422 57.867C21.4612 57.867 21.3402 56.162 21.3402 55.172ZM27.5147 59H26.1397V52.983L24.4567 54.204V52.708L26.3377 51.355H27.5147V59ZM35.2291 56.855C35.2291 58.34 33.9641 59.154 32.5891 59.154C31.2141 59.154 29.9491 58.34 29.9491 56.855C29.9491 56.096 30.3341 55.37 31.0601 55.029C30.4991 54.721 30.1031 54.028 30.1031 53.379C30.1031 51.938 31.2581 51.212 32.5891 51.212C33.9201 51.212 35.0751 51.938 35.0751 53.379C35.0751 54.028 34.6791 54.721 34.1181 55.029C34.8441 55.37 35.2291 56.096 35.2291 56.855ZM33.6891 53.401C33.6891 52.84 33.3151 52.411 32.5891 52.411C31.8521 52.411 31.4891 52.84 31.4891 53.401C31.4891 53.962 31.8631 54.424 32.5891 54.424C33.3151 54.424 33.6891 53.962 33.6891 53.401ZM33.8431 56.767C33.8431 56.14 33.4031 55.634 32.5891 55.634C31.7751 55.634 31.3351 56.14 31.3351 56.767C31.3351 57.471 31.8411 57.933 32.5891 57.933C33.3371 57.933 33.8431 57.471 33.8431 56.767ZM41.4695 55.04C41.4695 56.162 41.4035 57.537 40.6225 58.373C40.2045 58.813 39.6655 59.143 38.7525 59.143C37.9715 59.143 37.3995 58.89 37.0035 58.516C36.5745 58.109 36.3545 57.559 36.3545 57.108H37.7405C37.7625 57.339 37.8615 57.548 38.0045 57.691C38.1805 57.878 38.4445 57.966 38.8185 57.966C39.1815 57.966 39.3905 57.834 39.5775 57.658C39.9955 57.273 40.1055 56.58 40.1055 55.909C39.7645 56.316 39.1155 56.47 38.6535 56.47C37.0035 56.47 36.1345 55.414 36.1345 53.863C36.1345 52.367 37.0255 51.212 38.7635 51.212C40.2155 51.212 41.1175 52.235 41.3485 53.61C41.4365 54.105 41.4695 54.556 41.4695 55.04ZM39.9735 53.918C39.9735 53.082 39.5775 52.433 38.7635 52.433C37.9385 52.433 37.5315 53.027 37.5315 53.918C37.5315 54.71 37.9385 55.348 38.7855 55.348C39.5225 55.348 39.9735 54.721 39.9735 53.918ZM46.434 56.228H42.661V54.996H46.434V56.228ZM52.9228 55.172C52.9228 56.426 52.8018 57.702 52.0098 58.461C51.6138 58.846 51.0528 59.143 50.2278 59.143C49.4028 59.143 48.8418 58.846 48.4458 58.461C47.6538 57.702 47.5328 56.426 47.5328 55.172C47.5328 53.918 47.6538 52.642 48.4458 51.883C48.8418 51.498 49.4028 51.212 50.2278 51.212C51.0528 51.212 51.6138 51.498 52.0098 51.883C52.8018 52.642 52.9228 53.918 52.9228 55.172ZM51.5258 55.172C51.5258 54.182 51.6468 52.477 50.2278 52.477C48.8088 52.477 48.9298 54.182 48.9298 55.172C48.9298 56.162 48.8088 57.867 50.2278 57.867C51.6468 57.867 51.5258 56.162 51.5258 55.172ZM59.1962 55.172C59.1962 56.426 59.0752 57.702 58.2832 58.461C57.8872 58.846 57.3262 59.143 56.5012 59.143C55.6762 59.143 55.1152 58.846 54.7192 58.461C53.9272 57.702 53.8062 56.426 53.8062 55.172C53.8062 53.918 53.9272 52.642 54.7192 51.883C55.1152 51.498 55.6762 51.212 56.5012 51.212C57.3262 51.212 57.8872 51.498 58.2832 51.883C59.0752 52.642 59.1962 53.918 59.1962 55.172ZM57.7992 55.172C57.7992 54.182 57.9202 52.477 56.5012 52.477C55.0822 52.477 55.2032 54.182 55.2032 55.172C55.2032 56.162 55.0822 57.867 56.5012 57.867C57.9202 57.867 57.7992 56.162 57.7992 55.172Z" fill="#EEEEFF"/>
<path d="M10.41 8.45C10.41 9.43 10.31 10.49 9.58 11.24C9.11 11.73 8.4 12 7.59 12H4.83V4.91H7.59C8.4 4.91 9.11 5.18 9.58 5.67C10.31 6.42 10.41 7.47 10.41 8.45ZM9.1 8.45C9.1 7.8 9.09 6.97 8.59 6.47C8.35 6.23 8 6.07 7.59 6.07H6.12V10.84H7.59C8 10.84 8.35 10.68 8.59 10.44C9.09 9.94 9.1 9.1 9.1 8.45ZM16.5459 12H15.7159L15.5659 11.22C15.3559 11.63 14.6759 12.12 13.7859 12.13C12.9659 12.14 12.2359 11.93 11.6759 11.34C10.9359 10.57 10.7559 9.62 10.7559 8.46C10.7559 7.3 10.9059 6.38 11.6759 5.61C12.2159 5.07 13.0259 4.78 13.7859 4.78C14.6559 4.78 15.4059 5.1 15.8859 5.59C16.2359 5.95 16.4959 6.4 16.5359 7.02H15.2159C15.1959 6.74 15.0559 6.55 14.9059 6.37C14.6559 6.08 14.2659 5.94 13.7759 5.94C13.3659 5.94 12.8959 6.12 12.6159 6.42C12.1259 6.93 12.0659 7.81 12.0659 8.46C12.0659 9.11 12.1359 10.02 12.6259 10.53C12.9059 10.83 13.3659 10.98 13.7759 10.98C14.2359 10.98 14.5959 10.82 14.8359 10.57C15.2159 10.17 15.2959 9.73 15.2959 9.19H13.6059V8.12H16.5459V12ZM22.6719 9.74C22.6119 10.3 22.4019 10.87 21.9919 11.29C21.4619 11.83 20.7219 12.13 19.9619 12.13C19.2019 12.13 18.4919 11.88 17.9519 11.34C17.1819 10.57 17.0719 9.62 17.0719 8.46C17.0719 7.3 17.1819 6.35 17.9519 5.58C18.4919 5.04 19.2019 4.78 19.9619 4.78C20.7219 4.78 21.4619 5.06 21.9919 5.6C22.4019 6.02 22.6119 6.58 22.6719 7.14H21.3519C21.3219 6.83 21.2119 6.61 21.0319 6.39C20.8019 6.1 20.4019 5.95 19.9619 5.95C19.5519 5.95 19.1519 6.12 18.8719 6.42C18.3819 6.93 18.3819 7.81 18.3819 8.46C18.3819 9.11 18.3819 9.99 18.8719 10.5C19.1519 10.8 19.5519 10.97 19.9619 10.97C20.4019 10.97 20.8019 10.81 21.0319 10.52C21.2119 10.3 21.3219 10.05 21.3519 9.74H22.6719ZM27.8612 12H23.2812V4.91H24.5712V10.78H27.8612V12Z" fill="#EEEEFF"/>
<path d="M54.634 4.5C55.0189 3.83333 55.9811 3.83333 56.366 4.5L59.3971 9.75C59.782 10.4167 59.3009 11.25 58.5311 11.25H52.4689C51.6991 11.25 51.218 10.4167 51.6029 9.75L54.634 4.5Z" fill="#EEEEFF"/>
</g>
<defs>
<clipPath id="clip0_156_919">
<rect width="64" height="64" fill="white"/>
</clipPath>
</defs>
</svg>
