<svg width="64" height="64" viewBox="0 0 64 64" fill="none" xmlns="http://www.w3.org/2000/svg">
<g clip-path="url(#clip0_577_7142)">
<rect width="64" height="64" fill="#FF1919"/>
<rect width="64" height="64" rx="6" fill="#FF1919"/>
<path d="M23.2723 30.504C23.2723 33.288 22.9603 35.52 21.1363 37.368L22.6243 39.24L20.7763 40.68L19.1923 38.712C18.2563 39.12 17.2483 39.312 16.2163 39.312C14.3923 39.312 12.6163 38.688 11.3203 37.392C9.47234 35.544 9.16034 33.288 9.16034 30.504C9.16034 27.72 9.47234 25.44 11.3203 23.592C12.6163 22.296 14.3923 21.672 16.2163 21.672C18.0403 21.672 19.8163 22.296 21.1123 23.592C22.9603 25.44 23.2723 27.72 23.2723 30.504ZM20.1283 30.504C20.1283 28.944 20.0803 26.832 18.9043 25.608C18.2323 24.888 17.2003 24.48 16.2163 24.48C15.2323 24.48 14.2003 24.888 13.5283 25.608C12.3523 26.832 12.3043 28.944 12.3043 30.504C12.3043 32.064 12.3523 34.152 13.5283 35.376C14.2003 36.096 15.2323 36.504 16.2163 36.504C16.5763 36.504 16.9603 36.456 17.3203 36.336L15.4963 34.056L17.3683 32.592L19.2403 34.968C20.0803 33.72 20.1283 31.896 20.1283 30.504ZM39.1813 39H37.1893L36.8293 37.128C36.3253 38.112 34.6933 39.288 32.5573 39.312C30.5893 39.336 28.8373 38.832 27.4933 37.416C25.7173 35.568 25.2853 33.288 25.2853 30.504C25.2853 27.72 25.6453 25.512 27.4933 23.664C28.7893 22.368 30.7333 21.672 32.5573 21.672C34.6453 21.672 36.4453 22.44 37.5973 23.616C38.4373 24.48 39.0613 25.56 39.1573 27.048H35.9893C35.9413 26.376 35.6053 25.92 35.2453 25.488C34.6453 24.792 33.7093 24.456 32.5333 24.456C31.5493 24.456 30.4213 24.888 29.7493 25.608C28.5733 26.832 28.4293 28.944 28.4293 30.504C28.4293 32.064 28.5973 34.248 29.7733 35.472C30.4453 36.192 31.5493 36.552 32.5333 36.552C33.6373 36.552 34.5013 36.168 35.0773 35.568C35.9893 34.608 36.1813 33.552 36.1813 32.256H32.1253V29.688H39.1813V39ZM55.0596 33.936C55.0596 35.52 54.4836 36.648 53.6436 37.488C52.3476 38.784 50.3556 39.312 48.2676 39.312C46.4676 39.312 44.5716 38.832 43.1796 37.56C42.1716 36.648 41.4036 35.208 41.4036 33.6H44.5716C44.5716 34.44 44.9556 35.184 45.4596 35.688C46.1796 36.408 47.3316 36.6 48.3156 36.6C49.4916 36.6 50.6196 36.36 51.2676 35.688C51.6516 35.28 51.9396 34.872 51.9396 34.056C51.9396 32.808 50.9796 32.232 49.9236 32.04C48.7716 31.824 47.2836 31.776 46.1556 31.584C43.8036 31.2 41.8356 29.664 41.8356 26.832C41.8356 25.488 42.4356 24.36 43.3236 23.472C44.4516 22.368 46.3236 21.672 48.3156 21.672C50.1396 21.672 51.9156 22.248 53.0676 23.328C54.0756 24.288 54.7716 25.536 54.7956 26.952H51.6276C51.6036 26.352 51.2916 25.704 50.8836 25.272C50.3316 24.696 49.2036 24.36 48.2916 24.36C47.3316 24.36 46.2276 24.576 45.5316 25.296C45.1716 25.68 44.9556 26.112 44.9556 26.736C44.9556 27.84 45.6756 28.416 46.6836 28.584C47.7636 28.752 49.2756 28.872 50.3796 29.016C52.9236 29.376 55.0596 31.032 55.0596 33.936Z" fill="#FFCBCB"/>
<path d="M9.92635 59H5.04235V57.9L8.02335 54.347C8.28735 54.039 8.41935 53.676 8.41935 53.368C8.41935 52.829 8.07835 52.411 7.45135 52.411C6.80235 52.411 6.42835 52.906 6.42835 53.511H5.02035C5.03135 52.169 5.88935 51.212 7.46235 51.212C8.77135 51.212 9.81635 52.015 9.81635 53.357C9.81635 54.039 9.40935 54.71 8.98035 55.227L6.86835 57.757H9.92635V59ZM16.6838 57.46H15.7158V59H14.3408V57.46H10.9308V56.162L13.7358 51.355H15.2318L12.3828 56.217H14.3408V54.424H15.7158V56.217H16.6838V57.46ZM22.7372 55.172C22.7372 56.426 22.6162 57.702 21.8242 58.461C21.4282 58.846 20.8672 59.143 20.0422 59.143C19.2172 59.143 18.6562 58.846 18.2602 58.461C17.4682 57.702 17.3472 56.426 17.3472 55.172C17.3472 53.918 17.4682 52.642 18.2602 51.883C18.6562 51.498 19.2172 51.212 20.0422 51.212C20.8672 51.212 21.4282 51.498 21.8242 51.883C22.6162 52.642 22.7372 53.918 22.7372 55.172ZM21.3402 55.172C21.3402 54.182 21.4612 52.477 20.0422 52.477C18.6232 52.477 18.7442 54.182 18.7442 55.172C18.7442 56.162 18.6232 57.867 20.0422 57.867C21.4612 57.867 21.3402 56.162 21.3402 55.172ZM27.5147 59H26.1397V52.983L24.4567 54.204V52.708L26.3377 51.355H27.5147V59ZM35.2841 55.172C35.2841 56.426 35.1631 57.702 34.3711 58.461C33.9751 58.846 33.4141 59.143 32.5891 59.143C31.7641 59.143 31.2031 58.846 30.8071 58.461C30.0151 57.702 29.8941 56.426 29.8941 55.172C29.8941 53.918 30.0151 52.642 30.8071 51.883C31.2031 51.498 31.7641 51.212 32.5891 51.212C33.4141 51.212 33.9751 51.498 34.3711 51.883C35.1631 52.642 35.2841 53.918 35.2841 55.172ZM33.8871 55.172C33.8871 54.182 34.0081 52.477 32.5891 52.477C31.1701 52.477 31.2911 54.182 31.2911 55.172C31.2911 56.162 31.1701 57.867 32.5891 57.867C34.0081 57.867 33.8871 56.162 33.8871 55.172ZM41.4695 55.04C41.4695 56.162 41.4035 57.537 40.6225 58.373C40.2045 58.813 39.6655 59.143 38.7525 59.143C37.9715 59.143 37.3995 58.89 37.0035 58.516C36.5745 58.109 36.3545 57.559 36.3545 57.108H37.7405C37.7625 57.339 37.8615 57.548 38.0045 57.691C38.1805 57.878 38.4445 57.966 38.8185 57.966C39.1815 57.966 39.3905 57.834 39.5775 57.658C39.9955 57.273 40.1055 56.58 40.1055 55.909C39.7645 56.316 39.1155 56.47 38.6535 56.47C37.0035 56.47 36.1345 55.414 36.1345 53.863C36.1345 52.367 37.0255 51.212 38.7635 51.212C40.2155 51.212 41.1175 52.235 41.3485 53.61C41.4365 54.105 41.4695 54.556 41.4695 55.04ZM39.9735 53.918C39.9735 53.082 39.5775 52.433 38.7635 52.433C37.9385 52.433 37.5315 53.027 37.5315 53.918C37.5315 54.71 37.9385 55.348 38.7855 55.348C39.5225 55.348 39.9735 54.721 39.9735 53.918ZM46.434 56.228H42.661V54.996H46.434V56.228ZM52.9228 55.172C52.9228 56.426 52.8018 57.702 52.0098 58.461C51.6138 58.846 51.0528 59.143 50.2278 59.143C49.4028 59.143 48.8418 58.846 48.4458 58.461C47.6538 57.702 47.5328 56.426 47.5328 55.172C47.5328 53.918 47.6538 52.642 48.4458 51.883C48.8418 51.498 49.4028 51.212 50.2278 51.212C51.0528 51.212 51.6138 51.498 52.0098 51.883C52.8018 52.642 52.9228 53.918 52.9228 55.172ZM51.5258 55.172C51.5258 54.182 51.6468 52.477 50.2278 52.477C48.8088 52.477 48.9298 54.182 48.9298 55.172C48.9298 56.162 48.8088 57.867 50.2278 57.867C51.6468 57.867 51.5258 56.162 51.5258 55.172ZM59.1962 55.172C59.1962 56.426 59.0752 57.702 58.2832 58.461C57.8872 58.846 57.3262 59.143 56.5012 59.143C55.6762 59.143 55.1152 58.846 54.7192 58.461C53.9272 57.702 53.8062 56.426 53.8062 55.172C53.8062 53.918 53.9272 52.642 54.7192 51.883C55.1152 51.498 55.6762 51.212 56.5012 51.212C57.3262 51.212 57.8872 51.498 58.2832 51.883C59.0752 52.642 59.1962 53.918 59.1962 55.172ZM57.7992 55.172C57.7992 54.182 57.9202 52.477 56.5012 52.477C55.0822 52.477 55.2032 54.182 55.2032 55.172C55.2032 56.162 55.0822 57.867 56.5012 57.867C57.9202 57.867 57.7992 56.162 57.7992 55.172Z" fill="#FFCBCB"/>
<rect x="53" y="4" width="7" height="7" rx="3.5" stroke="#FFCBCB" stroke-width="2"/>
<path d="M10.3 8.46C10.3 9.62 10.17 10.55 9.41 11.32L10.03 12.1L9.26 12.7L8.6 11.88C8.21 12.05 7.79 12.13 7.36 12.13C6.6 12.13 5.86 11.87 5.32 11.33C4.55 10.56 4.42 9.62 4.42 8.46C4.42 7.3 4.55 6.35 5.32 5.58C5.86 5.04 6.6 4.78 7.36 4.78C8.12 4.78 8.86 5.04 9.4 5.58C10.17 6.35 10.3 7.3 10.3 8.46ZM8.99 8.46C8.99 7.81 8.97 6.93 8.48 6.42C8.2 6.12 7.77 5.95 7.36 5.95C6.95 5.95 6.52 6.12 6.24 6.42C5.75 6.93 5.73 7.81 5.73 8.46C5.73 9.11 5.75 9.98 6.24 10.49C6.52 10.79 6.95 10.96 7.36 10.96C7.51 10.96 7.67 10.94 7.82 10.89L7.06 9.94L7.84 9.33L8.62 10.32C8.97 9.8 8.99 9.04 8.99 8.46ZM12.8588 12H11.5488V4.91H12.8588V12ZM20.0975 8.45C20.0975 9.43 19.9975 10.49 19.2675 11.24C18.7975 11.73 18.0875 12 17.2775 12H14.5175V4.91H17.2775C18.0875 4.91 18.7975 5.18 19.2675 5.67C19.9975 6.42 20.0975 7.47 20.0975 8.45ZM18.7875 8.45C18.7875 7.8 18.7775 6.97 18.2775 6.47C18.0375 6.23 17.6875 6.07 17.2775 6.07H15.8075V10.84H17.2775C17.6875 10.84 18.0375 10.68 18.2775 10.44C18.7775 9.94 18.7875 9.1 18.7875 8.45ZM26.9334 8.45C26.9334 9.43 26.8334 10.49 26.1034 11.24C25.6334 11.73 24.9234 12 24.1134 12H21.3534V4.91H24.1134C24.9234 4.91 25.6334 5.18 26.1034 5.67C26.8334 6.42 26.9334 7.47 26.9334 8.45ZM25.6234 8.45C25.6234 7.8 25.6134 6.97 25.1134 6.47C24.8734 6.23 24.5234 6.07 24.1134 6.07H22.6434V10.84H24.1134C24.5234 10.84 24.8734 10.68 25.1134 10.44C25.6134 9.94 25.6234 9.1 25.6234 8.45ZM29.4994 12H28.1894V4.91H29.4994V12ZM36.5681 4.91L34.0881 9.28V12H32.7881V9.28L30.3281 4.91H31.7281L33.4781 7.97L35.2281 4.91H36.5681ZM42.4115 12H41.0615L40.6015 10.64H37.7815L37.3215 12H36.0215L38.5115 4.91H39.9215L42.4115 12ZM40.2015 9.48L39.1915 6.49L38.1815 9.48H40.2015Z" fill="#FFCBCB"/>
</g>
<defs>
<clipPath id="clip0_577_7142">
<rect width="64" height="64" fill="white"/>
</clipPath>
</defs>
</svg>
