<svg width="64" height="64" viewBox="0 0 64 64" fill="none" xmlns="http://www.w3.org/2000/svg">
<g clip-path="url(#clip0_184_1681)">
<rect width="64" height="64" fill="#FF1919"/>
<rect width="64" height="64" rx="6" fill="#FF1919"/>
<path d="M24.5497 30.504C24.5497 33.288 24.2377 35.52 22.4137 37.368L23.9017 39.24L22.0537 40.68L20.4697 38.712C19.5337 39.12 18.5257 39.312 17.4937 39.312C15.6697 39.312 13.8937 38.688 12.5977 37.392C10.7497 35.544 10.4377 33.288 10.4377 30.504C10.4377 27.72 10.7497 25.44 12.5977 23.592C13.8937 22.296 15.6697 21.672 17.4937 21.672C19.3177 21.672 21.0937 22.296 22.3897 23.592C24.2377 25.44 24.5497 27.72 24.5497 30.504ZM21.4057 30.504C21.4057 28.944 21.3577 26.832 20.1817 25.608C19.5097 24.888 18.4777 24.48 17.4937 24.48C16.5097 24.48 15.4777 24.888 14.8057 25.608C13.6297 26.832 13.5817 28.944 13.5817 30.504C13.5817 32.064 13.6297 34.152 14.8057 35.376C15.4777 36.096 16.5097 36.504 17.4937 36.504C17.8537 36.504 18.2377 36.456 18.5977 36.336L16.7737 34.056L18.6457 32.592L20.5177 34.968C21.3577 33.72 21.4057 31.896 21.4057 30.504ZM38.5387 39H27.5467V21.984H30.6427V36.072H38.5387V39ZM53.822 39H50.462L47.63 32.568H43.862V39H40.742V21.984H47.918C51.974 21.984 53.822 24.528 53.822 27.264C53.822 29.544 52.574 31.344 50.702 32.04L53.822 39ZM50.726 27.264C50.726 25.896 49.67 24.696 47.918 24.696H43.838V29.784H47.966C49.718 29.784 50.726 28.872 50.726 27.264Z" fill="#FFCBCB"/>
<path d="M9.92635 59H5.04235V57.9L8.02335 54.347C8.28735 54.039 8.41935 53.676 8.41935 53.368C8.41935 52.829 8.07835 52.411 7.45135 52.411C6.80235 52.411 6.42835 52.906 6.42835 53.511H5.02035C5.03135 52.169 5.88935 51.212 7.46235 51.212C8.77135 51.212 9.81635 52.015 9.81635 53.357C9.81635 54.039 9.40935 54.71 8.98035 55.227L6.86835 57.757H9.92635V59ZM16.6838 57.46H15.7158V59H14.3408V57.46H10.9308V56.162L13.7358 51.355H15.2318L12.3828 56.217H14.3408V54.424H15.7158V56.217H16.6838V57.46ZM22.7372 55.172C22.7372 56.426 22.6162 57.702 21.8242 58.461C21.4282 58.846 20.8672 59.143 20.0422 59.143C19.2172 59.143 18.6562 58.846 18.2602 58.461C17.4682 57.702 17.3472 56.426 17.3472 55.172C17.3472 53.918 17.4682 52.642 18.2602 51.883C18.6562 51.498 19.2172 51.212 20.0422 51.212C20.8672 51.212 21.4282 51.498 21.8242 51.883C22.6162 52.642 22.7372 53.918 22.7372 55.172ZM21.3402 55.172C21.3402 54.182 21.4612 52.477 20.0422 52.477C18.6232 52.477 18.7442 54.182 18.7442 55.172C18.7442 56.162 18.6232 57.867 20.0422 57.867C21.4612 57.867 21.3402 56.162 21.3402 55.172ZM27.5147 59H26.1397V52.983L24.4567 54.204V52.708L26.3377 51.355H27.5147V59ZM35.2841 55.172C35.2841 56.426 35.1631 57.702 34.3711 58.461C33.9751 58.846 33.4141 59.143 32.5891 59.143C31.7641 59.143 31.2031 58.846 30.8071 58.461C30.0151 57.702 29.8941 56.426 29.8941 55.172C29.8941 53.918 30.0151 52.642 30.8071 51.883C31.2031 51.498 31.7641 51.212 32.5891 51.212C33.4141 51.212 33.9751 51.498 34.3711 51.883C35.1631 52.642 35.2841 53.918 35.2841 55.172ZM33.8871 55.172C33.8871 54.182 34.0081 52.477 32.5891 52.477C31.1701 52.477 31.2911 54.182 31.2911 55.172C31.2911 56.162 31.1701 57.867 32.5891 57.867C34.0081 57.867 33.8871 56.162 33.8871 55.172ZM41.5135 52.455L38.5325 59H37.0475L40.0395 52.587H36.2445V51.355H41.5135V52.455ZM46.434 56.228H42.661V54.996H46.434V56.228ZM52.9228 55.172C52.9228 56.426 52.8018 57.702 52.0098 58.461C51.6138 58.846 51.0528 59.143 50.2278 59.143C49.4028 59.143 48.8418 58.846 48.4458 58.461C47.6538 57.702 47.5328 56.426 47.5328 55.172C47.5328 53.918 47.6538 52.642 48.4458 51.883C48.8418 51.498 49.4028 51.212 50.2278 51.212C51.0528 51.212 51.6138 51.498 52.0098 51.883C52.8018 52.642 52.9228 53.918 52.9228 55.172ZM51.5258 55.172C51.5258 54.182 51.6468 52.477 50.2278 52.477C48.8088 52.477 48.9298 54.182 48.9298 55.172C48.9298 56.162 48.8088 57.867 50.2278 57.867C51.6468 57.867 51.5258 56.162 51.5258 55.172ZM59.1962 55.172C59.1962 56.426 59.0752 57.702 58.2832 58.461C57.8872 58.846 57.3262 59.143 56.5012 59.143C55.6762 59.143 55.1152 58.846 54.7192 58.461C53.9272 57.702 53.8062 56.426 53.8062 55.172C53.8062 53.918 53.9272 52.642 54.7192 51.883C55.1152 51.498 55.6762 51.212 56.5012 51.212C57.3262 51.212 57.8872 51.498 58.2832 51.883C59.0752 52.642 59.1962 53.918 59.1962 55.172ZM57.7992 55.172C57.7992 54.182 57.9202 52.477 56.5012 52.477C55.0822 52.477 55.2032 54.182 55.2032 55.172C55.2032 56.162 55.0822 57.867 56.5012 57.867C57.9202 57.867 57.7992 56.162 57.7992 55.172Z" fill="#FFCBCB"/>
<rect x="59.5007" y="3" width="2.1215" height="10.6075" transform="rotate(45 59.5007 3)" fill="#FFCBCB"/>
<rect x="61.0007" y="10.501" width="2.1215" height="10.6075" transform="rotate(135 61.0007 10.501)" fill="#FFCBCB"/>
<path d="M10.3 8.46C10.3 9.62 10.17 10.55 9.41 11.32L10.03 12.1L9.26 12.7L8.6 11.88C8.21 12.05 7.79 12.13 7.36 12.13C6.6 12.13 5.86 11.87 5.32 11.33C4.55 10.56 4.42 9.62 4.42 8.46C4.42 7.3 4.55 6.35 5.32 5.58C5.86 5.04 6.6 4.78 7.36 4.78C8.12 4.78 8.86 5.04 9.4 5.58C10.17 6.35 10.3 7.3 10.3 8.46ZM8.99 8.46C8.99 7.81 8.97 6.93 8.48 6.42C8.2 6.12 7.77 5.95 7.36 5.95C6.95 5.95 6.52 6.12 6.24 6.42C5.75 6.93 5.73 7.81 5.73 8.46C5.73 9.11 5.75 9.98 6.24 10.49C6.52 10.79 6.95 10.96 7.36 10.96C7.51 10.96 7.67 10.94 7.82 10.89L7.06 9.94L7.84 9.33L8.62 10.32C8.97 9.8 8.99 9.04 8.99 8.46ZM12.8588 12H11.5488V4.91H12.8588V12ZM20.0975 8.45C20.0975 9.43 19.9975 10.49 19.2675 11.24C18.7975 11.73 18.0875 12 17.2775 12H14.5175V4.91H17.2775C18.0875 4.91 18.7975 5.18 19.2675 5.67C19.9975 6.42 20.0975 7.47 20.0975 8.45ZM18.7875 8.45C18.7875 7.8 18.7775 6.97 18.2775 6.47C18.0375 6.23 17.6875 6.07 17.2775 6.07H15.8075V10.84H17.2775C17.6875 10.84 18.0375 10.68 18.2775 10.44C18.7775 9.94 18.7875 9.1 18.7875 8.45ZM26.9334 8.45C26.9334 9.43 26.8334 10.49 26.1034 11.24C25.6334 11.73 24.9234 12 24.1134 12H21.3534V4.91H24.1134C24.9234 4.91 25.6334 5.18 26.1034 5.67C26.8334 6.42 26.9334 7.47 26.9334 8.45ZM25.6234 8.45C25.6234 7.8 25.6134 6.97 25.1134 6.47C24.8734 6.23 24.5234 6.07 24.1134 6.07H22.6434V10.84H24.1134C24.5234 10.84 24.8734 10.68 25.1134 10.44C25.6134 9.94 25.6234 9.1 25.6234 8.45ZM29.4994 12H28.1894V4.91H29.4994V12ZM36.5681 4.91L34.0881 9.28V12H32.7881V9.28L30.3281 4.91H31.7281L33.4781 7.97L35.2281 4.91H36.5681ZM42.4115 12H41.0615L40.6015 10.64H37.7815L37.3215 12H36.0215L38.5115 4.91H39.9215L42.4115 12ZM40.2015 9.48L39.1915 6.49L38.1815 9.48H40.2015Z" fill="#FFCBCB"/>
</g>
<defs>
<clipPath id="clip0_184_1681">
<rect width="64" height="64" fill="white"/>
</clipPath>
</defs>
</svg>
