<svg width="64" height="64" viewBox="0 0 64 64" fill="none" xmlns="http://www.w3.org/2000/svg">
<g clip-path="url(#clip0_340_6980)">
<rect width="64" height="64" fill="#0000FF"/>
<rect width="64" height="64" rx="6" fill="#0000FF"/>
<path d="M23.0486 39H19.6886L16.8566 32.568H13.0886V39H9.96856V21.984H17.1446C21.2006 21.984 23.0486 24.528 23.0486 27.264C23.0486 29.544 21.8006 31.344 19.9286 32.04L23.0486 39ZM19.9526 27.264C19.9526 25.896 18.8966 24.696 17.1446 24.696H13.0646V29.784H17.1926C18.9446 29.784 19.9526 28.872 19.9526 27.264ZM38.1969 33.576C38.0529 34.92 37.5489 36.288 36.5649 37.296C35.2929 38.592 33.5169 39.312 31.6929 39.312C29.8689 39.312 28.1649 38.712 26.8689 37.416C25.0209 35.568 24.7569 33.288 24.7569 30.504C24.7569 27.72 25.0209 25.44 26.8689 23.592C28.1649 22.296 29.8689 21.672 31.6929 21.672C33.5169 21.672 35.2929 22.344 36.5649 23.64C37.5489 24.648 38.0529 25.992 38.1969 27.336H35.0289C34.9569 26.592 34.6929 26.064 34.2609 25.536C33.7089 24.84 32.7489 24.48 31.6929 24.48C30.7089 24.48 29.7489 24.888 29.0769 25.608C27.9009 26.832 27.9009 28.944 27.9009 30.504C27.9009 32.064 27.9009 34.176 29.0769 35.4C29.7489 36.12 30.7089 36.528 31.6929 36.528C32.7489 36.528 33.7089 36.144 34.2609 35.448C34.6929 34.92 34.9569 34.32 35.0289 33.576H38.1969ZM54.0352 39H50.9392V31.584H43.9552V39H40.8592V21.984H43.9552V28.632H50.9392V21.984H54.0352V39Z" fill="#EEEEFF"/>
<path d="M9.92635 59H5.04235V57.9L8.02335 54.347C8.28735 54.039 8.41935 53.676 8.41935 53.368C8.41935 52.829 8.07835 52.411 7.45135 52.411C6.80235 52.411 6.42835 52.906 6.42835 53.511H5.02035C5.03135 52.169 5.88935 51.212 7.46235 51.212C8.77135 51.212 9.81635 52.015 9.81635 53.357C9.81635 54.039 9.40935 54.71 8.98035 55.227L6.86835 57.757H9.92635V59ZM16.6838 57.46H15.7158V59H14.3408V57.46H10.9308V56.162L13.7358 51.355H15.2318L12.3828 56.217H14.3408V54.424H15.7158V56.217H16.6838V57.46ZM22.7372 55.172C22.7372 56.426 22.6162 57.702 21.8242 58.461C21.4282 58.846 20.8672 59.143 20.0422 59.143C19.2172 59.143 18.6562 58.846 18.2602 58.461C17.4682 57.702 17.3472 56.426 17.3472 55.172C17.3472 53.918 17.4682 52.642 18.2602 51.883C18.6562 51.498 19.2172 51.212 20.0422 51.212C20.8672 51.212 21.4282 51.498 21.8242 51.883C22.6162 52.642 22.7372 53.918 22.7372 55.172ZM21.3402 55.172C21.3402 54.182 21.4612 52.477 20.0422 52.477C18.6232 52.477 18.7442 54.182 18.7442 55.172C18.7442 56.162 18.6232 57.867 20.0422 57.867C21.4612 57.867 21.3402 56.162 21.3402 55.172ZM29.0107 55.172C29.0107 56.426 28.8897 57.702 28.0977 58.461C27.7017 58.846 27.1407 59.143 26.3157 59.143C25.4907 59.143 24.9297 58.846 24.5337 58.461C23.7417 57.702 23.6207 56.426 23.6207 55.172C23.6207 53.918 23.7417 52.642 24.5337 51.883C24.9297 51.498 25.4907 51.212 26.3157 51.212C27.1407 51.212 27.7017 51.498 28.0977 51.883C28.8897 52.642 29.0107 53.918 29.0107 55.172ZM27.6137 55.172C27.6137 54.182 27.7347 52.477 26.3157 52.477C24.8967 52.477 25.0177 54.182 25.0177 55.172C25.0177 56.162 24.8967 57.867 26.3157 57.867C27.7347 57.867 27.6137 56.162 27.6137 55.172ZM35.3171 56.404C35.3171 58.021 34.3601 59.154 32.6551 59.154C31.1371 59.154 30.0811 58.208 30.0041 56.767H31.3791C31.4121 57.526 31.9401 57.933 32.6661 57.933C33.5901 57.933 33.9201 57.262 33.9201 56.437C33.9201 55.634 33.5461 55.051 32.6661 55.051C32.2151 55.051 31.7641 55.282 31.5221 55.667H30.1691L30.3341 51.355H34.9761V52.587H31.5221L31.4341 54.336C31.7861 54.006 32.2701 53.841 32.9521 53.841C34.4921 53.841 35.3171 54.952 35.3171 56.404ZM41.5905 56.404C41.5905 58.021 40.6335 59.154 38.9285 59.154C37.4105 59.154 36.3545 58.208 36.2775 56.767H37.6525C37.6855 57.526 38.2135 57.933 38.9395 57.933C39.8635 57.933 40.1935 57.262 40.1935 56.437C40.1935 55.634 39.8195 55.051 38.9395 55.051C38.4885 55.051 38.0375 55.282 37.7955 55.667H36.4425L36.6075 51.355H41.2495V52.587H37.7955L37.7075 54.336C38.0595 54.006 38.5435 53.841 39.2255 53.841C40.7655 53.841 41.5905 54.952 41.5905 56.404ZM46.434 56.228H42.661V54.996H46.434V56.228ZM52.9228 55.172C52.9228 56.426 52.8018 57.702 52.0098 58.461C51.6138 58.846 51.0528 59.143 50.2278 59.143C49.4028 59.143 48.8418 58.846 48.4458 58.461C47.6538 57.702 47.5328 56.426 47.5328 55.172C47.5328 53.918 47.6538 52.642 48.4458 51.883C48.8418 51.498 49.4028 51.212 50.2278 51.212C51.0528 51.212 51.6138 51.498 52.0098 51.883C52.8018 52.642 52.9228 53.918 52.9228 55.172ZM51.5258 55.172C51.5258 54.182 51.6468 52.477 50.2278 52.477C48.8088 52.477 48.9298 54.182 48.9298 55.172C48.9298 56.162 48.8088 57.867 50.2278 57.867C51.6468 57.867 51.5258 56.162 51.5258 55.172ZM58.9322 59H54.0482V57.9L57.0292 54.347C57.2932 54.039 57.4252 53.676 57.4252 53.368C57.4252 52.829 57.0842 52.411 56.4572 52.411C55.8082 52.411 55.4342 52.906 55.4342 53.511H54.0262C54.0372 52.169 54.8952 51.212 56.4682 51.212C57.7772 51.212 58.8222 52.015 58.8222 53.357C58.8222 54.039 58.4152 54.71 57.9862 55.227L55.8742 57.757H58.9322V59Z" fill="#EEEEFF"/>
<path d="M11.95 12H10.7V6.94L8.86 11.9H7.91L6.08 6.88V12H4.83V4.91H6.57L8.43 9.96L10.3 4.91H11.95V12ZM18.5793 8.46C18.5793 9.62 18.4493 10.56 17.6793 11.33C17.1393 11.87 16.3993 12.13 15.6393 12.13C14.8793 12.13 14.1393 11.87 13.5993 11.33C12.8293 10.56 12.6993 9.62 12.6993 8.46C12.6993 7.3 12.8293 6.35 13.5993 5.58C14.1393 5.04 14.8793 4.78 15.6393 4.78C16.3993 4.78 17.1393 5.04 17.6793 5.58C18.4493 6.35 18.5793 7.3 18.5793 8.46ZM17.2693 8.46C17.2693 7.81 17.2493 6.93 16.7593 6.42C16.4793 6.12 16.0493 5.95 15.6393 5.95C15.2293 5.95 14.7993 6.12 14.5193 6.42C14.0293 6.93 14.0093 7.81 14.0093 8.46C14.0093 9.11 14.0293 9.98 14.5193 10.49C14.7993 10.79 15.2293 10.96 15.6393 10.96C16.0493 10.96 16.4793 10.79 16.7593 10.49C17.2493 9.98 17.2693 9.11 17.2693 8.46ZM24.908 8.45C24.908 9.43 24.808 10.49 24.078 11.24C23.608 11.73 22.898 12 22.088 12H19.328V4.91H22.088C22.898 4.91 23.608 5.18 24.078 5.67C24.808 6.42 24.908 7.47 24.908 8.45ZM23.598 8.45C23.598 7.8 23.588 6.97 23.088 6.47C22.848 6.23 22.498 6.07 22.088 6.07H20.618V10.84H22.088C22.498 10.84 22.848 10.68 23.088 10.44C23.588 9.94 23.598 9.1 23.598 8.45ZM31.134 8.46C31.134 9.62 31.004 10.56 30.234 11.33C29.694 11.87 28.954 12.13 28.194 12.13C27.434 12.13 26.694 11.87 26.154 11.33C25.384 10.56 25.254 9.62 25.254 8.46C25.254 7.3 25.384 6.35 26.154 5.58C26.694 5.04 27.434 4.78 28.194 4.78C28.954 4.78 29.694 5.04 30.234 5.58C31.004 6.35 31.134 7.3 31.134 8.46ZM29.824 8.46C29.824 7.81 29.804 6.93 29.314 6.42C29.034 6.12 28.604 5.95 28.194 5.95C27.784 5.95 27.354 6.12 27.074 6.42C26.584 6.93 26.564 7.81 26.564 8.46C26.564 9.11 26.584 9.98 27.074 10.49C27.354 10.79 27.784 10.96 28.194 10.96C28.604 10.96 29.034 10.79 29.314 10.49C29.804 9.98 29.824 9.11 29.824 8.46ZM37.5527 12H36.2227L33.1527 7.13V12H31.8827V4.91H33.2527L36.2827 9.71V4.91H37.5527V12Z" fill="#EEEEFF"/>
<path d="M54.634 4.5C55.0189 3.83333 55.9811 3.83333 56.366 4.5L59.3971 9.75C59.782 10.4167 59.3009 11.25 58.5311 11.25H52.4689C51.6991 11.25 51.218 10.4167 51.6029 9.75L54.634 4.5Z" fill="#EEEEFF"/>
</g>
<defs>
<clipPath id="clip0_340_6980">
<rect width="64" height="64" fill="white"/>
</clipPath>
</defs>
</svg>
