<svg width="64" height="64" viewBox="0 0 64 64" fill="none" xmlns="http://www.w3.org/2000/svg">
<g clip-path="url(#clip0_156_889)">
<rect width="64" height="64" fill="#149618"/>
<rect width="64" height="64" rx="6" fill="#149618"/>
<path d="M24.2204 39H20.8604L18.0284 32.568H14.2604V39H11.1404V21.984H18.3164C22.3724 21.984 24.2204 24.528 24.2204 27.264C24.2204 29.544 22.9724 31.344 21.1004 32.04L24.2204 39ZM21.1244 27.264C21.1244 25.896 20.0684 24.696 18.3164 24.696H14.2364V29.784H18.3644C20.1164 29.784 21.1244 28.872 21.1244 27.264ZM37.6888 26.52L32.1928 41.136C31.5688 42.768 30.5368 44.256 28.3528 44.256C27.3688 44.256 26.6968 44.112 26.0488 43.944V41.448C26.8408 41.592 27.0568 41.664 27.7288 41.664C28.2808 41.664 28.8568 41.472 29.1688 40.728L29.8888 38.976L24.9688 26.52H28.2568L31.5208 35.544L34.6408 26.52H37.6888ZM52.8633 39H49.7673V31.584H42.7833V39H39.6873V21.984H42.7833V28.632H49.7673V21.984H52.8633V39Z" fill="#CCFFCE"/>
<path d="M8.69435 59H7.31935V52.983L5.63635 54.204V52.708L7.51735 51.355H8.69435V59ZM16.3758 55.04C16.3758 56.162 16.3098 57.537 15.5288 58.373C15.1108 58.813 14.5718 59.143 13.6588 59.143C12.8778 59.143 12.3058 58.89 11.9098 58.516C11.4808 58.109 11.2608 57.559 11.2608 57.108H12.6468C12.6688 57.339 12.7678 57.548 12.9108 57.691C13.0868 57.878 13.3508 57.966 13.7248 57.966C14.0878 57.966 14.2968 57.834 14.4838 57.658C14.9018 57.273 15.0118 56.58 15.0118 55.909C14.6708 56.316 14.0218 56.47 13.5598 56.47C11.9098 56.47 11.0408 55.414 11.0408 53.863C11.0408 52.367 11.9318 51.212 13.6698 51.212C15.1218 51.212 16.0238 52.235 16.2548 53.61C16.3428 54.105 16.3758 54.556 16.3758 55.04ZM14.8798 53.918C14.8798 53.082 14.4838 52.433 13.6698 52.433C12.8448 52.433 12.4378 53.027 12.4378 53.918C12.4378 54.71 12.8448 55.348 13.6918 55.348C14.4288 55.348 14.8798 54.721 14.8798 53.918ZM22.7372 55.172C22.7372 56.426 22.6162 57.702 21.8242 58.461C21.4282 58.846 20.8672 59.143 20.0422 59.143C19.2172 59.143 18.6562 58.846 18.2602 58.461C17.4682 57.702 17.3472 56.426 17.3472 55.172C17.3472 53.918 17.4682 52.642 18.2602 51.883C18.6562 51.498 19.2172 51.212 20.0422 51.212C20.8672 51.212 21.4282 51.498 21.8242 51.883C22.6162 52.642 22.7372 53.918 22.7372 55.172ZM21.3402 55.172C21.3402 54.182 21.4612 52.477 20.0422 52.477C18.6232 52.477 18.7442 54.182 18.7442 55.172C18.7442 56.162 18.6232 57.867 20.0422 57.867C21.4612 57.867 21.3402 56.162 21.3402 55.172ZM28.7467 59H23.8627V57.9L26.8437 54.347C27.1077 54.039 27.2397 53.676 27.2397 53.368C27.2397 52.829 26.8987 52.411 26.2717 52.411C25.6227 52.411 25.2487 52.906 25.2487 53.511H23.8407C23.8517 52.169 24.7097 51.212 26.2827 51.212C27.5917 51.212 28.6367 52.015 28.6367 53.357C28.6367 54.039 28.2297 54.71 27.8007 55.227L25.6887 57.757H28.7467V59ZM35.1301 56.811C35.1301 58.34 33.9641 59.143 32.5231 59.143C31.1151 59.143 29.9711 58.219 29.9271 56.789H31.3021C31.3571 57.537 31.8631 57.933 32.5341 57.933C33.2161 57.933 33.7441 57.515 33.7441 56.789C33.7441 55.997 33.1171 55.634 32.4021 55.634H31.8301V54.435H32.4021C33.1501 54.435 33.5791 54.127 33.5791 53.412C33.5791 52.862 33.1391 52.411 32.5341 52.411C31.8521 52.411 31.3681 52.752 31.3571 53.445H29.9711C29.9931 52.004 31.1371 51.212 32.5341 51.212C33.9201 51.212 34.9761 52.059 34.9761 53.379C34.9761 54.072 34.5691 54.776 33.8761 55.018C34.6681 55.238 35.1301 56.019 35.1301 56.811ZM41.5025 56.855C41.5025 58.34 40.2375 59.154 38.8625 59.154C37.4875 59.154 36.2225 58.34 36.2225 56.855C36.2225 56.096 36.6075 55.37 37.3335 55.029C36.7725 54.721 36.3765 54.028 36.3765 53.379C36.3765 51.938 37.5315 51.212 38.8625 51.212C40.1935 51.212 41.3485 51.938 41.3485 53.379C41.3485 54.028 40.9525 54.721 40.3915 55.029C41.1175 55.37 41.5025 56.096 41.5025 56.855ZM39.9625 53.401C39.9625 52.84 39.5885 52.411 38.8625 52.411C38.1255 52.411 37.7625 52.84 37.7625 53.401C37.7625 53.962 38.1365 54.424 38.8625 54.424C39.5885 54.424 39.9625 53.962 39.9625 53.401ZM40.1165 56.767C40.1165 56.14 39.6765 55.634 38.8625 55.634C38.0485 55.634 37.6085 56.14 37.6085 56.767C37.6085 57.471 38.1145 57.933 38.8625 57.933C39.6105 57.933 40.1165 57.471 40.1165 56.767ZM46.434 56.228H42.661V54.996H46.434V56.228ZM52.9228 55.172C52.9228 56.426 52.8018 57.702 52.0098 58.461C51.6138 58.846 51.0528 59.143 50.2278 59.143C49.4028 59.143 48.8418 58.846 48.4458 58.461C47.6538 57.702 47.5328 56.426 47.5328 55.172C47.5328 53.918 47.6538 52.642 48.4458 51.883C48.8418 51.498 49.4028 51.212 50.2278 51.212C51.0528 51.212 51.6138 51.498 52.0098 51.883C52.8018 52.642 52.9228 53.918 52.9228 55.172ZM51.5258 55.172C51.5258 54.182 51.6468 52.477 50.2278 52.477C48.8088 52.477 48.9298 54.182 48.9298 55.172C48.9298 56.162 48.8088 57.867 50.2278 57.867C51.6468 57.867 51.5258 56.162 51.5258 55.172ZM59.1962 55.172C59.1962 56.426 59.0752 57.702 58.2832 58.461C57.8872 58.846 57.3262 59.143 56.5012 59.143C55.6762 59.143 55.1152 58.846 54.7192 58.461C53.9272 57.702 53.8062 56.426 53.8062 55.172C53.8062 53.918 53.9272 52.642 54.7192 51.883C55.1152 51.498 55.6762 51.212 56.5012 51.212C57.3262 51.212 57.8872 51.498 58.2832 51.883C59.0752 52.642 59.1962 53.918 59.1962 55.172ZM57.7992 55.172C57.7992 54.182 57.9202 52.477 56.5012 52.477C55.0822 52.477 55.2032 54.182 55.2032 55.172C55.2032 56.162 55.0822 57.867 56.5012 57.867C57.9202 57.867 57.7992 56.162 57.7992 55.172Z" fill="#CCFFCE"/>
<path d="M10.11 7.18C10.11 8.54 9.24 9.46 7.61 9.46H6.11V12H4.83V4.91H7.61C9.24 4.91 10.11 5.82 10.11 7.18ZM8.81 7.19C8.81 6.51 8.42 6.04 7.56 6.04H6.11V8.33H7.56C8.42 8.33 8.81 7.87 8.81 7.19ZM12.3802 12H11.0702V4.91H12.3802V12ZM18.939 6.08H15.329V7.98H18.549V9.15H15.329V12H14.039V4.91H18.939V6.08Z" fill="#CCFFCE"/>
<rect x="53" y="4" width="7" height="7" rx="3.5" stroke="#CCFFCE" stroke-width="2"/>
</g>
<defs>
<clipPath id="clip0_156_889">
<rect width="64" height="64" fill="white"/>
</clipPath>
</defs>
</svg>
