<svg width="64" height="64" viewBox="0 0 64 64" fill="none" xmlns="http://www.w3.org/2000/svg">
<g clip-path="url(#clip0_317_20433)">
<rect width="64" height="64" fill="#F49A27"/>
<path d="M10.39 12H9.04L8.58 10.64H5.76L5.3 12H4L6.49 4.91H7.9L10.39 12ZM8.18 9.48L7.17 6.49L6.16 9.48H8.18ZM13.0579 11.99C12.8079 12.04 12.7579 12.06 12.5079 12.06C11.6579 12.06 11.0879 11.65 11.0879 10.66V4.77H12.3479V10.45C12.3479 10.75 12.4179 10.95 12.8479 10.95C12.9579 10.95 12.9879 10.94 13.0579 10.94V11.99ZM21.9453 12H20.6153L17.5453 7.13V12H16.2753V4.91H17.6453L20.6753 9.71V4.91H21.9453V12ZM28.0893 11.94C27.8793 12.03 27.7693 12.08 27.4693 12.08C26.9293 12.08 26.6293 11.74 26.5893 11.35C26.3493 11.77 25.7493 12.13 25.0093 12.13C23.7693 12.13 23.1293 11.35 23.1293 10.5C23.1293 9.51 23.8993 8.94 24.8893 8.87L26.4193 8.76V8.44C26.4193 7.95 26.2493 7.62 25.5393 7.62C24.9593 7.62 24.6193 7.88 24.5893 8.36H23.3793C23.4493 7.19 24.3793 6.67 25.5393 6.67C26.4293 6.67 27.1893 6.95 27.4893 7.73C27.6193 8.06 27.6393 8.43 27.6393 8.78V10.71C27.6393 10.95 27.7193 11.04 27.9293 11.04C28.0093 11.04 28.0893 11.02 28.0893 11.02V11.94ZM26.4193 9.93V9.69L25.0993 9.79C24.7193 9.82 24.3493 10.05 24.3493 10.47C24.3493 10.87 24.6993 11.12 25.0893 11.12C25.8693 11.12 26.4193 10.7 26.4193 9.93ZM33.6045 12H32.3545V8.79C32.3545 8.19 32.1545 7.82 31.4945 7.82C30.7445 7.82 30.4245 8.62 30.4245 9.26V12H29.1745V4.78H30.4245V7.35C30.7245 6.91 31.3045 6.67 31.8445 6.67C32.9545 6.67 33.6045 7.46 33.6045 8.53V12ZM39.5327 12H38.4527L38.3727 11.43C38.0627 11.91 37.4827 12.12 36.9127 12.12C36.3927 12.12 35.9627 11.94 35.6427 11.68C35.0227 11.17 34.7227 10.39 34.7227 9.41C34.7227 8.39 35.0327 7.6 35.6527 7.09C35.9727 6.83 36.3927 6.67 36.9227 6.67C37.5827 6.67 38.0627 6.89 38.2827 7.16V4.78H39.5327V12ZM38.3427 9.39C38.3427 8.64 38.1427 7.72 37.1627 7.72C36.7727 7.72 36.5027 7.9 36.3227 8.13C36.0627 8.47 35.9927 8.94 35.9927 9.39C35.9927 9.84 36.0627 10.32 36.3227 10.66C36.5027 10.89 36.7727 11.07 37.1627 11.07C38.1427 11.07 38.3427 10.14 38.3427 9.39ZM45.6186 11.94C45.4086 12.03 45.2986 12.08 44.9986 12.08C44.4586 12.08 44.1586 11.74 44.1186 11.35C43.8786 11.77 43.2786 12.13 42.5386 12.13C41.2986 12.13 40.6586 11.35 40.6586 10.5C40.6586 9.51 41.4286 8.94 42.4186 8.87L43.9486 8.76V8.44C43.9486 7.95 43.7786 7.62 43.0686 7.62C42.4886 7.62 42.1486 7.88 42.1186 8.36H40.9086C40.9786 7.19 41.9086 6.67 43.0686 6.67C43.9586 6.67 44.7186 6.95 45.0186 7.73C45.1486 8.06 45.1686 8.43 45.1686 8.78V10.71C45.1686 10.95 45.2486 11.04 45.4586 11.04C45.5386 11.04 45.6186 11.02 45.6186 11.02V11.94ZM43.9486 9.93V9.69L42.6286 9.79C42.2486 9.82 41.8786 10.05 41.8786 10.47C41.8786 10.87 42.2286 11.12 42.6186 11.12C43.3986 11.12 43.9486 10.7 43.9486 9.93Z" fill="#B15300"/>
<rect x="58.5007" y="4" width="2.1215" height="10.6075" transform="rotate(45 58.5007 4)" fill="#B15300"/>
<rect x="60.0007" y="11.501" width="2.1215" height="10.6075" transform="rotate(135 60.0007 11.501)" fill="#B15300"/>
<path d="M24.9658 33.936C24.9658 35.52 24.3898 36.648 23.5498 37.488C22.2538 38.784 20.2618 39.312 18.1738 39.312C16.3738 39.312 14.4778 38.832 13.0858 37.56C12.0778 36.648 11.3098 35.208 11.3098 33.6H14.4778C14.4778 34.44 14.8618 35.184 15.3658 35.688C16.0858 36.408 17.2378 36.6 18.2218 36.6C19.3978 36.6 20.5258 36.36 21.1738 35.688C21.5578 35.28 21.8458 34.872 21.8458 34.056C21.8458 32.808 20.8858 32.232 19.8298 32.04C18.6778 31.824 17.1898 31.776 16.0618 31.584C13.7098 31.2 11.7418 29.664 11.7418 26.832C11.7418 25.488 12.3418 24.36 13.2298 23.472C14.3578 22.368 16.2298 21.672 18.2218 21.672C20.0458 21.672 21.8218 22.248 22.9738 23.328C23.9818 24.288 24.6778 25.536 24.7018 26.952H21.5338C21.5098 26.352 21.1978 25.704 20.7898 25.272C20.2378 24.696 19.1098 24.36 18.1978 24.36C17.2378 24.36 16.1338 24.576 15.4378 25.296C15.0778 25.68 14.8618 26.112 14.8618 26.736C14.8618 27.84 15.5818 28.416 16.5898 28.584C17.6698 28.752 19.1818 28.872 20.2858 29.016C22.8298 29.376 24.9658 31.032 24.9658 33.936ZM38.4979 38.856C37.9939 39.072 37.7299 39.192 37.0099 39.192C35.7139 39.192 34.9939 38.376 34.8979 37.44C34.3219 38.448 32.8819 39.312 31.1059 39.312C28.1299 39.312 26.5939 37.44 26.5939 35.4C26.5939 33.024 28.4419 31.656 30.8179 31.488L34.4899 31.224V30.456C34.4899 29.28 34.0819 28.488 32.3779 28.488C30.9859 28.488 30.1699 29.112 30.0979 30.264H27.1939C27.3619 27.456 29.5939 26.208 32.3779 26.208C34.5139 26.208 36.3379 26.88 37.0579 28.752C37.3699 29.544 37.4179 30.432 37.4179 31.272V35.904C37.4179 36.48 37.6099 36.696 38.1139 36.696C38.3059 36.696 38.4979 36.648 38.4979 36.648V38.856ZM34.4899 34.032V33.456L31.3219 33.696C30.4099 33.768 29.5219 34.32 29.5219 35.328C29.5219 36.288 30.3619 36.888 31.2979 36.888C33.1699 36.888 34.4899 35.88 34.4899 34.032ZM51.7345 39H48.7345V31.296C48.7345 29.856 48.2545 28.968 46.6705 28.968C44.8705 28.968 44.1025 30.888 44.1025 32.424V39H41.1025V21.672H44.1025V27.84C44.8225 26.784 46.2145 26.208 47.5105 26.208C50.1745 26.208 51.7345 28.104 51.7345 30.672V39Z" fill="#B15300"/>
<path d="M8.69435 59H7.31935V52.983L5.63635 54.204V52.708L7.51735 51.355H8.69435V59ZM16.3758 55.04C16.3758 56.162 16.3098 57.537 15.5288 58.373C15.1108 58.813 14.5718 59.143 13.6588 59.143C12.8778 59.143 12.3058 58.89 11.9098 58.516C11.4808 58.109 11.2608 57.559 11.2608 57.108H12.6468C12.6688 57.339 12.7678 57.548 12.9108 57.691C13.0868 57.878 13.3508 57.966 13.7248 57.966C14.0878 57.966 14.2968 57.834 14.4838 57.658C14.9018 57.273 15.0118 56.58 15.0118 55.909C14.6708 56.316 14.0218 56.47 13.5598 56.47C11.9098 56.47 11.0408 55.414 11.0408 53.863C11.0408 52.367 11.9318 51.212 13.6698 51.212C15.1218 51.212 16.0238 52.235 16.2548 53.61C16.3428 54.105 16.3758 54.556 16.3758 55.04ZM14.8798 53.918C14.8798 53.082 14.4838 52.433 13.6698 52.433C12.8448 52.433 12.4378 53.027 12.4378 53.918C12.4378 54.71 12.8448 55.348 13.6918 55.348C14.4288 55.348 14.8798 54.721 14.8798 53.918ZM22.7372 55.172C22.7372 56.426 22.6162 57.702 21.8242 58.461C21.4282 58.846 20.8672 59.143 20.0422 59.143C19.2172 59.143 18.6562 58.846 18.2602 58.461C17.4682 57.702 17.3472 56.426 17.3472 55.172C17.3472 53.918 17.4682 52.642 18.2602 51.883C18.6562 51.498 19.2172 51.212 20.0422 51.212C20.8672 51.212 21.4282 51.498 21.8242 51.883C22.6162 52.642 22.7372 53.918 22.7372 55.172ZM21.3402 55.172C21.3402 54.182 21.4612 52.477 20.0422 52.477C18.6232 52.477 18.7442 54.182 18.7442 55.172C18.7442 56.162 18.6232 57.867 20.0422 57.867C21.4612 57.867 21.3402 56.162 21.3402 55.172ZM29.0107 55.172C29.0107 56.426 28.8897 57.702 28.0977 58.461C27.7017 58.846 27.1407 59.143 26.3157 59.143C25.4907 59.143 24.9297 58.846 24.5337 58.461C23.7417 57.702 23.6207 56.426 23.6207 55.172C23.6207 53.918 23.7417 52.642 24.5337 51.883C24.9297 51.498 25.4907 51.212 26.3157 51.212C27.1407 51.212 27.7017 51.498 28.0977 51.883C28.8897 52.642 29.0107 53.918 29.0107 55.172ZM27.6137 55.172C27.6137 54.182 27.7347 52.477 26.3157 52.477C24.8967 52.477 25.0177 54.182 25.0177 55.172C25.0177 56.162 24.8967 57.867 26.3157 57.867C27.7347 57.867 27.6137 56.162 27.6137 55.172ZM35.3391 56.481C35.3391 57.977 34.4481 59.143 32.7101 59.143C31.2581 59.143 30.3561 58.109 30.1251 56.734C30.0371 56.239 30.0041 55.788 30.0041 55.304C30.0041 54.182 30.0701 52.807 30.8511 51.971C31.2691 51.531 31.8081 51.212 32.7211 51.212C33.5021 51.212 34.0741 51.454 34.4701 51.828C34.8991 52.235 35.1191 52.785 35.1191 53.236H33.7331C33.7111 53.005 33.6121 52.796 33.4691 52.653C33.2931 52.466 33.0291 52.378 32.6551 52.378C32.2921 52.378 32.0831 52.51 31.8961 52.686C31.4781 53.071 31.3681 53.764 31.3681 54.435C31.7091 54.028 32.3581 53.874 32.8201 53.874C34.4701 53.874 35.3391 54.93 35.3391 56.481ZM33.9421 56.426C33.9421 55.634 33.5351 54.996 32.6881 54.996C31.9511 54.996 31.5001 55.623 31.5001 56.426C31.5001 57.262 31.8961 57.911 32.7101 57.911C33.5351 57.911 33.9421 57.317 33.9421 56.426ZM41.5575 55.172C41.5575 56.426 41.4365 57.702 40.6445 58.461C40.2485 58.846 39.6875 59.143 38.8625 59.143C38.0375 59.143 37.4765 58.846 37.0805 58.461C36.2885 57.702 36.1675 56.426 36.1675 55.172C36.1675 53.918 36.2885 52.642 37.0805 51.883C37.4765 51.498 38.0375 51.212 38.8625 51.212C39.6875 51.212 40.2485 51.498 40.6445 51.883C41.4365 52.642 41.5575 53.918 41.5575 55.172ZM40.1605 55.172C40.1605 54.182 40.2815 52.477 38.8625 52.477C37.4435 52.477 37.5645 54.182 37.5645 55.172C37.5645 56.162 37.4435 57.867 38.8625 57.867C40.2815 57.867 40.1605 56.162 40.1605 55.172ZM46.434 56.228H42.661V54.996H46.434V56.228ZM52.9228 55.172C52.9228 56.426 52.8018 57.702 52.0098 58.461C51.6138 58.846 51.0528 59.143 50.2278 59.143C49.4028 59.143 48.8418 58.846 48.4458 58.461C47.6538 57.702 47.5328 56.426 47.5328 55.172C47.5328 53.918 47.6538 52.642 48.4458 51.883C48.8418 51.498 49.4028 51.212 50.2278 51.212C51.0528 51.212 51.6138 51.498 52.0098 51.883C52.8018 52.642 52.9228 53.918 52.9228 55.172ZM51.5258 55.172C51.5258 54.182 51.6468 52.477 50.2278 52.477C48.8088 52.477 48.9298 54.182 48.9298 55.172C48.9298 56.162 48.8088 57.867 50.2278 57.867C51.6468 57.867 51.5258 56.162 51.5258 55.172ZM59.1962 55.172C59.1962 56.426 59.0752 57.702 58.2832 58.461C57.8872 58.846 57.3262 59.143 56.5012 59.143C55.6762 59.143 55.1152 58.846 54.7192 58.461C53.9272 57.702 53.8062 56.426 53.8062 55.172C53.8062 53.918 53.9272 52.642 54.7192 51.883C55.1152 51.498 55.6762 51.212 56.5012 51.212C57.3262 51.212 57.8872 51.498 58.2832 51.883C59.0752 52.642 59.1962 53.918 59.1962 55.172ZM57.7992 55.172C57.7992 54.182 57.9202 52.477 56.5012 52.477C55.0822 52.477 55.2032 54.182 55.2032 55.172C55.2032 56.162 55.0822 57.867 56.5012 57.867C57.9202 57.867 57.7992 56.162 57.7992 55.172Z" fill="#B15300"/>
</g>
<defs>
<clipPath id="clip0_317_20433">
<rect width="64" height="64" fill="white"/>
</clipPath>
</defs>
</svg>
