<svg width="64" height="64" viewBox="0 0 64 64" fill="none" xmlns="http://www.w3.org/2000/svg">
<g clip-path="url(#clip0_156_1033)">
<rect width="64" height="64" fill="#149618"/>
<rect width="64" height="64" rx="6" fill="#149618"/>
<path d="M25.458 33.936C25.458 35.52 24.882 36.648 24.042 37.488C22.746 38.784 20.754 39.312 18.666 39.312C16.866 39.312 14.97 38.832 13.578 37.56C12.57 36.648 11.802 35.208 11.802 33.6H14.97C14.97 34.44 15.354 35.184 15.858 35.688C16.578 36.408 17.73 36.6 18.714 36.6C19.89 36.6 21.018 36.36 21.666 35.688C22.05 35.28 22.338 34.872 22.338 34.056C22.338 32.808 21.378 32.232 20.322 32.04C19.17 31.824 17.682 31.776 16.554 31.584C14.202 31.2 12.234 29.664 12.234 26.832C12.234 25.488 12.834 24.36 13.722 23.472C14.85 22.368 16.722 21.672 18.714 21.672C20.538 21.672 22.314 22.248 23.466 23.328C24.474 24.288 25.17 25.536 25.194 26.952H22.026C22.002 26.352 21.69 25.704 21.282 25.272C20.73 24.696 19.602 24.36 18.69 24.36C17.73 24.36 16.626 24.576 15.93 25.296C15.57 25.68 15.354 26.112 15.354 26.736C15.354 27.84 16.074 28.416 17.082 28.584C18.162 28.752 19.674 28.872 20.778 29.016C23.322 29.376 25.458 31.032 25.458 33.936ZM38.9901 38.856C38.4861 39.072 38.2221 39.192 37.5021 39.192C36.2061 39.192 35.4861 38.376 35.3901 37.44C34.8141 38.448 33.3741 39.312 31.5981 39.312C28.6221 39.312 27.0861 37.44 27.0861 35.4C27.0861 33.024 28.9341 31.656 31.3101 31.488L34.9821 31.224V30.456C34.9821 29.28 34.5741 28.488 32.8701 28.488C31.4781 28.488 30.6621 29.112 30.5901 30.264H27.6861C27.8541 27.456 30.0861 26.208 32.8701 26.208C35.0061 26.208 36.8301 26.88 37.5501 28.752C37.8621 29.544 37.9101 30.432 37.9101 31.272V35.904C37.9101 36.48 38.1021 36.696 38.6061 36.696C38.7981 36.696 38.9901 36.648 38.9901 36.648V38.856ZM34.9821 34.032V33.456L31.8141 33.696C30.9021 33.768 30.0141 34.32 30.0141 35.328C30.0141 36.288 30.8541 36.888 31.7901 36.888C33.6621 36.888 34.9821 35.88 34.9821 34.032ZM52.7067 39H41.7147V21.984H44.8107V36.072H52.7067V39Z" fill="#CCFFCE"/>
<path d="M9.92635 59H5.04235V57.9L8.02335 54.347C8.28735 54.039 8.41935 53.676 8.41935 53.368C8.41935 52.829 8.07835 52.411 7.45135 52.411C6.80235 52.411 6.42835 52.906 6.42835 53.511H5.02035C5.03135 52.169 5.88935 51.212 7.46235 51.212C8.77135 51.212 9.81635 52.015 9.81635 53.357C9.81635 54.039 9.40935 54.71 8.98035 55.227L6.86835 57.757H9.92635V59ZM14.9678 59H13.5928V52.983L11.9098 54.204V52.708L13.7908 51.355H14.9678V59ZM22.7372 55.172C22.7372 56.426 22.6162 57.702 21.8242 58.461C21.4282 58.846 20.8672 59.143 20.0422 59.143C19.2172 59.143 18.6562 58.846 18.2602 58.461C17.4682 57.702 17.3472 56.426 17.3472 55.172C17.3472 53.918 17.4682 52.642 18.2602 51.883C18.6562 51.498 19.2172 51.212 20.0422 51.212C20.8672 51.212 21.4282 51.498 21.8242 51.883C22.6162 52.642 22.7372 53.918 22.7372 55.172ZM21.3402 55.172C21.3402 54.182 21.4612 52.477 20.0422 52.477C18.6232 52.477 18.7442 54.182 18.7442 55.172C18.7442 56.162 18.6232 57.867 20.0422 57.867C21.4612 57.867 21.3402 56.162 21.3402 55.172ZM28.7467 59H23.8627V57.9L26.8437 54.347C27.1077 54.039 27.2397 53.676 27.2397 53.368C27.2397 52.829 26.8987 52.411 26.2717 52.411C25.6227 52.411 25.2487 52.906 25.2487 53.511H23.8407C23.8517 52.169 24.7097 51.212 26.2827 51.212C27.5917 51.212 28.6367 52.015 28.6367 53.357C28.6367 54.039 28.2297 54.71 27.8007 55.227L25.6887 57.757H28.7467V59ZM35.2291 56.855C35.2291 58.34 33.9641 59.154 32.5891 59.154C31.2141 59.154 29.9491 58.34 29.9491 56.855C29.9491 56.096 30.3341 55.37 31.0601 55.029C30.4991 54.721 30.1031 54.028 30.1031 53.379C30.1031 51.938 31.2581 51.212 32.5891 51.212C33.9201 51.212 35.0751 51.938 35.0751 53.379C35.0751 54.028 34.6791 54.721 34.1181 55.029C34.8441 55.37 35.2291 56.096 35.2291 56.855ZM33.6891 53.401C33.6891 52.84 33.3151 52.411 32.5891 52.411C31.8521 52.411 31.4891 52.84 31.4891 53.401C31.4891 53.962 31.8631 54.424 32.5891 54.424C33.3151 54.424 33.6891 53.962 33.6891 53.401ZM33.8431 56.767C33.8431 56.14 33.4031 55.634 32.5891 55.634C31.7751 55.634 31.3351 56.14 31.3351 56.767C31.3351 57.471 31.8411 57.933 32.5891 57.933C33.3371 57.933 33.8431 57.471 33.8431 56.767ZM41.5025 56.855C41.5025 58.34 40.2375 59.154 38.8625 59.154C37.4875 59.154 36.2225 58.34 36.2225 56.855C36.2225 56.096 36.6075 55.37 37.3335 55.029C36.7725 54.721 36.3765 54.028 36.3765 53.379C36.3765 51.938 37.5315 51.212 38.8625 51.212C40.1935 51.212 41.3485 51.938 41.3485 53.379C41.3485 54.028 40.9525 54.721 40.3915 55.029C41.1175 55.37 41.5025 56.096 41.5025 56.855ZM39.9625 53.401C39.9625 52.84 39.5885 52.411 38.8625 52.411C38.1255 52.411 37.7625 52.84 37.7625 53.401C37.7625 53.962 38.1365 54.424 38.8625 54.424C39.5885 54.424 39.9625 53.962 39.9625 53.401ZM40.1165 56.767C40.1165 56.14 39.6765 55.634 38.8625 55.634C38.0485 55.634 37.6085 56.14 37.6085 56.767C37.6085 57.471 38.1145 57.933 38.8625 57.933C39.6105 57.933 40.1165 57.471 40.1165 56.767ZM46.434 56.228H42.661V54.996H46.434V56.228ZM52.9228 55.172C52.9228 56.426 52.8018 57.702 52.0098 58.461C51.6138 58.846 51.0528 59.143 50.2278 59.143C49.4028 59.143 48.8418 58.846 48.4458 58.461C47.6538 57.702 47.5328 56.426 47.5328 55.172C47.5328 53.918 47.6538 52.642 48.4458 51.883C48.8418 51.498 49.4028 51.212 50.2278 51.212C51.0528 51.212 51.6138 51.498 52.0098 51.883C52.8018 52.642 52.9228 53.918 52.9228 55.172ZM51.5258 55.172C51.5258 54.182 51.6468 52.477 50.2278 52.477C48.8088 52.477 48.9298 54.182 48.9298 55.172C48.9298 56.162 48.8088 57.867 50.2278 57.867C51.6468 57.867 51.5258 56.162 51.5258 55.172ZM59.1962 55.172C59.1962 56.426 59.0752 57.702 58.2832 58.461C57.8872 58.846 57.3262 59.143 56.5012 59.143C55.6762 59.143 55.1152 58.846 54.7192 58.461C53.9272 57.702 53.8062 56.426 53.8062 55.172C53.8062 53.918 53.9272 52.642 54.7192 51.883C55.1152 51.498 55.6762 51.212 56.5012 51.212C57.3262 51.212 57.8872 51.498 58.2832 51.883C59.0752 52.642 59.1962 53.918 59.1962 55.172ZM57.7992 55.172C57.7992 54.182 57.9202 52.477 56.5012 52.477C55.0822 52.477 55.2032 54.182 55.2032 55.172C55.2032 56.162 55.0822 57.867 56.5012 57.867C57.9202 57.867 57.7992 56.162 57.7992 55.172Z" fill="#CCFFCE"/>
<path d="M11.95 12H10.7V6.94L8.86 11.9H7.91L6.08 6.88V12H4.83V4.91H6.57L8.43 9.96L10.3 4.91H11.95V12ZM19.0793 8.46C19.0793 9.62 18.9493 10.56 18.1793 11.33C17.6393 11.87 16.8993 12.13 16.1393 12.13C15.3793 12.13 14.6393 11.87 14.0993 11.33C13.3293 10.56 13.1993 9.62 13.1993 8.46C13.1993 7.3 13.3293 6.35 14.0993 5.58C14.6393 5.04 15.3793 4.78 16.1393 4.78C16.8993 4.78 17.6393 5.04 18.1793 5.58C18.9493 6.35 19.0793 7.3 19.0793 8.46ZM17.7693 8.46C17.7693 7.81 17.7493 6.93 17.2593 6.42C16.9793 6.12 16.5493 5.95 16.1393 5.95C15.7293 5.95 15.2993 6.12 15.0193 6.42C14.5293 6.93 14.5093 7.81 14.5093 8.46C14.5093 9.11 14.5293 9.98 15.0193 10.49C15.2993 10.79 15.7293 10.96 16.1393 10.96C16.5493 10.96 16.9793 10.79 17.2593 10.49C17.7493 9.98 17.7693 9.11 17.7693 8.46ZM25.908 8.45C25.908 9.43 25.808 10.49 25.078 11.24C24.608 11.73 23.898 12 23.088 12H20.328V4.91H23.088C23.898 4.91 24.608 5.18 25.078 5.67C25.808 6.42 25.908 7.47 25.908 8.45ZM24.598 8.45C24.598 7.8 24.588 6.97 24.088 6.47C23.848 6.23 23.498 6.07 23.088 6.07H21.618V10.84H23.088C23.498 10.84 23.848 10.68 24.088 10.44C24.588 9.94 24.598 9.1 24.598 8.45ZM32.634 8.46C32.634 9.62 32.504 10.56 31.734 11.33C31.194 11.87 30.454 12.13 29.694 12.13C28.934 12.13 28.194 11.87 27.654 11.33C26.884 10.56 26.754 9.62 26.754 8.46C26.754 7.3 26.884 6.35 27.654 5.58C28.194 5.04 28.934 4.78 29.694 4.78C30.454 4.78 31.194 5.04 31.734 5.58C32.504 6.35 32.634 7.3 32.634 8.46ZM31.324 8.46C31.324 7.81 31.304 6.93 30.814 6.42C30.534 6.12 30.104 5.95 29.694 5.95C29.284 5.95 28.854 6.12 28.574 6.42C28.084 6.93 28.064 7.81 28.064 8.46C28.064 9.11 28.084 9.98 28.574 10.49C28.854 10.79 29.284 10.96 29.694 10.96C30.104 10.96 30.534 10.79 30.814 10.49C31.304 9.98 31.324 9.11 31.324 8.46ZM39.5527 12H38.2227L35.1527 7.13V12H33.8827V4.91H35.2527L38.2827 9.71V4.91H39.5527V12Z" fill="#CCFFCE"/>
<rect x="58.5007" y="3" width="2.1215" height="10.6075" transform="rotate(45 58.5007 3)" fill="#CCFFCE"/>
<rect x="60.0007" y="10.501" width="2.1215" height="10.6075" transform="rotate(135 60.0007 10.501)" fill="#CCFFCE"/>
</g>
<defs>
<clipPath id="clip0_156_1033">
<rect width="64" height="64" fill="white"/>
</clipPath>
</defs>
</svg>
