<svg width="64" height="64" viewBox="0 0 64 64" fill="none" xmlns="http://www.w3.org/2000/svg">
<g clip-path="url(#clip0_232_1992)">
<rect width="64" height="64" fill="#621495"/>
<rect width="64" height="64" rx="6" fill="#621495"/>
<path d="M25.3877 33.936C25.3877 35.52 24.8117 36.648 23.9717 37.488C22.6757 38.784 20.6837 39.312 18.5957 39.312C16.7957 39.312 14.8997 38.832 13.5077 37.56C12.4997 36.648 11.7317 35.208 11.7317 33.6H14.8997C14.8997 34.44 15.2837 35.184 15.7877 35.688C16.5077 36.408 17.6597 36.6 18.6437 36.6C19.8197 36.6 20.9477 36.36 21.5957 35.688C21.9797 35.28 22.2677 34.872 22.2677 34.056C22.2677 32.808 21.3077 32.232 20.2517 32.04C19.0997 31.824 17.6117 31.776 16.4837 31.584C14.1317 31.2 12.1637 29.664 12.1637 26.832C12.1637 25.488 12.7637 24.36 13.6517 23.472C14.7797 22.368 16.6517 21.672 18.6437 21.672C20.4677 21.672 22.2437 22.248 23.3957 23.328C24.4037 24.288 25.0997 25.536 25.1237 26.952H21.9557C21.9317 26.352 21.6197 25.704 21.2117 25.272C20.6597 24.696 19.5317 24.36 18.6197 24.36C17.6597 24.36 16.5557 24.576 15.8597 25.296C15.4997 25.68 15.2837 26.112 15.2837 26.736C15.2837 27.84 16.0037 28.416 17.0117 28.584C18.0917 28.752 19.6037 28.872 20.7077 29.016C23.2517 29.376 25.3877 31.032 25.3877 33.936ZM38.1278 34.584C38.0798 35.568 37.7438 36.552 37.1678 37.296C36.3038 38.376 34.7918 39.264 32.8958 39.264C30.9998 39.264 29.4158 38.352 28.5518 37.296C27.6158 36.12 27.1838 34.56 27.1838 32.736C27.1838 30.912 27.6158 29.352 28.5518 28.176C29.4158 27.12 30.9998 26.208 32.8958 26.208C34.7918 26.208 36.3038 27.096 37.1678 28.176C37.7438 28.92 38.0798 29.904 38.1278 30.888H35.1758C35.1518 30.432 35.0078 30.048 34.8158 29.736C34.4558 29.184 33.8078 28.8 32.8958 28.8C32.0798 28.8 31.4798 29.136 31.0718 29.568C30.3518 30.36 30.2318 31.56 30.2318 32.736C30.2318 33.912 30.3518 35.088 31.0718 35.88C31.4798 36.312 32.0798 36.672 32.8958 36.672C33.8078 36.672 34.4558 36.288 34.8158 35.736C35.0078 35.424 35.1518 35.04 35.1758 34.584H38.1278ZM51.3126 39H48.3126V31.296C48.3126 29.856 47.8326 28.968 46.2486 28.968C44.4486 28.968 43.6806 30.888 43.6806 32.424V39H40.6806V21.672H43.6806V27.84C44.4006 26.784 45.7926 26.208 47.0886 26.208C49.7526 26.208 51.3126 28.104 51.3126 30.672V39Z" fill="#EFD8FF"/>
<path d="M8.69435 59H7.31935V52.983L5.63635 54.204V52.708L7.51735 51.355H8.69435V59ZM16.4968 56.404C16.4968 58.021 15.5398 59.154 13.8348 59.154C12.3168 59.154 11.2608 58.208 11.1838 56.767H12.5588C12.5918 57.526 13.1198 57.933 13.8458 57.933C14.7698 57.933 15.0998 57.262 15.0998 56.437C15.0998 55.634 14.7258 55.051 13.8458 55.051C13.3948 55.051 12.9438 55.282 12.7018 55.667H11.3488L11.5138 51.355H16.1558V52.587H12.7018L12.6138 54.336C12.9658 54.006 13.4498 53.841 14.1318 53.841C15.6718 53.841 16.4968 54.952 16.4968 56.404ZM22.7372 55.172C22.7372 56.426 22.6162 57.702 21.8242 58.461C21.4282 58.846 20.8672 59.143 20.0422 59.143C19.2172 59.143 18.6562 58.846 18.2602 58.461C17.4682 57.702 17.3472 56.426 17.3472 55.172C17.3472 53.918 17.4682 52.642 18.2602 51.883C18.6562 51.498 19.2172 51.212 20.0422 51.212C20.8672 51.212 21.4282 51.498 21.8242 51.883C22.6162 52.642 22.7372 53.918 22.7372 55.172ZM21.3402 55.172C21.3402 54.182 21.4612 52.477 20.0422 52.477C18.6232 52.477 18.7442 54.182 18.7442 55.172C18.7442 56.162 18.6232 57.867 20.0422 57.867C21.4612 57.867 21.3402 56.162 21.3402 55.172ZM29.0107 55.172C29.0107 56.426 28.8897 57.702 28.0977 58.461C27.7017 58.846 27.1407 59.143 26.3157 59.143C25.4907 59.143 24.9297 58.846 24.5337 58.461C23.7417 57.702 23.6207 56.426 23.6207 55.172C23.6207 53.918 23.7417 52.642 24.5337 51.883C24.9297 51.498 25.4907 51.212 26.3157 51.212C27.1407 51.212 27.7017 51.498 28.0977 51.883C28.8897 52.642 29.0107 53.918 29.0107 55.172ZM27.6137 55.172C27.6137 54.182 27.7347 52.477 26.3157 52.477C24.8967 52.477 25.0177 54.182 25.0177 55.172C25.0177 56.162 24.8967 57.867 26.3157 57.867C27.7347 57.867 27.6137 56.162 27.6137 55.172ZM35.3391 56.481C35.3391 57.977 34.4481 59.143 32.7101 59.143C31.2581 59.143 30.3561 58.109 30.1251 56.734C30.0371 56.239 30.0041 55.788 30.0041 55.304C30.0041 54.182 30.0701 52.807 30.8511 51.971C31.2691 51.531 31.8081 51.212 32.7211 51.212C33.5021 51.212 34.0741 51.454 34.4701 51.828C34.8991 52.235 35.1191 52.785 35.1191 53.236H33.7331C33.7111 53.005 33.6121 52.796 33.4691 52.653C33.2931 52.466 33.0291 52.378 32.6551 52.378C32.2921 52.378 32.0831 52.51 31.8961 52.686C31.4781 53.071 31.3681 53.764 31.3681 54.435C31.7091 54.028 32.3581 53.874 32.8201 53.874C34.4701 53.874 35.3391 54.93 35.3391 56.481ZM33.9421 56.426C33.9421 55.634 33.5351 54.996 32.6881 54.996C31.9511 54.996 31.5001 55.623 31.5001 56.426C31.5001 57.262 31.8961 57.911 32.7101 57.911C33.5351 57.911 33.9421 57.317 33.9421 56.426ZM40.0615 59H38.6865V52.983L37.0035 54.204V52.708L38.8845 51.355H40.0615V59ZM46.434 56.228H42.661V54.996H46.434V56.228ZM52.9228 55.172C52.9228 56.426 52.8018 57.702 52.0098 58.461C51.6138 58.846 51.0528 59.143 50.2278 59.143C49.4028 59.143 48.8418 58.846 48.4458 58.461C47.6538 57.702 47.5328 56.426 47.5328 55.172C47.5328 53.918 47.6538 52.642 48.4458 51.883C48.8418 51.498 49.4028 51.212 50.2278 51.212C51.0528 51.212 51.6138 51.498 52.0098 51.883C52.8018 52.642 52.9228 53.918 52.9228 55.172ZM51.5258 55.172C51.5258 54.182 51.6468 52.477 50.2278 52.477C48.8088 52.477 48.9298 54.182 48.9298 55.172C48.9298 56.162 48.8088 57.867 50.2278 57.867C51.6468 57.867 51.5258 56.162 51.5258 55.172ZM59.1962 55.172C59.1962 56.426 59.0752 57.702 58.2832 58.461C57.8872 58.846 57.3262 59.143 56.5012 59.143C55.6762 59.143 55.1152 58.846 54.7192 58.461C53.9272 57.702 53.8062 56.426 53.8062 55.172C53.8062 53.918 53.9272 52.642 54.7192 51.883C55.1152 51.498 55.6762 51.212 56.5012 51.212C57.3262 51.212 57.8872 51.498 58.2832 51.883C59.0752 52.642 59.1962 53.918 59.1962 55.172ZM57.7992 55.172C57.7992 54.182 57.9202 52.477 56.5012 52.477C55.0822 52.477 55.2032 54.182 55.2032 55.172C55.2032 56.162 55.0822 57.867 56.5012 57.867C57.9202 57.867 57.7992 56.162 57.7992 55.172Z" fill="#EFD8FF"/>
<rect x="58.5007" y="3" width="2.1215" height="10.6075" transform="rotate(45 58.5007 3)" fill="#EFD8FF"/>
<rect x="60.0007" y="10.501" width="2.1215" height="10.6075" transform="rotate(135 60.0007 10.501)" fill="#EFD8FF"/>
<path d="M11.95 12H10.7V6.94L8.86 11.9H7.91L6.08 6.88V12H4.83V4.91H6.57L8.43 9.96L10.3 4.91H11.95V12ZM19.0793 8.46C19.0793 9.62 18.9493 10.56 18.1793 11.33C17.6393 11.87 16.8993 12.13 16.1393 12.13C15.3793 12.13 14.6393 11.87 14.0993 11.33C13.3293 10.56 13.1993 9.62 13.1993 8.46C13.1993 7.3 13.3293 6.35 14.0993 5.58C14.6393 5.04 15.3793 4.78 16.1393 4.78C16.8993 4.78 17.6393 5.04 18.1793 5.58C18.9493 6.35 19.0793 7.3 19.0793 8.46ZM17.7693 8.46C17.7693 7.81 17.7493 6.93 17.2593 6.42C16.9793 6.12 16.5493 5.95 16.1393 5.95C15.7293 5.95 15.2993 6.12 15.0193 6.42C14.5293 6.93 14.5093 7.81 14.5093 8.46C14.5093 9.11 14.5293 9.98 15.0193 10.49C15.2993 10.79 15.7293 10.96 16.1393 10.96C16.5493 10.96 16.9793 10.79 17.2593 10.49C17.7493 9.98 17.7693 9.11 17.7693 8.46ZM25.908 8.45C25.908 9.43 25.808 10.49 25.078 11.24C24.608 11.73 23.898 12 23.088 12H20.328V4.91H23.088C23.898 4.91 24.608 5.18 25.078 5.67C25.808 6.42 25.908 7.47 25.908 8.45ZM24.598 8.45C24.598 7.8 24.588 6.97 24.088 6.47C23.848 6.23 23.498 6.07 23.088 6.07H21.618V10.84H23.088C23.498 10.84 23.848 10.68 24.088 10.44C24.588 9.94 24.598 9.1 24.598 8.45ZM32.634 8.46C32.634 9.62 32.504 10.56 31.734 11.33C31.194 11.87 30.454 12.13 29.694 12.13C28.934 12.13 28.194 11.87 27.654 11.33C26.884 10.56 26.754 9.62 26.754 8.46C26.754 7.3 26.884 6.35 27.654 5.58C28.194 5.04 28.934 4.78 29.694 4.78C30.454 4.78 31.194 5.04 31.734 5.58C32.504 6.35 32.634 7.3 32.634 8.46ZM31.324 8.46C31.324 7.81 31.304 6.93 30.814 6.42C30.534 6.12 30.104 5.95 29.694 5.95C29.284 5.95 28.854 6.12 28.574 6.42C28.084 6.93 28.064 7.81 28.064 8.46C28.064 9.11 28.084 9.98 28.574 10.49C28.854 10.79 29.284 10.96 29.694 10.96C30.104 10.96 30.534 10.79 30.814 10.49C31.304 9.98 31.324 9.11 31.324 8.46ZM39.5527 12H38.2227L35.1527 7.13V12H33.8827V4.91H35.2527L38.2827 9.71V4.91H39.5527V12Z" fill="#EFD8FF"/>
</g>
<defs>
<clipPath id="clip0_232_1992">
<rect width="64" height="64" fill="white"/>
</clipPath>
</defs>
</svg>
