<svg width="64" height="64" viewBox="0 0 64 64" fill="none" xmlns="http://www.w3.org/2000/svg">
<g clip-path="url(#clip0_156_871)">
<rect width="64" height="64" fill="#149618"/>
<rect width="64" height="64" rx="6" fill="#149618"/>
<path d="M26.8526 33.936C26.8526 35.52 26.2766 36.648 25.4366 37.488C24.1406 38.784 22.1486 39.312 20.0606 39.312C18.2606 39.312 16.3646 38.832 14.9726 37.56C13.9646 36.648 13.1966 35.208 13.1966 33.6H16.3646C16.3646 34.44 16.7486 35.184 17.2526 35.688C17.9726 36.408 19.1246 36.6 20.1086 36.6C21.2846 36.6 22.4126 36.36 23.0606 35.688C23.4446 35.28 23.7326 34.872 23.7326 34.056C23.7326 32.808 22.7726 32.232 21.7166 32.04C20.5646 31.824 19.0766 31.776 17.9486 31.584C15.5966 31.2 13.6286 29.664 13.6286 26.832C13.6286 25.488 14.2286 24.36 15.1166 23.472C16.2446 22.368 18.1166 21.672 20.1086 21.672C21.9326 21.672 23.7086 22.248 24.8606 23.328C25.8686 24.288 26.5646 25.536 26.5886 26.952H23.4206C23.3966 26.352 23.0846 25.704 22.6766 25.272C22.1246 24.696 20.9966 24.36 20.0846 24.36C19.1246 24.36 18.0206 24.576 17.3246 25.296C16.9646 25.68 16.7486 26.112 16.7486 26.736C16.7486 27.84 17.4686 28.416 18.4766 28.584C19.5566 28.752 21.0686 28.872 22.1726 29.016C24.7166 29.376 26.8526 31.032 26.8526 33.936ZM40.1926 39H37.6006L37.4086 37.632C36.6646 38.784 35.2726 39.288 33.9046 39.288C32.6566 39.288 31.6246 38.856 30.8566 38.232C29.3686 37.008 28.6486 35.136 28.6486 32.784C28.6486 30.336 29.3926 28.44 30.8806 27.216C31.6486 26.592 32.6566 26.208 33.9286 26.208C35.5126 26.208 36.6646 26.736 37.1926 27.384V21.672H40.1926V39ZM37.3366 32.736C37.3366 30.936 36.8566 28.728 34.5046 28.728C33.5686 28.728 32.9206 29.16 32.4886 29.712C31.8646 30.528 31.6966 31.656 31.6966 32.736C31.6966 33.816 31.8646 34.968 32.4886 35.784C32.9206 36.336 33.5686 36.768 34.5046 36.768C36.8566 36.768 37.3366 34.536 37.3366 32.736ZM51.1987 29.304C50.8627 29.232 50.5027 29.184 50.1667 29.184C48.0547 29.184 46.9507 30.696 46.9507 32.712V39H43.9267V26.52H46.4707L46.7347 28.392C47.3107 26.952 48.7987 26.352 50.2627 26.352C50.5747 26.352 50.8867 26.376 51.1987 26.424V29.304Z" fill="#CCFFCE"/>
<path d="M9.92635 59H5.04235V57.9L8.02335 54.347C8.28735 54.039 8.41935 53.676 8.41935 53.368C8.41935 52.829 8.07835 52.411 7.45135 52.411C6.80235 52.411 6.42835 52.906 6.42835 53.511H5.02035C5.03135 52.169 5.88935 51.212 7.46235 51.212C8.77135 51.212 9.81635 52.015 9.81635 53.357C9.81635 54.039 9.40935 54.71 8.98035 55.227L6.86835 57.757H9.92635V59ZM16.3098 56.811C16.3098 58.34 15.1438 59.143 13.7028 59.143C12.2948 59.143 11.1508 58.219 11.1068 56.789H12.4818C12.5368 57.537 13.0428 57.933 13.7138 57.933C14.3958 57.933 14.9238 57.515 14.9238 56.789C14.9238 55.997 14.2968 55.634 13.5818 55.634H13.0098V54.435H13.5818C14.3298 54.435 14.7588 54.127 14.7588 53.412C14.7588 52.862 14.3188 52.411 13.7138 52.411C13.0318 52.411 12.5478 52.752 12.5368 53.445H11.1508C11.1728 52.004 12.3168 51.212 13.7138 51.212C15.0998 51.212 16.1558 52.059 16.1558 53.379C16.1558 54.072 15.7488 54.776 15.0558 55.018C15.8478 55.238 16.3098 56.019 16.3098 56.811ZM22.7372 55.172C22.7372 56.426 22.6162 57.702 21.8242 58.461C21.4282 58.846 20.8672 59.143 20.0422 59.143C19.2172 59.143 18.6562 58.846 18.2602 58.461C17.4682 57.702 17.3472 56.426 17.3472 55.172C17.3472 53.918 17.4682 52.642 18.2602 51.883C18.6562 51.498 19.2172 51.212 20.0422 51.212C20.8672 51.212 21.4282 51.498 21.8242 51.883C22.6162 52.642 22.7372 53.918 22.7372 55.172ZM21.3402 55.172C21.3402 54.182 21.4612 52.477 20.0422 52.477C18.6232 52.477 18.7442 54.182 18.7442 55.172C18.7442 56.162 18.6232 57.867 20.0422 57.867C21.4612 57.867 21.3402 56.162 21.3402 55.172ZM27.5147 59H26.1397V52.983L24.4567 54.204V52.708L26.3377 51.355H27.5147V59ZM35.2401 52.455L32.2591 59H30.7741L33.7661 52.587H29.9711V51.355H35.2401V52.455ZM41.5135 52.455L38.5325 59H37.0475L40.0395 52.587H36.2445V51.355H41.5135V52.455ZM46.434 56.228H42.661V54.996H46.434V56.228ZM52.9228 55.172C52.9228 56.426 52.8018 57.702 52.0098 58.461C51.6138 58.846 51.0528 59.143 50.2278 59.143C49.4028 59.143 48.8418 58.846 48.4458 58.461C47.6538 57.702 47.5328 56.426 47.5328 55.172C47.5328 53.918 47.6538 52.642 48.4458 51.883C48.8418 51.498 49.4028 51.212 50.2278 51.212C51.0528 51.212 51.6138 51.498 52.0098 51.883C52.8018 52.642 52.9228 53.918 52.9228 55.172ZM51.5258 55.172C51.5258 54.182 51.6468 52.477 50.2278 52.477C48.8088 52.477 48.9298 54.182 48.9298 55.172C48.9298 56.162 48.8088 57.867 50.2278 57.867C51.6468 57.867 51.5258 56.162 51.5258 55.172ZM59.1962 55.172C59.1962 56.426 59.0752 57.702 58.2832 58.461C57.8872 58.846 57.3262 59.143 56.5012 59.143C55.6762 59.143 55.1152 58.846 54.7192 58.461C53.9272 57.702 53.8062 56.426 53.8062 55.172C53.8062 53.918 53.9272 52.642 54.7192 51.883C55.1152 51.498 55.6762 51.212 56.5012 51.212C57.3262 51.212 57.8872 51.498 58.2832 51.883C59.0752 52.642 59.1962 53.918 59.1962 55.172ZM57.7992 55.172C57.7992 54.182 57.9202 52.477 56.5012 52.477C55.0822 52.477 55.2032 54.182 55.2032 55.172C55.2032 56.162 55.0822 57.867 56.5012 57.867C57.9202 57.867 57.7992 56.162 57.7992 55.172Z" fill="#CCFFCE"/>
<path d="M10.28 12H8.88L7.7 9.32H6.13V12H4.83V4.91H7.82C9.51 4.91 10.28 5.97 10.28 7.11C10.28 8.06 9.76 8.81 8.98 9.1L10.28 12ZM8.99 7.11C8.99 6.54 8.55 6.04 7.82 6.04H6.12V8.16H7.84C8.57 8.16 8.99 7.78 8.99 7.11ZM16.8918 8.46C16.8918 9.62 16.7618 10.56 15.9918 11.33C15.4518 11.87 14.7118 12.13 13.9518 12.13C13.1918 12.13 12.4518 11.87 11.9118 11.33C11.1418 10.56 11.0118 9.62 11.0118 8.46C11.0118 7.3 11.1418 6.35 11.9118 5.58C12.4518 5.04 13.1918 4.78 13.9518 4.78C14.7118 4.78 15.4518 5.04 15.9918 5.58C16.7618 6.35 16.8918 7.3 16.8918 8.46ZM15.5818 8.46C15.5818 7.81 15.5618 6.93 15.0718 6.42C14.7918 6.12 14.3618 5.95 13.9518 5.95C13.5418 5.95 13.1118 6.12 12.8318 6.42C12.3418 6.93 12.3218 7.81 12.3218 8.46C12.3218 9.11 12.3418 9.98 12.8318 10.49C13.1118 10.79 13.5418 10.96 13.9518 10.96C14.3618 10.96 14.7918 10.79 15.0718 10.49C15.5618 9.98 15.5818 9.11 15.5818 8.46ZM23.3005 9.89C23.3005 10.55 23.0605 11.02 22.7105 11.37C22.1705 11.91 21.3405 12.13 20.4705 12.13C19.7205 12.13 18.9305 11.93 18.3505 11.4C17.9305 11.02 17.6105 10.42 17.6105 9.75H18.9305C18.9305 10.1 19.0905 10.41 19.3005 10.62C19.6005 10.92 20.0805 11 20.4905 11C20.9805 11 21.4505 10.9 21.7205 10.62C21.8805 10.45 22.0005 10.28 22.0005 9.94C22.0005 9.42 21.6005 9.18 21.1605 9.1C20.6805 9.01 20.0605 8.99 19.5905 8.91C18.6105 8.75 17.7905 8.11 17.7905 6.93C17.7905 6.37 18.0405 5.9 18.4105 5.53C18.8805 5.07 19.6605 4.78 20.4905 4.78C21.2505 4.78 21.9905 5.02 22.4705 5.47C22.8905 5.87 23.1805 6.39 23.1905 6.98H21.8705C21.8605 6.73 21.7305 6.46 21.5605 6.28C21.3305 6.04 20.8605 5.9 20.4805 5.9C20.0805 5.9 19.6205 5.99 19.3305 6.29C19.1805 6.45 19.0905 6.63 19.0905 6.89C19.0905 7.35 19.3905 7.59 19.8105 7.66C20.2605 7.73 20.8905 7.78 21.3505 7.84C22.4105 7.99 23.3005 8.68 23.3005 9.89ZM29.9489 12H28.6589V8.91H25.7489V12H24.4589V4.91H25.7489V7.68H28.6589V4.91H29.9489V12ZM37.2773 12H35.9473L32.8773 7.13V12H31.6073V4.91H32.9773L36.0073 9.71V4.91H37.2773V12Z" fill="#CCFFCE"/>
<rect x="53" y="4" width="7" height="7" rx="3.5" stroke="#CCFFCE" stroke-width="2"/>
</g>
<defs>
<clipPath id="clip0_156_871">
<rect width="64" height="64" fill="white"/>
</clipPath>
</defs>
</svg>
