<svg width="64" height="64" viewBox="0 0 64 64" fill="none" xmlns="http://www.w3.org/2000/svg">
<g clip-path="url(#clip0_156_1025)">
<rect width="64" height="64" fill="#149618"/>
<rect width="64" height="64" rx="6" fill="#149618"/>
<path d="M25.9268 33.936C25.9268 35.52 25.3508 36.648 24.5108 37.488C23.2148 38.784 21.2228 39.312 19.1348 39.312C17.3348 39.312 15.4388 38.832 14.0468 37.56C13.0388 36.648 12.2708 35.208 12.2708 33.6H15.4388C15.4388 34.44 15.8228 35.184 16.3268 35.688C17.0468 36.408 18.1988 36.6 19.1828 36.6C20.3588 36.6 21.4868 36.36 22.1348 35.688C22.5188 35.28 22.8068 34.872 22.8068 34.056C22.8068 32.808 21.8468 32.232 20.7908 32.04C19.6388 31.824 18.1508 31.776 17.0228 31.584C14.6708 31.2 12.7028 29.664 12.7028 26.832C12.7028 25.488 13.3028 24.36 14.1908 23.472C15.3188 22.368 17.1908 21.672 19.1828 21.672C21.0068 21.672 22.7828 22.248 23.9348 23.328C24.9428 24.288 25.6388 25.536 25.6628 26.952H22.4948C22.4708 26.352 22.1588 25.704 21.7508 25.272C21.1988 24.696 20.0708 24.36 19.1588 24.36C18.1988 24.36 17.0948 24.576 16.3988 25.296C16.0388 25.68 15.8228 26.112 15.8228 26.736C15.8228 27.84 16.5428 28.416 17.5508 28.584C18.6308 28.752 20.1428 28.872 21.2468 29.016C23.7908 29.376 25.9268 31.032 25.9268 33.936ZM39.1468 32.856C39.1468 32.856 39.1228 33.432 39.1228 33.696H30.7708C30.7468 34.656 31.0828 35.568 31.6828 36.144C32.1148 36.552 32.7148 36.912 33.5308 36.912C34.3948 36.912 34.9228 36.744 35.3548 36.312C35.6188 36.048 35.8348 35.712 35.9548 35.256H38.8348C38.7628 36 38.2588 36.984 37.7788 37.56C36.7228 38.808 35.1628 39.312 33.5788 39.312C31.8748 39.312 30.6268 38.712 29.6428 37.776C28.3948 36.576 27.7228 34.824 27.7228 32.784C27.7228 30.792 28.3228 29.016 29.5228 27.792C30.4588 26.832 31.8028 26.208 33.5068 26.208C35.3548 26.208 37.0348 26.952 38.0668 28.512C38.9788 29.88 39.1948 31.296 39.1468 32.856ZM36.1468 31.512C36.1228 30.576 35.8588 29.856 35.3788 29.328C34.9708 28.896 34.3468 28.608 33.4828 28.608C32.5708 28.608 31.8268 28.992 31.3948 29.568C30.9628 30.12 30.7708 30.696 30.7468 31.512H36.1468ZM52.4427 26.52L46.9467 41.136C46.3227 42.768 45.2907 44.256 43.1067 44.256C42.1227 44.256 41.4507 44.112 40.8027 43.944V41.448C41.5947 41.592 41.8107 41.664 42.4827 41.664C43.0347 41.664 43.6107 41.472 43.9227 40.728L44.6427 38.976L39.7227 26.52H43.0107L46.2747 35.544L49.3947 26.52H52.4427Z" fill="#CCFFCE"/>
<path d="M9.92635 59H5.04235V57.9L8.02335 54.347C8.28735 54.039 8.41935 53.676 8.41935 53.368C8.41935 52.829 8.07835 52.411 7.45135 52.411C6.80235 52.411 6.42835 52.906 6.42835 53.511H5.02035C5.03135 52.169 5.88935 51.212 7.46235 51.212C8.77135 51.212 9.81635 52.015 9.81635 53.357C9.81635 54.039 9.40935 54.71 8.98035 55.227L6.86835 57.757H9.92635V59ZM16.4638 55.172C16.4638 56.426 16.3428 57.702 15.5508 58.461C15.1548 58.846 14.5938 59.143 13.7688 59.143C12.9438 59.143 12.3828 58.846 11.9868 58.461C11.1948 57.702 11.0738 56.426 11.0738 55.172C11.0738 53.918 11.1948 52.642 11.9868 51.883C12.3828 51.498 12.9438 51.212 13.7688 51.212C14.5938 51.212 15.1548 51.498 15.5508 51.883C16.3428 52.642 16.4638 53.918 16.4638 55.172ZM15.0668 55.172C15.0668 54.182 15.1878 52.477 13.7688 52.477C12.3498 52.477 12.4708 54.182 12.4708 55.172C12.4708 56.162 12.3498 57.867 13.7688 57.867C15.1878 57.867 15.0668 56.162 15.0668 55.172ZM22.7372 55.172C22.7372 56.426 22.6162 57.702 21.8242 58.461C21.4282 58.846 20.8672 59.143 20.0422 59.143C19.2172 59.143 18.6562 58.846 18.2602 58.461C17.4682 57.702 17.3472 56.426 17.3472 55.172C17.3472 53.918 17.4682 52.642 18.2602 51.883C18.6562 51.498 19.2172 51.212 20.0422 51.212C20.8672 51.212 21.4282 51.498 21.8242 51.883C22.6162 52.642 22.7372 53.918 22.7372 55.172ZM21.3402 55.172C21.3402 54.182 21.4612 52.477 20.0422 52.477C18.6232 52.477 18.7442 54.182 18.7442 55.172C18.7442 56.162 18.6232 57.867 20.0422 57.867C21.4612 57.867 21.3402 56.162 21.3402 55.172ZM29.0107 55.172C29.0107 56.426 28.8897 57.702 28.0977 58.461C27.7017 58.846 27.1407 59.143 26.3157 59.143C25.4907 59.143 24.9297 58.846 24.5337 58.461C23.7417 57.702 23.6207 56.426 23.6207 55.172C23.6207 53.918 23.7417 52.642 24.5337 51.883C24.9297 51.498 25.4907 51.212 26.3157 51.212C27.1407 51.212 27.7017 51.498 28.0977 51.883C28.8897 52.642 29.0107 53.918 29.0107 55.172ZM27.6137 55.172C27.6137 54.182 27.7347 52.477 26.3157 52.477C24.8967 52.477 25.0177 54.182 25.0177 55.172C25.0177 56.162 24.8967 57.867 26.3157 57.867C27.7347 57.867 27.6137 56.162 27.6137 55.172ZM35.1961 55.04C35.1961 56.162 35.1301 57.537 34.3491 58.373C33.9311 58.813 33.3921 59.143 32.4791 59.143C31.6981 59.143 31.1261 58.89 30.7301 58.516C30.3011 58.109 30.0811 57.559 30.0811 57.108H31.4671C31.4891 57.339 31.5881 57.548 31.7311 57.691C31.9071 57.878 32.1711 57.966 32.5451 57.966C32.9081 57.966 33.1171 57.834 33.3041 57.658C33.7221 57.273 33.8321 56.58 33.8321 55.909C33.4911 56.316 32.8421 56.47 32.3801 56.47C30.7301 56.47 29.8611 55.414 29.8611 53.863C29.8611 52.367 30.7521 51.212 32.4901 51.212C33.9421 51.212 34.8441 52.235 35.0751 53.61C35.1631 54.105 35.1961 54.556 35.1961 55.04ZM33.7001 53.918C33.7001 53.082 33.3041 52.433 32.4901 52.433C31.6651 52.433 31.2581 53.027 31.2581 53.918C31.2581 54.71 31.6651 55.348 32.5121 55.348C33.2491 55.348 33.7001 54.721 33.7001 53.918ZM40.0615 59H38.6865V52.983L37.0035 54.204V52.708L38.8845 51.355H40.0615V59ZM46.434 56.228H42.661V54.996H46.434V56.228ZM52.9228 55.172C52.9228 56.426 52.8018 57.702 52.0098 58.461C51.6138 58.846 51.0528 59.143 50.2278 59.143C49.4028 59.143 48.8418 58.846 48.4458 58.461C47.6538 57.702 47.5328 56.426 47.5328 55.172C47.5328 53.918 47.6538 52.642 48.4458 51.883C48.8418 51.498 49.4028 51.212 50.2278 51.212C51.0528 51.212 51.6138 51.498 52.0098 51.883C52.8018 52.642 52.9228 53.918 52.9228 55.172ZM51.5258 55.172C51.5258 54.182 51.6468 52.477 50.2278 52.477C48.8088 52.477 48.9298 54.182 48.9298 55.172C48.9298 56.162 48.8088 57.867 50.2278 57.867C51.6468 57.867 51.5258 56.162 51.5258 55.172ZM59.1962 55.172C59.1962 56.426 59.0752 57.702 58.2832 58.461C57.8872 58.846 57.3262 59.143 56.5012 59.143C55.6762 59.143 55.1152 58.846 54.7192 58.461C53.9272 57.702 53.8062 56.426 53.8062 55.172C53.8062 53.918 53.9272 52.642 54.7192 51.883C55.1152 51.498 55.6762 51.212 56.5012 51.212C57.3262 51.212 57.8872 51.498 58.2832 51.883C59.0752 52.642 59.1962 53.918 59.1962 55.172ZM57.7992 55.172C57.7992 54.182 57.9202 52.477 56.5012 52.477C55.0822 52.477 55.2032 54.182 55.2032 55.172C55.2032 56.162 55.0822 57.867 56.5012 57.867C57.9202 57.867 57.7992 56.162 57.7992 55.172Z" fill="#CCFFCE"/>
<path d="M9.73 6.08H6.12V7.98H9.34V9.15H6.12V12H4.83V4.91H9.73V6.08ZM11.9789 6.08H10.6389V4.79H11.9789V6.08ZM11.9489 12H10.6789V6.8H11.9489V12ZM17.5602 10.39C17.5602 10.89 17.3802 11.26 17.1102 11.53C16.6902 11.95 16.0402 12.13 15.3302 12.13C14.6702 12.13 14.0802 11.94 13.6502 11.53C13.3502 11.24 13.1002 10.81 13.1002 10.32H14.2702C14.2702 10.55 14.3902 10.8 14.5502 10.93C14.7502 11.09 14.9802 11.16 15.3402 11.16C15.7602 11.16 16.4002 11.07 16.4002 10.5C16.4002 10.2 16.2002 10 15.8802 9.95C15.4202 9.88 14.9002 9.85 14.4402 9.75C13.7302 9.6 13.2502 9.02 13.2502 8.36C13.2502 7.83 13.4702 7.46 13.7802 7.19C14.1602 6.86 14.7102 6.67 15.3602 6.67C15.9802 6.67 16.6102 6.87 16.9902 7.28C17.2702 7.58 17.4502 7.97 17.4502 8.35H16.2602C16.2602 8.15 16.1702 7.99 16.0502 7.86C15.9002 7.71 15.6302 7.62 15.3702 7.62C15.1902 7.62 15.0202 7.62 14.8302 7.7C14.6102 7.79 14.4302 7.98 14.4302 8.25C14.4302 8.62 14.7502 8.73 15.0302 8.77C15.5002 8.83 15.6302 8.84 16.1402 8.92C16.9602 9.05 17.5602 9.57 17.5602 10.39ZM23.1651 12H21.9151V8.79C21.9151 8.19 21.7151 7.82 21.0551 7.82C20.3051 7.82 19.9851 8.62 19.9851 9.26V12H18.7351V4.78H19.9851V7.35C20.2851 6.91 20.8651 6.67 21.4051 6.67C22.5151 6.67 23.1651 7.46 23.1651 8.53V12ZM29.0433 9.44C29.0433 9.44 29.0333 9.68 29.0333 9.79H25.5533C25.5433 10.19 25.6833 10.57 25.9333 10.81C26.1133 10.98 26.3633 11.13 26.7033 11.13C27.0633 11.13 27.2833 11.06 27.4633 10.88C27.5733 10.77 27.6633 10.63 27.7133 10.44H28.9133C28.8833 10.75 28.6733 11.16 28.4733 11.4C28.0333 11.92 27.3833 12.13 26.7233 12.13C26.0133 12.13 25.4933 11.88 25.0833 11.49C24.5633 10.99 24.2833 10.26 24.2833 9.41C24.2833 8.58 24.5333 7.84 25.0333 7.33C25.4233 6.93 25.9833 6.67 26.6933 6.67C27.4633 6.67 28.1633 6.98 28.5933 7.63C28.9733 8.2 29.0633 8.79 29.0433 9.44ZM27.7933 8.88C27.7833 8.49 27.6733 8.19 27.4733 7.97C27.3033 7.79 27.0433 7.67 26.6833 7.67C26.3033 7.67 25.9933 7.83 25.8133 8.07C25.6333 8.3 25.5533 8.54 25.5433 8.88H27.7933ZM33.2397 7.96C33.0997 7.93 32.9497 7.91 32.8097 7.91C31.9297 7.91 31.4697 8.54 31.4697 9.38V12H30.2097V6.8H31.2697L31.3797 7.58C31.6197 6.98 32.2397 6.73 32.8497 6.73C32.9797 6.73 33.1097 6.74 33.2397 6.76V7.96ZM35.6866 6.27C35.6866 7.08 35.4666 7.63 34.6366 7.98L34.3066 7.4C34.8266 7.15 34.9566 6.88 34.9566 6.38H34.2366V4.91H35.6866V6.27ZM40.4704 10.39C40.4704 10.89 40.2904 11.26 40.0204 11.53C39.6004 11.95 38.9504 12.13 38.2404 12.13C37.5804 12.13 36.9904 11.94 36.5604 11.53C36.2604 11.24 36.0104 10.81 36.0104 10.32H37.1804C37.1804 10.55 37.3004 10.8 37.4604 10.93C37.6604 11.09 37.8904 11.16 38.2504 11.16C38.6704 11.16 39.3104 11.07 39.3104 10.5C39.3104 10.2 39.1104 10 38.7904 9.95C38.3304 9.88 37.8104 9.85 37.3504 9.75C36.6404 9.6 36.1604 9.02 36.1604 8.36C36.1604 7.83 36.3804 7.46 36.6904 7.19C37.0704 6.86 37.6204 6.67 38.2704 6.67C38.8904 6.67 39.5204 6.87 39.9004 7.28C40.1804 7.58 40.3604 7.97 40.3604 8.35H39.1704C39.1704 8.15 39.0804 7.99 38.9604 7.86C38.8104 7.71 38.5404 7.62 38.2804 7.62C38.1004 7.62 37.9304 7.62 37.7404 7.7C37.5204 7.79 37.3404 7.98 37.3404 8.25C37.3404 8.62 37.6604 8.73 37.9404 8.77C38.4104 8.83 38.5404 8.84 39.0504 8.92C39.8704 9.05 40.4704 9.57 40.4704 10.39ZM43.0364 12H41.5164V10.44H43.0364V12Z" fill="#CCFFCE"/>
<rect x="58.5007" y="3" width="2.1215" height="10.6075" transform="rotate(45 58.5007 3)" fill="#CCFFCE"/>
<rect x="60.0007" y="10.501" width="2.1215" height="10.6075" transform="rotate(135 60.0007 10.501)" fill="#CCFFCE"/>
</g>
<defs>
<clipPath id="clip0_156_1025">
<rect width="64" height="64" fill="white"/>
</clipPath>
</defs>
</svg>
