<svg width="64" height="64" viewBox="0 0 64 64" fill="none" xmlns="http://www.w3.org/2000/svg">
<g clip-path="url(#clip0_156_1308)">
<rect width="64" height="64" fill="#F49A27"/>
<rect width="64" height="64" rx="6" fill="#F49A27"/>
<path d="M28.3057 33.936C28.3057 35.52 27.7297 36.648 26.8897 37.488C25.5937 38.784 23.6017 39.312 21.5137 39.312C19.7137 39.312 17.8177 38.832 16.4257 37.56C15.4177 36.648 14.6497 35.208 14.6497 33.6H17.8177C17.8177 34.44 18.2017 35.184 18.7057 35.688C19.4257 36.408 20.5777 36.6 21.5617 36.6C22.7377 36.6 23.8657 36.36 24.5137 35.688C24.8977 35.28 25.1857 34.872 25.1857 34.056C25.1857 32.808 24.2257 32.232 23.1697 32.04C22.0177 31.824 20.5297 31.776 19.4017 31.584C17.0497 31.2 15.0817 29.664 15.0817 26.832C15.0817 25.488 15.6817 24.36 16.5697 23.472C17.6977 22.368 19.5697 21.672 21.5617 21.672C23.3857 21.672 25.1617 22.248 26.3137 23.328C27.3217 24.288 28.0177 25.536 28.0417 26.952H24.8737C24.8497 26.352 24.5377 25.704 24.1297 25.272C23.5777 24.696 22.4497 24.36 21.5377 24.36C20.5777 24.36 19.4737 24.576 18.7777 25.296C18.4177 25.68 18.2017 26.112 18.2017 26.736C18.2017 27.84 18.9217 28.416 19.9297 28.584C21.0097 28.752 22.5217 28.872 23.6257 29.016C26.1697 29.376 28.3057 31.032 28.3057 33.936ZM42.9418 39H39.4618L35.9578 33.552L33.9658 35.712V39H30.9658V21.672H33.9658V31.584L38.6938 26.52H42.4618L37.9978 31.344L42.9418 39ZM48.0813 39H44.9373V21.984H48.0813V39Z" fill="#B15300"/>
<path d="M9.92635 59H5.04235V57.9L8.02335 54.347C8.28735 54.039 8.41935 53.676 8.41935 53.368C8.41935 52.829 8.07835 52.411 7.45135 52.411C6.80235 52.411 6.42835 52.906 6.42835 53.511H5.02035C5.03135 52.169 5.88935 51.212 7.46235 51.212C8.77135 51.212 9.81635 52.015 9.81635 53.357C9.81635 54.039 9.40935 54.71 8.98035 55.227L6.86835 57.757H9.92635V59ZM16.6838 57.46H15.7158V59H14.3408V57.46H10.9308V56.162L13.7358 51.355H15.2318L12.3828 56.217H14.3408V54.424H15.7158V56.217H16.6838V57.46ZM22.7372 55.172C22.7372 56.426 22.6162 57.702 21.8242 58.461C21.4282 58.846 20.8672 59.143 20.0422 59.143C19.2172 59.143 18.6562 58.846 18.2602 58.461C17.4682 57.702 17.3472 56.426 17.3472 55.172C17.3472 53.918 17.4682 52.642 18.2602 51.883C18.6562 51.498 19.2172 51.212 20.0422 51.212C20.8672 51.212 21.4282 51.498 21.8242 51.883C22.6162 52.642 22.7372 53.918 22.7372 55.172ZM21.3402 55.172C21.3402 54.182 21.4612 52.477 20.0422 52.477C18.6232 52.477 18.7442 54.182 18.7442 55.172C18.7442 56.162 18.6232 57.867 20.0422 57.867C21.4612 57.867 21.3402 56.162 21.3402 55.172ZM27.5147 59H26.1397V52.983L24.4567 54.204V52.708L26.3377 51.355H27.5147V59ZM35.5041 57.46H34.5361V59H33.1611V57.46H29.7511V56.162L32.5561 51.355H34.0521L31.2031 56.217H33.1611V54.424H34.5361V56.217H35.5041V57.46ZM41.5575 55.172C41.5575 56.426 41.4365 57.702 40.6445 58.461C40.2485 58.846 39.6875 59.143 38.8625 59.143C38.0375 59.143 37.4765 58.846 37.0805 58.461C36.2885 57.702 36.1675 56.426 36.1675 55.172C36.1675 53.918 36.2885 52.642 37.0805 51.883C37.4765 51.498 38.0375 51.212 38.8625 51.212C39.6875 51.212 40.2485 51.498 40.6445 51.883C41.4365 52.642 41.5575 53.918 41.5575 55.172ZM40.1605 55.172C40.1605 54.182 40.2815 52.477 38.8625 52.477C37.4435 52.477 37.5645 54.182 37.5645 55.172C37.5645 56.162 37.4435 57.867 38.8625 57.867C40.2815 57.867 40.1605 56.162 40.1605 55.172ZM46.434 56.228H42.661V54.996H46.434V56.228ZM52.9228 55.172C52.9228 56.426 52.8018 57.702 52.0098 58.461C51.6138 58.846 51.0528 59.143 50.2278 59.143C49.4028 59.143 48.8418 58.846 48.4458 58.461C47.6538 57.702 47.5328 56.426 47.5328 55.172C47.5328 53.918 47.6538 52.642 48.4458 51.883C48.8418 51.498 49.4028 51.212 50.2278 51.212C51.0528 51.212 51.6138 51.498 52.0098 51.883C52.8018 52.642 52.9228 53.918 52.9228 55.172ZM51.5258 55.172C51.5258 54.182 51.6468 52.477 50.2278 52.477C48.8088 52.477 48.9298 54.182 48.9298 55.172C48.9298 56.162 48.8088 57.867 50.2278 57.867C51.6468 57.867 51.5258 56.162 51.5258 55.172ZM59.1962 55.172C59.1962 56.426 59.0752 57.702 58.2832 58.461C57.8872 58.846 57.3262 59.143 56.5012 59.143C55.6762 59.143 55.1152 58.846 54.7192 58.461C53.9272 57.702 53.8062 56.426 53.8062 55.172C53.8062 53.918 53.9272 52.642 54.7192 51.883C55.1152 51.498 55.6762 51.212 56.5012 51.212C57.3262 51.212 57.8872 51.498 58.2832 51.883C59.0752 52.642 59.1962 53.918 59.1962 55.172ZM57.7992 55.172C57.7992 54.182 57.9202 52.477 56.5012 52.477C55.0822 52.477 55.2032 54.182 55.2032 55.172C55.2032 56.162 55.0822 57.867 56.5012 57.867C57.9202 57.867 57.7992 56.162 57.7992 55.172Z" fill="#B15300"/>
<path d="M10.5 12H9.17L6.1 7.13V12H4.83V4.91H6.2L9.23 9.71V4.91H10.5V12ZM17.214 12H12.164V4.91H17.214V6.08H13.454V7.73H16.764V8.89H13.454V10.83H17.214V12ZM23.8645 8.46C23.8645 9.62 23.7345 10.56 22.9645 11.33C22.4245 11.87 21.6845 12.13 20.9245 12.13C20.1645 12.13 19.4245 11.87 18.8845 11.33C18.1145 10.56 17.9845 9.62 17.9845 8.46C17.9845 7.3 18.1145 6.35 18.8845 5.58C19.4245 5.04 20.1645 4.78 20.9245 4.78C21.6845 4.78 22.4245 5.04 22.9645 5.58C23.7345 6.35 23.8645 7.3 23.8645 8.46ZM22.5545 8.46C22.5545 7.81 22.5345 6.93 22.0445 6.42C21.7645 6.12 21.3345 5.95 20.9245 5.95C20.5145 5.95 20.0845 6.12 19.8045 6.42C19.3145 6.93 19.2945 7.81 19.2945 8.46C19.2945 9.11 19.3145 9.98 19.8045 10.49C20.0845 10.79 20.5145 10.96 20.9245 10.96C21.3345 10.96 21.7645 10.79 22.0445 10.49C22.5345 9.98 22.5545 9.11 22.5545 8.46ZM32.2332 12H30.9832V6.94L29.1432 11.9H28.1932L26.3632 6.88V12H25.1132V4.91H26.8532L28.7132 9.96L30.5832 4.91H32.2332V12Z" fill="#B15300"/>
<rect x="53" y="4" width="7" height="7" rx="3.5" stroke="#B15300" stroke-width="2"/>
</g>
<defs>
<clipPath id="clip0_156_1308">
<rect width="64" height="64" fill="white"/>
</clipPath>
</defs>
</svg>
