<svg width="64" height="64" viewBox="0 0 64 64" fill="none" xmlns="http://www.w3.org/2000/svg">
<g clip-path="url(#clip0_156_791)">
<rect width="64" height="64" fill="#149618"/>
<rect width="64" height="64" rx="6" fill="#149618"/>
<path d="M24.7432 33.936C24.7432 35.52 24.1672 36.648 23.3272 37.488C22.0312 38.784 20.0392 39.312 17.9512 39.312C16.1512 39.312 14.2552 38.832 12.8632 37.56C11.8552 36.648 11.0872 35.208 11.0872 33.6H14.2552C14.2552 34.44 14.6392 35.184 15.1432 35.688C15.8632 36.408 17.0152 36.6 17.9992 36.6C19.1752 36.6 20.3032 36.36 20.9512 35.688C21.3352 35.28 21.6232 34.872 21.6232 34.056C21.6232 32.808 20.6632 32.232 19.6072 32.04C18.4552 31.824 16.9672 31.776 15.8392 31.584C13.4872 31.2 11.5192 29.664 11.5192 26.832C11.5192 25.488 12.1192 24.36 13.0072 23.472C14.1352 22.368 16.0072 21.672 17.9992 21.672C19.8232 21.672 21.5992 22.248 22.7512 23.328C23.7592 24.288 24.4552 25.536 24.4792 26.952H21.3112C21.2872 26.352 20.9752 25.704 20.5672 25.272C20.0152 24.696 18.8872 24.36 17.9752 24.36C17.0152 24.36 15.9112 24.576 15.2152 25.296C14.8552 25.68 14.6392 26.112 14.6392 26.736C14.6392 27.84 15.3592 28.416 16.3672 28.584C17.4472 28.752 18.9592 28.872 20.0632 29.016C22.6072 29.376 24.7432 31.032 24.7432 33.936ZM38.2032 32.76C38.2032 34.872 37.6753 36.192 36.7393 37.368C35.8753 38.424 34.2673 39.312 32.3713 39.312C30.4753 39.312 28.8673 38.424 28.0033 37.368C27.0673 36.192 26.5393 34.872 26.5393 32.76C26.5393 30.648 27.0673 29.328 28.0033 28.152C28.8673 27.096 30.4753 26.208 32.3713 26.208C34.2673 26.208 35.8753 27.096 36.7393 28.152C37.6753 29.328 38.2032 30.648 38.2032 32.76ZM35.1553 32.76C35.1553 31.584 34.9873 30.408 34.2673 29.616C33.8593 29.184 33.1873 28.824 32.3713 28.824C31.5553 28.824 30.8833 29.184 30.4753 29.616C29.7553 30.408 29.5873 31.584 29.5873 32.76C29.5873 33.936 29.7553 35.112 30.4753 35.904C30.8833 36.336 31.5553 36.696 32.3713 36.696C33.1873 36.696 33.8593 36.336 34.2673 35.904C34.9873 35.112 35.1553 33.936 35.1553 32.76ZM51.7708 39H49.1788L48.9868 37.632C48.2428 38.784 46.8508 39.288 45.4828 39.288C44.2348 39.288 43.2028 38.856 42.4348 38.232C40.9468 37.008 40.2268 35.136 40.2268 32.784C40.2268 30.336 40.9708 28.44 42.4588 27.216C43.2268 26.592 44.2348 26.208 45.5068 26.208C47.0908 26.208 48.2428 26.736 48.7708 27.384V21.672H51.7708V39ZM48.9148 32.736C48.9148 30.936 48.4348 28.728 46.0828 28.728C45.1468 28.728 44.4988 29.16 44.0668 29.712C43.4428 30.528 43.2748 31.656 43.2748 32.736C43.2748 33.816 43.4428 34.968 44.0668 35.784C44.4988 36.336 45.1468 36.768 46.0828 36.768C48.4348 36.768 48.9148 34.536 48.9148 32.736Z" fill="#CCFFCE"/>
<path d="M9.92635 59H5.04235V57.9L8.02335 54.347C8.28735 54.039 8.41935 53.676 8.41935 53.368C8.41935 52.829 8.07835 52.411 7.45135 52.411C6.80235 52.411 6.42835 52.906 6.42835 53.511H5.02035C5.03135 52.169 5.88935 51.212 7.46235 51.212C8.77135 51.212 9.81635 52.015 9.81635 53.357C9.81635 54.039 9.40935 54.71 8.98035 55.227L6.86835 57.757H9.92635V59ZM16.4638 55.172C16.4638 56.426 16.3428 57.702 15.5508 58.461C15.1548 58.846 14.5938 59.143 13.7688 59.143C12.9438 59.143 12.3828 58.846 11.9868 58.461C11.1948 57.702 11.0738 56.426 11.0738 55.172C11.0738 53.918 11.1948 52.642 11.9868 51.883C12.3828 51.498 12.9438 51.212 13.7688 51.212C14.5938 51.212 15.1548 51.498 15.5508 51.883C16.3428 52.642 16.4638 53.918 16.4638 55.172ZM15.0668 55.172C15.0668 54.182 15.1878 52.477 13.7688 52.477C12.3498 52.477 12.4708 54.182 12.4708 55.172C12.4708 56.162 12.3498 57.867 13.7688 57.867C15.1878 57.867 15.0668 56.162 15.0668 55.172ZM22.7372 55.172C22.7372 56.426 22.6162 57.702 21.8242 58.461C21.4282 58.846 20.8672 59.143 20.0422 59.143C19.2172 59.143 18.6562 58.846 18.2602 58.461C17.4682 57.702 17.3472 56.426 17.3472 55.172C17.3472 53.918 17.4682 52.642 18.2602 51.883C18.6562 51.498 19.2172 51.212 20.0422 51.212C20.8672 51.212 21.4282 51.498 21.8242 51.883C22.6162 52.642 22.7372 53.918 22.7372 55.172ZM21.3402 55.172C21.3402 54.182 21.4612 52.477 20.0422 52.477C18.6232 52.477 18.7442 54.182 18.7442 55.172C18.7442 56.162 18.6232 57.867 20.0422 57.867C21.4612 57.867 21.3402 56.162 21.3402 55.172ZM28.7467 59H23.8627V57.9L26.8437 54.347C27.1077 54.039 27.2397 53.676 27.2397 53.368C27.2397 52.829 26.8987 52.411 26.2717 52.411C25.6227 52.411 25.2487 52.906 25.2487 53.511H23.8407C23.8517 52.169 24.7097 51.212 26.2827 51.212C27.5917 51.212 28.6367 52.015 28.6367 53.357C28.6367 54.039 28.2297 54.71 27.8007 55.227L25.6887 57.757H28.7467V59ZM35.2401 52.455L32.2591 59H30.7741L33.7661 52.587H29.9711V51.355H35.2401V52.455ZM41.5575 55.172C41.5575 56.426 41.4365 57.702 40.6445 58.461C40.2485 58.846 39.6875 59.143 38.8625 59.143C38.0375 59.143 37.4765 58.846 37.0805 58.461C36.2885 57.702 36.1675 56.426 36.1675 55.172C36.1675 53.918 36.2885 52.642 37.0805 51.883C37.4765 51.498 38.0375 51.212 38.8625 51.212C39.6875 51.212 40.2485 51.498 40.6445 51.883C41.4365 52.642 41.5575 53.918 41.5575 55.172ZM40.1605 55.172C40.1605 54.182 40.2815 52.477 38.8625 52.477C37.4435 52.477 37.5645 54.182 37.5645 55.172C37.5645 56.162 37.4435 57.867 38.8625 57.867C40.2815 57.867 40.1605 56.162 40.1605 55.172ZM46.434 56.228H42.661V54.996H46.434V56.228ZM52.9228 55.172C52.9228 56.426 52.8018 57.702 52.0098 58.461C51.6138 58.846 51.0528 59.143 50.2278 59.143C49.4028 59.143 48.8418 58.846 48.4458 58.461C47.6538 57.702 47.5328 56.426 47.5328 55.172C47.5328 53.918 47.6538 52.642 48.4458 51.883C48.8418 51.498 49.4028 51.212 50.2278 51.212C51.0528 51.212 51.6138 51.498 52.0098 51.883C52.8018 52.642 52.9228 53.918 52.9228 55.172ZM51.5258 55.172C51.5258 54.182 51.6468 52.477 50.2278 52.477C48.8088 52.477 48.9298 54.182 48.9298 55.172C48.9298 56.162 48.8088 57.867 50.2278 57.867C51.6468 57.867 51.5258 56.162 51.5258 55.172ZM59.1962 55.172C59.1962 56.426 59.0752 57.702 58.2832 58.461C57.8872 58.846 57.3262 59.143 56.5012 59.143C55.6762 59.143 55.1152 58.846 54.7192 58.461C53.9272 57.702 53.8062 56.426 53.8062 55.172C53.8062 53.918 53.9272 52.642 54.7192 51.883C55.1152 51.498 55.6762 51.212 56.5012 51.212C57.3262 51.212 57.8872 51.498 58.2832 51.883C59.0752 52.642 59.1962 53.918 59.1962 55.172ZM57.7992 55.172C57.7992 54.182 57.9202 52.477 56.5012 52.477C55.0822 52.477 55.2032 54.182 55.2032 55.172C55.2032 56.162 55.0822 57.867 56.5012 57.867C57.9202 57.867 57.7992 56.162 57.7992 55.172Z" fill="#CCFFCE"/>
<path d="M54.634 4.5C55.0189 3.83333 55.9811 3.83333 56.366 4.5L59.3971 9.75C59.782 10.4167 59.3009 11.25 58.5311 11.25H52.4689C51.6991 11.25 51.218 10.4167 51.6029 9.75L54.634 4.5Z" fill="#CCFFCE"/>
<path d="M9.99 9.89C9.99 10.55 9.75 11.02 9.4 11.37C8.86 11.91 8.03 12.13 7.16 12.13C6.41 12.13 5.62 11.93 5.04 11.4C4.62 11.02 4.3 10.42 4.3 9.75H5.62C5.62 10.1 5.78 10.41 5.99 10.62C6.29 10.92 6.77 11 7.18 11C7.67 11 8.14 10.9 8.41 10.62C8.57 10.45 8.69 10.28 8.69 9.94C8.69 9.42 8.29 9.18 7.85 9.1C7.37 9.01 6.75 8.99 6.28 8.91C5.3 8.75 4.48 8.11 4.48 6.93C4.48 6.37 4.73 5.9 5.1 5.53C5.57 5.07 6.35 4.78 7.18 4.78C7.94 4.78 8.68 5.02 9.16 5.47C9.58 5.87 9.87 6.39 9.88 6.98H8.56C8.55 6.73 8.42 6.46 8.25 6.28C8.02 6.04 7.55 5.9 7.17 5.9C6.77 5.9 6.31 5.99 6.02 6.29C5.87 6.45 5.78 6.63 5.78 6.89C5.78 7.35 6.08 7.59 6.5 7.66C6.95 7.73 7.58 7.78 8.04 7.84C9.1 7.99 9.99 8.68 9.99 9.89ZM15.5984 9.4C15.5984 10.28 15.3784 10.83 14.9884 11.32C14.6284 11.76 13.9584 12.13 13.1684 12.13C12.3784 12.13 11.7084 11.76 11.3484 11.32C10.9584 10.83 10.7384 10.28 10.7384 9.4C10.7384 8.52 10.9584 7.97 11.3484 7.48C11.7084 7.04 12.3784 6.67 13.1684 6.67C13.9584 6.67 14.6284 7.04 14.9884 7.48C15.3784 7.97 15.5984 8.52 15.5984 9.4ZM14.3284 9.4C14.3284 8.91 14.2584 8.42 13.9584 8.09C13.7884 7.91 13.5084 7.76 13.1684 7.76C12.8284 7.76 12.5484 7.91 12.3784 8.09C12.0784 8.42 12.0084 8.91 12.0084 9.4C12.0084 9.89 12.0784 10.38 12.3784 10.71C12.5484 10.89 12.8284 11.04 13.1684 11.04C13.5084 11.04 13.7884 10.89 13.9584 10.71C14.2584 10.38 14.3284 9.89 14.3284 9.4ZM21.1415 12H20.1015L20.0115 11.32C19.7615 11.83 19.1815 12.13 18.5215 12.13C17.4115 12.13 16.7215 11.38 16.7215 10.27V6.8H17.9715V9.99C17.9715 10.6 18.2115 10.98 18.8715 10.98C19.1615 10.98 19.3615 10.87 19.5115 10.72C19.8115 10.44 19.8915 9.97 19.8915 9.55V6.8H21.1415V12ZM27.1499 12H26.0699L25.9899 11.43C25.6799 11.91 25.0999 12.12 24.5299 12.12C24.0099 12.12 23.5799 11.94 23.2599 11.68C22.6399 11.17 22.3399 10.39 22.3399 9.41C22.3399 8.39 22.6499 7.6 23.2699 7.09C23.5899 6.83 24.0099 6.67 24.5399 6.67C25.1999 6.67 25.6799 6.89 25.8999 7.16V4.78H27.1499V12ZM25.9599 9.39C25.9599 8.64 25.7599 7.72 24.7799 7.72C24.3899 7.72 24.1199 7.9 23.9399 8.13C23.6799 8.47 23.6099 8.94 23.6099 9.39C23.6099 9.84 23.6799 10.32 23.9399 10.66C24.1199 10.89 24.3899 11.07 24.7799 11.07C25.7599 11.07 25.9599 10.14 25.9599 9.39ZM33.2358 11.94C33.0258 12.03 32.9158 12.08 32.6158 12.08C32.0758 12.08 31.7758 11.74 31.7358 11.35C31.4958 11.77 30.8958 12.13 30.1558 12.13C28.9158 12.13 28.2758 11.35 28.2758 10.5C28.2758 9.51 29.0458 8.94 30.0358 8.87L31.5658 8.76V8.44C31.5658 7.95 31.3958 7.62 30.6858 7.62C30.1058 7.62 29.7658 7.88 29.7358 8.36H28.5258C28.5958 7.19 29.5258 6.67 30.6858 6.67C31.5758 6.67 32.3358 6.95 32.6358 7.73C32.7658 8.06 32.7858 8.43 32.7858 8.78V10.71C32.7858 10.95 32.8658 11.04 33.0758 11.04C33.1558 11.04 33.2358 11.02 33.2358 11.02V11.94ZM31.5658 9.93V9.69L30.2458 9.79C29.8658 9.82 29.4958 10.05 29.4958 10.47C29.4958 10.87 29.8458 11.12 30.2358 11.12C31.0158 11.12 31.5658 10.7 31.5658 9.93ZM38.751 12H37.501V8.79C37.501 8.19 37.301 7.82 36.641 7.82C35.891 7.82 35.571 8.62 35.571 9.26V12H34.321V4.78H35.571V7.35C35.871 6.91 36.451 6.67 36.991 6.67C38.101 6.67 38.751 7.46 38.751 8.53V12Z" fill="#CCFFCE"/>
</g>
<defs>
<clipPath id="clip0_156_791">
<rect width="64" height="64" fill="white"/>
</clipPath>
</defs>
</svg>
