<svg width="64" height="64" viewBox="0 0 64 64" fill="none" xmlns="http://www.w3.org/2000/svg">
<g clip-path="url(#clip0_156_1154)">
<rect width="64" height="64" fill="#FF1919"/>
<rect width="64" height="64" rx="6" fill="#FF1919"/>
<path d="M9.88 12H4.83V4.91H9.88V6.08H6.12V7.73H9.43V8.89H6.12V10.83H9.88V12ZM16.7793 12H15.4493L12.3793 7.13V12H11.1093V4.91H12.4793L15.5093 9.71V4.91H16.7793V12ZM23.9133 8.46C23.9133 9.62 23.7833 10.56 23.0133 11.33C22.4733 11.87 21.7333 12.13 20.9733 12.13C20.2133 12.13 19.4733 11.87 18.9333 11.33C18.1633 10.56 18.0333 9.62 18.0333 8.46C18.0333 7.3 18.1633 6.35 18.9333 5.58C19.4733 5.04 20.2133 4.78 20.9733 4.78C21.7333 4.78 22.4733 5.04 23.0133 5.58C23.7833 6.35 23.9133 7.3 23.9133 8.46ZM22.6033 8.46C22.6033 7.81 22.5833 6.93 22.0933 6.42C21.8133 6.12 21.3833 5.95 20.9733 5.95C20.5633 5.95 20.1333 6.12 19.8533 6.42C19.3633 6.93 19.3433 7.81 19.3433 8.46C19.3433 9.11 19.3633 9.98 19.8533 10.49C20.1333 10.79 20.5633 10.96 20.9733 10.96C21.3833 10.96 21.8133 10.79 22.0933 10.49C22.5833 9.98 22.6033 9.11 22.6033 8.46ZM30.332 9.74C30.272 10.3 30.062 10.87 29.652 11.29C29.122 11.83 28.382 12.13 27.622 12.13C26.862 12.13 26.152 11.88 25.612 11.34C24.842 10.57 24.732 9.62 24.732 8.46C24.732 7.3 24.842 6.35 25.612 5.58C26.152 5.04 26.862 4.78 27.622 4.78C28.382 4.78 29.122 5.06 29.652 5.6C30.062 6.02 30.272 6.58 30.332 7.14H29.012C28.982 6.83 28.872 6.61 28.692 6.39C28.462 6.1 28.062 5.95 27.622 5.95C27.212 5.95 26.812 6.12 26.532 6.42C26.042 6.93 26.042 7.81 26.042 8.46C26.042 9.11 26.042 9.99 26.532 10.5C26.812 10.8 27.212 10.97 27.622 10.97C28.062 10.97 28.462 10.81 28.692 10.52C28.872 10.3 28.982 10.05 29.012 9.74H30.332Z" fill="#FFCBCB"/>
<path d="M27.8942 24.864H22.8542V39H19.7582V24.864H14.7182V21.984H27.8942V24.864ZM35.2495 29.304C34.9135 29.232 34.5535 29.184 34.2175 29.184C32.1055 29.184 31.0015 30.696 31.0015 32.712V39H27.9775V26.52H30.5215L30.7855 28.392C31.3615 26.952 32.8495 26.352 34.3135 26.352C34.6255 26.352 34.9375 26.376 35.2495 26.424V29.304ZM49.4222 39H45.9422L42.4382 33.552L40.4462 35.712V39H37.4462V21.672H40.4462V31.584L45.1742 26.52H48.9422L44.4782 31.344L49.4222 39Z" fill="#FFCBCB"/>
<path d="M9.92635 59H5.04235V57.9L8.02335 54.347C8.28735 54.039 8.41935 53.676 8.41935 53.368C8.41935 52.829 8.07835 52.411 7.45135 52.411C6.80235 52.411 6.42835 52.906 6.42835 53.511H5.02035C5.03135 52.169 5.88935 51.212 7.46235 51.212C8.77135 51.212 9.81635 52.015 9.81635 53.357C9.81635 54.039 9.40935 54.71 8.98035 55.227L6.86835 57.757H9.92635V59ZM16.4638 55.172C16.4638 56.426 16.3428 57.702 15.5508 58.461C15.1548 58.846 14.5938 59.143 13.7688 59.143C12.9438 59.143 12.3828 58.846 11.9868 58.461C11.1948 57.702 11.0738 56.426 11.0738 55.172C11.0738 53.918 11.1948 52.642 11.9868 51.883C12.3828 51.498 12.9438 51.212 13.7688 51.212C14.5938 51.212 15.1548 51.498 15.5508 51.883C16.3428 52.642 16.4638 53.918 16.4638 55.172ZM15.0668 55.172C15.0668 54.182 15.1878 52.477 13.7688 52.477C12.3498 52.477 12.4708 54.182 12.4708 55.172C12.4708 56.162 12.3498 57.867 13.7688 57.867C15.1878 57.867 15.0668 56.162 15.0668 55.172ZM22.7372 55.172C22.7372 56.426 22.6162 57.702 21.8242 58.461C21.4282 58.846 20.8672 59.143 20.0422 59.143C19.2172 59.143 18.6562 58.846 18.2602 58.461C17.4682 57.702 17.3472 56.426 17.3472 55.172C17.3472 53.918 17.4682 52.642 18.2602 51.883C18.6562 51.498 19.2172 51.212 20.0422 51.212C20.8672 51.212 21.4282 51.498 21.8242 51.883C22.6162 52.642 22.7372 53.918 22.7372 55.172ZM21.3402 55.172C21.3402 54.182 21.4612 52.477 20.0422 52.477C18.6232 52.477 18.7442 54.182 18.7442 55.172C18.7442 56.162 18.6232 57.867 20.0422 57.867C21.4612 57.867 21.3402 56.162 21.3402 55.172ZM28.7467 59H23.8627V57.9L26.8437 54.347C27.1077 54.039 27.2397 53.676 27.2397 53.368C27.2397 52.829 26.8987 52.411 26.2717 52.411C25.6227 52.411 25.2487 52.906 25.2487 53.511H23.8407C23.8517 52.169 24.7097 51.212 26.2827 51.212C27.5917 51.212 28.6367 52.015 28.6367 53.357C28.6367 54.039 28.2297 54.71 27.8007 55.227L25.6887 57.757H28.7467V59ZM35.5041 57.46H34.5361V59H33.1611V57.46H29.7511V56.162L32.5561 51.355H34.0521L31.2031 56.217H33.1611V54.424H34.5361V56.217H35.5041V57.46ZM40.0615 59H38.6865V52.983L37.0035 54.204V52.708L38.8845 51.355H40.0615V59ZM46.434 56.228H42.661V54.996H46.434V56.228ZM52.9228 55.172C52.9228 56.426 52.8018 57.702 52.0098 58.461C51.6138 58.846 51.0528 59.143 50.2278 59.143C49.4028 59.143 48.8418 58.846 48.4458 58.461C47.6538 57.702 47.5328 56.426 47.5328 55.172C47.5328 53.918 47.6538 52.642 48.4458 51.883C48.8418 51.498 49.4028 51.212 50.2278 51.212C51.0528 51.212 51.6138 51.498 52.0098 51.883C52.8018 52.642 52.9228 53.918 52.9228 55.172ZM51.5258 55.172C51.5258 54.182 51.6468 52.477 50.2278 52.477C48.8088 52.477 48.9298 54.182 48.9298 55.172C48.9298 56.162 48.8088 57.867 50.2278 57.867C51.6468 57.867 51.5258 56.162 51.5258 55.172ZM59.1962 55.172C59.1962 56.426 59.0752 57.702 58.2832 58.461C57.8872 58.846 57.3262 59.143 56.5012 59.143C55.6762 59.143 55.1152 58.846 54.7192 58.461C53.9272 57.702 53.8062 56.426 53.8062 55.172C53.8062 53.918 53.9272 52.642 54.7192 51.883C55.1152 51.498 55.6762 51.212 56.5012 51.212C57.3262 51.212 57.8872 51.498 58.2832 51.883C59.0752 52.642 59.1962 53.918 59.1962 55.172ZM57.7992 55.172C57.7992 54.182 57.9202 52.477 56.5012 52.477C55.0822 52.477 55.2032 54.182 55.2032 55.172C55.2032 56.162 55.0822 57.867 56.5012 57.867C57.9202 57.867 57.7992 56.162 57.7992 55.172Z" fill="#FFCBCB"/>
<rect x="59.5007" y="3" width="2.1215" height="10.6075" transform="rotate(45 59.5007 3)" fill="#FFCBCB"/>
<rect x="61.0007" y="10.501" width="2.1215" height="10.6075" transform="rotate(135 61.0007 10.501)" fill="#FFCBCB"/>
</g>
<defs>
<clipPath id="clip0_156_1154">
<rect width="64" height="64" fill="white"/>
</clipPath>
</defs>
</svg>
