<svg width="64" height="64" viewBox="0 0 64 64" fill="none" xmlns="http://www.w3.org/2000/svg">
<g clip-path="url(#clip0_156_913)">
<rect width="64" height="64" fill="#0000FF"/>
<rect width="64" height="64" rx="6" fill="#0000FF"/>
<path d="M31.9302 21.984L28.5462 39H25.4502L21.8982 27.264L18.3462 39H15.2502L11.8182 21.984H14.7702L17.1462 33.816L20.6502 22.248H23.2422L26.6742 33.816L29.0982 21.984H31.9302ZM44.4203 32.856C44.4203 32.856 44.3963 33.432 44.3963 33.696H36.0443C36.0203 34.656 36.3563 35.568 36.9563 36.144C37.3883 36.552 37.9883 36.912 38.8043 36.912C39.6683 36.912 40.1963 36.744 40.6283 36.312C40.8923 36.048 41.1083 35.712 41.2283 35.256H44.1083C44.0363 36 43.5323 36.984 43.0523 37.56C41.9963 38.808 40.4363 39.312 38.8523 39.312C37.1483 39.312 35.9003 38.712 34.9163 37.776C33.6683 36.576 32.9963 34.824 32.9963 32.784C32.9963 30.792 33.5963 29.016 34.7963 27.792C35.7323 26.832 37.0763 26.208 38.7803 26.208C40.6283 26.208 42.3083 26.952 43.3403 28.512C44.2523 29.88 44.4683 31.296 44.4203 32.856ZM41.4203 31.512C41.3963 30.576 41.1323 29.856 40.6523 29.328C40.2443 28.896 39.6203 28.608 38.7563 28.608C37.8443 28.608 37.1003 28.992 36.6683 29.568C36.2363 30.12 36.0443 30.696 36.0203 31.512H41.4203ZM51.8757 38.976C51.2757 39.096 51.1557 39.144 50.5557 39.144C48.5157 39.144 47.1477 38.16 47.1477 35.784V21.648H50.1717V35.28C50.1717 36 50.3397 36.48 51.3717 36.48C51.6357 36.48 51.7077 36.456 51.8757 36.456V38.976Z" fill="#EEEEFF"/>
<path d="M9.92635 59H5.04235V57.9L8.02335 54.347C8.28735 54.039 8.41935 53.676 8.41935 53.368C8.41935 52.829 8.07835 52.411 7.45135 52.411C6.80235 52.411 6.42835 52.906 6.42835 53.511H5.02035C5.03135 52.169 5.88935 51.212 7.46235 51.212C8.77135 51.212 9.81635 52.015 9.81635 53.357C9.81635 54.039 9.40935 54.71 8.98035 55.227L6.86835 57.757H9.92635V59ZM16.3098 56.811C16.3098 58.34 15.1438 59.143 13.7028 59.143C12.2948 59.143 11.1508 58.219 11.1068 56.789H12.4818C12.5368 57.537 13.0428 57.933 13.7138 57.933C14.3958 57.933 14.9238 57.515 14.9238 56.789C14.9238 55.997 14.2968 55.634 13.5818 55.634H13.0098V54.435H13.5818C14.3298 54.435 14.7588 54.127 14.7588 53.412C14.7588 52.862 14.3188 52.411 13.7138 52.411C13.0318 52.411 12.5478 52.752 12.5368 53.445H11.1508C11.1728 52.004 12.3168 51.212 13.7138 51.212C15.0998 51.212 16.1558 52.059 16.1558 53.379C16.1558 54.072 15.7488 54.776 15.0558 55.018C15.8478 55.238 16.3098 56.019 16.3098 56.811ZM22.7372 55.172C22.7372 56.426 22.6162 57.702 21.8242 58.461C21.4282 58.846 20.8672 59.143 20.0422 59.143C19.2172 59.143 18.6562 58.846 18.2602 58.461C17.4682 57.702 17.3472 56.426 17.3472 55.172C17.3472 53.918 17.4682 52.642 18.2602 51.883C18.6562 51.498 19.2172 51.212 20.0422 51.212C20.8672 51.212 21.4282 51.498 21.8242 51.883C22.6162 52.642 22.7372 53.918 22.7372 55.172ZM21.3402 55.172C21.3402 54.182 21.4612 52.477 20.0422 52.477C18.6232 52.477 18.7442 54.182 18.7442 55.172C18.7442 56.162 18.6232 57.867 20.0422 57.867C21.4612 57.867 21.3402 56.162 21.3402 55.172ZM28.7467 59H23.8627V57.9L26.8437 54.347C27.1077 54.039 27.2397 53.676 27.2397 53.368C27.2397 52.829 26.8987 52.411 26.2717 52.411C25.6227 52.411 25.2487 52.906 25.2487 53.511H23.8407C23.8517 52.169 24.7097 51.212 26.2827 51.212C27.5917 51.212 28.6367 52.015 28.6367 53.357C28.6367 54.039 28.2297 54.71 27.8007 55.227L25.6887 57.757H28.7467V59ZM33.7881 59H32.4131V52.983L30.7301 54.204V52.708L32.6111 51.355H33.7881V59ZM41.5135 52.455L38.5325 59H37.0475L40.0395 52.587H36.2445V51.355H41.5135V52.455ZM46.434 56.228H42.661V54.996H46.434V56.228ZM52.9228 55.172C52.9228 56.426 52.8018 57.702 52.0098 58.461C51.6138 58.846 51.0528 59.143 50.2278 59.143C49.4028 59.143 48.8418 58.846 48.4458 58.461C47.6538 57.702 47.5328 56.426 47.5328 55.172C47.5328 53.918 47.6538 52.642 48.4458 51.883C48.8418 51.498 49.4028 51.212 50.2278 51.212C51.0528 51.212 51.6138 51.498 52.0098 51.883C52.8018 52.642 52.9228 53.918 52.9228 55.172ZM51.5258 55.172C51.5258 54.182 51.6468 52.477 50.2278 52.477C48.8088 52.477 48.9298 54.182 48.9298 55.172C48.9298 56.162 48.8088 57.867 50.2278 57.867C51.6468 57.867 51.5258 56.162 51.5258 55.172ZM59.1522 52.455L56.1712 59H54.6862L57.6782 52.587H53.8832V51.355H59.1522V52.455Z" fill="#EEEEFF"/>
<path d="M10.41 8.45C10.41 9.43 10.31 10.49 9.58 11.24C9.11 11.73 8.4 12 7.59 12H4.83V4.91H7.59C8.4 4.91 9.11 5.18 9.58 5.67C10.31 6.42 10.41 7.47 10.41 8.45ZM9.1 8.45C9.1 7.8 9.09 6.97 8.59 6.47C8.35 6.23 8 6.07 7.59 6.07H6.12V10.84H7.59C8 10.84 8.35 10.68 8.59 10.44C9.09 9.94 9.1 9.1 9.1 8.45ZM16.5459 12H15.7159L15.5659 11.22C15.3559 11.63 14.6759 12.12 13.7859 12.13C12.9659 12.14 12.2359 11.93 11.6759 11.34C10.9359 10.57 10.7559 9.62 10.7559 8.46C10.7559 7.3 10.9059 6.38 11.6759 5.61C12.2159 5.07 13.0259 4.78 13.7859 4.78C14.6559 4.78 15.4059 5.1 15.8859 5.59C16.2359 5.95 16.4959 6.4 16.5359 7.02H15.2159C15.1959 6.74 15.0559 6.55 14.9059 6.37C14.6559 6.08 14.2659 5.94 13.7759 5.94C13.3659 5.94 12.8959 6.12 12.6159 6.42C12.1259 6.93 12.0659 7.81 12.0659 8.46C12.0659 9.11 12.1359 10.02 12.6259 10.53C12.9059 10.83 13.3659 10.98 13.7759 10.98C14.2359 10.98 14.5959 10.82 14.8359 10.57C15.2159 10.17 15.2959 9.73 15.2959 9.19H13.6059V8.12H16.5459V12ZM22.6719 9.74C22.6119 10.3 22.4019 10.87 21.9919 11.29C21.4619 11.83 20.7219 12.13 19.9619 12.13C19.2019 12.13 18.4919 11.88 17.9519 11.34C17.1819 10.57 17.0719 9.62 17.0719 8.46C17.0719 7.3 17.1819 6.35 17.9519 5.58C18.4919 5.04 19.2019 4.78 19.9619 4.78C20.7219 4.78 21.4619 5.06 21.9919 5.6C22.4019 6.02 22.6119 6.58 22.6719 7.14H21.3519C21.3219 6.83 21.2119 6.61 21.0319 6.39C20.8019 6.1 20.4019 5.95 19.9619 5.95C19.5519 5.95 19.1519 6.12 18.8719 6.42C18.3819 6.93 18.3819 7.81 18.3819 8.46C18.3819 9.11 18.3819 9.99 18.8719 10.5C19.1519 10.8 19.5519 10.97 19.9619 10.97C20.4019 10.97 20.8019 10.81 21.0319 10.52C21.2119 10.3 21.3219 10.05 21.3519 9.74H22.6719ZM27.8612 12H23.2812V4.91H24.5712V10.78H27.8612V12Z" fill="#EEEEFF"/>
<path d="M54.634 4.5C55.0189 3.83333 55.9811 3.83333 56.366 4.5L59.3971 9.75C59.782 10.4167 59.3009 11.25 58.5311 11.25H52.4689C51.6991 11.25 51.218 10.4167 51.6029 9.75L54.634 4.5Z" fill="#EEEEFF"/>
</g>
<defs>
<clipPath id="clip0_156_913">
<rect width="64" height="64" fill="white"/>
</clipPath>
</defs>
</svg>
