<svg width="64" height="64" viewBox="0 0 64 64" fill="none" xmlns="http://www.w3.org/2000/svg">
<g clip-path="url(#clip0_342_7018)">
<rect width="64" height="64" fill="#149618"/>
<rect width="64" height="64" rx="6" fill="#149618"/>
<path d="M24.1372 21.984L20.7532 39H17.6572L14.1052 27.264L10.5532 39H7.45719L4.02519 21.984H6.97719L9.35319 33.816L12.8572 22.248H15.4492L18.8812 33.816L21.3052 21.984H24.1372ZM43.6269 39H40.6269V26.856L36.2109 38.76H33.9309L29.5389 26.712V39H26.5389V21.984H30.7149L35.1789 34.104L39.6669 21.984H43.6269V39ZM59.6332 39H46.3132V35.952L55.6972 24.792H46.4572V21.984H59.5132V25.032L50.2012 36.192H59.6332V39Z" fill="#CCFFCE"/>
<path d="M8.69435 59H7.31935V52.983L5.63635 54.204V52.708L7.51735 51.355H8.69435V59ZM16.4088 56.855C16.4088 58.34 15.1438 59.154 13.7688 59.154C12.3938 59.154 11.1288 58.34 11.1288 56.855C11.1288 56.096 11.5138 55.37 12.2398 55.029C11.6788 54.721 11.2828 54.028 11.2828 53.379C11.2828 51.938 12.4378 51.212 13.7688 51.212C15.0998 51.212 16.2548 51.938 16.2548 53.379C16.2548 54.028 15.8588 54.721 15.2978 55.029C16.0238 55.37 16.4088 56.096 16.4088 56.855ZM14.8688 53.401C14.8688 52.84 14.4948 52.411 13.7688 52.411C13.0318 52.411 12.6688 52.84 12.6688 53.401C12.6688 53.962 13.0428 54.424 13.7688 54.424C14.4948 54.424 14.8688 53.962 14.8688 53.401ZM15.0228 56.767C15.0228 56.14 14.5828 55.634 13.7688 55.634C12.9548 55.634 12.5148 56.14 12.5148 56.767C12.5148 57.471 13.0208 57.933 13.7688 57.933C14.5168 57.933 15.0228 57.471 15.0228 56.767ZM22.7372 55.172C22.7372 56.426 22.6162 57.702 21.8242 58.461C21.4282 58.846 20.8672 59.143 20.0422 59.143C19.2172 59.143 18.6562 58.846 18.2602 58.461C17.4682 57.702 17.3472 56.426 17.3472 55.172C17.3472 53.918 17.4682 52.642 18.2602 51.883C18.6562 51.498 19.2172 51.212 20.0422 51.212C20.8672 51.212 21.4282 51.498 21.8242 51.883C22.6162 52.642 22.7372 53.918 22.7372 55.172ZM21.3402 55.172C21.3402 54.182 21.4612 52.477 20.0422 52.477C18.6232 52.477 18.7442 54.182 18.7442 55.172C18.7442 56.162 18.6232 57.867 20.0422 57.867C21.4612 57.867 21.3402 56.162 21.3402 55.172ZM28.8567 56.811C28.8567 58.34 27.6907 59.143 26.2497 59.143C24.8417 59.143 23.6977 58.219 23.6537 56.789H25.0287C25.0837 57.537 25.5897 57.933 26.2607 57.933C26.9427 57.933 27.4707 57.515 27.4707 56.789C27.4707 55.997 26.8437 55.634 26.1287 55.634H25.5567V54.435H26.1287C26.8767 54.435 27.3057 54.127 27.3057 53.412C27.3057 52.862 26.8657 52.411 26.2607 52.411C25.5787 52.411 25.0947 52.752 25.0837 53.445H23.6977C23.7197 52.004 24.8637 51.212 26.2607 51.212C27.6467 51.212 28.7027 52.059 28.7027 53.379C28.7027 54.072 28.2957 54.776 27.6027 55.018C28.3947 55.238 28.8567 56.019 28.8567 56.811ZM35.1301 56.811C35.1301 58.34 33.9641 59.143 32.5231 59.143C31.1151 59.143 29.9711 58.219 29.9271 56.789H31.3021C31.3571 57.537 31.8631 57.933 32.5341 57.933C33.2161 57.933 33.7441 57.515 33.7441 56.789C33.7441 55.997 33.1171 55.634 32.4021 55.634H31.8301V54.435H32.4021C33.1501 54.435 33.5791 54.127 33.5791 53.412C33.5791 52.862 33.1391 52.411 32.5341 52.411C31.8521 52.411 31.3681 52.752 31.3571 53.445H29.9711C29.9931 52.004 31.1371 51.212 32.5341 51.212C33.9201 51.212 34.9761 52.059 34.9761 53.379C34.9761 54.072 34.5691 54.776 33.8761 55.018C34.6681 55.238 35.1301 56.019 35.1301 56.811ZM41.7775 57.46H40.8095V59H39.4345V57.46H36.0245V56.162L38.8295 51.355H40.3255L37.4765 56.217H39.4345V54.424H40.8095V56.217H41.7775V57.46ZM46.434 56.228H42.661V54.996H46.434V56.228ZM52.9228 55.172C52.9228 56.426 52.8018 57.702 52.0098 58.461C51.6138 58.846 51.0528 59.143 50.2278 59.143C49.4028 59.143 48.8418 58.846 48.4458 58.461C47.6538 57.702 47.5328 56.426 47.5328 55.172C47.5328 53.918 47.6538 52.642 48.4458 51.883C48.8418 51.498 49.4028 51.212 50.2278 51.212C51.0528 51.212 51.6138 51.498 52.0098 51.883C52.8018 52.642 52.9228 53.918 52.9228 55.172ZM51.5258 55.172C51.5258 54.182 51.6468 52.477 50.2278 52.477C48.8088 52.477 48.9298 54.182 48.9298 55.172C48.9298 56.162 48.8088 57.867 50.2278 57.867C51.6468 57.867 51.5258 56.162 51.5258 55.172ZM59.1962 55.172C59.1962 56.426 59.0752 57.702 58.2832 58.461C57.8872 58.846 57.3262 59.143 56.5012 59.143C55.6762 59.143 55.1152 58.846 54.7192 58.461C53.9272 57.702 53.8062 56.426 53.8062 55.172C53.8062 53.918 53.9272 52.642 54.7192 51.883C55.1152 51.498 55.6762 51.212 56.5012 51.212C57.3262 51.212 57.8872 51.498 58.2832 51.883C59.0752 52.642 59.1962 53.918 59.1962 55.172ZM57.7992 55.172C57.7992 54.182 57.9202 52.477 56.5012 52.477C55.0822 52.477 55.2032 54.182 55.2032 55.172C55.2032 56.162 55.0822 57.867 56.5012 57.867C57.9202 57.867 57.7992 56.162 57.7992 55.172Z" fill="#CCFFCE"/>
<path d="M7.73 6.08H4.12V7.98H7.34V9.15H4.12V12H2.83V4.91H7.73V6.08ZM9.47891 6.08H8.13891V4.79H9.47891V6.08ZM9.44891 12H8.17891V6.8H9.44891V12ZM14.5602 10.39C14.5602 10.89 14.3802 11.26 14.1102 11.53C13.6902 11.95 13.0402 12.13 12.3302 12.13C11.6702 12.13 11.0802 11.94 10.6502 11.53C10.3502 11.24 10.1002 10.81 10.1002 10.32H11.2702C11.2702 10.55 11.3902 10.8 11.5502 10.93C11.7502 11.09 11.9802 11.16 12.3402 11.16C12.7602 11.16 13.4002 11.07 13.4002 10.5C13.4002 10.2 13.2002 10 12.8802 9.95C12.4202 9.88 11.9002 9.85 11.4402 9.75C10.7302 9.6 10.2502 9.02 10.2502 8.36C10.2502 7.83 10.4702 7.46 10.7802 7.19C11.1602 6.86 11.7102 6.67 12.3602 6.67C12.9802 6.67 13.6102 6.87 13.9902 7.28C14.2702 7.58 14.4502 7.97 14.4502 8.35H13.2602C13.2602 8.15 13.1702 7.99 13.0502 7.86C12.9002 7.71 12.6302 7.62 12.3702 7.62C12.1902 7.62 12.0202 7.62 11.8302 7.7C11.6102 7.79 11.4302 7.98 11.4302 8.25C11.4302 8.62 11.7502 8.73 12.0302 8.77C12.5002 8.83 12.6302 8.84 13.1402 8.92C13.9602 9.05 14.5602 9.57 14.5602 10.39ZM19.6651 12H18.4151V8.79C18.4151 8.19 18.2151 7.82 17.5551 7.82C16.8051 7.82 16.4851 8.62 16.4851 9.26V12H15.2351V4.78H16.4851V7.35C16.7851 6.91 17.3651 6.67 17.9051 6.67C19.0151 6.67 19.6651 7.46 19.6651 8.53V12ZM25.0433 9.44C25.0433 9.44 25.0333 9.68 25.0333 9.79H21.5533C21.5433 10.19 21.6833 10.57 21.9333 10.81C22.1133 10.98 22.3633 11.13 22.7033 11.13C23.0633 11.13 23.2833 11.06 23.4633 10.88C23.5733 10.77 23.6633 10.63 23.7133 10.44H24.9133C24.8833 10.75 24.6733 11.16 24.4733 11.4C24.0333 11.92 23.3833 12.13 22.7233 12.13C22.0133 12.13 21.4933 11.88 21.0833 11.49C20.5633 10.99 20.2833 10.26 20.2833 9.41C20.2833 8.58 20.5333 7.84 21.0333 7.33C21.4233 6.93 21.9833 6.67 22.6933 6.67C23.4633 6.67 24.1633 6.98 24.5933 7.63C24.9733 8.2 25.0633 8.79 25.0433 9.44ZM23.7933 8.88C23.7833 8.49 23.6733 8.19 23.4733 7.97C23.3033 7.79 23.0433 7.67 22.6833 7.67C22.3033 7.67 21.9933 7.83 21.8133 8.07C21.6333 8.3 21.5533 8.54 21.5433 8.88H23.7933ZM28.7397 7.96C28.5997 7.93 28.4497 7.91 28.3097 7.91C27.4297 7.91 26.9697 8.54 26.9697 9.38V12H25.7097V6.8H26.7697L26.8797 7.58C27.1197 6.98 27.7397 6.73 28.3497 6.73C28.4797 6.73 28.6097 6.74 28.7397 6.76V7.96ZM30.6866 6.27C30.6866 7.08 30.4666 7.63 29.6366 7.98L29.3066 7.4C29.8266 7.15 29.9566 6.88 29.9566 6.38H29.2366V4.91H30.6866V6.27ZM34.9704 10.39C34.9704 10.89 34.7904 11.26 34.5204 11.53C34.1004 11.95 33.4504 12.13 32.7404 12.13C32.0804 12.13 31.4904 11.94 31.0604 11.53C30.7604 11.24 30.5104 10.81 30.5104 10.32H31.6804C31.6804 10.55 31.8004 10.8 31.9604 10.93C32.1604 11.09 32.3904 11.16 32.7504 11.16C33.1704 11.16 33.8104 11.07 33.8104 10.5C33.8104 10.2 33.6104 10 33.2904 9.95C32.8304 9.88 32.3104 9.85 31.8504 9.75C31.1404 9.6 30.6604 9.02 30.6604 8.36C30.6604 7.83 30.8804 7.46 31.1904 7.19C31.5704 6.86 32.1204 6.67 32.7704 6.67C33.3904 6.67 34.0204 6.87 34.4004 7.28C34.6804 7.58 34.8604 7.97 34.8604 8.35H33.6704C33.6704 8.15 33.5804 7.99 33.4604 7.86C33.3104 7.71 33.0404 7.62 32.7804 7.62C32.6004 7.62 32.4304 7.62 32.2404 7.7C32.0204 7.79 31.8404 7.98 31.8404 8.25C31.8404 8.62 32.1604 8.73 32.4404 8.77C32.9104 8.83 33.0404 8.84 33.5504 8.92C34.3704 9.05 34.9704 9.57 34.9704 10.39ZM38.6751 12H37.1551V10.44H38.6751V12Z" fill="#CCFFCE"/>
<rect x="58.5" y="3" width="2.1215" height="10.6075" transform="rotate(45 58.5 3)" fill="#CCFFCE"/>
<rect x="60" y="10.501" width="2.1215" height="10.6075" transform="rotate(135 60 10.501)" fill="#CCFFCE"/>
</g>
<defs>
<clipPath id="clip0_342_7018">
<rect width="64" height="64" fill="white"/>
</clipPath>
</defs>
</svg>
