<svg id="Layer_1" data-name="Layer 1" xmlns="http://www.w3.org/2000/svg" viewBox="0 0 1920 1080">
  <defs>
    <style>
      .cls-1 {
        fill: #fff;
        stroke: #000;
        stroke-width: 3px;
      }
    </style>
  </defs>
  <circle class="cls-1" cx="575.36" cy="853.03" r="50"/>
  <path d="M572.86,860.13H564v-2l5.4-6.5a2.74,2.74,0,0,0,.7-1.8,1.61,1.61,0,0,0-1.8-1.7,1.86,1.86,0,0,0-1.9,2h-2.6a4,4,0,0,1,4.4-4.2c2.8,0,4.3,1.5,4.3,3.9s-.7,2.5-1.5,3.4l-3.8,4.6h5.6v2.3ZM587,853c0,2-.2,4.1-1.7,5.6a5.35,5.35,0,0,1-4,1.5h-5.5v-14.2h5.5a5.51,5.51,0,0,1,4,1.5c1.5,1.5,1.7,3.6,1.7,5.6Zm-2.6,0c0-1.3,0-3-1-4s-1.2-.8-2-.8h-2.9v9.5h2.9a2.79,2.79,0,0,0,2-.8c1-1,1-2.7,1-4Z"/>
</svg>
