<svg id="Layer_1" data-name="Layer 1" xmlns="http://www.w3.org/2000/svg" viewBox="0 0 1920 1080">
  <defs>
    <style>
      .cls-1 {
        fill: none;
      }

      .cls-1, .cls-2 {
        stroke: #000;
      }

      .cls-2 {
        fill: #fff;
        stroke-width: 3px;
      }
    </style>
  </defs>
  <path class="cls-1" d="M964.5,545.1l113.6-223"/>
  <circle class="cls-2" cx="1079.1" cy="322.1" r="68.5"/>
  <path d="M1040.2,317.3H1036v11.8h-2.6V317.3h-4.2v-2.4h11v2.4Zm11.9,11.8H1042V314.9h10.1v2.3h-7.5v3.3h6.6v2.3h-6.6v3.9h7.5v2.4Zm16.7,0h-2.5V319l-3.7,9.9h-1.9l-3.7-10v10.2h-2.5V314.9h3.5l3.7,10.1,3.7-10.1h3.3v14.2Zm13.8-9.6c0,2.7-1.7,4.6-5,4.6h-3v5.1H1072V315h5.6c3.3,0,5,1.8,5,4.5Zm-2.6,0c0-1.4-.8-2.3-2.5-2.3h-2.9v4.6h2.9C1079.2,321.8,1080,320.9,1080,319.5Zm13.7,9.6h-9.2V314.9h2.6v11.7h6.6v2.5Zm13,0H1104l-.9-2.7h-5.6l-.9,2.7H1094l5-14.2h2.8l5,14.2Zm-4.4-5-2-6-2,6Zm14.1-6.8h-4.2v11.8h-2.6V317.3h-4.2v-2.4h11v2.4Zm11.8,11.8h-10.1V314.9h10.1v2.3h-7.5v3.3h6.6v2.3h-6.6v3.9h7.5v2.4Z"/>
  <circle class="cls-2" cx="1215.5" cy="549.3" r="68.5"/>
  <circle class="cls-2" cx="1215.5" cy="549.3" r="68.5"/>
  <circle class="cls-2" cx="1354.5" cy="459.7" r="50"/>
  <circle class="cls-2" cx="1351.7" cy="641.27" r="50"/>
  <circle class="cls-2" cx="491.78" cy="691.81" r="50"/>
  <circle class="cls-2" cx="575.36" cy="853.03" r="50"/>
  <path d="M1321.2,462.4a4.13,4.13,0,0,1-1.2,3,6.15,6.15,0,0,1-4.5,1.5,5.44,5.44,0,0,1-4.2-1.5,4.86,4.86,0,0,1-1.5-3.3h2.6a2.41,2.41,0,0,0,.7,1.7,3.49,3.49,0,0,0,2.4.8,3.75,3.75,0,0,0,2.5-.8,1.84,1.84,0,0,0,.6-1.4c0-1-.8-1.5-1.7-1.7s-2.2-.2-3.1-.4a3.88,3.88,0,0,1-3.6-4c0-2.4.5-2.1,1.2-2.8a6.12,6.12,0,0,1,4.2-1.5,5.72,5.72,0,0,1,4,1.4,4.25,4.25,0,0,1,1.4,3h-2.6a2.51,2.51,0,0,0-.6-1.4,3.29,3.29,0,0,0-2.2-.8,3.24,3.24,0,0,0-2.3.8,1.66,1.66,0,0,0-.5,1.2,1.45,1.45,0,0,0,1.4,1.5c.9.1,2.2.2,3.1.4a4.15,4.15,0,0,1,3.9,4.1Zm13.3-2.8c0,2.3-.3,4.2-1.8,5.7a6.05,6.05,0,0,1-8.2,0c-1.5-1.5-1.8-3.4-1.8-5.7s.3-4.2,1.8-5.8a6.05,6.05,0,0,1,8.2,0C1334.2,455.3,1334.5,457.2,1334.5,459.6Zm-2.6,0c0-1.3,0-3.1-1-4.1a3.1,3.1,0,0,0-2.2-.9,2.94,2.94,0,0,0-2.2.9c-1,1-1,2.8-1,4.1s0,3,1,4.1a3.1,3.1,0,0,0,2.2.9,2.94,2.94,0,0,0,2.2-.9C1331.9,462.7,1331.9,460.9,1331.9,459.6Zm15.8,1.6c0,3.4-1.9,5.7-5.6,5.7s-5.6-2.3-5.6-5.7v-8.7h2.6v8.7c0,2,.9,3.4,3,3.4s3-1.4,3-3.4v-8.7h2.6Zm13.8,5.5h-2.8l-2.4-5.4h-3.1v5.4h-2.6V452.5h6c3.4,0,4.9,2.1,4.9,4.4a3.75,3.75,0,0,1-2.6,4Zm-2.6-9.8a2.16,2.16,0,0,0-2.3-2.1h-3.4V459h3.4a2,2,0,0,0,2.3-2.1Zm15.2,5.2a4.68,4.68,0,0,1-1.4,3.1,5.66,5.66,0,0,1-4.1,1.7,5.35,5.35,0,0,1-4-1.6c-1.5-1.5-1.8-3.4-1.8-5.8s.2-4.2,1.8-5.8a5.51,5.51,0,0,1,4-1.6,6.2,6.2,0,0,1,4.1,1.6,5.88,5.88,0,0,1,1.4,3.1h-2.6a2.53,2.53,0,0,0-.6-1.5,2.72,2.72,0,0,0-2.1-.9,3.1,3.1,0,0,0-2.2.9c-1,1-1,2.8-1,4.1s0,3.1,1,4.1a3.1,3.1,0,0,0,2.2.9,2.58,2.58,0,0,0,2.1-.9,2.11,2.11,0,0,0,.6-1.6h2.6Zm12.4,4.6h-10.1V452.5h10.1v2.3H1379v3.3h6.6v2.3H1379v3.9h7.5v2.4Zm12.6-4.3a4.13,4.13,0,0,1-1.2,3,6.15,6.15,0,0,1-4.5,1.5,5.44,5.44,0,0,1-4.2-1.5,4.86,4.86,0,0,1-1.5-3.3h2.6a2.41,2.41,0,0,0,.7,1.7,3.49,3.49,0,0,0,2.4.8,3.75,3.75,0,0,0,2.5-.8,1.84,1.84,0,0,0,.6-1.4c0-1-.8-1.5-1.7-1.7s-2.2-.2-3.1-.4a3.88,3.88,0,0,1-3.6-4c0-2.4.5-2.1,1.2-2.8a6.12,6.12,0,0,1,4.2-1.5,5.72,5.72,0,0,1,4,1.4,4.25,4.25,0,0,1,1.4,3h-2.6a2.51,2.51,0,0,0-.6-1.4,3.29,3.29,0,0,0-2.2-.8,3.24,3.24,0,0,0-2.3.8,1.66,1.66,0,0,0-.5,1.2,1.45,1.45,0,0,0,1.4,1.5c.9.1,2.2.2,3.1.4a4.15,4.15,0,0,1,3.9,4.1Z"/>
  <path d="M1329.2,636.72H1325v11.8h-2.6v-11.8h-4.2v-2.4h11v2.4Zm12.3,4.7c0,2.3-.3,4.2-1.8,5.7a6.05,6.05,0,0,1-8.2,0c-1.5-1.5-1.8-3.4-1.8-5.7s.3-4.2,1.8-5.8a6.05,6.05,0,0,1,8.2,0C1341.2,637.12,1341.5,639,1341.5,641.42Zm-2.7,0c0-1.3,0-3.1-1-4.1a3.15,3.15,0,0,0-2.2-.9,2.94,2.94,0,0,0-2.2.9c-1,1-1,2.8-1,4.1s0,3,1,4.1a3.1,3.1,0,0,0,2.2.9,2.94,2.94,0,0,0,2.2-.9C1338.8,644.52,1338.8,642.72,1338.8,641.42Zm15.7-2.6c0,2.7-1.7,4.6-5,4.6h-3v5.1h-2.6v-14.2h5.6c3.3,0,5,1.8,5,4.5Zm-2.6,0c0-1.4-.8-2.3-2.5-2.3h-2.9v4.6h2.9C1351.1,641.12,1351.9,640.22,1351.9,638.82Zm7.1,9.7h-2.6v-14.2h2.6Zm13.7-4.6a4.68,4.68,0,0,1-1.4,3.1,5.66,5.66,0,0,1-4.1,1.7,5.35,5.35,0,0,1-4-1.6c-1.5-1.5-1.8-3.4-1.8-5.8s.2-4.2,1.8-5.8a4.5,4.5,0,0,1,4-1.59,6.19,6.19,0,0,1,4.1,1.59,5.88,5.88,0,0,1,1.4,3.1h-2.6a2.53,2.53,0,0,0-.6-1.5,2.72,2.72,0,0,0-2.1-.9,3.1,3.1,0,0,0-2.2.9c-1,1-1,2.8-1,4.1s0,3.1,1,4.1a3.1,3.1,0,0,0,2.2.9,2.58,2.58,0,0,0,2.1-.9,2.11,2.11,0,0,0,.6-1.6h2.6Zm12.5.3a4.13,4.13,0,0,1-1.2,3,6.15,6.15,0,0,1-4.5,1.5,5.44,5.44,0,0,1-4.2-1.5,4.86,4.86,0,0,1-1.5-3.3h2.6a2.41,2.41,0,0,0,.7,1.7,3.49,3.49,0,0,0,2.4.8,3.75,3.75,0,0,0,2.5-.8,1.84,1.84,0,0,0,.6-1.4c0-1-.8-1.5-1.7-1.7s-2.2-.2-3.1-.4a3.88,3.88,0,0,1-3.6-4c0-2.4.5-2.1,1.2-2.8a6.12,6.12,0,0,1,4.2-1.5,5.72,5.72,0,0,1,4,1.4,4.25,4.25,0,0,1,1.4,3h-2.6a2.51,2.51,0,0,0-.6-1.4,3.29,3.29,0,0,0-2.2-.8,3.24,3.24,0,0,0-2.3.8,1.66,1.66,0,0,0-.5,1.2,1.45,1.45,0,0,0,1.4,1.5c.9.1,2.2.2,3.1.4a4.15,4.15,0,0,1,3.9,4.1Z"/>
  <path d="M1176.3,556.3h-2.8l-2.4-5.4H1168v5.4h-2.6V542.1h6c3.4,0,4.9,2.1,4.9,4.4a3.75,3.75,0,0,1-2.6,4Zm-2.6-9.8a2.16,2.16,0,0,0-2.3-2.1H1168v4.2h3.4a2,2,0,0,0,2.3-2.1Zm14.9,9.8h-10.1V542.1h10.1v2.3h-7.5v3.3h6.6V550h-6.6v3.9h7.5v2.4Zm12.7-4.3a4.13,4.13,0,0,1-1.2,3,6.15,6.15,0,0,1-4.5,1.5,5.44,5.44,0,0,1-4.2-1.5,4.86,4.86,0,0,1-1.5-3.3h2.6a2.41,2.41,0,0,0,.7,1.7,3.49,3.49,0,0,0,2.4.8,3.75,3.75,0,0,0,2.5-.8,1.84,1.84,0,0,0,.6-1.4c0-1-.8-1.5-1.7-1.7s-2.2-.2-3.1-.4a3.88,3.88,0,0,1-3.6-4c0-2.4.5-2.1,1.2-2.8a6.12,6.12,0,0,1,4.2-1.5,5.72,5.72,0,0,1,4,1.4,4.25,4.25,0,0,1,1.4,3h-2.6a2.51,2.51,0,0,0-.6-1.4,3.29,3.29,0,0,0-2.2-.8,3.24,3.24,0,0,0-2.3.8,1.66,1.66,0,0,0-.5,1.2,1.45,1.45,0,0,0,1.4,1.5c.9.1,2.2.2,3.1.4a4.15,4.15,0,0,1,3.9,4.1Zm12.4,4.3h-10.1V542.1h10.1v2.3h-7.5v3.3h6.6V550h-6.6v3.9h7.5v2.4Zm13.6,0h-2.7l-.9-2.7h-5.6l-.9,2.7h-2.6l5-14.2h2.8l5,14.2Zm-4.4-5.1-2-6-2,6Zm17,5.1h-2.8l-2.4-5.4h-3.1v5.4H1229V542.1h6c3.4,0,4.9,2.1,4.9,4.4a3.75,3.75,0,0,1-2.6,4Zm-2.6-9.8a2.16,2.16,0,0,0-2.3-2.1h-3.4v4.2h3.4a2,2,0,0,0,2.3-2.1Zm15.2,5.2a4.68,4.68,0,0,1-1.4,3.1,5.66,5.66,0,0,1-4.1,1.7,5.35,5.35,0,0,1-4-1.6c-1.5-1.5-1.8-3.4-1.8-5.8s.2-4.2,1.8-5.8a4.49,4.49,0,0,1,4-1.6,6.2,6.2,0,0,1,4.1,1.6,5.88,5.88,0,0,1,1.4,3.1h-2.6a2.53,2.53,0,0,0-.6-1.5,2.72,2.72,0,0,0-2.1-.9,3.1,3.1,0,0,0-2.2.9c-1,1-1,2.8-1,4.1s0,3.1,1,4.1a3.1,3.1,0,0,0,2.2.9,2.58,2.58,0,0,0,2.1-.9,2.11,2.11,0,0,0,.6-1.6h2.6Zm13.2,4.6h-2.6v-6.2h-5.8v6.2h-2.6V542.1h2.6v5.5h5.8v-5.5h2.6Z"/>
  <circle class="cls-2" cx="695.32" cy="687.21" r="98.5"/>
  <path d="M623.4,694.46h-2.8l-2.4-5.41h-3.1v5.41h-2.6v-14.2h6c3.4,0,4.9,2.09,4.9,4.4a3.75,3.75,0,0,1-2.6,4l2.6,5.8Zm-2.6-9.8a2.16,2.16,0,0,0-2.3-2.1h-3.4v4.2h3.4a2,2,0,0,0,2.3-2.1Zm14.9,9.8H625.6v-14.2h10.1v2.29h-7.5v3.3h6.6v2.3h-6.6v3.9h7.5v2.41Zm13.1-9.7c0,2.7-1.7,4.59-5,4.59h-3v5.1h-2.6v-14.2h5.6c3.3,0,5,1.8,5,4.5Zm-2.6,0c0-1.41-.8-2.3-2.5-2.3h-2.9v4.59h2.9C645.4,687.05,646.2,686.15,646.2,684.76Zm15.4,9.7h-2.8l-2.4-5.41h-3.1v5.41h-2.6v-14.2h6c3.4,0,4.9,2.09,4.9,4.4a3.75,3.75,0,0,1-2.6,4l2.6,5.8Zm-2.6-9.8a2.16,2.16,0,0,0-2.3-2.1h-3.4v4.2h3.4a2,2,0,0,0,2.3-2.1Zm15,9.8H663.9v-14.2H674v2.29h-7.5v3.3h6.6v2.3h-6.6v3.9H674v2.41Zm12.7-4.3a4.13,4.13,0,0,1-1.2,3,6.15,6.15,0,0,1-4.5,1.5,5.44,5.44,0,0,1-4.2-1.5,4.86,4.86,0,0,1-1.5-3.3h2.6a2.41,2.41,0,0,0,.7,1.7,3.49,3.49,0,0,0,2.4.8,3.75,3.75,0,0,0,2.5-.8,1.84,1.84,0,0,0,.6-1.4c0-1-.8-1.5-1.7-1.7s-2.2-.2-3.1-.41a3.87,3.87,0,0,1-3.6-4c0-2.4.5-2.09,1.2-2.79a6.07,6.07,0,0,1,4.2-1.5,5.72,5.72,0,0,1,4,1.4,4.25,4.25,0,0,1,1.4,3h-2.6a2.51,2.51,0,0,0-.6-1.4,3.29,3.29,0,0,0-2.2-.8,3.24,3.24,0,0,0-2.3.8,1.64,1.64,0,0,0-.5,1.2,1.45,1.45,0,0,0,1.4,1.5,29.87,29.87,0,0,1,3.1.4,4.15,4.15,0,0,1,3.9,4.1Zm12.4,4.3H689v-14.2h10.1v2.29h-7.5v3.3h6.6v2.3h-6.6v3.9h7.5v2.41Zm13.8,0h-2.7l-6.1-9.7v9.7h-2.5v-14.2h2.7l6.1,9.59v-9.59h2.5Zm12.7-11.8h-4.2v11.8h-2.6v-11.8h-4.2v-2.4h11Zm11.5,11.8h-2.7l-.9-2.7h-5.6l-.9,2.7h-2.6l5-14.2h2.8l5,14.2Zm-4.4-5.1-2-6-2,6Zm14.1-6.7h-4.2v11.8H740v-11.8h-4.2v-2.4h11Zm4.4,11.8h-2.6v-14.2h2.6Zm14.3-7.1c0,2.3-.3,4.2-1.8,5.7a4.85,4.85,0,0,1-4.1,1.6,5.74,5.74,0,0,1-4.1-1.6c-1.5-1.5-1.8-3.4-1.8-5.7s.3-4.2,1.8-5.8a6.05,6.05,0,0,1,8.2,0C765.2,683.06,765.5,685,765.5,687.36Zm-2.7,0c0-1.3,0-3.1-1-4.1a3.1,3.1,0,0,0-2.2-.9,2.94,2.94,0,0,0-2.2.9c-1,1-1,2.8-1,4.1s0,3,1,4.1a3.15,3.15,0,0,0,2.2.9,2.94,2.94,0,0,0,2.2-.9C762.8,690.46,762.8,688.66,762.8,687.36Zm16.5,7.1h-2.7l-6.1-9.7v9.7H768v-14.2h2.7l6.1,9.59v-9.59h2.5Z"/>
  <path class="cls-1" d="M743.5,330.4,951.6,549.5"/>
  <path class="cls-1" d="M1049,552.3h96.5"/>
  <path class="cls-1" d="M783.13,640.18l116.41-62.64"/>
  <path class="cls-1" d="M1276.5,516.3l38-29"/>
  <path class="cls-1" d="M1273.25,586.16l38.25,28.14"/>
  <path class="cls-1" d="M543.25,695.45l53.92.35"/>
  <path class="cls-1" d="M605.13,812.85,631.85,764"/>
  <path class="cls-1" d="M964.5,552.2l152,198.9"/>
  <circle class="cls-2" cx="962.5" cy="552.3" r="108.5"/>
  <path d="M914.9,559.3h-3l-3.8-6.7-2.4,2.9v3.8h-2.6V545.1h2.6v6.5l5.7-6.5h3.1l-4.6,5.4,5.1,8.8Zm12.9,0h-2.7l-6.1-9.7v9.7h-2.5V545.1h2.7l6.1,9.6v-9.6h2.5Zm14.3-7.1c0,2.3-.3,4.2-1.8,5.7a6.05,6.05,0,0,1-8.2,0c-1.5-1.5-1.8-3.4-1.8-5.7s.3-4.2,1.8-5.8a4.57,4.57,0,0,1,4.1-1.6,5.74,5.74,0,0,1,4.1,1.6C941.8,547.9,942.1,549.8,942.1,552.2Zm-2.6,0c0-1.3,0-3.1-1-4.1a3.1,3.1,0,0,0-2.2-.9,2.94,2.94,0,0,0-2.2.9c-1,1-1,2.8-1,4.1s0,3,1,4.1a3.1,3.1,0,0,0,2.2.9,2.94,2.94,0,0,0,2.2-.9C939.5,555.3,939.5,553.5,939.5,552.2Zm20.5-7.1-2.8,14.2h-2.6l-3-9.8-3,9.8H946l-2.9-14.2h2.5l2,9.9,2.9-9.6h2.2l2.9,9.6,2-9.9Zm11.1,14.2h-9.2V545.1h2.6v11.7h6.6v2.5Zm12,0H973V545.1h10.1v2.3h-7.5v3.3h6.6V553h-6.6v3.9h7.5v2.4Zm13.6-7.1c0,2-.2,4.1-1.7,5.6a5.35,5.35,0,0,1-4,1.5h-5.5V545.1H991a5.51,5.51,0,0,1,4,1.5c1.5,1.5,1.7,3.6,1.7,5.6Zm-2.6,0c0-1.3,0-3-1-4s-1.2-.8-2-.8h-2.9v9.5h2.9a2.79,2.79,0,0,0,2-.8c1-1,1-2.7,1-4Zm15.8,7.1h-1.7l-.3-1.6a4.18,4.18,0,0,1-3.6,1.8,5.43,5.43,0,0,1-4.2-1.6c-1.5-1.5-1.8-3.4-1.8-5.8s.3-4.2,1.8-5.7a5.14,5.14,0,0,1,4.2-1.7,6.26,6.26,0,0,1,4.2,1.6,4.37,4.37,0,0,1,1.3,2.9h-2.6a2,2,0,0,0-.6-1.3,2.87,2.87,0,0,0-2.3-.9,2.93,2.93,0,0,0-2.3,1c-1,1-1.1,2.8-1.1,4.1s.1,3.1,1.1,4.1a3.34,3.34,0,0,0,2.3.9,3,3,0,0,0,2.1-.8,3.54,3.54,0,0,0,.9-2.8h-3.4v-2.1h5.9v7.8Zm13.1,0h-10.1V545.1H1023v2.3h-7.5v3.3h6.6V553h-6.6v3.9h7.5v2.4Z"/>
  <path d="M572.86,860.13H564v-2l5.4-6.5a2.74,2.74,0,0,0,.7-1.8,1.61,1.61,0,0,0-1.8-1.7,1.86,1.86,0,0,0-1.9,2h-2.6a4,4,0,0,1,4.4-4.2c2.8,0,4.3,1.5,4.3,3.9s-.7,2.5-1.5,3.4l-3.8,4.6h5.6v2.3ZM587,853c0,2-.2,4.1-1.7,5.6a5.35,5.35,0,0,1-4,1.5h-5.5v-14.2h5.5a5.51,5.51,0,0,1,4,1.5c1.5,1.5,1.7,3.6,1.7,5.6Zm-2.6,0c0-1.3,0-3-1-4s-1.2-.8-2-.8h-2.9v9.5h2.9a2.79,2.79,0,0,0,2-.8c1-1,1-2.7,1-4Z"/>
  <path d="M489.53,694.86c0,2.8-2.1,4.2-4.7,4.2a4.43,4.43,0,0,1-4.7-4.3h2.5a2,2,0,0,0,2.2,2.1,2.07,2.07,0,0,0,2.2-2.1,2.19,2.19,0,0,0-2.4-2.1h-1v-2.2h1c1.4,0,2.1-.6,2.1-1.9a1.66,1.66,0,0,0-1.9-1.8,1.89,1.89,0,0,0-2.1,1.9h-2.5c0-2.6,2.1-4.1,4.7-4.1s4.4,1.5,4.4,3.9-.7,2.5-2,3a3.37,3.37,0,0,1,2.3,3.3Zm13.9-3.1c0,2-.2,4.1-1.7,5.6a5.35,5.35,0,0,1-4,1.5h-5.5v-14.2h5.5a5.51,5.51,0,0,1,4,1.5c1.5,1.5,1.7,3.6,1.7,5.6Zm-2.7,0c0-1.3,0-3-1-4a2.79,2.79,0,0,0-2-.8h-2.9v9.5h2.9a2.79,2.79,0,0,0,2-.8c1-1,1-2.7,1-4Z"/>
  <circle class="cls-2" cx="1117.8" cy="749.5" r="68.5"/>
  <path d="M1079.3,756.5h-9.2V742.3h2.6V754h6.6v2.5Zm11.9,0h-10.1V742.3h10.1v2.3h-7.5v3.3h6.6v2.3h-6.6v3.9h7.5v2.4Zm12.7-4.5a4.68,4.68,0,0,1-1.4,3.1,5.66,5.66,0,0,1-4.1,1.7,5.35,5.35,0,0,1-4-1.6c-1.5-1.5-1.8-3.4-1.8-5.8s.2-4.2,1.8-5.8a4.49,4.49,0,0,1,4-1.6,6.2,6.2,0,0,1,4.1,1.6,5.88,5.88,0,0,1,1.4,3.1h-2.6a2.53,2.53,0,0,0-.6-1.5,2.72,2.72,0,0,0-2.1-.9,3.1,3.1,0,0,0-2.2.9c-1,1-1,2.8-1,4.1s0,3.1,1,4.1a3.1,3.1,0,0,0,2.2.9,2.58,2.58,0,0,0,2.1-.9,2.11,2.11,0,0,0,.6-1.6h2.6Zm11.3-7.3H1111v11.8h-2.6V744.7h-4.2v-2.4h11v2.4Zm12.5,6.4c0,3.4-1.9,5.7-5.6,5.7s-5.6-2.3-5.6-5.7v-8.7h2.6v8.7c0,2,.9,3.4,3,3.4s3-1.4,3-3.4v-8.7h2.6Zm13.8,5.4h-2.8l-2.4-5.4h-3.1v5.4h-2.6V742.3h6c3.4,0,4.9,2.1,4.9,4.4a3.75,3.75,0,0,1-2.6,4Zm-2.6-9.8a2.16,2.16,0,0,0-2.3-2.1h-3.4v4.2h3.4a2,2,0,0,0,2.3-2.1Zm15,9.8h-10.1V742.3h10.1v2.3h-7.5v3.3h6.6v2.3h-6.6v3.9h7.5v2.4Zm12.7-4.2a4.13,4.13,0,0,1-1.2,3,6.15,6.15,0,0,1-4.5,1.5,5.44,5.44,0,0,1-4.2-1.5,4.86,4.86,0,0,1-1.5-3.3h2.6a2.41,2.41,0,0,0,.7,1.7,3.49,3.49,0,0,0,2.4.8,3.75,3.75,0,0,0,2.5-.8,1.84,1.84,0,0,0,.6-1.4c0-1-.8-1.5-1.7-1.7s-2.2-.2-3.1-.4a3.88,3.88,0,0,1-3.6-4c0-2.4.5-2.1,1.2-2.8a6.12,6.12,0,0,1,4.2-1.5,5.72,5.72,0,0,1,4,1.4,4.25,4.25,0,0,1,1.4,3h-2.6a2.51,2.51,0,0,0-.6-1.4,3.29,3.29,0,0,0-2.2-.8,3.24,3.24,0,0,0-2.3.8,1.66,1.66,0,0,0-.5,1.2,1.45,1.45,0,0,0,1.4,1.5c.9.1,2.2.2,3.1.4a4.15,4.15,0,0,1,3.9,4.1Z"/>
  <circle class="cls-2" cx="742.8" cy="330.5" r="98.5"/>
  <path d="M676.9,333a4.68,4.68,0,0,1-1.4,3.1,5.66,5.66,0,0,1-4.1,1.7,5.35,5.35,0,0,1-4-1.6c-1.5-1.5-1.8-3.4-1.8-5.8s.2-4.2,1.8-5.8a5.51,5.51,0,0,1,4-1.6,6.2,6.2,0,0,1,4.1,1.6,5.88,5.88,0,0,1,1.4,3.1h-2.6a2.53,2.53,0,0,0-.6-1.5,2.72,2.72,0,0,0-2.1-.9,3.1,3.1,0,0,0-2.2.9c-1,1-1,2.8-1,4.1s0,3.1,1,4.1a3.1,3.1,0,0,0,2.2.9,2.58,2.58,0,0,0,2.1-.9,2.11,2.11,0,0,0,.6-1.6h2.6Zm13.1,4.5h-2.7l-.9-2.7h-5.6l-.9,2.7h-2.6l5-14.2h2.8l5,14.2Zm-4.5-5-2-6-2,6Zm17.3-2.1c0,2-.2,4.1-1.7,5.6a5.35,5.35,0,0,1-4,1.5h-5.5V323.3h5.5a5.51,5.51,0,0,1,4,1.5c1.5,1.5,1.7,3.6,1.7,5.6Zm-2.6,0c0-1.3,0-3-1-4a2.79,2.79,0,0,0-2-.8h-2.9v9.5h2.9a2.79,2.79,0,0,0,2-.8c1-1,1-2.7,1-4Zm19.8-2.5c0,2.7-1.7,4.6-5,4.6h-3v5.1h-2.6V323.4H715c3.3,0,5,1.8,5,4.5Zm-2.6,0c0-1.4-.8-2.3-2.5-2.3H712v4.6h2.9C716.6,330.2,717.4,329.3,717.4,327.9Zm15.5,9.6h-2.8l-2.4-5.4h-3.1v5.4H722V323.3h6c3.4,0,4.9,2.1,4.9,4.4a3.75,3.75,0,0,1-2.6,4l2.6,5.8Zm-2.6-9.8a2.16,2.16,0,0,0-2.3-2.1h-3.4v4.2H728a2,2,0,0,0,2.3-2.1Zm15.8,2.7c0,2.3-.3,4.2-1.8,5.7a6.05,6.05,0,0,1-8.2,0c-1.5-1.5-1.8-3.4-1.8-5.7s.3-4.2,1.8-5.8a6.05,6.05,0,0,1,8.2,0C745.8,326.1,746.1,328,746.1,330.4Zm-2.6,0c0-1.3,0-3.1-1-4.1a3.1,3.1,0,0,0-2.2-.9,2.94,2.94,0,0,0-2.2.9c-1,1-1,2.8-1,4.1s0,3,1,4.1a3.1,3.1,0,0,0,2.2.9,2.94,2.94,0,0,0,2.2-.9C743.5,333.5,743.5,331.7,743.5,330.4Zm14-4.7h-4.2v11.8h-2.6V325.7h-4.2v-2.4h11Zm12.2,4.7c0,2.3-.3,4.2-1.8,5.7a6.05,6.05,0,0,1-8.2,0c-1.5-1.5-1.8-3.4-1.8-5.7s.3-4.2,1.8-5.8a6.05,6.05,0,0,1,8.2,0C769.4,326.1,769.7,328,769.7,330.4Zm-2.6,0c0-1.3,0-3.1-1-4.1a3.1,3.1,0,0,0-2.2-.9,2.94,2.94,0,0,0-2.2.9c-1,1-1,2.8-1,4.1s0,3,1,4.1a3.1,3.1,0,0,0,2.2.9,2.94,2.94,0,0,0,2.2-.9C767.1,333.5,767.1,331.7,767.1,330.4Zm15.4,2.6a4.68,4.68,0,0,1-1.4,3.1,5.66,5.66,0,0,1-4.1,1.7,5.35,5.35,0,0,1-4-1.6c-1.5-1.5-1.8-3.4-1.8-5.8s.2-4.2,1.8-5.8a5.51,5.51,0,0,1,4-1.6,6.2,6.2,0,0,1,4.1,1.6,5.88,5.88,0,0,1,1.4,3.1h-2.6a2.53,2.53,0,0,0-.6-1.5,2.72,2.72,0,0,0-2.1-.9,3.1,3.1,0,0,0-2.2.9c-1,1-1,2.8-1,4.1s0,3.1,1,4.1a3.1,3.1,0,0,0,2.2.9,2.58,2.58,0,0,0,2.1-.9,2.11,2.11,0,0,0,.6-1.6h2.6Zm13.2-2.6c0,2.3-.3,4.2-1.8,5.7a6.05,6.05,0,0,1-8.2,0c-1.5-1.5-1.8-3.4-1.8-5.7s.3-4.2,1.8-5.8a6.05,6.05,0,0,1,8.2,0C795.4,326.1,795.7,328,795.7,330.4Zm-2.6,0c0-1.3,0-3.1-1-4.1a3.1,3.1,0,0,0-2.2-.9,2.94,2.94,0,0,0-2.2.9c-1,1-1,2.8-1,4.1s0,3,1,4.1a3.1,3.1,0,0,0,2.2.9,2.94,2.94,0,0,0,2.2-.9C793.1,333.5,793.1,331.7,793.1,330.4Zm14.3,7.1h-9.2V323.3h2.6V335h6.6v2.5Zm11.6-4.2a4.13,4.13,0,0,1-1.2,3,6.15,6.15,0,0,1-4.5,1.5,5.44,5.44,0,0,1-4.2-1.5,4.86,4.86,0,0,1-1.5-3.3h2.6a2.41,2.41,0,0,0,.7,1.7,3.49,3.49,0,0,0,2.4.8,3.75,3.75,0,0,0,2.5-.8,1.84,1.84,0,0,0,.6-1.4c0-1-.8-1.5-1.7-1.7s-2.2-.2-3.1-.4a3.88,3.88,0,0,1-3.6-4c0-2.4.5-2.1,1.2-2.8a6.12,6.12,0,0,1,4.2-1.5,5.72,5.72,0,0,1,4,1.4,4.25,4.25,0,0,1,1.4,3h-2.6a2.51,2.51,0,0,0-.6-1.4,3.29,3.29,0,0,0-2.2-.8,3.24,3.24,0,0,0-2.3.8,1.66,1.66,0,0,0-.5,1.2,1.45,1.45,0,0,0,1.4,1.5c.9.1,2.2.2,3.1.4a4.15,4.15,0,0,1,3.9,4.1Z"/>
</svg>
