<svg id="Layer_1" data-name="Layer 1" xmlns="http://www.w3.org/2000/svg" viewBox="0 0 1920 1080">
  <defs>
    <style>
      .cls-1 {
        fill: #fff;
        stroke: #000;
        stroke-width: 3px;
      }
    </style>
  </defs>
  <circle class="cls-1" cx="742.8" cy="330.5" r="98.5"/>
  <path d="M676.9,333a4.68,4.68,0,0,1-1.4,3.1,5.66,5.66,0,0,1-4.1,1.7,5.35,5.35,0,0,1-4-1.6c-1.5-1.5-1.8-3.4-1.8-5.8s.2-4.2,1.8-5.8a5.51,5.51,0,0,1,4-1.6,6.2,6.2,0,0,1,4.1,1.6,5.88,5.88,0,0,1,1.4,3.1h-2.6a2.53,2.53,0,0,0-.6-1.5,2.72,2.72,0,0,0-2.1-.9,3.1,3.1,0,0,0-2.2.9c-1,1-1,2.8-1,4.1s0,3.1,1,4.1a3.1,3.1,0,0,0,2.2.9,2.58,2.58,0,0,0,2.1-.9,2.11,2.11,0,0,0,.6-1.6h2.6Zm13.1,4.5h-2.7l-.9-2.7h-5.6l-.9,2.7h-2.6l5-14.2h2.8l5,14.2Zm-4.5-5-2-6-2,6Zm17.3-2.1c0,2-.2,4.1-1.7,5.6a5.35,5.35,0,0,1-4,1.5h-5.5V323.3h5.5a5.51,5.51,0,0,1,4,1.5c1.5,1.5,1.7,3.6,1.7,5.6Zm-2.6,0c0-1.3,0-3-1-4a2.79,2.79,0,0,0-2-.8h-2.9v9.5h2.9a2.79,2.79,0,0,0,2-.8c1-1,1-2.7,1-4Zm19.8-2.5c0,2.7-1.7,4.6-5,4.6h-3v5.1h-2.6V323.4H715c3.3,0,5,1.8,5,4.5Zm-2.6,0c0-1.4-.8-2.3-2.5-2.3H712v4.6h2.9C716.6,330.2,717.4,329.3,717.4,327.9Zm15.5,9.6h-2.8l-2.4-5.4h-3.1v5.4H722V323.3h6c3.4,0,4.9,2.1,4.9,4.4a3.75,3.75,0,0,1-2.6,4l2.6,5.8Zm-2.6-9.8a2.16,2.16,0,0,0-2.3-2.1h-3.4v4.2H728a2,2,0,0,0,2.3-2.1Zm15.8,2.7c0,2.3-.3,4.2-1.8,5.7a6.05,6.05,0,0,1-8.2,0c-1.5-1.5-1.8-3.4-1.8-5.7s.3-4.2,1.8-5.8a6.05,6.05,0,0,1,8.2,0C745.8,326.1,746.1,328,746.1,330.4Zm-2.6,0c0-1.3,0-3.1-1-4.1a3.1,3.1,0,0,0-2.2-.9,2.94,2.94,0,0,0-2.2.9c-1,1-1,2.8-1,4.1s0,3,1,4.1a3.1,3.1,0,0,0,2.2.9,2.94,2.94,0,0,0,2.2-.9C743.5,333.5,743.5,331.7,743.5,330.4Zm14-4.7h-4.2v11.8h-2.6V325.7h-4.2v-2.4h11Zm12.2,4.7c0,2.3-.3,4.2-1.8,5.7a6.05,6.05,0,0,1-8.2,0c-1.5-1.5-1.8-3.4-1.8-5.7s.3-4.2,1.8-5.8a6.05,6.05,0,0,1,8.2,0C769.4,326.1,769.7,328,769.7,330.4Zm-2.6,0c0-1.3,0-3.1-1-4.1a3.1,3.1,0,0,0-2.2-.9,2.94,2.94,0,0,0-2.2.9c-1,1-1,2.8-1,4.1s0,3,1,4.1a3.1,3.1,0,0,0,2.2.9,2.94,2.94,0,0,0,2.2-.9C767.1,333.5,767.1,331.7,767.1,330.4Zm15.4,2.6a4.68,4.68,0,0,1-1.4,3.1,5.66,5.66,0,0,1-4.1,1.7,5.35,5.35,0,0,1-4-1.6c-1.5-1.5-1.8-3.4-1.8-5.8s.2-4.2,1.8-5.8a5.51,5.51,0,0,1,4-1.6,6.2,6.2,0,0,1,4.1,1.6,5.88,5.88,0,0,1,1.4,3.1h-2.6a2.53,2.53,0,0,0-.6-1.5,2.72,2.72,0,0,0-2.1-.9,3.1,3.1,0,0,0-2.2.9c-1,1-1,2.8-1,4.1s0,3.1,1,4.1a3.1,3.1,0,0,0,2.2.9,2.58,2.58,0,0,0,2.1-.9,2.11,2.11,0,0,0,.6-1.6h2.6Zm13.2-2.6c0,2.3-.3,4.2-1.8,5.7a6.05,6.05,0,0,1-8.2,0c-1.5-1.5-1.8-3.4-1.8-5.7s.3-4.2,1.8-5.8a6.05,6.05,0,0,1,8.2,0C795.4,326.1,795.7,328,795.7,330.4Zm-2.6,0c0-1.3,0-3.1-1-4.1a3.1,3.1,0,0,0-2.2-.9,2.94,2.94,0,0,0-2.2.9c-1,1-1,2.8-1,4.1s0,3,1,4.1a3.1,3.1,0,0,0,2.2.9,2.94,2.94,0,0,0,2.2-.9C793.1,333.5,793.1,331.7,793.1,330.4Zm14.3,7.1h-9.2V323.3h2.6V335h6.6v2.5Zm11.6-4.2a4.13,4.13,0,0,1-1.2,3,6.15,6.15,0,0,1-4.5,1.5,5.44,5.44,0,0,1-4.2-1.5,4.86,4.86,0,0,1-1.5-3.3h2.6a2.41,2.41,0,0,0,.7,1.7,3.49,3.49,0,0,0,2.4.8,3.75,3.75,0,0,0,2.5-.8,1.84,1.84,0,0,0,.6-1.4c0-1-.8-1.5-1.7-1.7s-2.2-.2-3.1-.4a3.88,3.88,0,0,1-3.6-4c0-2.4.5-2.1,1.2-2.8a6.12,6.12,0,0,1,4.2-1.5,5.72,5.72,0,0,1,4,1.4,4.25,4.25,0,0,1,1.4,3h-2.6a2.51,2.51,0,0,0-.6-1.4,3.29,3.29,0,0,0-2.2-.8,3.24,3.24,0,0,0-2.3.8,1.66,1.66,0,0,0-.5,1.2,1.45,1.45,0,0,0,1.4,1.5c.9.1,2.2.2,3.1.4a4.15,4.15,0,0,1,3.9,4.1Z"/>
</svg>
