<svg id="Layer_1" data-name="Layer 1" xmlns="http://www.w3.org/2000/svg" viewBox="0 0 1920 1080">
  <defs>
    <style>
      .cls-1 {
        stroke: #000;
        stroke-width: 3px;
      }

      .cls-2 {
        fill: #fff;
      }
    </style>
  </defs>
  <circle class="cls-1" cx="491.78" cy="691.81" r="50"/>
  <path class="cls-2" d="M489.53,694.86c0,2.8-2.1,4.2-4.7,4.2a4.43,4.43,0,0,1-4.7-4.3h2.5a2,2,0,0,0,2.2,2.1,2.07,2.07,0,0,0,2.2-2.1,2.19,2.19,0,0,0-2.4-2.1h-1v-2.2h1c1.4,0,2.1-.6,2.1-1.9a1.66,1.66,0,0,0-1.9-1.8,1.89,1.89,0,0,0-2.1,1.9h-2.5c0-2.6,2.1-4.1,4.7-4.1s4.4,1.5,4.4,3.9-.7,2.5-2,3a3.37,3.37,0,0,1,2.3,3.3Zm13.9-3.1c0,2-.2,4.1-1.7,5.6a5.35,5.35,0,0,1-4,1.5h-5.5v-14.2h5.5a5.51,5.51,0,0,1,4,1.5c1.5,1.5,1.7,3.6,1.7,5.6Zm-2.7,0c0-1.3,0-3-1-4a2.79,2.79,0,0,0-2-.8h-2.9v9.5h2.9a2.79,2.79,0,0,0,2-.8c1-1,1-2.7,1-4Z"/>
</svg>
