<svg id="Layer_1" data-name="Layer 1" xmlns="http://www.w3.org/2000/svg" viewBox="0 0 1920 1080">
  <defs>
    <style>
      .cls-1 {
        stroke: #000;
        stroke-width: 3px;
      }

      .cls-2 {
        fill: #fff;
      }
    </style>
  </defs>
  <circle class="cls-1" cx="1351.7" cy="641.27" r="50"/>
  <g>
    <path class="cls-2" d="M1340,643.29h-3v5.08h-2.56v-14.2H1340c3.26,0,5,1.83,5,4.55S1343.3,643.29,1340,643.29Zm-.1-6.85H1337V641h2.91c1.72,0,2.5-.92,2.5-2.28A2.18,2.18,0,0,0,1339.94,636.44Z"/>
    <path class="cls-2" d="M1352.54,643.29h-3v5.08H1347v-14.2h5.57c3.27,0,5,1.83,5,4.55S1355.81,643.29,1352.54,643.29Zm-.1-6.85h-2.9V641h2.9c1.72,0,2.5-.92,2.5-2.28A2.18,2.18,0,0,0,1352.44,636.44Z"/>
    <path class="cls-2" d="M1364.73,636.58v11.79h-2.59V636.58h-4.2v-2.41h11v2.41Z"/>
  </g>
</svg>
