<svg id="Layer_1" data-name="Layer 1" xmlns="http://www.w3.org/2000/svg" viewBox="0 0 1920 1080">
  <defs>
    <style>
      .cls-1 {
        stroke: #000;
        stroke-width: 3px;
      }

      .cls-2 {
        fill: #fff;
      }
    </style>
  </defs>
  <circle class="cls-1" cx="695.32" cy="687.21" r="98.5"/>
  <path class="cls-2" d="M623.4,694.46h-2.8l-2.4-5.41h-3.1v5.41h-2.6v-14.2h6c3.4,0,4.9,2.09,4.9,4.4a3.75,3.75,0,0,1-2.6,4l2.6,5.8Zm-2.6-9.8a2.16,2.16,0,0,0-2.3-2.1h-3.4v4.2h3.4a2,2,0,0,0,2.3-2.1Zm14.9,9.8H625.6v-14.2h10.1v2.29h-7.5v3.3h6.6v2.3h-6.6v3.9h7.5v2.41Zm13.1-9.7c0,2.7-1.7,4.59-5,4.59h-3v5.1h-2.6v-14.2h5.6c3.3,0,5,1.8,5,4.5Zm-2.6,0c0-1.41-.8-2.3-2.5-2.3h-2.9v4.59h2.9C645.4,687.05,646.2,686.15,646.2,684.76Zm15.4,9.7h-2.8l-2.4-5.41h-3.1v5.41h-2.6v-14.2h6c3.4,0,4.9,2.09,4.9,4.4a3.75,3.75,0,0,1-2.6,4l2.6,5.8Zm-2.6-9.8a2.16,2.16,0,0,0-2.3-2.1h-3.4v4.2h3.4a2,2,0,0,0,2.3-2.1Zm15,9.8H663.9v-14.2H674v2.29h-7.5v3.3h6.6v2.3h-6.6v3.9H674v2.41Zm12.7-4.3a4.13,4.13,0,0,1-1.2,3,6.15,6.15,0,0,1-4.5,1.5,5.44,5.44,0,0,1-4.2-1.5,4.86,4.86,0,0,1-1.5-3.3h2.6a2.41,2.41,0,0,0,.7,1.7,3.49,3.49,0,0,0,2.4.8,3.75,3.75,0,0,0,2.5-.8,1.84,1.84,0,0,0,.6-1.4c0-1-.8-1.5-1.7-1.7s-2.2-.2-3.1-.41a3.87,3.87,0,0,1-3.6-4c0-2.4.5-2.09,1.2-2.79a6.07,6.07,0,0,1,4.2-1.5,5.72,5.72,0,0,1,4,1.4,4.25,4.25,0,0,1,1.4,3h-2.6a2.51,2.51,0,0,0-.6-1.4,3.29,3.29,0,0,0-2.2-.8,3.24,3.24,0,0,0-2.3.8,1.64,1.64,0,0,0-.5,1.2,1.45,1.45,0,0,0,1.4,1.5,29.87,29.87,0,0,1,3.1.4,4.15,4.15,0,0,1,3.9,4.1Zm12.4,4.3H689v-14.2h10.1v2.29h-7.5v3.3h6.6v2.3h-6.6v3.9h7.5v2.41Zm13.8,0h-2.7l-6.1-9.7v9.7h-2.5v-14.2h2.7l6.1,9.59v-9.59h2.5Zm12.7-11.8h-4.2v11.8h-2.6v-11.8h-4.2v-2.4h11Zm11.5,11.8h-2.7l-.9-2.7h-5.6l-.9,2.7h-2.6l5-14.2h2.8l5,14.2Zm-4.4-5.1-2-6-2,6Zm14.1-6.7h-4.2v11.8H740v-11.8h-4.2v-2.4h11Zm4.4,11.8h-2.6v-14.2h2.6Zm14.3-7.1c0,2.3-.3,4.2-1.8,5.7a4.85,4.85,0,0,1-4.1,1.6,5.74,5.74,0,0,1-4.1-1.6c-1.5-1.5-1.8-3.4-1.8-5.7s.3-4.2,1.8-5.8a6.05,6.05,0,0,1,8.2,0C765.2,683.06,765.5,685,765.5,687.36Zm-2.7,0c0-1.3,0-3.1-1-4.1a3.1,3.1,0,0,0-2.2-.9,2.94,2.94,0,0,0-2.2.9c-1,1-1,2.8-1,4.1s0,3,1,4.1a3.15,3.15,0,0,0,2.2.9,2.94,2.94,0,0,0,2.2-.9C762.8,690.46,762.8,688.66,762.8,687.36Zm16.5,7.1h-2.7l-6.1-9.7v9.7H768v-14.2h2.7l6.1,9.59v-9.59h2.5Z"/>
</svg>
