<svg id="Layer_1" data-name="Layer 1" xmlns="http://www.w3.org/2000/svg" viewBox="0 0 1920 1080">
  <defs>
    <style>
      .cls-1 {
        stroke: #fff;
        stroke-width: 3px;
      }

      .cls-2 {
        fill: #fff;
      }
    </style>
  </defs>
  <circle class="cls-1" cx="1255.05" cy="435.95" r="68.5"/>
  <g>
    <path class="cls-2" d="M1233.06,430.05l-.92-2.72h-5.64l-.92,2.72H1223l5-14.18h2.82l5,14.18Zm-3.74-11-2,6h4Z"/>
    <path class="cls-2" d="M1237.42,430.05V415.87h10.1v2.34H1240v3.3h6.62v2.32H1240v3.88h7.52v2.34Z"/>
    <path class="cls-2" d="M1259.48,428.53a5.43,5.43,0,0,1-4,1.52H1250V415.87h5.52a5.43,5.43,0,0,1,4,1.52c1.46,1.5,1.66,3.6,1.66,5.56S1260.94,427,1259.48,428.53Zm-2-9.54a2.81,2.81,0,0,0-2-.8h-2.94v9.54h2.94a2.81,2.81,0,0,0,2-.8c1-1,1-2.68,1-4S1258.5,420,1257.5,419Z"/>
    <path class="cls-2" d="M1271.88,430.05l-.92-2.72h-5.64l-.92,2.72h-2.6l5-14.18h2.82l5,14.18Zm-3.74-11-2,6h4Z"/>
    <path class="cls-2" d="M1285.28,428.79a7.12,7.12,0,0,1-8.72.06,4.53,4.53,0,0,1-1.48-3.3h2.64a2.49,2.49,0,0,0,.74,1.74,3.38,3.38,0,0,0,2.38.76,3.43,3.43,0,0,0,2.46-.76,1.76,1.76,0,0,0,.56-1.36c0-1-.8-1.52-1.68-1.68s-2.2-.22-3.14-.38a3.91,3.91,0,0,1-2.36-6.76,6.06,6.06,0,0,1,4.16-1.5,5.85,5.85,0,0,1,4,1.38,4.3,4.3,0,0,1,1.44,3h-2.64a2.3,2.3,0,0,0-.62-1.4,3.26,3.26,0,0,0-2.16-.76,3.2,3.2,0,0,0-2.3.78,1.64,1.64,0,0,0-.48,1.2,1.51,1.51,0,0,0,1.44,1.54c.9.14,2.16.24,3.08.36,2.12.3,3.9,1.68,3.9,4.1A4,4,0,0,1,1285.28,428.79Z"/>
    <path class="cls-2" d="M1204.89,454.31c-3.66,0-5.56-2.32-5.56-5.7v-8.74h2.58v8.7c0,2,.92,3.4,3,3.4s3-1.38,3-3.4v-8.7h2.58v8.74C1210.45,452,1208.55,454.31,1204.89,454.31Z"/>
    <path class="cls-2" d="M1222.05,454.05l-6.14-9.74v9.74h-2.54V439.87h2.74l6.06,9.6v-9.6h2.54v14.18Z"/>
    <path class="cls-2" d="M1228,454.05V439.87h2.62v14.18Z"/>
    <path class="cls-2" d="M1239.85,454.05H1237l-4.7-14.18h2.74l3.44,10.82,3.42-10.82h2.6Z"/>
    <path class="cls-2" d="M1246.17,454.05V439.87h10.1v2.34h-7.52v3.3h6.62v2.32h-6.62v3.88h7.52v2.34Z"/>
    <path class="cls-2" d="M1266.83,454.05l-2.36-5.36h-3.14v5.36h-2.6V439.87h6c3.38,0,4.92,2.12,4.92,4.4a4.09,4.09,0,0,1-2.6,4l2.6,5.8Zm-2.12-11.92h-3.4v4.24h3.44c1.46,0,2.3-.76,2.3-2.1A2.17,2.17,0,0,0,1264.71,442.13Z"/>
    <path class="cls-2" d="M1281.05,452.79a7.12,7.12,0,0,1-8.72.06,4.53,4.53,0,0,1-1.48-3.3h2.64a2.49,2.49,0,0,0,.74,1.74,3.38,3.38,0,0,0,2.38.76,3.43,3.43,0,0,0,2.46-.76,1.76,1.76,0,0,0,.56-1.36c0-1-.8-1.52-1.68-1.68s-2.2-.22-3.14-.38a3.91,3.91,0,0,1-2.36-6.76,6.06,6.06,0,0,1,4.16-1.5,5.85,5.85,0,0,1,4,1.38,4.3,4.3,0,0,1,1.44,3h-2.64a2.3,2.3,0,0,0-.62-1.4,3.26,3.26,0,0,0-2.16-.76,3.2,3.2,0,0,0-2.3.78,1.64,1.64,0,0,0-.48,1.2,1.51,1.51,0,0,0,1.44,1.54c.9.14,2.16.24,3.08.36,2.12.3,3.9,1.68,3.9,4.1A4,4,0,0,1,1281.05,452.79Z"/>
    <path class="cls-2" d="M1284.55,454.05V439.87h2.62v14.18Z"/>
    <path class="cls-2" d="M1295.73,442.27v11.78h-2.58V442.27H1289v-2.4h11v2.4Z"/>
    <path class="cls-2" d="M1307.57,448.61v5.44H1305v-5.44l-4.92-8.74h2.8l3.5,6.12,3.5-6.12h2.68Z"/>
  </g>
</svg>
