<svg id="Layer_1" data-name="Layer 1" xmlns="http://www.w3.org/2000/svg" viewBox="0 0 1920 1080">
  <defs>
    <style>
      .cls-1 {
        stroke: #000;
        stroke-width: 3px;
      }

      .cls-2 {
        fill: #fff;
      }
    </style>
  </defs>
  <circle class="cls-1" cx="1351.7" cy="641.27" r="50"/>
  <path class="cls-2" d="M1329.2,636.72H1325v11.8h-2.6v-11.8h-4.2v-2.4h11v2.4Zm12.3,4.7c0,2.3-.3,4.2-1.8,5.7a6.05,6.05,0,0,1-8.2,0c-1.5-1.5-1.8-3.4-1.8-5.7s.3-4.2,1.8-5.8a6.05,6.05,0,0,1,8.2,0C1341.2,637.12,1341.5,639,1341.5,641.42Zm-2.7,0c0-1.3,0-3.1-1-4.1a3.15,3.15,0,0,0-2.2-.9,2.94,2.94,0,0,0-2.2.9c-1,1-1,2.8-1,4.1s0,3,1,4.1a3.1,3.1,0,0,0,2.2.9,2.94,2.94,0,0,0,2.2-.9C1338.8,644.52,1338.8,642.72,1338.8,641.42Zm15.7-2.6c0,2.7-1.7,4.6-5,4.6h-3v5.1h-2.6v-14.2h5.6c3.3,0,5,1.8,5,4.5Zm-2.6,0c0-1.4-.8-2.3-2.5-2.3h-2.9v4.6h2.9C1351.1,641.12,1351.9,640.22,1351.9,638.82Zm7.1,9.7h-2.6v-14.2h2.6Zm13.7-4.6a4.68,4.68,0,0,1-1.4,3.1,5.66,5.66,0,0,1-4.1,1.7,5.35,5.35,0,0,1-4-1.6c-1.5-1.5-1.8-3.4-1.8-5.8s.2-4.2,1.8-5.8a4.5,4.5,0,0,1,4-1.59,6.19,6.19,0,0,1,4.1,1.59,5.88,5.88,0,0,1,1.4,3.1h-2.6a2.53,2.53,0,0,0-.6-1.5,2.72,2.72,0,0,0-2.1-.9,3.1,3.1,0,0,0-2.2.9c-1,1-1,2.8-1,4.1s0,3.1,1,4.1a3.1,3.1,0,0,0,2.2.9,2.58,2.58,0,0,0,2.1-.9,2.11,2.11,0,0,0,.6-1.6h2.6Zm12.5.3a4.13,4.13,0,0,1-1.2,3,6.15,6.15,0,0,1-4.5,1.5,5.44,5.44,0,0,1-4.2-1.5,4.86,4.86,0,0,1-1.5-3.3h2.6a2.41,2.41,0,0,0,.7,1.7,3.49,3.49,0,0,0,2.4.8,3.75,3.75,0,0,0,2.5-.8,1.84,1.84,0,0,0,.6-1.4c0-1-.8-1.5-1.7-1.7s-2.2-.2-3.1-.4a3.88,3.88,0,0,1-3.6-4c0-2.4.5-2.1,1.2-2.8a6.12,6.12,0,0,1,4.2-1.5,5.72,5.72,0,0,1,4,1.4,4.25,4.25,0,0,1,1.4,3h-2.6a2.51,2.51,0,0,0-.6-1.4,3.29,3.29,0,0,0-2.2-.8,3.24,3.24,0,0,0-2.3.8,1.66,1.66,0,0,0-.5,1.2,1.45,1.45,0,0,0,1.4,1.5c.9.1,2.2.2,3.1.4a4.15,4.15,0,0,1,3.9,4.1Z"/>
</svg>
