<svg id="Layer_1" data-name="Layer 1" xmlns="http://www.w3.org/2000/svg" viewBox="0 0 1920 1080">
  <defs>
    <style>
      .cls-1 {
        fill: #fff;
        stroke: #000;
        stroke-width: 3px;
      }
    </style>
  </defs>
  <circle class="cls-1" cx="962.5" cy="552.3" r="108.5"/>
  <path d="M914.9,559.3h-3l-3.8-6.7-2.4,2.9v3.8h-2.6V545.1h2.6v6.5l5.7-6.5h3.1l-4.6,5.4,5.1,8.8Zm12.9,0h-2.7l-6.1-9.7v9.7h-2.5V545.1h2.7l6.1,9.6v-9.6h2.5Zm14.3-7.1c0,2.3-.3,4.2-1.8,5.7a6.05,6.05,0,0,1-8.2,0c-1.5-1.5-1.8-3.4-1.8-5.7s.3-4.2,1.8-5.8a4.57,4.57,0,0,1,4.1-1.6,5.74,5.74,0,0,1,4.1,1.6C941.8,547.9,942.1,549.8,942.1,552.2Zm-2.6,0c0-1.3,0-3.1-1-4.1a3.1,3.1,0,0,0-2.2-.9,2.94,2.94,0,0,0-2.2.9c-1,1-1,2.8-1,4.1s0,3,1,4.1a3.1,3.1,0,0,0,2.2.9,2.94,2.94,0,0,0,2.2-.9C939.5,555.3,939.5,553.5,939.5,552.2Zm20.5-7.1-2.8,14.2h-2.6l-3-9.8-3,9.8H946l-2.9-14.2h2.5l2,9.9,2.9-9.6h2.2l2.9,9.6,2-9.9Zm11.1,14.2h-9.2V545.1h2.6v11.7h6.6v2.5Zm12,0H973V545.1h10.1v2.3h-7.5v3.3h6.6V553h-6.6v3.9h7.5v2.4Zm13.6-7.1c0,2-.2,4.1-1.7,5.6a5.35,5.35,0,0,1-4,1.5h-5.5V545.1H991a5.51,5.51,0,0,1,4,1.5c1.5,1.5,1.7,3.6,1.7,5.6Zm-2.6,0c0-1.3,0-3-1-4s-1.2-.8-2-.8h-2.9v9.5h2.9a2.79,2.79,0,0,0,2-.8c1-1,1-2.7,1-4Zm15.8,7.1h-1.7l-.3-1.6a4.18,4.18,0,0,1-3.6,1.8,5.43,5.43,0,0,1-4.2-1.6c-1.5-1.5-1.8-3.4-1.8-5.8s.3-4.2,1.8-5.7a5.14,5.14,0,0,1,4.2-1.7,6.26,6.26,0,0,1,4.2,1.6,4.37,4.37,0,0,1,1.3,2.9h-2.6a2,2,0,0,0-.6-1.3,2.87,2.87,0,0,0-2.3-.9,2.93,2.93,0,0,0-2.3,1c-1,1-1.1,2.8-1.1,4.1s.1,3.1,1.1,4.1a3.34,3.34,0,0,0,2.3.9,3,3,0,0,0,2.1-.8,3.54,3.54,0,0,0,.9-2.8h-3.4v-2.1h5.9v7.8Zm13.1,0h-10.1V545.1H1023v2.3h-7.5v3.3h6.6V553h-6.6v3.9h7.5v2.4Z"/>
</svg>
