<svg id="Layer_1" data-name="Layer 1" xmlns="http://www.w3.org/2000/svg" viewBox="0 0 1920 1080">
  <defs>
    <style>
      .cls-1 {
        fill: #fff;
        stroke: #000;
        stroke-width: 3px;
      }
    </style>
  </defs>
  <circle class="cls-1" cx="1351.7" cy="641.27" r="50"/>
  <path d="M1315.08,641.42c0,1.65-1,2.81-3.06,2.81h-1.83v3.11h-1.59v-8.67H1312c2,0,3.06,1.1,3.06,2.75Zm-1.59,0c0-.86-.49-1.41-1.53-1.41h-1.77v2.81H1312C1313,642.82,1313.49,642.27,1313.49,641.42Zm9.41,5.92h-1.72l-1.46-3.29h-1.9v3.29h-1.58v-8.67h3.66c2.08,0,3,1.28,3,2.69a2.29,2.29,0,0,1-1.59,2.44l1.59,3.54Zm-1.59-6a1.32,1.32,0,0,0-1.41-1.28h-2.08v2.56h2.08c.92,0,1.41-.49,1.41-1.28Zm9.16,6h-6.17v-8.67h6.17v1.4h-4.58v2h4v1.41h-4v2.38h4.58v1.46Zm7.76-2.62a2.56,2.56,0,0,1-.73,1.83,3.78,3.78,0,0,1-2.75.92,3.34,3.34,0,0,1-2.57-.92,3,3,0,0,1-.92-2h1.59a1.49,1.49,0,0,0,.43,1,2.13,2.13,0,0,0,1.47.49,2.24,2.24,0,0,0,1.52-.49,1.08,1.08,0,0,0,.37-.85c0-.61-.49-.92-1-1s-1.34-.12-1.89-.25a2.36,2.36,0,0,1-2.2-2.44c0-1.47.3-1.28.73-1.71a3.75,3.75,0,0,1,2.57-.92,3.48,3.48,0,0,1,2.44.86,2.6,2.6,0,0,1,.86,1.83h-1.59a1.48,1.48,0,0,0-.37-.85,2.17,2.17,0,0,0-2.75,0,1,1,0,0,0-.3.73.88.88,0,0,0,.85.92c.55.06,1.35.12,1.9.24a2.54,2.54,0,0,1,2.38,2.51Zm7.57,2.62h-6.17v-8.67h6.17v1.4h-4.58v2h4v1.41h-4v2.38h4.58v1.46Zm8.44,0h-1.65l-3.73-5.92v5.92h-1.53v-8.67H1349l3.73,5.86v-5.86h1.53Zm7.75-7.2h-2.56v7.2h-1.59v-7.2h-2.57v-1.47H1362Zm7,7.2h-1.65l-.55-1.64h-3.42l-.55,1.64h-1.59l3.06-8.67H1366l3,8.67Zm-2.69-3.11-1.22-3.67-1.22,3.67Zm8.62-4.09h-2.57v7.2h-1.59v-7.2h-2.56v-1.47H1375Zm2.68,7.2H1376v-8.67h1.59Zm8.74-4.33a4.53,4.53,0,0,1-1.1,3.48,3,3,0,0,1-2.5,1,3.52,3.52,0,0,1-2.51-1,4.53,4.53,0,0,1-1.1-3.48,4.76,4.76,0,0,1,1.1-3.55,3.72,3.72,0,0,1,5,0A4.61,4.61,0,0,1,1386.37,643Zm-1.65,0a3.61,3.61,0,0,0-.61-2.51,1.94,1.94,0,0,0-1.35-.55,1.83,1.83,0,0,0-1.34.55,3.61,3.61,0,0,0-.61,2.51,3.67,3.67,0,0,0,.61,2.5,1.89,1.89,0,0,0,1.34.55,1.8,1.8,0,0,0,1.35-.55A3.59,3.59,0,0,0,1384.72,643Zm10.08,4.33h-1.65l-3.73-5.92v5.92h-1.52v-8.67h1.65l3.72,5.86v-5.86h1.53Z"/>
</svg>
