<svg id="Layer_1" data-name="Layer 1" xmlns="http://www.w3.org/2000/svg" viewBox="0 0 1920 1080">
  <defs>
    <style>
      .cls-1 {
        fill: #fff;
        stroke: #000;
        stroke-width: 3px;
      }
    </style>
  </defs>
  <circle class="cls-1" cx="1215.5" cy="549.3" r="68.5"/>
  <circle class="cls-1" cx="1215.5" cy="549.3" r="68.5"/>
  <path d="M1176.3,556.3h-2.8l-2.4-5.4H1168v5.4h-2.6V542.1h6c3.4,0,4.9,2.1,4.9,4.4a3.75,3.75,0,0,1-2.6,4Zm-2.6-9.8a2.16,2.16,0,0,0-2.3-2.1H1168v4.2h3.4a2,2,0,0,0,2.3-2.1Zm14.9,9.8h-10.1V542.1h10.1v2.3h-7.5v3.3h6.6V550h-6.6v3.9h7.5v2.4Zm12.7-4.3a4.13,4.13,0,0,1-1.2,3,6.15,6.15,0,0,1-4.5,1.5,5.44,5.44,0,0,1-4.2-1.5,4.86,4.86,0,0,1-1.5-3.3h2.6a2.41,2.41,0,0,0,.7,1.7,3.49,3.49,0,0,0,2.4.8,3.75,3.75,0,0,0,2.5-.8,1.84,1.84,0,0,0,.6-1.4c0-1-.8-1.5-1.7-1.7s-2.2-.2-3.1-.4a3.88,3.88,0,0,1-3.6-4c0-2.4.5-2.1,1.2-2.8a6.12,6.12,0,0,1,4.2-1.5,5.72,5.72,0,0,1,4,1.4,4.25,4.25,0,0,1,1.4,3h-2.6a2.51,2.51,0,0,0-.6-1.4,3.29,3.29,0,0,0-2.2-.8,3.24,3.24,0,0,0-2.3.8,1.66,1.66,0,0,0-.5,1.2,1.45,1.45,0,0,0,1.4,1.5c.9.1,2.2.2,3.1.4a4.15,4.15,0,0,1,3.9,4.1Zm12.4,4.3h-10.1V542.1h10.1v2.3h-7.5v3.3h6.6V550h-6.6v3.9h7.5v2.4Zm13.6,0h-2.7l-.9-2.7h-5.6l-.9,2.7h-2.6l5-14.2h2.8l5,14.2Zm-4.4-5.1-2-6-2,6Zm17,5.1h-2.8l-2.4-5.4h-3.1v5.4H1229V542.1h6c3.4,0,4.9,2.1,4.9,4.4a3.75,3.75,0,0,1-2.6,4Zm-2.6-9.8a2.16,2.16,0,0,0-2.3-2.1h-3.4v4.2h3.4a2,2,0,0,0,2.3-2.1Zm15.2,5.2a4.68,4.68,0,0,1-1.4,3.1,5.66,5.66,0,0,1-4.1,1.7,5.35,5.35,0,0,1-4-1.6c-1.5-1.5-1.8-3.4-1.8-5.8s.2-4.2,1.8-5.8a4.49,4.49,0,0,1,4-1.6,6.2,6.2,0,0,1,4.1,1.6,5.88,5.88,0,0,1,1.4,3.1h-2.6a2.53,2.53,0,0,0-.6-1.5,2.72,2.72,0,0,0-2.1-.9,3.1,3.1,0,0,0-2.2.9c-1,1-1,2.8-1,4.1s0,3.1,1,4.1a3.1,3.1,0,0,0,2.2.9,2.58,2.58,0,0,0,2.1-.9,2.11,2.11,0,0,0,.6-1.6h2.6Zm13.2,4.6h-2.6v-6.2h-5.8v6.2h-2.6V542.1h2.6v5.5h5.8v-5.5h2.6Z"/>
</svg>
