<svg id="Layer_1" data-name="Layer 1" xmlns="http://www.w3.org/2000/svg" viewBox="0 0 1920 1080">
  <defs>
    <style>
      .cls-1 {
        fill: #fff;
        stroke: #000;
        stroke-width: 3px;
      }
    </style>
  </defs>
  <circle class="cls-1" cx="1354.5" cy="459.7" r="50"/>
  <path d="M1321.2,462.4a4.13,4.13,0,0,1-1.2,3,6.15,6.15,0,0,1-4.5,1.5,5.44,5.44,0,0,1-4.2-1.5,4.86,4.86,0,0,1-1.5-3.3h2.6a2.41,2.41,0,0,0,.7,1.7,3.49,3.49,0,0,0,2.4.8,3.75,3.75,0,0,0,2.5-.8,1.84,1.84,0,0,0,.6-1.4c0-1-.8-1.5-1.7-1.7s-2.2-.2-3.1-.4a3.88,3.88,0,0,1-3.6-4c0-2.4.5-2.1,1.2-2.8a6.12,6.12,0,0,1,4.2-1.5,5.72,5.72,0,0,1,4,1.4,4.25,4.25,0,0,1,1.4,3h-2.6a2.51,2.51,0,0,0-.6-1.4,3.29,3.29,0,0,0-2.2-.8,3.24,3.24,0,0,0-2.3.8,1.66,1.66,0,0,0-.5,1.2,1.45,1.45,0,0,0,1.4,1.5c.9.1,2.2.2,3.1.4a4.15,4.15,0,0,1,3.9,4.1Zm13.3-2.8c0,2.3-.3,4.2-1.8,5.7a6.05,6.05,0,0,1-8.2,0c-1.5-1.5-1.8-3.4-1.8-5.7s.3-4.2,1.8-5.8a6.05,6.05,0,0,1,8.2,0C1334.2,455.3,1334.5,457.2,1334.5,459.6Zm-2.6,0c0-1.3,0-3.1-1-4.1a3.1,3.1,0,0,0-2.2-.9,2.94,2.94,0,0,0-2.2.9c-1,1-1,2.8-1,4.1s0,3,1,4.1a3.1,3.1,0,0,0,2.2.9,2.94,2.94,0,0,0,2.2-.9C1331.9,462.7,1331.9,460.9,1331.9,459.6Zm15.8,1.6c0,3.4-1.9,5.7-5.6,5.7s-5.6-2.3-5.6-5.7v-8.7h2.6v8.7c0,2,.9,3.4,3,3.4s3-1.4,3-3.4v-8.7h2.6Zm13.8,5.5h-2.8l-2.4-5.4h-3.1v5.4h-2.6V452.5h6c3.4,0,4.9,2.1,4.9,4.4a3.75,3.75,0,0,1-2.6,4Zm-2.6-9.8a2.16,2.16,0,0,0-2.3-2.1h-3.4V459h3.4a2,2,0,0,0,2.3-2.1Zm15.2,5.2a4.68,4.68,0,0,1-1.4,3.1,5.66,5.66,0,0,1-4.1,1.7,5.35,5.35,0,0,1-4-1.6c-1.5-1.5-1.8-3.4-1.8-5.8s.2-4.2,1.8-5.8a5.51,5.51,0,0,1,4-1.6,6.2,6.2,0,0,1,4.1,1.6,5.88,5.88,0,0,1,1.4,3.1h-2.6a2.53,2.53,0,0,0-.6-1.5,2.72,2.72,0,0,0-2.1-.9,3.1,3.1,0,0,0-2.2.9c-1,1-1,2.8-1,4.1s0,3.1,1,4.1a3.1,3.1,0,0,0,2.2.9,2.58,2.58,0,0,0,2.1-.9,2.11,2.11,0,0,0,.6-1.6h2.6Zm12.4,4.6h-10.1V452.5h10.1v2.3H1379v3.3h6.6v2.3H1379v3.9h7.5v2.4Zm12.6-4.3a4.13,4.13,0,0,1-1.2,3,6.15,6.15,0,0,1-4.5,1.5,5.44,5.44,0,0,1-4.2-1.5,4.86,4.86,0,0,1-1.5-3.3h2.6a2.41,2.41,0,0,0,.7,1.7,3.49,3.49,0,0,0,2.4.8,3.75,3.75,0,0,0,2.5-.8,1.84,1.84,0,0,0,.6-1.4c0-1-.8-1.5-1.7-1.7s-2.2-.2-3.1-.4a3.88,3.88,0,0,1-3.6-4c0-2.4.5-2.1,1.2-2.8a6.12,6.12,0,0,1,4.2-1.5,5.72,5.72,0,0,1,4,1.4,4.25,4.25,0,0,1,1.4,3h-2.6a2.51,2.51,0,0,0-.6-1.4,3.29,3.29,0,0,0-2.2-.8,3.24,3.24,0,0,0-2.3.8,1.66,1.66,0,0,0-.5,1.2,1.45,1.45,0,0,0,1.4,1.5c.9.1,2.2.2,3.1.4a4.15,4.15,0,0,1,3.9,4.1Z"/>
</svg>
