<svg id="Layer_1" data-name="Layer 1" xmlns="http://www.w3.org/2000/svg" viewBox="0 0 1920 1080">
  <defs>
    <style>
      .cls-1 {
        fill: #fff;
        stroke: #000;
        stroke-width: 3px;
      }
    </style>
  </defs>
  <circle class="cls-1" cx="1079.1" cy="322.1" r="68.5"/>
  <g>
    <path d="M1033.9,317.3h-4.2v11.8h-2.6V317.3h-4.2v-2.4h11v2.4Zm11.9,11.8h-10.1V314.9h10.1v2.3h-7.5v3.3h6.6v2.3h-6.6v3.9h7.5v2.4Zm16.7,0H1060V319l-3.7,9.9h-1.9l-3.7-10v10.2h-2.5V314.9h3.5l3.7,10.1,3.7-10.1h3.3v14.2Zm13.8-9.6c0,2.7-1.7,4.6-5,4.6h-3v5.1h-2.6V315h5.6c3.3,0,5,1.8,5,4.5Zm-2.6,0c0-1.4-.8-2.3-2.5-2.3h-2.9v4.6h2.9C1072.9,321.8,1073.7,320.9,1073.7,319.5Zm13.7,9.6h-9.2V314.9h2.6v11.7h6.6v2.5Zm13,0h-2.7l-.9-2.7h-5.6l-.9,2.7h-2.6l5-14.2h2.8l5,14.2Zm-4.4-5-2-6-2,6Zm14.1-6.8h-4.2v11.8h-2.6V317.3h-4.2v-2.4h11v2.4Zm11.8,11.8h-10.1V314.9h10.1v2.3h-7.5v3.3h6.6v2.3h-6.6v3.9h7.5v2.4Z"/>
    <path d="M1135.3,325.05a4.13,4.13,0,0,1-1.2,3,6.15,6.15,0,0,1-4.5,1.5,5.44,5.44,0,0,1-4.2-1.5,4.86,4.86,0,0,1-1.5-3.3h2.6a2.41,2.41,0,0,0,.7,1.7,3.49,3.49,0,0,0,2.4.8,3.75,3.75,0,0,0,2.5-.8,1.84,1.84,0,0,0,.6-1.4c0-1-.8-1.5-1.7-1.7s-2.2-.2-3.1-.4a3.88,3.88,0,0,1-3.6-4c0-2.4.5-2.1,1.2-2.8a6.12,6.12,0,0,1,4.2-1.5,5.72,5.72,0,0,1,4,1.4,4.25,4.25,0,0,1,1.4,3h-2.6a2.51,2.51,0,0,0-.6-1.4,3.29,3.29,0,0,0-2.2-.8,3.24,3.24,0,0,0-2.3.8,1.66,1.66,0,0,0-.5,1.2,1.45,1.45,0,0,0,1.4,1.5c.9.1,2.2.2,3.1.4a4.15,4.15,0,0,1,3.9,4.1Z"/>
  </g>
</svg>
