<svg id="Layer_1" data-name="Layer 1" xmlns="http://www.w3.org/2000/svg" viewBox="0 0 1920 1080">
  <defs>
    <style>
      .cls-1 {
        fill: #fff;
        stroke: #000;
        stroke-width: 3px;
      }
    </style>
  </defs>
  <circle class="cls-1" cx="1079.1" cy="322.1" r="68.5"/>
  <path d="M1040.2,317.3H1036v11.8h-2.6V317.3h-4.2v-2.4h11v2.4Zm11.9,11.8H1042V314.9h10.1v2.3h-7.5v3.3h6.6v2.3h-6.6v3.9h7.5v2.4Zm16.7,0h-2.5V319l-3.7,9.9h-1.9l-3.7-10v10.2h-2.5V314.9h3.5l3.7,10.1,3.7-10.1h3.3v14.2Zm13.8-9.6c0,2.7-1.7,4.6-5,4.6h-3v5.1H1072V315h5.6c3.3,0,5,1.8,5,4.5Zm-2.6,0c0-1.4-.8-2.3-2.5-2.3h-2.9v4.6h2.9C1079.2,321.8,1080,320.9,1080,319.5Zm13.7,9.6h-9.2V314.9h2.6v11.7h6.6v2.5Zm13,0H1104l-.9-2.7h-5.6l-.9,2.7H1094l5-14.2h2.8l5,14.2Zm-4.4-5-2-6-2,6Zm14.1-6.8h-4.2v11.8h-2.6V317.3h-4.2v-2.4h11v2.4Zm11.8,11.8h-10.1V314.9h10.1v2.3h-7.5v3.3h6.6v2.3h-6.6v3.9h7.5v2.4Z"/>
</svg>
